<?xml version="1.0" encoding="utf-8"?>
<!-- Generator: Adobe Illustrator 25.2.3, SVG Export Plug-In . SVG Version: 6.00 Build 0)  -->
<svg version="1.1" id="Layer_1" xmlns="http://www.w3.org/2000/svg" xmlns:xlink="http://www.w3.org/1999/xlink" x="0px" y="0px"
	 viewBox="0 0 15 15" style="enable-background:new 0 0 15 15;" xml:space="preserve">
<style type="text/css">
	.st0{opacity:0.8;}
	.st1{fill-rule:evenodd;clip-rule:evenodd;fill:#2C375F;}
</style>
<g id="Page-1" class="st0">
	<g id="Toggle-1-off" transform="translate(-15.000000, -11.000000)">
		<path id="info-circle" class="st1" d="M22.5,12.4c3.4,0,6.1,2.7,6.1,6.1s-2.7,6.1-6.1,6.1s-6.1-2.7-6.1-6.1S19.1,12.4,22.5,12.4
			 M22.5,11.5c-3.9,0-7,3.1-7,7s3.1,7,7,7s7-3.1,7-7c0-1.9-0.7-3.6-2.1-4.9C26.1,12.2,24.4,11.5,22.5,11.5z M21.5,21.2h0.3v-3.4
			h-0.3c-0.2,0-0.3-0.2-0.3-0.3v-0.2c0-0.1,0-0.2,0.1-0.2c0.1-0.1,0.1-0.1,0.2-0.1h1.4c0.2,0,0.3,0.2,0.3,0.3v4h0.3
			c0.2,0,0.3,0.2,0.3,0.3v0.2c0,0.2-0.2,0.3-0.3,0.3h-2c-0.2,0-0.3-0.2-0.3-0.3v-0.2C21.1,21.4,21.3,21.2,21.5,21.2L21.5,21.2z
			 M22.5,14.4c-0.5,0-0.9,0.4-0.9,0.9s0.4,0.9,0.9,0.9s0.9-0.4,0.9-0.9c0-0.2-0.1-0.5-0.3-0.6C23,14.5,22.7,14.4,22.5,14.4
			L22.5,14.4z"/>
	</g>
</g>
</svg>
