<?xml version="1.0" encoding="UTF-8"?>
<svg width="12px" height="11px" viewBox="0 0 12 11" version="1.1" xmlns="http://www.w3.org/2000/svg"
    xmlns:xlink="http://www.w3.org/1999/xlink">
    <title>AST:back</title>
    <g id="Page-1" stroke="none" stroke-width="1" fill="none" fill-rule="evenodd">
        <g id="LNK-2" transform="translate(-293.000000, -14.000000)" fill="#000000">
            <g id="Back-arrow"
                transform="translate(299.000000, 19.500000) scale(-1, 1) translate(-299.000000, -19.500000) translate(293.000000, 14.000000)">
                <path
                    d="M1.251744,6.427465 L8.4605136,6.427465 L5.6134032,9.22725711 C5.2428912,9.59063356 5.2428912,10.1788414 5.6134032,10.5415457 C5.9839152,10.9036046 6.5851872,10.9036046 6.9548928,10.5402147 L11.4160992,6.15368233 C11.784984,5.79130078 11.784984,5.20509611 11.4160992,4.84170622 L6.9544896,0.456168778 C6.7692336,0.275314111 6.5254704,0.183381 6.2829312,0.183381 C6.0399888,0.183381 5.7998832,0.274641889 5.6134032,0.455173889 C5.2428912,0.817878111 5.2428912,1.40574989 5.6134032,1.76880367 L8.46132,4.56925456 L1.251744,4.56925456 C0.727656,4.56925456 0.302712,4.985266 0.302712,5.49786233 C0.302712,6.01212578 0.727656,6.427465 1.251744,6.427465 Z"
                    id="AST:back"
                    transform="translate(6.000000, 5.500000) rotate(-180.000000) translate(-6.000000, -5.500000) ">
                </path>
            </g>
        </g>
    </g>
</svg>