<?xml version="1.0" encoding="UTF-8"?>
<svg width="24px" height="24px" viewBox="0 0 24 24" version="1.1" xmlns="http://www.w3.org/2000/svg" xmlns:xlink="http://www.w3.org/1999/xlink">
    <title>Icons/Account selector/category-default</title>
    <g id="Icons/Account-selector/category-default" stroke="none" stroke-width="1" fill="none" fill-rule="evenodd">
        <g id="Cat-default" transform="translate(2.000000, 2.000000)" fill="#23253E" fill-rule="nonzero">
            <path d="M10,0 C15.5228475,0 20,4.4771525 20,10 C20,15.5228475 15.5228475,20 10,20 C4.4771525,20 0,15.5228475 0,10 L0,10 L0.00384179753,9.72009516 C0.152068282,4.32667079 4.57076009,0 10,0 Z M17.2198152,10.5407046 C16.9412098,14.2860587 13.8134726,17.2374049 9.99733481,17.236 C6.18298224,17.2345948 3.05855887,14.2837078 2.7801776,10.5406427 L1.084,10.54 C1.34921764,15.2713681 5.26320429,18.9721 10.002,18.9721 C14.7407957,18.9721 18.6547824,15.2713681 18.92,10.54 L18.92,10.54 Z M12.3646951,4.29496437 C10.0585053,3.33839559 7.40316226,3.86545792 5.63715314,5.6303225 C3.87114403,7.39518709 3.34236036,10.0501879 4.29743384,12.3569973 C5.25250732,14.6638068 7.50329513,16.168 10,16.168 C13.4062271,16.1657968 16.1675885,13.4062249 16.1720013,10 L16.1720013,10 L16.1671744,9.75118494 C16.0725431,7.35461726 14.5940119,5.21964753 12.3646951,4.29496437 Z M10,12.696 C10.397645,12.696 10.72,13.018355 10.72,13.416 L10.72,13.416 L10.7134272,13.5136997 C10.6657513,13.8651323 10.3645079,14.136 10,14.136 C9.60235498,14.136 9.28,13.813645 9.28,13.416 C9.28,13.018355 9.60235498,12.696 10,12.696 Z M9.908,5.86 L10.0725556,5.86609564 C11.3236351,5.95376592 12.3227414,6.97313086 12.368,8.244 C12.4048414,9.32387566 11.7282099,10.2997866 10.704,10.644 L10.704,10.644 L10.69275,10.648375 C10.6725,10.657 10.632,10.678 10.632,10.708 L10.632,10.708 L10.632,11.28 L10.6254638,11.377157 C10.5780527,11.7266371 10.2784829,11.996 9.916,11.996 C9.52056412,11.996 9.2,11.6754359 9.2,11.28 L9.2,11.28 L9.2,10.7 C9.21008465,10.0479511 9.63497538,9.47499235 10.256,9.276 C10.6836753,9.13571673 10.9673036,8.72983482 10.952,8.28 C10.9226987,7.73082321 10.4738721,7.29771425 9.924,7.288 C9.53413604,7.29114701 9.18016939,7.51625738 9.012,7.868 L9.012,7.868 L8.988,7.912 C8.87402027,8.14680421 8.64130019,8.30098361 8.38063788,8.31438354 C8.11997558,8.32778347 7.87267219,8.19828074 7.73521565,7.97640218 C7.59775912,7.75452362 7.59192901,7.47542519 7.72,7.248 C8.12238219,6.40364703 8.97267902,5.86424484 9.908,5.86 L9.908,5.86 Z M10.002,1.03589999 C5.26320429,1.03589999 1.34921764,4.73663187 1.084,9.468 L1.084,9.468 L2.77896368,9.46797331 C3.04941415,5.7158683 6.17910244,2.756 10,2.756 C11.9208606,2.756 13.7629894,3.51933229 15.1208678,4.87796092 C16.3529068,6.11068062 17.0946535,7.74178447 17.2207609,9.4683017 L18.92,9.468 C18.6547824,4.73663187 14.7407957,1.03589999 10.002,1.03589999 Z" id="Combined-Shape"></path>
        </g>
    </g>
</svg>