<?xml version="1.0" encoding="UTF-8"?>
<svg width="13px" height="13px" viewBox="0 0 13 13" version="1.1" xmlns="http://www.w3.org/2000/svg" xmlns:xlink="http://www.w3.org/1999/xlink">
    <title>Components/Close</title>
    <g id="Page-1" stroke="none" stroke-width="1" fill="none" fill-rule="evenodd">
        <g id="RTL---Manage-budgets-Disclaimer-modal" transform="translate(-290.000000, -188.000000)" fill="#2C375F">
            <g id="disclaimer-modal" transform="translate(36.000000, 175.000000)">
                <g id="Components/Close" transform="translate(260.970000, 19.485281) rotate(-360.000000) translate(-260.970000, -19.485281) translate(254.970000, 13.485281)">
                    <path d="M11.6675865,0.333323724 C12.1053121,0.77104929 12.1073735,1.49048095 11.6928241,1.99733858 L11.5976223,2.10251711 L7.7,6 L11.5976223,9.89748289 C12.1054452,10.4053058 12.1371932,11.1970696 11.6666763,11.6675865 C11.2289507,12.1053121 10.5095191,12.1073735 10.0026614,11.6928241 L9.89748289,11.5976223 L6,7.7 L2.10251711,11.5976223 C1.59469417,12.1054452 0.80293044,12.1371932 0.332413467,11.6666763 C-0.105312099,11.2289507 -0.107373533,10.5095191 0.307175911,10.0026614 L0.402377688,9.89748289 L4.3,6 L0.402377688,2.10251711 C-0.105445247,1.59469417 -0.13719325,0.80293044 0.333323724,0.332413467 C0.77104929,-0.105312099 1.49048095,-0.107373533 1.99733858,0.307175911 L2.10251711,0.402377688 L6,4.3 L9.89748289,0.402377688 C10.4053058,-0.105445247 11.1970696,-0.13719325 11.6675865,0.333323724 Z" id="Combined-Shape"></path>
                </g>
            </g>
        </g>
    </g>
</svg>