<svg xmlns="http://www.w3.org/2000/svg" viewBox="0 0 16 16"><defs><style>.cls-1{fill:#616266;fill-rule:evenodd;}</style></defs><g id="Layer_2" data-name="Layer 2"><g id="Layer_1-2" data-name="Layer 1"><g id="Components_disclaimer" data-name="Components/disclaimer"><path id="Combined-Shape" class="cls-1" d="M8,0A8,8,0,1,1,0,8,8,8,0,0,1,8,0ZM8,1a7,7,0,1,0,7,7A7,7,0,0,0,8,1Zm-.15,9.63c.35,0,.35,0,.55.2s.21.21.21.52,0,.31-.21.51-.2.2-.55.2-.35,0-.55-.2-.21-.2-.21-.51,0-.31.21-.52S7.5,10.63,7.85,10.63ZM8,4.07a1.91,1.91,0,0,1,1.24.25A1.22,1.22,0,0,1,10,5a1.5,1.5,0,0,1,.27,1.12A1.3,1.3,0,0,1,10.1,7a2.07,2.07,0,0,1-.45.68,6,6,0,0,1-.72.72A1,1,0,0,0,8.55,9a1.48,1.48,0,0,0-.11.74H7.19v-.2a2.83,2.83,0,0,1,.08-.66,1.25,1.25,0,0,1,.26-.61,2.62,2.62,0,0,1,.52-.6,5.37,5.37,0,0,0,.49-.49,1.17,1.17,0,0,0,.27-.41.81.81,0,0,0,.11-.52c0-.49,0-.49-.24-.75S8.45,5.18,8,5.18a.75.75,0,0,0-.72.25C7,5.67,7,5.67,7,6.15H5.63V6a1.34,1.34,0,0,1,.3-1,1.29,1.29,0,0,1,.84-.7A1.94,1.94,0,0,1,8,4.07Z"/></g></g></g></svg>