<svg width="16" height="16" viewBox="0 0 16 16" fill="none" xmlns="http://www.w3.org/2000/svg">
    <path fill-rule="evenodd" clip-rule="evenodd" d="M6.51282 8.68271L9.21374 5.85854C9.98542 5.05155 10.7568 4.24485 11.5279 3.43845C12.0873 2.85546 12.3919 2.85546 12.9411 3.42885C13.2125 3.71249 13.495 3.98478 13.7525 4.28151C13.9128 4.42384 14.0026 4.62325 13.9999 4.83116C13.9973 5.03906 13.9025 5.23638 13.7386 5.37505C11.5288 7.6907 9.31497 10.0014 7.09713 12.3072C6.7279 12.6894 6.42236 12.6999 6.0559 12.3238C4.77221 11.0042 3.49775 9.67501 2.23253 8.33624C1.92791 8.03734 1.92185 7.56596 2.21868 7.26015C2.52422 6.90495 2.85191 6.56982 3.18514 6.24254C3.31455 6.06794 3.52717 5.96543 3.75265 5.96893C3.97813 5.97242 4.18708 6.08147 4.31037 6.26C4.91221 6.8744 5.50759 7.49579 6.09651 8.12416C6.24567 8.30322 6.38464 8.48967 6.51282 8.68271Z" fill="#1F3B73" />
</svg>
    