<svg width="18" height="18" viewBox="0 0 18 18" fill="none" xmlns="http://www.w3.org/2000/svg">
    <circle cx="9" cy="9" r="9" fill="#A61011" />
    <path fill-rule="evenodd" clip-rule="evenodd" d="M12.7585 11.0617C12.4178 10.7069 12.069 10.3603 11.7172 10.0144L10.7041 9.00205L12.6983 7.01088C12.9615 6.76983 13.1027 6.42336 13.0828 6.06698C13.0715 5.59647 12.778 5.17906 12.339 5.00928C11.9093 4.81656 11.4053 4.9069 11.0693 5.23689C10.8558 5.43474 10.6513 5.64152 10.4468 5.84905L9.00004 7.29724L6.99696 5.29342C6.76241 5.04854 6.43676 4.91197 6.0977 4.91631C5.51055 4.92603 5.01523 5.3561 4.92322 5.93607L4.90909 6.22616L4.92991 6.33847C4.94107 6.38608 4.95297 6.43294 4.96785 6.4798C5.0311 6.67809 5.14342 6.85718 5.29438 7.00046L7.29523 8.99982L6.89878 9.39627C6.37514 9.92041 5.85075 10.4436 5.32562 10.9657C5.12181 11.1545 4.98347 11.4033 4.93066 11.6761L4.90983 11.9877L4.93884 12.1305C5.03929 12.6173 5.43 12.9914 5.92067 13.0707L6.2234 13.0893L6.36398 13.0618C6.60935 13.0078 6.83308 12.8819 7.00663 12.7003L9.00153 10.7039L9.72823 11.4313C10.1423 11.8449 10.5558 12.2592 10.9689 12.6742C11.1577 12.8785 11.4069 13.0169 11.68 13.0692L12.0192 13.09L12.1575 13.0543C12.5823 12.9577 12.9213 12.6382 13.0426 12.2198C13.1647 11.8108 13.056 11.3677 12.7585 11.0617Z" fill="white" />
</svg>
    