<svg width="16" height="16" viewBox="0 0 16 16" fill="none" xmlns="http://www.w3.org/2000/svg">
    <path fill-rule="evenodd" clip-rule="evenodd" d="M12.5937 10.5198C12.1774 10.0862 11.751 9.66253 11.321 9.2398L10.0828 8.00252L12.5201 5.56885C12.8418 5.27424 13.0144 4.85078 12.9901 4.4152C12.9763 3.84013 12.6175 3.32997 12.081 3.12246C11.5558 2.88691 10.9399 2.99732 10.5292 3.40065C10.2683 3.64247 10.0183 3.8952 9.76825 4.14884L8.00005 5.91886L5.55185 3.46974C5.26517 3.17044 4.86715 3.00353 4.45274 3.00882C3.73512 3.02071 3.12973 3.54635 3.01727 4.2552L3 4.60975L3.02545 4.74703C3.03909 4.80521 3.05364 4.86248 3.07182 4.91975C3.14912 5.16211 3.2864 5.381 3.47091 5.55613L5.91639 7.99979L5.43184 8.48434C4.79184 9.12495 4.15092 9.76435 3.5091 10.4025C3.26 10.6333 3.09091 10.9374 3.02636 11.2707L3.00091 11.6516L3.03636 11.8262C3.15914 12.4211 3.63667 12.8784 4.23638 12.9753L4.60638 12.998L4.7782 12.9644C5.0781 12.8984 5.35155 12.7446 5.56366 12.5226L8.00187 10.0825L8.89006 10.9716C9.39613 11.4771 9.90159 11.9835 10.4064 12.4907C10.6371 12.7404 10.9417 12.9095 11.2755 12.9735L11.6901 12.9989L11.8592 12.9553C12.3784 12.8372 12.7926 12.4467 12.941 11.9353C13.0902 11.4354 12.9573 10.8939 12.5937 10.5198Z" fill="#A61011" />
</svg>
    