<svg width="18" height="18" viewBox="0 0 18 18" fill="none" xmlns="http://www.w3.org/2000/svg">
    <circle r="9" transform="matrix(1 0 0 -1 9 9)" fill="#1F3B73" />
    <path fill-rule="evenodd" clip-rule="evenodd" d="M7.78321 9.55858L9.99305 7.24789C10.6244 6.58763 11.2556 5.92761 11.8864 5.26782C12.3441 4.79083 12.5934 4.79083 13.0427 5.25996C13.2648 5.49203 13.4959 5.71482 13.7066 5.9576C13.8377 6.07405 13.9112 6.2372 13.909 6.40731C13.9069 6.57741 13.8293 6.73886 13.6952 6.85231C11.8872 8.74694 10.0759 10.6375 8.26128 12.5241C7.95918 12.8368 7.7092 12.8454 7.40937 12.5376C6.35908 11.458 5.31634 10.3705 4.28115 9.2751C4.03193 9.03055 4.02696 8.64488 4.26982 8.39467C4.51981 8.10405 4.78792 7.82985 5.06056 7.56208C5.16645 7.41922 5.34041 7.33535 5.52489 7.33821C5.70937 7.34107 5.88033 7.43029 5.9812 7.57636C6.47362 8.07906 6.96075 8.58746 7.4426 9.10158C7.56464 9.24809 7.67834 9.40064 7.78321 9.55858Z" fill="white" />
</svg>
    