<?xml version="1.0" encoding="UTF-8"?>
<svg width="24px" height="24px" viewBox="0 0 24 24" version="1.1" xmlns="http://www.w3.org/2000/svg" xmlns:xlink="http://www.w3.org/1999/xlink">
    <title>Icons/Account selector/account-default</title>
    <g id="Icons/Account-selector/account-default" stroke="none" stroke-width="1" fill="none" fill-rule="evenodd">
        <g id="Group" transform="translate(2.000000, 2.000000)" fill="#23253E">
            <path d="M10,0 C4.48253636,0 0,4.48254545 0,10 C0,15.5174545 4.48253636,20 10,20 C15.5174636,20 20,15.5174545 20,10 C20,4.48254545 15.5174636,0 10,0 Z M10,0.909090909 C15.0261545,0.909090909 19.0909091,4.97381818 19.0909091,10 C19.0909091,15.0261818 15.0261545,19.0909091 10,19.0909091 C4.97384545,19.0909091 0.909090909,15.0261818 0.909090909,10 C0.909090909,4.97381818 4.97384545,0.909090909 10,0.909090909 Z M10,3.18181818 C8.24811818,3.18181818 6.81818182,4.61172727 6.81818182,6.36363636 C6.81818182,7.42372727 7.34638182,8.35936364 8.14808182,8.93818182 C5.79479091,9.71736364 4.09084265,11.9343636 4.09084265,14.5454545 C4.08181818,15.1601818 5.00869091,15.1601818 5,14.5454545 C5,11.7786364 7.23319091,9.54545455 10,9.54545455 C12.7668091,9.54545455 15,11.7786364 15,14.5454545 C14.9909091,15.1601818 15.9177818,15.1601818 15.9091516,14.5454545 C15.9091516,11.9343636 14.2052091,9.71736364 11.8519182,8.93818182 C12.6536182,8.35936364 13.1818182,7.42372727 13.1818182,6.36363636 C13.1818182,4.61172727 11.7518818,3.18181818 10,3.18181818 Z M10,4.09090909 C11.2605727,4.09090909 12.2727273,5.10309091 12.2727273,6.36363636 C12.2727273,7.62418182 11.2605727,8.63636364 10,8.63636364 C8.73942727,8.63636364 7.72727273,7.62418182 7.72727273,6.36363636 C7.72727273,5.10309091 8.73942727,4.09090909 10,4.09090909 Z" id="Shape"></path>
        </g>
    </g>
</svg>