<?xml version="1.0" encoding="UTF-8"?>
<svg width="158px" height="127px" viewBox="0 0 158 127" version="1.1" xmlns="http://www.w3.org/2000/svg" xmlns:xlink="http://www.w3.org/1999/xlink">
    <title>Images/Error message/technical_issue</title>
    <g id="Images/Error-message/technical_issue" stroke="none" stroke-width="1" fill="none" fill-rule="evenodd">
        <g id="Technical-issue" transform="translate(0.570000, 0.500000)">
            <circle id="Oval" fill="#FF6C53" cx="37.58" cy="37.58" r="37.58"></circle>
            <path d="M98.43,94.71 C108.070079,103.39 104.06,118.54 104.06,118.54 C108.47,120.47 108.06,123.99 108.06,125.47 L41.89,125.55 C41.45,124.89 40.96,121.72 44.3,119.89 C44.3,119.89 38.71,110.64 44.22,101.89 L98.43,94.71 Z" id="White-fill" fill="#FFFFFF"></path>
            <path d="M31.21,19.59 L43.68,102.2 L99.15,94.77 L34.15,18.85 C34.15,18.85 30.13,13.56 31.21,19.59 Z" id="Path" fill="#0275BE"></path>
            <path d="M155.62,124.5 C156.172285,124.5 156.62,124.947715 156.62,125.5 C156.62,126.052285 156.172285,126.5 155.62,126.5 L112.82,126.5 C112.267715,126.5 111.82,126.052285 111.82,125.5 C111.82,124.947715 112.267715,124.5 112.82,124.5 L155.62,124.5 Z M35.79,124.5 C36.3422847,124.5 36.79,124.947715 36.79,125.5 C36.79,126.052285 36.3422847,126.5 35.79,126.5 L1.55,126.5 C0.99771525,126.5 0.55,126.052285 0.55,125.5 C0.55,124.947715 0.99771525,124.5 1.55,124.5 L35.79,124.5 Z M34.8624453,18.087351 L34.98,18.24 L99.91,94.14 C100.106909,94.3760041 100.184348,94.68945 100.12,94.99 C107.72,102.92 105.88,114.78 105.2,117.99 C107.749359,119.292163 109.268513,121.983823 109.082459,124.823395 L109.06,125.09 L109.06,125.42 C109.06,125.932836 108.67396,126.355507 108.176621,126.413272 L108.06,126.42 L41.89,126.500035 C41.5519353,126.501632 41.2359338,126.332346 41.05,126.05 C40.5347851,125.024711 40.4241229,123.843125 40.74,122.74 C41.0713493,121.425136 41.8669159,120.274406 42.98,119.5 C41.74,117.09 38.85,109.81 42.74,102.5 C42.7219989,102.466975 42.7084477,102.431805 42.6996332,102.395405 L42.69,102.34 L30.23,19.76 C29.93,18.12 29.73,16.42 31.03,15.83 C32.2835714,15.2610714 33.7882015,16.7099107 34.8624453,18.087351 Z M98.22,95.9 L44.7,103.07 C41.5879747,108.57 43.0272633,114.273573 44.1889856,117.25842 L44.3143856,117.573114 C44.6883175,118.489952 45.0130758,119.100244 45.1160515,119.299532 L45.1461021,119.359473 C45.1486797,119.365168 45.15,119.36869 45.15,119.37 C45.2933126,119.603092 45.3348521,119.884727 45.2649375,120.149269 C45.1950229,120.413811 45.0197618,120.638149 44.78,120.77 C43.7931271,121.246304 43.0448703,122.106618 42.71,123.15 C42.6044096,123.52939 42.5631963,123.92323 42.587527,124.315184 L42.61,124.55 L107.07,124.46 C107.184279,122.213839 105.784788,120.1678 103.65,119.46 C103.192841,119.263305 102.949899,118.760372 103.08,118.28 C103.12,118.14 106.67,104.13 98.22,95.9 Z M77.11,112.22 C80.5848781,112.22 83.4080071,115.025191 83.43,118.5 C83.43,119.118559 82.9285589,119.62 82.31,119.62 L82.31,119.62 L71.91,119.62 C71.2914411,119.62 70.79,119.118559 70.79,118.5 C70.8174258,115.027475 73.6373705,112.225378 77.11,112.22 Z M75.686322,106.381948 C76.103399,106.780067 76.3365066,107.33345 76.33,107.91 C76.3583527,108.19207 76.2656508,108.472919 76.0749539,108.682685 C75.884257,108.892452 75.6134878,109.011421 75.33,109.010013 C74.7777153,109.010013 74.33,108.562285 74.33,108.01 C74.33,107.93 74.26,107.91 74.13,107.91 L72.23,107.91 C72.1642172,107.894648 72.0957828,107.894648 72.03,107.91 C72.03,108.462285 71.5822847,108.91 71.03,108.91 C70.4777153,108.91 70.03,108.462285 70.03,107.91 C70.0234934,107.33345 70.256601,106.780067 70.673678,106.381948 C71.090755,105.983829 71.654376,105.776699 72.23,105.81 L74.13,105.81 C74.705624,105.776699 75.269245,105.983829 75.686322,106.381948 Z M83.586322,106.381948 C84.003399,106.780067 84.2365066,107.33345 84.23,107.91 C84.2583527,108.19207 84.1656508,108.472919 83.9749539,108.682685 C83.784257,108.892452 83.5134878,109.011421 83.23,109.010013 C82.6777153,109.010013 82.23,108.562285 82.23,108.01 C82.23,107.93 82.16,107.91 82.03,107.91 L80.13,107.91 C80.0642172,107.894648 79.9957828,107.894648 79.93,107.91 C79.93,108.462285 79.4822847,108.91 78.93,108.91 C78.3777153,108.91 77.93,108.462285 77.93,107.91 C77.9234934,107.33345 78.156601,106.780067 78.573678,106.381948 C78.990755,105.983829 79.554376,105.776699 80.13,105.81 L82.03,105.81 C82.605624,105.776699 83.169245,105.983829 83.586322,106.381948 Z M54.16,91.72 L44.3,99.56 L44.51,100.94 L44.6175067,100.97342 L44.6175067,100.97342 L44.72,101.02 L60.41,98.92 L54.16,91.72 Z M69.72,79.38 L55.72,90.5 L62.78,98.6 L83.94,95.79 L69.72,79.38 Z M40.78,76.33 L43.95,97.31 L52.84,90.23 L40.78,76.33 Z M78.6,72.29 L71.26,78.13 L86.19,95.36 L86.2344267,95.4274705 L86.2344267,95.4274705 L86.27,95.5 L97.2,93.99 L78.6,72.29 Z M55.43,62.95 L41.43,74.06 L54.41,88.92 L68.43,77.87 L55.43,62.95 Z M64.43,55.76 L57,61.7 L69.94,76.62 L77.3,70.77 L64.43,55.76 Z M41.49,46.87 L37.15,50.62 L37.043278,50.6905474 L37.043278,50.6905474 L36.93,50.75 L40.21,72.5 L54.12,61.43 L41.49,46.87 Z M50.33,39.25 L43,45.57 L55.69,60.19 L63.16,54.24 L50.33,39.25 Z M35.26,39.7 L36.58,48.5 L40.18,45.36 L35.26,39.7 Z M32.03,18.08 C32.0467434,18.4376117 32.0828877,18.7939624 32.1382452,19.1474821 L32.2,19.5 L34.72,36.11 C34.7753113,36.1417372 34.8280506,36.17767 34.8777617,36.2174613 L34.95,36.28 L41.69,44.06 L49.03,37.73 L33.43,19.5 C33.0123144,18.9807545 32.543269,18.5050084 32.03,18.08 Z" id="Combined-Shape" fill="#23253E" fill-rule="nonzero"></path>
        </g>
    </g>
</svg>