<?xml version="1.0" encoding="UTF-8"?>
<svg width="158px" height="128px" viewBox="0 0 158 128" version="1.1" xmlns="http://www.w3.org/2000/svg" xmlns:xlink="http://www.w3.org/1999/xlink">
    <title>Images/Error message/no_new_insights</title>
    <g id="Images/Error-message/no_new_insights" stroke="none" stroke-width="1" fill="none" fill-rule="evenodd">
        <g id="No_new_insights">
            <circle id="Oval" fill="#FF6C53" cx="38.15" cy="38.08" r="37.58"></circle>
            <path d="M87.26,44.42 L87.19,17 L34.52,17.18 L34.85,113.11 C34.8775393,120.270168 40.6897792,126.06 47.85,126.06 L74.57,126 L98.83,125.92 L103,125.92 C109.252124,125.881508 114.300118,120.802242 114.3,114.55 L114.3,110.88 L114.25,97.38 L114.11,55.7 C114.098894,49.4471245 119.147202,44.363045 125.4,44.33 L87.26,44.42 Z" id="White-fill" fill="#FFFFFF"></path>
            <path d="M114.29,112.66 L114.099982,55.66 C114.088894,49.4071245 119.137202,44.323045 125.39,44.2899953 L125.39,44.2899953 C131.640619,44.284379 136.721486,49.3294968 136.76,55.58 L136.96,112.33 L114.29,112.66 Z" id="Path" fill="#0275BE"></path>
            <path d="M87.19,16 C87.7028358,16 88.1255072,16.3860402 88.1832723,16.8833789 L88.19,17 L88.26,43.41 L125.39,43.29 C132.091987,43.2736275 137.561481,48.6037809 137.754858,55.2662566 L137.76,55.57 L137.96,112.32 C137.96,112.832836 137.57396,113.255507 137.076621,113.313272 L136.96,113.32 L115.29,113.63 L115.29,114.5 C115.306358,121.205815 109.97031,126.67693 103.30392,126.865099 L103,126.87 L100.85,126.87 L47.85,127.05 C40.2417207,127.05 34.0469978,120.979896 33.8545193,113.411847 L33.85,113.1 L33.52,17.18 C33.52,16.6671642 33.9060402,16.2444928 34.4033789,16.1867277 L34.52,16.18 L87.19,16 Z M156.19,125 C156.742285,125 157.19,125.447715 157.19,126 C157.19,126.552285 156.742285,127 156.19,127 L113.39,127 C112.837715,127 112.39,126.552285 112.39,126 C112.39,125.447715 112.837715,125 113.39,125 L156.19,125 Z M36.36,125 C36.9122847,125 37.36,125.447715 37.36,126 C37.36,126.552285 36.9122847,127 36.36,127 L2.12,127 C1.56771525,127 1.12,126.552285 1.12,126 C1.12,125.447715 1.56771525,125 2.12,125 L36.36,125 Z M86.19,18 L35.58,18.19 L35.9,113.12 C35.9271095,119.626223 41.128261,124.905328 47.595916,125.066222 L47.9,125.07 L92.1,124.9 C88.6924048,122.703247 86.5913248,118.974454 86.465897,114.936811 L86.46,114.59 L86.19,18 Z M118.599,45.289 L88.27,45.39 L88.46,114.58 C88.487088,120.189349 92.9722027,124.737229 98.5456812,124.876742 L98.83,124.88002 L103,124.88002 C108.59399,124.847573 113.131102,120.38156 113.285921,114.823536 L113.29,114.54 L113.29,112.69 L113.1,55.69 C113.096461,55.2054727 113.12318,54.7211971 113.18,54.24 C113.25,54.09 113.25,53.95 113.25,53.8 C113.3,53.46 113.36,53.13 113.44,52.8 C113.48,52.65 113.56,52.49 113.56,52.34 C113.65,51.99 113.76,51.66 113.88,51.34 C113.92,51.22 113.96,51.1 114.01,50.98 C114.18,50.55 114.38,50.14 114.59,49.73 C114.636924,49.6622873 114.680315,49.5921937 114.72,49.52 C114.903454,49.168499 115.107129,48.8279277 115.33,48.5 C115.41,48.37 115.41,48.38 115.6,48.13 C115.726667,47.9633333 115.857778,47.7966667 115.993333,47.632963 L116.2,47.39 L116.51,47.06 C116.676667,46.88 116.847778,46.7088889 117.023333,46.5437037 L117.29,46.3 L117.5,46.11 C117.851453,45.8168292 118.218667,45.5430876 118.6,45.29 L118.599,45.289 Z M125.435,45.2749394 C119.824984,45.2940068 115.274615,49.7814966 115.142817,55.3556485 L115.139939,55.64 L115.33,111.64 L136,111.34 L135.8,55.57 C135.78067,49.8648985 131.140101,45.25567 125.435,45.2749394 Z M65.85,61.78 C66.1486893,61.7745181 66.4367619,61.8907565 66.6480027,62.1019973 C66.8592435,62.3132381 66.9754819,62.6013107 66.97,62.9 C67.0621831,65.2160729 65.8791188,67.3967762 63.8872967,68.5822449 C61.8954745,69.7677135 59.4145255,69.7677135 57.4227033,68.5822449 C55.4308812,67.3967762 54.2478169,65.2160729 54.34,62.9 C54.3399755,62.2853254 54.8353499,61.7854882 55.45,61.78 L55.45,61.78 Z M59.1892282,56.5646917 C59.6082182,56.9609311 59.8439007,57.5133345 59.8400477,58.09 C59.8291087,58.6344587 59.3845676,59.0701089 58.84,59.07 C58.2877153,59.07 57.84,58.6222847 57.84,58.07 C57.84,58 57.76,57.97 57.64,57.97 L55.74,57.97 C55.6747524,57.9505469 55.6052476,57.9505469 55.54,57.97 C55.54,58.5222847 55.0922847,58.97 54.54,58.97 C53.9877153,58.97 53.54,58.5222847 53.54,57.97 C53.5684146,57.4180727 53.8153116,56.9001441 54.2261925,56.5305389 C54.6370735,56.1609337 55.1781543,55.9700419 55.73,56 L57.63,56 C58.2055504,55.9639444 58.7702382,56.1684523 59.1892282,56.5646917 Z M67.0570657,56.5336173 C67.4732388,56.9102445 67.7195327,57.4390819 67.74,58 C67.74,58.5522847 67.2922847,59 66.74,59 C66.1877153,59 65.74,58.5522847 65.74,58 C65.74,57.93 65.66,57.9 65.54,57.9 L63.64,57.9 C63.5747524,57.8805469 63.5052476,57.8805469 63.44,57.9 C63.44,58.4522847 62.9922847,58.9 62.44,58.9 C61.8877153,58.9 61.44,58.4522847 61.44,57.9 C61.5356146,56.7784104 62.5061403,55.9364019 63.63,56 L65.53,56 C66.0901705,55.964546 66.6408927,56.1569902 67.0570657,56.5336173 Z" id="Combined-Shape" fill="#23253E" fill-rule="nonzero"></path>
        </g>
    </g>
</svg>