<?xml version="1.0" encoding="UTF-8"?>
<svg width="158px" height="144px" viewBox="0 0 158 144" version="1.1" xmlns="http://www.w3.org/2000/svg" xmlns:xlink="http://www.w3.org/1999/xlink">
    <title>Images/Error message/unread_messages</title>
    <g id="Images/Error-message/unread_messages" stroke="none" stroke-width="1" fill="none" fill-rule="evenodd">
        <g id="Group-2" transform="translate(-17.000000, 14.000000)">
            <circle id="Oval-Copy-15" fill="#FF6C53" cx="52.901" cy="46.879258" r="35.701"></circle>
            <g id="Group" transform="translate(86.423457, 84.333420) rotate(-17.000000) translate(-86.423457, -84.333420) translate(16.423457, 17.833420)">
                <polygon id="White-fill" fill="#FFFFFF" points="85.1624925 2.28028376 33.3161475 40.1037738 33.3161475 100.203434 137.606482 100.203434 137.606482 40.1089038"></polygon>
                <path d="M86.2865708,60.705 L137.629043,100.89 L63.2426474,77.4552649 L86.2865708,60.705 Z M137.629043,40.1879306 L137.629043,99.9461358 L108.927001,55.8453897 L137.629043,40.1879306 Z M33.3599868,40.1879306 L61.3361446,55.8453897 L33.3599868,99.0409569 L33.3599868,40.1879306 Z" id="Combined-Shape" fill="#0275BE"></path>
                <path d="M119.346781,127.202059 L130.691128,130.670374 C131.415119,130.89172 131.871131,131.499309 131.709659,132.027462 C131.548186,132.555614 130.830376,132.80433 130.106384,132.582983 L118.762037,129.114668 C118.038046,128.893322 117.582034,128.285733 117.743507,127.757581 C117.904979,127.229428 118.622789,126.980713 119.346781,127.202059 Z M45.7311899,104.695514 L107.167756,123.478557 C108.219592,123.800136 108.941375,124.488979 108.779902,125.017132 C108.61843,125.545284 107.634849,125.712746 106.583012,125.391167 L45.1464465,106.608124 C44.0946099,106.286545 43.3728272,105.597702 43.5342996,105.069549 C43.6957721,104.541397 44.6793533,104.373936 45.7311899,104.695514 Z M85.2006859,2.10484075e-10 L139.359902,39.0663563 L139.359621,39.898 L139.459319,40.0837015 L139.359621,40.136 L139.359902,101.745 L31.65,101.745 L31.6496215,40.136 L31.5516215,40.0842566 L31.6496215,39.9 L31.65,39.0663563 L85.2006859,2.10484075e-10 Z M85.5061406,62.1684805 L35.3646215,100.035 L135.718621,100.035 L85.5061406,62.1684805 Z M33.3586215,41.049 L33.3586215,99.497 L78.6386215,65.22 L33.3586215,41.049 Z M137.648621,41.052 L92.4366215,65.268 L137.648621,99.478 L137.648621,41.052 Z M2.29918104,91.4170165 L21.710772,97.3517355 C22.4347634,97.5730819 22.8907751,98.1806708 22.7293027,98.7088233 C22.5678302,99.2369758 21.85002,99.4856914 21.1260286,99.264345 L1.71443763,93.3296261 C0.990446243,93.1082797 0.53443453,92.5006908 0.695906964,91.9725382 C0.857379398,91.4443857 1.57518965,91.1956702 2.29918104,91.4170165 Z M85.20549,2.11185 L34.0116215,39.459 L80.1406215,64.084 L85.5049838,60.0231867 L90.9356215,64.133 L136.990621,39.466 L85.20549,2.11185 Z M92.1794077,32.51077 C92.4558835,32.5056384 92.7225321,32.6144486 92.9180629,32.8121899 C93.1135937,33.0099312 93.2211875,33.2795944 93.2161133,33.5591958 C93.3014408,35.7272587 92.206361,37.7686028 90.3626706,38.8783134 C88.5189803,39.9880241 86.2225395,39.9880241 84.3788492,38.8783134 C82.5351589,37.7686028 81.440079,35.7272587 81.5254065,33.5591958 C81.5253838,32.9838023 81.9839172,32.5159075 82.5528558,32.51077 L82.5528558,32.51077 Z M82.6395294,26.2113852 L82.8307908,26.2141745 L84.7307765,26.2141745 C85.282618,26.1878619 85.8236947,26.3555247 86.2345726,26.6801539 C86.6454504,27.0047831 86.8923456,27.4596866 86.9207599,27.9444517 C86.9207599,28.4295308 86.473048,28.822765 85.9207599,28.822765 C85.3684869,28.822765 84.920775,28.4295308 84.920775,27.9444517 C84.8555279,27.9273658 84.7860236,27.9273658 84.7207766,27.9444517 L84.7207766,27.9444517 L82.8207909,27.9444517 C82.7007918,27.9444517 82.6207924,27.9708011 82.6207924,28.0322831 C82.6207924,28.5173621 82.1730806,28.9105964 81.6208,28.9105964 C81.0762365,28.910692 80.6316988,28.5280547 80.6207599,28.0498493 C80.6169069,27.5433564 80.8525876,27.0581731 81.2715745,26.7101507 C81.6905613,26.3621284 82.2552448,26.1825063 82.8307908,26.2141745 Z M91.9307599,26.2143329 C93.0546196,26.1571738 94.0251453,26.9139328 94.1207599,27.9219665 C94.1207599,28.4183349 93.6730447,28.8207209 93.1207599,28.8207209 C92.5684752,28.8207209 92.1207599,28.4183349 92.1207599,27.9219665 C92.0555123,27.9044829 91.9860075,27.9044829 91.9207599,27.9219665 L91.9207599,27.9219665 L90.0207599,27.9219665 C89.9007599,27.9219665 89.8207599,27.9489291 89.8207599,28.0118419 C89.8207599,28.5082103 89.3730447,28.9105964 88.8207599,28.9105964 C88.2684752,28.9105964 87.8207599,28.5082103 87.8207599,28.0118419 C87.8412272,27.5077143 88.0875211,27.0324193 88.5036942,26.6939239 C88.9198672,26.3554286 89.4705894,26.1824685 90.0307599,26.2143329 L90.0307599,26.2143329 Z" id="Combined-Shape" fill="#23253E" fill-rule="nonzero"></path>
            </g>
        </g>
    </g>
</svg>