<?xml version="1.0" encoding="UTF-8"?>
<svg width="10px" height="10px" viewBox="0 0 10 10" version="1.1" xmlns="http://www.w3.org/2000/svg" xmlns:xlink="http://www.w3.org/1999/xlink">
    <title>Components/Check_box_checked</title>
    <g id="Components/Check_box_checked" stroke="none" stroke-width="1" fill="none" fill-rule="evenodd">
        <path d="M8.63636364,0 C9.3894792,0 10,0.610520796 10,1.36363636 L10,1.36363636 L10,8.63636364 C10,9.3894792 9.3894792,10 8.63636364,10 L8.63636364,10 L1.36363636,10 C0.610520796,10 0,9.3894792 0,8.63636364 L0,8.63636364 L0,1.36363636 C0,0.610520796 0.610520796,0 1.36363636,0 L1.36363636,0 Z M8.55555556,1 L1.44444444,1 C1.19898456,1 1,1.19898456 1,1.44444444 L1,1.44444444 L1,8.55555556 C1,8.80101544 1.19898456,9 1.44444444,9 L1.44444444,9 L8.55555556,9 C8.80101544,9 9,8.80101544 9,8.55555556 L9,8.55555556 L9,1.44444444 C9,1.19898456 8.80101544,1 8.55555556,1 L8.55555556,1 Z M7.7533812,2.54990812 C7.82512127,2.48336396 7.94144246,2.48336396 8.01318253,2.54990812 L8.01318253,2.54990812 L8.44619495,2.9515588 C8.51793502,3.01811717 8.51793502,3.12601357 8.44619495,3.19255773 L8.44619495,3.19255773 L3.85622351,7.45009188 C3.78446813,7.51663604 3.66814694,7.51663604 3.59640687,7.45009188 L3.59640687,7.45009188 L1.55380505,5.55542933 C1.48206498,5.48887096 1.48206498,5.38097456 1.55380505,5.3144304 L1.55380505,5.3144304 L1.98681747,4.91277972 C2.05857285,4.84623555 2.17489404,4.84623555 2.24663411,4.91277972 L2.24663411,4.91277972 L3.72632285,6.28529922 Z" id="Combined-Shape" fill="#2C375F"></path>
    </g>
</svg>