<?xml version="1.0" encoding="UTF-8"?>
<svg width="12px" height="12px" viewBox="0 0 12 12" version="1.1" xmlns="http://www.w3.org/2000/svg" xmlns:xlink="http://www.w3.org/1999/xlink">
    <title>Components/Pen</title>
    <g id="2021.2" stroke="none" stroke-width="1" fill="none" fill-rule="evenodd">
        <g id="Editing-modal---Additional-info-full-screen-length" transform="translate(-268.000000, -477.000000)" fill="#2C375F">
            <g id="Components/Pen" transform="translate(268.000000, 477.000000)">
                <path d="M6.71405888,2.6622282 L9.34005054,5.2872282 L3.63789722,10.9872282 L1.29626295,11.2444782 C1.14762946,11.260901 0.999587934,11.2088857 0.893921098,11.1031128 C0.788254261,10.99734 0.736423671,10.8492827 0.753057813,10.7007282 L1.01340613,8.3584782 L6.71555945,2.6584782 L6.71405888,2.6622282 Z M10.9614128,2.2714782 L9.73169844,1.0384782 C9.54694803,0.853770184 9.29635627,0.75 9.03506037,0.75 C8.77376447,0.75 8.5231727,0.853770184 8.33842229,1.0384782 L7.17848426,2.1979782 L9.80447592,4.8229782 L10.9614128,3.6634782 C11.1461906,3.47879756 11.25,3.22830042 11.25,2.9671032 C11.25,2.70590597 11.1461906,2.45540884 10.9614128,2.2707282 L10.9614128,2.2714782 Z" id="pen"></path>
            </g>
        </g>
    </g>
</svg>