<?xml version="1.0" encoding="utf-8"?>
<!-- Generator: Adobe Illustrator 24.1.2, SVG Export Plug-In . SVG Version: 6.00 Build 0)  -->
<svg version="1.1" id="Layer_1" xmlns="http://www.w3.org/2000/svg" xmlns:xlink="http://www.w3.org/1999/xlink" x="0px" y="0px"
     viewBox="0 0 15 15" style="enable-background:new 0 0 15 15;" xml:space="preserve">
<style type="text/css">
	.st0{fill:#2C375F;}
</style>
    <g id="Stroke-3">
	<path class="st0" d="M6.2,7.9C5.7,7.9,5.3,7.7,5,7.4C4.6,7,4.5,6.6,4.5,6.2c0-0.9,0.8-1.7,1.7-1.7c1,0,1.7,0.8,1.7,1.7
		C7.9,7.1,7.1,7.8,6.2,7.9L6.2,7.9C6.2,7.9,6.2,7.9,6.2,7.9z M6.2,5.5C6.2,5.5,6.2,5.5,6.2,5.5c-0.4,0-0.7,0.3-0.7,0.7
		c0,0.2,0.1,0.4,0.2,0.5C5.8,6.8,6,6.9,6.2,6.9c0,0,0,0,0,0l0,0c0.4,0,0.7-0.3,0.7-0.7C6.9,5.8,6.5,5.5,6.2,5.5z"/>
</g>
    <path class="st0" d="M14,7.6L8.4,2C8.1,1.7,7.6,1.5,7.1,1.5L3.5,1.8C3.1,1.9,2.8,2,2.6,2.2L1.1,0.7c-0.1-0.1-0.3-0.1-0.4,0
	S0.5,1,0.6,1.1l1.5,1.5C2,2.9,1.9,3.2,1.8,3.5L1.5,6.9C1.5,7.5,1.6,8,2,8.4L7.6,14c0.4,0.4,0.8,0.5,1.3,0.5s0.9-0.2,1.3-0.5l3.8-3.8
	C14.7,9.5,14.7,8.3,14,7.6z M13.3,9.4l-3.8,3.8c-0.3,0.3-0.8,0.3-1.1,0L2.7,7.7C2.6,7.5,2.5,7.3,2.5,7l0.3-3.5c0-0.1,0-0.1,0.1-0.2
	L4,4.5c0.1,0.1,0.3,0.1,0.4,0c0.1-0.1,0.1-0.3,0-0.4L3.3,2.9c0.1,0,0.2-0.1,0.3-0.1L7,2.5l0.1,0c0.2,0,0.4,0.1,0.6,0.2l5.6,5.6
	C13.6,8.6,13.6,9.1,13.3,9.4z"/>
</svg>
