<svg width="128" height="128" viewBox="0 0 128 128" fill="none" xmlns="http://www.w3.org/2000/svg">
<path d="M29.4411 96.6376H55.5019C56.2447 99.1155 58.0225 101.151 60.3776 102.221C62.7333 103.291 65.4354 103.291 67.7911 102.221C70.1462 101.151 71.9241 99.1155 72.6668 96.6376H98.5612C99.9748 96.6376 101.121 95.4912 101.121 94.0776C101.121 92.664 99.9748 91.5176 98.5612 91.5176H72.6668C71.7926 88.5961 69.4919 86.3197 66.5611 85.4762V70.257C74.4389 69.3762 81.3103 64.5077 84.7539 57.3685C88.1967 50.2284 87.7282 41.8199 83.5132 35.1074C79.2974 28.3946 71.9275 24.3203 64.0005 24.3203C56.0734 24.3203 48.7041 28.3946 44.4878 35.1074C40.2727 41.8203 39.8043 50.2288 43.2471 57.3685C46.6906 64.5077 53.562 69.3763 61.4399 70.257V85.5147C58.582 86.3983 56.3543 88.6504 55.5007 91.5176H29.4399C28.0263 91.5176 26.8799 92.664 26.8799 94.0776C26.8799 95.4912 28.0263 96.6376 29.4399 96.6376H29.4411ZM46.1582 47.3576C46.1582 42.6048 48.046 38.0469 51.4068 34.6861C54.7675 31.3254 59.3254 29.4376 64.0782 29.4376C68.8303 29.4376 73.3889 31.3254 76.7489 34.6861C80.1097 38.0469 81.9982 42.6048 81.9982 47.3576C81.9982 52.1104 80.1097 56.6683 76.7489 60.029C73.3889 63.3898 68.8303 65.2776 64.0782 65.2776C59.3254 65.2776 54.7675 63.3898 51.4068 60.029C48.046 56.6683 46.1582 52.1104 46.1582 47.3576V47.3576ZM64.0782 90.2376C65.0961 90.2376 66.0732 90.6419 66.7933 91.3626C67.5133 92.0826 67.9183 93.059 67.9183 94.0776C67.9183 95.0963 67.5133 96.0726 66.7933 96.7927C66.0733 97.5134 65.0962 97.9177 64.0782 97.9177C63.0597 97.9177 62.0825 97.5134 61.3624 96.7927C60.6424 96.0727 60.2381 95.0963 60.2381 94.0776C60.2381 93.059 60.6424 92.0827 61.3624 91.3626C62.0824 90.6419 63.0596 90.2376 64.0782 90.2376Z" fill="black"/>
<path d="M69.6585 56.625C70.6585 57.625 72.2807 57.625 73.2807 56.625C74.2808 55.625 74.2808 54.0028 73.2807 53.0028L67.6615 47.3836L73.2807 41.7644C74.2808 40.7644 74.2808 39.1422 73.2807 38.1421C72.2807 37.1414 70.6586 37.1414 69.6585 38.1421L64.0007 43.7736L58.3816 38.1544V38.1551C57.3815 37.1544 55.7594 37.1544 54.7593 38.1551C53.7586 39.1551 53.7586 40.7765 54.7593 41.7773L60.3785 47.3965L54.7593 53.0157C53.7586 54.0157 53.7586 55.6379 54.7593 56.6379C55.7593 57.638 57.3815 57.638 58.3816 56.6379L64.0007 51.0058L69.6585 56.625Z" fill="black"/>
</svg>
