<svg width="20" height="17" viewBox="0 0 20 17" fill="none" xmlns="http://www.w3.org/2000/svg">
<path fill-rule="evenodd" clip-rule="evenodd" d="M7 0C7.22101 0 7.43448 0.069245 7.60803 0.195041L7.70711 0.277203L10.415 2.83929H17C18.5977 2.83929 19.9037 4.0213 19.9949 5.51174L20 5.67857V13.25C20 14.7621 18.7511 15.9981 17.1763 16.0845L17 16.0893H3C1.40232 16.0893 0.0963391 14.9073 0.00509269 13.4168L0 13.25V2.83929C0 1.32719 1.24892 0.0911781 2.82373 0.00481987L3 0H7ZM6.585 1.89286H3C2.48716 1.89286 2.06449 2.25822 2.00673 2.72891L2 2.83929V13.25C2 13.7354 2.38604 14.1354 2.88338 14.1901L3 14.1964H17C17.5128 14.1964 17.9355 13.8311 17.9933 13.3604L18 13.25V5.67857C18 5.19321 17.614 4.79318 17.1166 4.73851L17 4.73214H10C9.77899 4.73214 9.56552 4.6629 9.39197 4.5371L9.29289 4.45494L6.585 1.89286Z" fill="white"/>
</svg>
