<svg width="21" height="14" viewBox="0 0 21 14" fill="none" xmlns="http://www.w3.org/2000/svg">
<path fill-rule="evenodd" clip-rule="evenodd" d="M17.9985 0H3.99853C2.34168 0 0.998535 1.34315 0.998535 3V11C0.998535 12.6569 2.34168 14 3.99853 14H17.9985C19.6554 14 20.9985 12.6569 20.9985 11V3C20.9985 1.34315 19.6554 0 17.9985 0ZM3.99805 2.00005H17.998C18.5503 2.00005 18.998 2.44776 18.998 3.00005V11C18.998 11.5523 18.5503 12 17.998 12H3.99805C3.44576 12 2.99805 11.5523 2.99805 11V3.00005C2.99805 2.44776 3.44576 2.00005 3.99805 2.00005ZM10.9986 2.99995C8.78949 2.99995 6.99863 4.79081 6.99863 6.99995C6.99863 9.20909 8.78949 11 10.9986 11C13.2078 11 14.9986 9.20909 14.9986 6.99995C14.9986 4.79081 13.2078 2.99995 10.9986 2.99995ZM10.9982 5.00014C12.1028 5.00014 12.9982 5.89557 12.9982 7.00014C12.9982 8.10471 12.1028 9.00014 10.9982 9.00014C9.89366 9.00014 8.99823 8.10471 8.99823 7.00014C8.99823 5.89557 9.89366 5.00014 10.9982 5.00014ZM17.0086 6.00029C17.5609 6.00029 18.0086 6.44801 18.0086 7.00029C18.0086 7.51313 17.6225 7.9358 17.1252 7.99356L16.9986 8.00029C16.4463 8.00029 15.9986 7.55258 15.9986 7.00029C15.9986 6.48745 16.3846 6.06478 16.8819 6.00702L17.0086 6.00029ZM6.00936 7.00029C6.00936 6.44801 5.56164 6.00029 5.00936 6.00029L4.88274 6.00702C4.3854 6.06478 3.99936 6.48745 3.99936 7.00029C3.99936 7.55258 4.44707 8.00029 4.99936 8.00029L5.12598 7.99356C5.62332 7.9358 6.00936 7.51313 6.00936 7.00029Z" fill="#444E60"/>
</svg>
