<svg width="18" height="19" viewBox="0 0 18 19" fill="none" xmlns="http://www.w3.org/2000/svg">
<path fill-rule="evenodd" clip-rule="evenodd" d="M6 0.5H2C0.89543 0.5 0 1.39543 0 2.5V6.5C0 7.60457 0.89543 8.5 2 8.5H6C7.10457 8.5 8 7.60457 8 6.5V2.5C8 1.39543 7.10457 0.5 6 0.5ZM2 2.5H6V6.5H2V2.5ZM16 0.5H12C10.8954 0.5 10 1.39543 10 2.5V6.5C10 7.60457 10.8954 8.5 12 8.5H16C17.1046 8.5 18 7.60457 18 6.5V2.5C18 1.39543 17.1046 0.5 16 0.5ZM12 2.5H16V6.5H12V2.5ZM2 10.5H6C7.10457 10.5 8 11.3954 8 12.5V16.5C8 17.6046 7.10457 18.5 6 18.5H2C0.89543 18.5 0 17.6046 0 16.5V12.5C0 11.3954 0.89543 10.5 2 10.5ZM6 12.5H2V16.5H6V12.5ZM14.9933 11.3834C14.9355 10.886 14.5128 10.5 14 10.5C13.4477 10.5 13 10.9477 13 11.5V13.5H11L10.8834 13.5067C10.386 13.5645 10 13.9872 10 14.5C10 15.0523 10.4477 15.5 11 15.5H13V17.5L13.0067 17.6166C13.0645 18.114 13.4872 18.5 14 18.5C14.5523 18.5 15 18.0523 15 17.5V15.5H17L17.1166 15.4933C17.614 15.4355 18 15.0128 18 14.5C18 13.9477 17.5523 13.5 17 13.5H15V11.5L14.9933 11.3834Z" fill="#F25041"/>
</svg>
