<svg fill="none" height="13" viewBox="0 0 15 13" width="15" xmlns="http://www.w3.org/2000/svg">
<path clip-rule="evenodd" d="M9.1726 0.905733C8.81146 0.347276 8.1798 0 7.4977 0C6.77012 0 6.09994 0.395122 5.7477 1.03175L1.02091 9.18687L0.98004 9.27028L0.932505 9.39996C0.746712 9.96655 0.822984 10.5896 1.14569 11.0967C1.49322 11.6428 2.08358 11.987 2.73004 12.0203L2.80791 12.0198L2.8377 12.0212H12.171L12.3037 12.0159C12.9194 11.9712 13.48 11.6473 13.8239 11.1334C14.1924 10.5827 14.2642 9.88535 14.0157 9.27115L13.9745 9.18687L9.24115 1.0202L9.1726 0.905733ZM6.95271 1.61768C7.08166 1.4374 7.28212 1.33333 7.4977 1.33333L7.57771 1.33814C7.78856 1.3636 7.97666 1.48862 8.08103 1.67725L12.791 9.80467L12.8058 9.84911C12.855 10.0333 12.8232 10.2313 12.7158 10.3919C12.5929 10.5755 12.3872 10.6863 12.1664 10.6879L2.8377 10.6878L2.80434 10.6893L2.71888 10.6798C2.53527 10.6479 2.37194 10.5401 2.27057 10.3809L2.23161 10.3106C2.16267 10.1665 2.14777 10.0023 2.18966 9.84814L2.20434 9.804L6.90782 1.68881L6.95271 1.61768ZM7.50436 4.02117C7.84625 4.02117 8.12804 4.27853 8.16655 4.61009L8.17103 4.68784V6.02117C8.17103 6.38936 7.87255 6.68784 7.50436 6.68784C7.16247 6.68784 6.88069 6.43048 6.84218 6.09892L6.8377 6.02117V4.68784C6.8377 4.31965 7.13617 4.02117 7.50436 4.02117ZM8.1777 8.68784C8.1777 8.31965 7.87922 8.02117 7.51103 8.02117L7.42662 8.02565C7.09506 8.06417 6.8377 8.34595 6.8377 8.68784C6.8377 9.05603 7.13618 9.3545 7.50436 9.3545L7.58878 9.35002C7.92034 9.31151 8.1777 9.02973 8.1777 8.68784Z" fill="#DA483B" fill-rule="evenodd"/>
</svg>
