<svg width="24" height="25" viewBox="0 0 24 25" fill="none" xmlns="http://www.w3.org/2000/svg">
<path fill-rule="evenodd" clip-rule="evenodd" d="M19.92 7.87837C19.97 7.75844 19.99 7.63851 20 7.49859L19.989 7.49959C19.979 7.36967 19.959 7.24974 19.9091 7.11981C19.8591 6.99988 19.7891 6.88995 19.6992 6.79001L15.7017 2.79233C15.3019 2.40256 14.6723 2.40256 14.2826 2.79233C13.8838 3.1921 13.8838 3.82173 14.2836 4.21151L16.5821 6.50017L4.99937 6.50017C4.43972 6.50017 4 6.94991 4 7.49959C4 8.05927 4.43972 8.49901 4.99937 8.49901L16.5911 8.49901L14.2926 10.7877C13.8938 11.1874 13.8938 11.8171 14.2936 12.2069C14.6833 12.6056 15.3129 12.6056 15.7127 12.2059L19.7102 8.20818C19.8001 8.11823 19.8701 8.0083 19.92 7.87837ZM19.0004 18.4923C19.5501 18.4923 19.9998 18.0526 19.9998 17.4929C19.9998 16.9432 19.5501 16.4935 19.0004 16.4935L7.41764 16.4935L9.7162 14.2048C10.106 13.815 10.106 13.1854 9.7162 12.7856C9.31645 12.3959 8.68684 12.3959 8.29709 12.7856L4.29958 16.7833C4.19965 16.8833 4.12969 16.9932 4.08972 17.1131C4.02975 17.2431 4.00977 17.363 4.00977 17.4929C4.00977 17.6328 4.02975 17.7528 4.08972 17.8727C4.12969 18.0026 4.19965 18.1125 4.29958 18.2025L8.29709 22.2002C8.68684 22.5999 9.31645 22.5999 9.7162 22.2002C10.106 21.8104 10.106 21.1808 9.7162 20.781L7.41764 18.4923L19.0004 18.4923Z" fill="#F25041"/>
</svg>
