<svg width="17" height="10" viewBox="0 0 17 10" fill="none" xmlns="http://www.w3.org/2000/svg">
<path fill-rule="evenodd" clip-rule="evenodd" d="M13.4748 4.01195L11.1848 1.72653V1.71654C10.7848 1.31735 10.7848 0.688614 11.1848 0.299397C11.5748 -0.0997992 12.2048 -0.0997992 12.6048 0.299397L16.6048 4.29136C16.8406 4.5207 16.9338 4.84492 16.8844 5.15148C16.8461 5.41804 16.7012 5.65147 16.4945 5.80702L12.5941 9.6996C12.4041 9.87924 12.1441 9.98902 11.8841 9.98902L11.8941 10C11.6241 10 11.3641 9.89022 11.1841 9.71058C10.7841 9.32137 10.7841 8.68265 11.1741 8.29344V8.28345L13.4542 6.00793H1.89453C1.33453 6.00793 0.894531 5.55883 0.894531 5.00994C0.894531 4.45106 1.33453 4.01195 1.89453 4.01195H13.4748Z" fill="white"/>
</svg>
