<svg width="15" height="8" viewBox="0 0 15 8" fill="none" xmlns="http://www.w3.org/2000/svg">
<path fill-rule="evenodd" clip-rule="evenodd" d="M1.03275 7.80715C1.15268 7.92685 1.32592 8 1.50581 8L1.48582 7.97939C1.65905 7.97939 1.83229 7.90624 1.95888 7.78654L5.48348 4.26205L7.67553 6.45654L7.68219 6.46319C7.94204 6.72254 8.36846 6.72254 8.6283 6.46319L12.8328 2.26676V5.34016C12.8328 5.70591 13.126 6.00516 13.4991 6.00516C13.8655 6.00516 14.1654 5.70591 14.1654 5.34016V0.685179C14.1654 0.522636 14.1082 0.375295 14.0134 0.260853C13.9966 0.239373 13.9783 0.218682 13.9585 0.198917C13.7829 0.0241134 13.5408 -0.0355284 13.3218 0.0201821H8.83515C8.46204 0.0201821 8.16888 0.312781 8.16888 0.685179C8.16888 1.05093 8.46204 1.35018 8.83515 1.35018H11.8612L8.15525 5.05406L5.9632 2.85957C5.70335 2.60022 5.27694 2.60022 5.02375 2.86622L1.02609 6.85621V6.86286C0.766244 7.1222 0.766244 7.5478 1.03275 7.80715Z" fill="#DA483B"/>
</svg>
