<svg width="32" height="32" viewBox="0 0 32 32" fill="none" xmlns="http://www.w3.org/2000/svg">
<path fill-rule="evenodd" clip-rule="evenodd" d="M22.1057 14.6825L19.0523 11.6353V11.622C18.519 11.0897 18.519 10.2514 19.0523 9.73245C19.5723 9.20019 20.4123 9.20019 20.9457 9.73245L26.279 15.0551C26.5935 15.3609 26.7178 15.7932 26.6519 16.2019C26.6008 16.5573 26.4075 16.8685 26.132 17.0759L20.9314 22.2661C20.6781 22.5056 20.3314 22.6519 19.9848 22.6519L19.9981 22.6666C19.6381 22.6666 19.2914 22.5202 19.0514 22.2807C18.5181 21.7617 18.5181 20.9101 19.0381 20.3912V20.3779L22.0782 17.3438H6.66536C5.9187 17.3438 5.33203 16.745 5.33203 16.0132C5.33203 15.268 5.9187 14.6825 6.66536 14.6825H22.1057Z" fill="#8BBBDA"/>
</svg>
