<svg width="20" height="18" viewBox="0 0 20 18" fill="none" xmlns="http://www.w3.org/2000/svg">
<path fill-rule="evenodd" clip-rule="evenodd" d="M5 0.5H1C0.447715 0.5 0 0.947715 0 1.5V7.5V15.5C0 16.6046 0.89543 17.5 2 17.5H6C7.10457 17.5 8 16.6046 8 15.5V13.5C8 12.3954 8.89543 11.5 10 11.5C11.1046 11.5 12 12.3954 12 13.5V15.5C12 16.6046 12.8954 17.5 14 17.5H18C19.1046 17.5 20 16.6046 20 15.5V7.5V1.5C20 0.947715 19.5523 0.5 19 0.5H15L14.8834 0.506728C14.386 0.564493 14 0.987164 14 1.5V3.5H13V1.5C13 0.947715 12.5523 0.5 12 0.5H8L7.88338 0.506728C7.38604 0.564493 7 0.987164 7 1.5V3.5H6V1.5C6 0.947715 5.55228 0.5 5 0.5ZM18 6.5V2.5H16V4.5C16 5.01284 15.614 5.43551 15.1166 5.49327L15 5.5H12C11.4477 5.5 11 5.05228 11 4.5V2.5H9V4.5C9 5.01284 8.61396 5.43551 8.11662 5.49327L8 5.5H5C4.44772 5.5 4 5.05228 4 4.5V2.5H2V6.5H18ZM2 8.5H18V15.5H14V13.5C14 11.2909 12.2091 9.5 10 9.5C7.79086 9.5 6 11.2909 6 13.5V15.5H2V8.5Z" fill="white"/>
</svg>
