<svg width="24" height="24" viewBox="0 0 24 24" fill="none" xmlns="http://www.w3.org/2000/svg">
<path fill-rule="evenodd" clip-rule="evenodd" d="M6.99327 3.88338C6.93551 3.38604 6.51284 3 6 3C5.44772 3 5 3.44772 5 4V5C3.34315 5 2 6.34315 2 8V18C2 19.6569 3.34315 21 5 21H19C20.6569 21 22 19.6569 22 18V8C22 6.69378 21.1652 5.58254 20 5.17071V4L19.9933 3.88338C19.9355 3.38604 19.5128 3 19 3C18.4477 3 18 3.44772 18 4V5H7V4L6.99327 3.88338ZM6 7H19C19.5523 7 20 7.44772 20 8V18C20 18.5523 19.5523 19 19 19H5C4.44772 19 4 18.5523 4 18V8C4 7.44772 4.44772 7 5 7H6ZM10.5 13C10.5 12.4477 10.0523 12 9.5 12H6.5L6.38338 12.0067C5.88604 12.0645 5.5 12.4872 5.5 13C5.5 13.5523 5.94772 14 6.5 14H9.5L9.61662 13.9933C10.114 13.9355 10.5 13.5128 10.5 13ZM17.5 12C18.0523 12 18.5 12.4477 18.5 13C18.5 13.5128 18.114 13.9355 17.6166 13.9933L17.5 14H17V14.5C17 15.0523 16.5523 15.5 16 15.5C15.4872 15.5 15.0645 15.114 15.0067 14.6166L15 14.5V14H14.5C13.9477 14 13.5 13.5523 13.5 13C13.5 12.4872 13.886 12.0645 14.3834 12.0067L14.5 12H15V11.5C15 10.9477 15.4477 10.5 16 10.5C16.5128 10.5 16.9355 10.886 16.9933 11.3834L17 11.5V12H17.5Z" fill="#36495A"/>
</svg>
