<svg width="24" height="24" viewBox="0 0 24 24" fill="none" xmlns="http://www.w3.org/2000/svg">
<path fill-rule="evenodd" clip-rule="evenodd" d="M12.9024 2.00474L12.9998 2L13.1389 2.00952L13.2291 2.02641L13.3371 2.0583L13.4396 2.10164L13.482 2.12379L13.5359 2.15569L13.6253 2.21969L13.7069 2.29289L13.7692 2.36079L13.7748 2.369C13.8707 2.48762 13.9387 2.62323 13.9734 2.77066L13.9951 2.90262L13.9998 3V9H18.9998C19.78 9 20.2456 9.84483 19.8683 10.4965L19.8086 10.5882L11.8086 21.5882C11.2617 22.3401 10.0979 21.9988 10.0057 21.1135L9.99983 21V15H4.99983C4.21969 15 3.75402 14.1552 4.13139 13.5035L4.19109 13.4118L12.2195 2.37455L12.2927 2.29289L12.3606 2.23066L12.3688 2.224C12.4586 2.15204 12.5569 2.09631 12.6625 2.05837L12.7858 2.02316L12.9024 2.00474ZM11.9998 6.074L6.96283 13H10.9998C11.5127 13 11.9353 13.386 11.9931 13.8834L11.9998 14V17.924L17.0348 11H12.9998C12.487 11 12.0643 10.614 12.0066 10.1166L11.9998 10V6.074Z" fill="#04223E"/>
</svg>
