<svg width="24" height="24" viewBox="0 0 24 24" fill="none" xmlns="http://www.w3.org/2000/svg">
<path fill-rule="evenodd" clip-rule="evenodd" d="M4.00967 6.76292V17.632C6.25549 16.7917 8.7451 16.7889 11.0059 17.6352V6.80309C8.79967 5.71569 6.21769 5.70231 4.00967 6.76292ZM12.5047 20.0794C12.4514 20.1086 12.3956 20.1328 12.3384 20.152C12.2341 20.1891 12.122 20.2094 12.0053 20.2094C11.8964 20.2094 11.792 20.1923 11.6945 20.1609C11.6287 20.1405 11.5652 20.1134 11.5053 20.0794C9.02659 18.6515 5.97823 18.6515 3.50955 20.0794H3.50855C3.01882 20.349 2.40914 20.1893 2.13929 19.7099C2.02245 19.5057 1.98226 19.2805 2.01074 19.0678V6.37209C2.0039 6.32518 2.00036 6.27724 2.00036 6.22851C1.99036 5.85905 2.19026 5.52953 2.50009 5.34979L2.4901 5.3408C5.40853 3.66324 8.96662 3.56338 11.985 5.07119C14.9834 3.5534 18.5615 3.65325 21.4799 5.3408C21.5728 5.39413 21.654 5.46073 21.7224 5.53699C21.8941 5.71538 21.9999 5.95843 21.9999 6.22967V19.2108C21.9999 19.76 21.5501 20.2094 21.0004 20.2094C20.8482 20.2094 20.7048 20.1761 20.5768 20.1167C20.5508 20.1051 20.5253 20.0927 20.5004 20.0794C18.0218 18.6515 14.9734 18.6515 12.5047 20.0794ZM20.001 17.6397V6.80306C17.7948 5.71569 15.2128 5.70231 13.0048 6.76295V17.6369C15.2652 16.7963 17.7476 16.8011 20.001 17.6397Z" fill="#F5F5F5"/>
</svg>
