<svg width="20" height="20" viewBox="0 0 20 20" fill="none" xmlns="http://www.w3.org/2000/svg">
<path fill-rule="evenodd" clip-rule="evenodd" d="M14 0C10.7582 0 8 1.65489 8 4V8V12V16L8.0054 16.179C8.14177 18.4289 10.8415 20 14 20C17.2416 20 20 18.3451 20 16V12V8V4C20 1.65489 17.2418 0 14 0ZM18 15.0118V16L17.9939 16.1004C17.8808 17.0385 16.2022 18 14 18C11.7192 18 10 16.9686 10 16V15.0118C11.0721 15.6377 12.4832 16 14 16C15.5168 16 16.9279 15.6377 18 15.0118ZM10 12C10 12.9686 11.7192 14 14 14C16.2022 14 17.8808 13.0385 17.9939 12.1004L18 12V11.0118C16.9279 11.6377 15.5168 12 14 12C12.4832 12 11.0721 11.6377 10 11.0118V12ZM18 7.01185V8L17.9939 8.10038C17.8808 9.03849 16.2022 10 14 10C11.7192 10 10 8.96858 10 8V7.01184C11.0721 7.63767 12.4831 8 14 8C15.5169 8 16.9279 7.63767 18 7.01185ZM10 4C10 4.9686 11.719 6 14 6C16.281 6 18 4.9686 18 4C18 3.0314 16.281 2 14 2C11.719 2 10 3.0314 10 4ZM5 6C5.55228 6 6 6.44772 6 7C6 7.51284 5.61396 7.93551 5.11662 7.99327L5 8H3H2.5C2.22386 8 2 8.22386 2 8.5C2 8.74546 2.17688 8.94961 2.41012 8.99194L2.5 9H3.5C4.88071 9 6 10.1193 6 11.5C6 12.7095 5.14112 13.7184 4 13.95V14C4 14.5523 3.55228 15 3 15C2.48716 15 2.06449 14.614 2.00673 14.1166L2 14H1C0.447715 14 0 13.5523 0 13C0 12.4872 0.38604 12.0645 0.883379 12.0067L1 12H3H3.5C3.77614 12 4 11.7761 4 11.5C4 11.2545 3.82312 11.0504 3.58988 11.0081L3.5 11H2.5C1.11929 11 0 9.88071 0 8.5C0 7.29052 0.85888 6.28164 2 6.05001V6C2 5.44772 2.44772 5 3 5C3.51284 5 3.93551 5.38604 3.99327 5.88338L4 6H5Z" fill="white"/>
</svg>
