<svg width="16" height="17" viewBox="0 0 16 17" fill="none" xmlns="http://www.w3.org/2000/svg">
<path fill-rule="evenodd" clip-rule="evenodd" d="M7.73737 2.04365C7.87712 1.98376 8.03223 1.97377 8.1771 2.0137L8.26259 2.04365L12.9293 4.04365C13.2677 4.18869 13.4244 4.58061 13.2794 4.91903C13.1447 5.23327 12.7972 5.39089 12.4773 5.29568L12.404 5.26918L7.99998 3.38175L3.59593 5.26918C3.28168 5.40385 2.9213 5.2783 2.7553 4.98872L2.72055 4.91903C2.58587 4.60478 2.71142 4.2444 3.00101 4.0784L3.0707 4.04365L7.73737 2.04365ZM14.6666 7.32308C14.6666 6.95489 14.3682 6.65641 14 6.65641H13.3333H2.66665H1.99998L1.92223 6.6609C1.59067 6.69941 1.33331 6.98119 1.33331 7.32308C1.33331 7.69127 1.63179 7.98975 1.99998 7.98975V13.9897L1.92223 13.9942C1.59067 14.0327 1.33331 14.3145 1.33331 14.6564C1.33331 15.0246 1.63179 15.3231 1.99998 15.3231L2.66665 15.3231H13.3333L14 15.3231L14.0777 15.3186C14.4093 15.2801 14.6666 14.9983 14.6666 14.6564C14.6666 14.2882 14.3682 13.9897 14 13.9897V7.98975L14.0777 7.98526C14.4093 7.94675 14.6666 7.66497 14.6666 7.32308ZM3.33331 7.98975H12.6666V13.9897H3.33331V7.98975ZM5.99549 9.912C5.95698 9.58044 5.6752 9.32308 5.33331 9.32308C4.96512 9.32308 4.66665 9.62156 4.66665 9.98975V11.9897L4.67113 12.0675C4.70964 12.3991 4.99142 12.6564 5.33331 12.6564C5.7015 12.6564 5.99998 12.3579 5.99998 11.9897V9.98975L5.99549 9.912ZM7.99998 9.32308C8.34187 9.32308 8.62365 9.58044 8.66216 9.912L8.66665 9.98975V11.9897C8.66665 12.3579 8.36817 12.6564 7.99998 12.6564C7.65809 12.6564 7.37631 12.3991 7.3378 12.0675L7.33331 11.9897V9.98975C7.33331 9.62156 7.63179 9.32308 7.99998 9.32308ZM11.3288 9.912C11.2903 9.58044 11.0085 9.32308 10.6666 9.32308C10.2985 9.32308 9.99998 9.62156 9.99998 9.98975V11.9897L10.0045 12.0675C10.043 12.3991 10.3248 12.6564 10.6666 12.6564C11.0348 12.6564 11.3333 12.3579 11.3333 11.9897V9.98975L11.3288 9.912Z" fill="#DA483B"/>
</svg>
