<svg fill="none" height="17" viewBox="0 0 16 17" width="16" xmlns="http://www.w3.org/2000/svg">
    <path clip-rule="evenodd"
        d="M4.66659 3.1665H1.99992C1.63173 3.1665 1.33325 3.46498 1.33325 3.83317V7.83317V13.1665C1.33325 13.9029 1.93021 14.4998 2.66659 14.4998H5.33325C6.06963 14.4998 6.66659 13.9029 6.66659 13.1665V11.8332C6.66659 11.0968 7.26354 10.4998 7.99992 10.4998C8.7363 10.4998 9.33325 11.0968 9.33325 11.8332V13.1665C9.33325 13.9029 9.93021 14.4998 10.6666 14.4998H13.3333C14.0696 14.4998 14.6666 13.9029 14.6666 13.1665V7.83317V3.83317C14.6666 3.46498 14.3681 3.1665 13.9999 3.1665H11.3333L11.2555 3.17099C10.9239 3.2095 10.6666 3.49128 10.6666 3.83317V5.1665H9.99992V3.83317C9.99992 3.46498 9.70144 3.1665 9.33325 3.1665H6.66659L6.58884 3.17099C6.25728 3.2095 5.99992 3.49128 5.99992 3.83317V5.1665H5.33325V3.83317C5.33325 3.46498 5.03478 3.1665 4.66659 3.1665ZM13.3333 7.1665V4.49984H11.9999V5.83317C11.9999 6.17506 11.7426 6.45684 11.411 6.49535L11.3333 6.49984H9.33325C8.96506 6.49984 8.66658 6.20136 8.66658 5.83317V4.49984H7.33325V5.83317C7.33325 6.17506 7.07589 6.45684 6.74433 6.49535L6.66658 6.49984H4.66659C4.2984 6.49984 3.99992 6.20136 3.99992 5.83317V4.49984H2.66659V7.1665H13.3333ZM2.66659 8.49984H13.3333V13.1665H10.6666V11.8332C10.6666 10.3604 9.47268 9.1665 7.99992 9.1665C6.52716 9.1665 5.33325 10.3604 5.33325 11.8332V13.1665H2.66659V8.49984Z"
        fill="white" fill-rule="evenodd" />
</svg>
