<svg width="18" height="20" viewBox="0 0 18 20" fill="none" xmlns="http://www.w3.org/2000/svg">
<path fill-rule="evenodd" clip-rule="evenodd" d="M13 0.5C13.5128 0.5 13.9355 0.865359 13.9933 1.33605L14 1.44643V2.39286H15C16.6569 2.39286 18 3.66405 18 5.23214V9.01786V16.5893C18 18.1574 16.6569 19.4286 15 19.4286H3C1.34315 19.4286 0 18.1574 0 16.5893V9.01786V5.23214C0 3.66405 1.34315 2.39286 3 2.39286H4V1.44643C4 0.92373 4.44772 0.5 5 0.5C5.51284 0.5 5.93551 0.865359 5.99327 1.33605L6 1.44643V2.39286H12V1.44643C12 0.92373 12.4477 0.5 13 0.5ZM16 5.23214V8.07143H2V5.23214C2 4.70944 2.44772 4.28571 3 4.28571H4V5.23214L4.00673 5.34252C4.06449 5.81321 4.48716 6.17857 5 6.17857C5.55228 6.17857 6 5.75484 6 5.23214V4.28571H12V5.23214L12.0067 5.34252C12.0645 5.81321 12.4872 6.17857 13 6.17857C13.5523 6.17857 14 5.75484 14 5.23214V4.28571H15C15.5523 4.28571 16 4.70944 16 5.23214Z" fill="white"/>
</svg>
