<svg width="18" height="19" viewBox="0 0 18 19" fill="none" xmlns="http://www.w3.org/2000/svg">
<path fill-rule="evenodd" clip-rule="evenodd" d="M13.9933 0.836055C13.9355 0.365359 13.5128 0 13 0C12.4477 0 12 0.42373 12 0.946429V1.89286H6V0.946429L5.99327 0.836055C5.93551 0.365359 5.51284 0 5 0C4.44772 0 4 0.42373 4 0.946429V1.89286H3C1.34315 1.89286 0 3.16405 0 4.73214V8.51786V16.0893C0 17.6574 1.34315 18.9286 3 18.9286H15C16.6569 18.9286 18 17.6574 18 16.0893V8.51786V4.73214C18 3.16405 16.6569 1.89286 15 1.89286H14V0.946429L13.9933 0.836055ZM16 7.57143V4.73214C16 4.20944 15.5523 3.78571 15 3.78571H14V4.73214C14 5.25484 13.5523 5.67857 13 5.67857C12.4872 5.67857 12.0645 5.31321 12.0067 4.84252L12 4.73214V3.78571H6V4.73214C6 5.25484 5.55228 5.67857 5 5.67857C4.48716 5.67857 4.06449 5.31321 4.00673 4.84252L4 4.73214V3.78571H3C2.44772 3.78571 2 4.20944 2 4.73214V7.57143H16ZM2 9.46428H16V16.0893C16 16.612 15.5523 17.0357 15 17.0357H3C2.44772 17.0357 2 16.612 2 16.0893V9.46428ZM9.99327 12.1932C9.99772 12.2294 10 12.2662 10 12.3036V15.1429C10 15.6656 9.55229 16.0893 9 16.0893C8.48716 16.0893 8.06449 15.7239 8.00673 15.2532L8 15.1429V13.25C7.44772 13.25 7 12.8263 7 12.3036C7 11.8182 7.38604 11.4182 7.88338 11.3635L8 11.3571H9C9.51284 11.3571 9.93551 11.7225 9.99327 12.1932Z" fill="white"/>
</svg>
