<svg width="24" height="24" viewBox="0 0 24 24" fill="none" xmlns="http://www.w3.org/2000/svg">
<path fill-rule="evenodd" clip-rule="evenodd" d="M14 5C14.2604 5 14.5087 5.10145 14.6938 5.27982L14.7809 5.3753L18.48 10H19C20.5977 10 21.9037 11.2489 21.9949 12.8237L22 13V17C22 17.5128 21.614 17.9355 21.1166 17.9933L21 18H19.8293C19.4175 19.1652 18.3062 20 17 20C15.6938 20 14.5825 19.1652 14.1707 18H9.82929C9.41746 19.1652 8.30622 20 7 20C5.69378 20 4.58254 19.1652 4.17071 18H3C2.48716 18 2.06449 17.614 2.00673 17.1166L2 17V10.998L2.00673 10.8834L2.01592 10.8213L2.04177 10.7131L2.07152 10.6286L4.07152 5.62861C4.2082 5.28692 4.51971 5.0511 4.87874 5.00735L5 5H14ZM6 17C6 17.5523 6.44772 18 7 18C7.55228 18 8 17.5523 8 17C8 16.4477 7.55228 16 7 16C6.44772 16 6 16.4477 6 17ZM9.82929 16C9.41746 14.8348 8.30622 14 7 14C5.69378 14 4.58254 14.8348 4.17071 16H4V12H19L19.1166 12.0067C19.614 12.0645 20 12.4872 20 13V16H19.8293C19.4175 14.8348 18.3062 14 17 14C15.6938 14 14.5825 14.8348 14.1707 16H9.82929ZM16 17C16 17.5523 16.4477 18 17 18C17.5523 18 18 17.5523 18 17C18 16.4477 17.5523 16 17 16C16.4477 16 16 16.4477 16 17ZM5.676 7H11V10H4.476L5.676 7ZM13.52 7H13V10H15.92L13.52 7Z" fill="#36495A"/>
</svg>
