<svg width="24" height="24" viewBox="0 0 24 24" fill="none" xmlns="http://www.w3.org/2000/svg">
<path fill-rule="evenodd" clip-rule="evenodd" d="M17.9949 6.82373C17.9037 5.24892 16.5977 4 15 4H5L4.82373 4.00509C3.24892 4.09634 2 5.40232 2 7V13L2.00509 13.1763C2.09634 14.7511 3.40232 16 5 16H6V17C6 18.6569 7.34315 20 9 20H19C20.6569 20 22 18.6569 22 17V11C22 9.34315 20.6569 8 19 8H18V7L17.9949 6.82373ZM16 8V7C16 6.48716 15.614 6.06449 15.1166 6.00673L15 6H5C4.48716 6 4.06449 6.38604 4.00673 6.88338L4 7V13C4 13.5128 4.38604 13.9355 4.88338 13.9933L5 14H6V11C6 9.34315 7.34315 8 9 8H16ZM8 15V11C8 10.4477 8.44772 10 9 10H17H19C19.5523 10 20 10.4477 20 11V17C20 17.5523 19.5523 18 19 18H9C8.44772 18 8 17.5523 8 17V15ZM11 14C11 12.3431 12.3431 11 14 11C15.6569 11 17 12.3431 17 14C17 15.6569 15.6569 17 14 17C12.3431 17 11 15.6569 11 14ZM15 14C15 13.4477 14.5523 13 14 13C13.4477 13 13 13.4477 13 14C13 14.5523 13.4477 15 14 15C14.5523 15 15 14.5523 15 14Z" fill="#04223E"/>
</svg>
