<svg width="14" height="11" viewBox="0 0 14 11" fill="none" xmlns="http://www.w3.org/2000/svg">
<path fill-rule="evenodd" clip-rule="evenodd" d="M11.6666 0.833496H2.33331C1.22874 0.833496 0.333313 1.72893 0.333313 2.8335V8.16683C0.333313 9.2714 1.22874 10.1668 2.33331 10.1668H11.6666C12.7712 10.1668 13.6666 9.2714 13.6666 8.16683V2.8335C13.6666 1.72893 12.7712 0.833496 11.6666 0.833496ZM2.33331 2.16683H11.6666C12.0348 2.16683 12.3333 2.46531 12.3333 2.8335V8.16683C12.3333 8.53502 12.0348 8.8335 11.6666 8.8335H2.33331C1.96512 8.8335 1.66665 8.53502 1.66665 8.16683V2.8335C1.66665 2.46531 1.96512 2.16683 2.33331 2.16683ZM6.99998 2.8335C5.52722 2.8335 4.33331 4.0274 4.33331 5.50016C4.33331 6.97292 5.52722 8.16683 6.99998 8.16683C8.47274 8.16683 9.66665 6.97292 9.66665 5.50016C9.66665 4.0274 8.47274 2.8335 6.99998 2.8335ZM6.99998 4.16683C7.73636 4.16683 8.33331 4.76378 8.33331 5.50016C8.33331 6.23654 7.73636 6.8335 6.99998 6.8335C6.2636 6.8335 5.66665 6.23654 5.66665 5.50016C5.66665 4.76378 6.2636 4.16683 6.99998 4.16683ZM11.0066 4.8335C11.3748 4.8335 11.6733 5.13197 11.6733 5.50016C11.6733 5.84205 11.416 6.12383 11.0844 6.16234L11 6.16683C10.6318 6.16683 10.3333 5.86835 10.3333 5.50016C10.3333 5.15827 10.5907 4.87649 10.9222 4.83798L11.0066 4.8335ZM3.67331 5.50016C3.67331 5.13197 3.37484 4.8335 3.00665 4.8335L2.92223 4.83798C2.59067 4.87649 2.33331 5.15827 2.33331 5.50016C2.33331 5.86835 2.63179 6.16683 2.99998 6.16683L3.08439 6.16234C3.41595 6.12383 3.67331 5.84205 3.67331 5.50016Z" fill="white"/>
</svg>
