<svg width="20" height="21" viewBox="0 0 20 21" fill="none" xmlns="http://www.w3.org/2000/svg">
<path fill-rule="evenodd" clip-rule="evenodd" d="M1.99327 1.38338C1.93551 0.88604 1.51284 0.5 1 0.5C0.447715 0.5 0 0.947715 0 1.5V19.5L0.00672773 19.6166C0.0644928 20.114 0.487164 20.5 1 20.5H19L19.1166 20.4933C19.614 20.4355 20 20.0128 20 19.5L19.9933 19.3834C19.9355 18.886 19.5128 18.5 19 18.5H2V1.5L1.99327 1.38338ZM7 4.5C5.34315 4.5 4 5.84315 4 7.5C4 9.15685 5.34315 10.5 7 10.5C7.30804 10.5 7.60525 10.4536 7.88499 10.3673L9.32527 12.14C9.11728 12.5482 9 13.0104 9 13.5C9 15.1569 10.3431 16.5 12 16.5C13.6569 16.5 15 15.1569 15 13.5C15 12.806 14.7643 12.167 14.3686 11.6587L16.3644 8.43253C16.5693 8.47673 16.7819 8.5 17 8.5C18.6569 8.5 20 7.15685 20 5.5C20 3.84315 18.6569 2.5 17 2.5C15.3431 2.5 14 3.84315 14 5.5C14 6.21233 14.2483 6.86668 14.663 7.38123L12.685 10.5786C12.465 10.5272 12.2357 10.5 12 10.5C11.5655 10.5 11.1526 10.5924 10.7798 10.7585L9.491 9.17235C9.81243 8.69453 10 8.11917 10 7.5C10 5.84315 8.65685 4.5 7 4.5ZM12.4823 12.6238C12.3393 12.5449 12.1749 12.5 12 12.5C11.4477 12.5 11 12.9477 11 13.5C11 14.0523 11.4477 14.5 12 14.5C12.5523 14.5 13 14.0523 13 13.5C13 13.1749 12.8449 12.8861 12.6047 12.7035C12.5903 12.6955 12.576 12.6872 12.5619 12.6784C12.5342 12.6613 12.5077 12.6431 12.4823 12.6238ZM7.52941 8.34389C7.56842 8.31219 7.60911 8.28391 7.65109 8.25902C7.86469 8.07562 8 7.80361 8 7.5C8 6.94772 7.55228 6.5 7 6.5C6.44772 6.5 6 6.94772 6 7.5C6 8.05228 6.44772 8.5 7 8.5C7.18582 8.5 7.3598 8.44932 7.50888 8.36102C7.51563 8.35524 7.52247 8.34952 7.52941 8.34389ZM18 5.5C18 4.94772 17.5523 4.5 17 4.5C16.4477 4.5 16 4.94772 16 5.5C16 6.05228 16.4477 6.5 17 6.5C17.5523 6.5 18 6.05228 18 5.5Z" fill="white"/>
</svg>
