<svg fill="none" height="17" viewBox="0 0 16 17" width="16" xmlns="http://www.w3.org/2000/svg">
    <path clip-rule="evenodd"
        d="M2.6621 2.42242C2.62359 2.09086 2.34181 1.8335 1.99992 1.8335C1.63173 1.8335 1.33325 2.13197 1.33325 2.50016V14.5002L1.33774 14.5779C1.37625 14.9095 1.65803 15.1668 1.99992 15.1668H13.9999L14.0777 15.1623C14.4092 15.1238 14.6666 14.8421 14.6666 14.5002L14.6621 14.4224C14.6236 14.0909 14.3418 13.8335 13.9999 13.8335H2.66659V2.50016L2.6621 2.42242ZM5.99992 4.50016C4.89535 4.50016 3.99992 5.39559 3.99992 6.50016C3.99992 7.60473 4.89535 8.50016 5.99992 8.50016C6.20528 8.50016 6.40342 8.46921 6.58991 8.41172L7.5501 9.59349C7.41144 9.86565 7.33325 10.1738 7.33325 10.5002C7.33325 11.6047 8.22868 12.5002 9.33325 12.5002C10.4378 12.5002 11.3333 11.6047 11.3333 10.5002C11.3333 10.0375 11.1761 9.61147 10.9123 9.27262L12.2428 7.12185C12.3794 7.15132 12.5212 7.16683 12.6666 7.16683C13.7712 7.16683 14.6666 6.2714 14.6666 5.16683C14.6666 4.06226 13.7712 3.16683 12.6666 3.16683C11.562 3.16683 10.6666 4.06226 10.6666 5.16683C10.6666 5.64172 10.8321 6.07795 11.1086 6.42098L9.78995 8.55254C9.64327 8.51828 9.49037 8.50016 9.33325 8.50016C9.04359 8.50016 8.7683 8.56174 8.51978 8.67253L7.66059 7.61506C7.87487 7.29651 7.99992 6.91294 7.99992 6.50016C7.99992 5.39559 7.10449 4.50016 5.99992 4.50016ZM9.65479 9.91602C9.55944 9.86342 9.44984 9.8335 9.33325 9.8335C8.96506 9.8335 8.66659 10.132 8.66659 10.5002C8.66659 10.8684 8.96506 11.1668 9.33325 11.1668C9.70144 11.1668 9.99992 10.8684 9.99992 10.5002C9.99992 10.2835 9.89652 10.0909 9.73638 9.96914C9.72679 9.96384 9.71728 9.95828 9.70786 9.95245C9.68941 9.94104 9.67171 9.92887 9.65479 9.91602ZM6.35286 7.06275C6.37886 7.04162 6.40598 7.02278 6.43397 7.00619C6.57638 6.88392 6.66658 6.70258 6.66658 6.50016C6.66658 6.13197 6.36811 5.8335 5.99992 5.8335C5.63173 5.8335 5.33325 6.13197 5.33325 6.50016C5.33325 6.86835 5.63173 7.16683 5.99992 7.16683C6.1238 7.16683 6.23979 7.13304 6.33917 7.07418L6.35286 7.06275ZM13.3333 5.16683C13.3333 4.79864 13.0348 4.50016 12.6666 4.50016C12.2984 4.50016 11.9999 4.79864 11.9999 5.16683C11.9999 5.53502 12.2984 5.8335 12.6666 5.8335C13.0348 5.8335 13.3333 5.53502 13.3333 5.16683Z"
        fill="white" fill-rule="evenodd" />
</svg>
