<svg width="24" height="24" viewBox="0 0 24 24" fill="none" xmlns="http://www.w3.org/2000/svg">
<path fill-rule="evenodd" clip-rule="evenodd" d="M12 2C6.47715 2 2 6.47715 2 12C2 17.5228 6.47715 22 12 22C17.5228 22 22 17.5228 22 12C22 6.47715 17.5228 2 12 2ZM12 4C16.4183 4 20 7.58172 20 12C20 16.4183 16.4183 20 12 20C7.58172 20 4 16.4183 4 12C4 7.58172 7.58172 4 12 4ZM16 12C16 11.4477 15.5523 11 15 11H9L8.88338 11.0067C8.38604 11.0645 8 11.4872 8 12C8 12.5523 8.44772 13 9 13H15L15.1166 12.9933C15.614 12.9355 16 12.5128 16 12Z" fill="#36495A"/>
</svg>
