<svg width="25" height="25" viewBox="0 0 25 25" fill="none" xmlns="http://www.w3.org/2000/svg">
<path fill-rule="evenodd" clip-rule="evenodd" d="M5.50743 3.7097C5.11514 3.40468 4.54791 3.43241 4.18742 3.79289C3.7969 4.18342 3.7969 4.81658 4.18742 5.20711L11.1874 12.2071L11.2816 12.2903C11.6739 12.5953 12.2412 12.5676 12.6016 12.2071C12.9922 11.8166 12.9922 11.1834 12.6016 10.7929L5.60164 3.79289L5.50743 3.7097ZM14.2275 13.597L11.7301 14.0136L11.6135 14.0399C10.8985 14.2448 10.641 15.1607 11.1874 15.7071L12.8335 17.354L12.4046 20.3586L12.3948 20.4662C12.3657 21.2095 13.153 21.7388 13.8417 21.3944L16.3945 20.118L18.9473 21.3944L19.0463 21.4377C19.7423 21.7004 20.4934 21.1208 20.3845 20.3586L19.9545 17.354L21.6016 15.7071L21.6813 15.6179C22.144 15.0356 21.8211 14.1406 21.0589 14.0136L18.5605 13.597L17.289 11.0528C16.9204 10.3157 15.8686 10.3157 15.5001 11.0528L14.2275 13.597ZM16.3945 13.736L17.0001 14.9472L17.0596 15.0504C17.2117 15.2812 17.454 15.4404 17.7301 15.4864L18.8125 15.666L18.1874 16.2929L18.1095 16.3805C17.941 16.594 17.8656 16.8688 17.9046 17.1414L18.1345 18.752L16.8417 18.1056L16.7183 18.0539C16.4666 17.9677 16.1886 17.9849 15.9473 18.1056L14.6535 18.752L14.8845 17.1414L14.8942 17.0246C14.901 16.7527 14.7964 16.4876 14.6016 16.2929L13.9755 15.666L15.0589 15.4864C15.3745 15.4338 15.6459 15.2334 15.789 14.9472L16.3945 13.736ZM9.18742 3.79289C9.54791 3.43241 10.1151 3.40468 10.5074 3.7097L10.6016 3.79289L14.1016 7.29289C14.4922 7.68342 14.4922 8.31658 14.1016 8.70711C13.7412 9.06759 13.1739 9.09532 12.7816 8.7903L12.6874 8.70711L9.18742 5.20711C8.7969 4.81658 8.7969 4.18342 9.18742 3.79289ZM5.50743 8.7097C5.11514 8.40468 4.54791 8.43241 4.18742 8.79289C3.7969 9.18342 3.7969 9.81658 4.18742 10.2071L7.68742 13.7071L7.78163 13.7903C8.17392 14.0953 8.74115 14.0676 9.10164 13.7071C9.49216 13.3166 9.49216 12.6834 9.10164 12.2929L5.60164 8.79289L5.50743 8.7097Z" fill="#F25041"/>
</svg>
