<svg width="24" height="26" viewBox="0 0 24 26" fill="none" xmlns="http://www.w3.org/2000/svg">
<path fill-rule="evenodd" clip-rule="evenodd" d="M12 2.11328C6.47715 2.11328 2 6.84386 2 12.6793C2 18.5148 6.47715 23.2454 12 23.2454C17.5228 23.2454 22 18.5148 22 12.6793C22 6.84386 17.5228 2.11328 12 2.11328ZM19.9381 11.6227H19L18.8834 11.6298C18.386 11.6909 18 12.1375 18 12.6793C18 13.2629 18.4477 13.7359 19 13.7359H19.9381C19.4869 17.5595 16.6187 20.59 13 21.0667V20.0755L12.9933 19.9523C12.9355 19.4268 12.5128 19.0189 12 19.0189C11.4477 19.0189 11 19.492 11 20.0755V21.0667C7.38128 20.59 4.51314 17.5595 4.06189 13.7359H5L5.11662 13.7288C5.61396 13.6678 6 13.2212 6 12.6793C6 12.0958 5.55228 11.6227 5 11.6227H4.06189C4.51314 7.79916 7.38128 4.76868 11 4.29189V5.28309L11.0067 5.40631C11.0645 5.9318 11.4872 6.3397 12 6.3397C12.5523 6.3397 13 5.86664 13 5.28309V4.29189C16.6187 4.76868 19.4869 7.79916 19.9381 11.6227ZM15.6838 7.45052C16.43 7.1877 17.1416 7.89178 16.9781 8.67474L16.9487 8.78703L14.9487 15.1267C14.8616 15.4027 14.6713 15.6268 14.4251 15.7489L14.3162 15.7949L8.288 17.9158L8.20346 17.9403L8.09035 17.9583L8.02216 17.9624H7.97784L7.86688 17.9532L7.79654 17.9403L7.6534 17.8969L7.55279 17.8508L7.45752 17.7934L7.36854 17.7252L7.28681 17.6467L7.21327 17.5584L7.14888 17.4609L7.09458 17.3545L7.06195 17.2719L7.02949 17.161L7.026 17.1414L7.02082 17.1207L7.00386 17.0012L6.99997 16.9291V16.8823L7.00867 16.7651L7.02082 16.6908L7.05132 16.5716L9.05132 10.232C9.13841 9.95591 9.32869 9.73185 9.57495 9.6097L9.68377 9.56373L15.6838 7.45052ZM14.419 10.1234L10.79 11.4008L9.581 15.2352L13.209 13.9568L14.419 10.1234Z" fill="#04223E"/>
</svg>
