<svg width="24" height="24" viewBox="0 0 24 24" fill="none" xmlns="http://www.w3.org/2000/svg">
<path fill-rule="evenodd" clip-rule="evenodd" d="M21.8356 2.01361C22.407 1.91837 22.9304 2.32554 22.9936 2.88598L23 3V5C23 5.55229 22.5523 6 22 6C21.4872 6 21.0645 5.61396 21.0067 5.11662L21 5V4.18L7.19748 6.48071L8.44721 7.10558C8.74835 7.25615 8.9509 7.54647 8.9922 7.87515L9 8V11H11V7C11 6.48717 11.386 6.0645 11.8834 6.00673L12 6H15H16C19.2384 6 21.8776 8.56558 21.9959 11.7751L22 12V18C22 18.5128 21.614 18.9355 21.1166 18.9933L21 19H19.2361C18.6868 19.6138 17.8885 20 17 20C16.1115 20 15.3132 19.6138 14.7639 19H12H7.23611C6.68679 19.6138 5.8885 20 5 20C3.34315 20 2 18.6569 2 17V12C2 11.4872 2.38604 11.0645 2.88338 11.0067L3 11V6.02012C2.99772 5.91157 3.01315 5.80156 3.04771 5.69435C3.12182 5.46349 3.27784 5.26738 3.48445 5.143C3.55654 5.0996 3.63479 5.06493 3.71787 5.04056L3.71879 5.04035C3.76117 5.02792 3.80439 5.01828 3.84815 5.01152L21.8356 2.01361ZM5 7.61802V11H7V8.618L5 7.61802ZM7.9986 13H4V14.1707C4.31278 14.0602 4.64936 14 5 14C6.65685 14 8 15.3431 8 17H11V13H8.0014C8.00093 13 8.00047 13 8 13C7.99953 13 7.99907 13 7.9986 13ZM13 12V17H14C14 15.3431 15.3431 14 17 14C18.6569 14 20 15.3431 20 17V13H16.5C16.0985 13 15.7403 12.7606 15.5831 12.3993L15.5422 12.2874L14.256 8H13V12ZM4 17C4 17.5523 4.44772 18 5 18C5.55228 18 6 17.5523 6 17C6 16.4477 5.55228 16 5 16C4.44772 16 4 16.4477 4 17ZM16.348 8.015L17.243 11H19.873L19.8306 10.8448C19.3717 9.32076 18.0281 8.18006 16.3967 8.01943L16.348 8.015ZM18 17C18 16.4477 17.5523 16 17 16C16.4477 16 16 16.4477 16 17C16 17.5523 16.4477 18 17 18C17.5523 18 18 17.5523 18 17Z" fill="#36495A"/>
</svg>
