<svg width="20" height="17" viewBox="0 0 20 17" fill="none" xmlns="http://www.w3.org/2000/svg">
<path fill-rule="evenodd" clip-rule="evenodd" d="M16 0.5H4C1.79086 0.5 0 2.29086 0 4.5V6.5V12.5C0 14.7091 1.79086 16.5 4 16.5H16C18.2091 16.5 20 14.7091 20 12.5V6.5V4.5C20 2.29086 18.2091 0.5 16 0.5ZM18 5.5V4.5C18 3.39543 17.1046 2.5 16 2.5H4C2.89543 2.5 2 3.39543 2 4.5V5.5H18ZM2 7.5H18V12.5C18 13.6046 17.1046 14.5 16 14.5H4C2.89543 14.5 2 13.6046 2 12.5V7.5ZM5.01 10.5C5.56228 10.5 6.01 10.9477 6.01 11.5C6.01 12.0128 5.62396 12.4355 5.12662 12.4933L5 12.5C4.44772 12.5 4 12.0523 4 11.5C4 10.9872 4.38604 10.5645 4.88338 10.5067L5.01 10.5ZM12 11.5C12 10.9477 11.5523 10.5 11 10.5H9L8.88338 10.5067C8.38604 10.5645 8 10.9872 8 11.5C8 12.0523 8.44771 12.5 9 12.5H11L11.1166 12.4933C11.614 12.4355 12 12.0128 12 11.5Z" fill="white"/>
</svg>
