<svg width="24" height="25" viewBox="0 0 24 25" fill="none" xmlns="http://www.w3.org/2000/svg">
<path fill-rule="evenodd" clip-rule="evenodd" d="M18 4.96875H6C3.79086 4.96875 2 6.75961 2 8.96875V10.9688V16.9688C2 19.1779 3.79086 20.9688 6 20.9688H18C20.2091 20.9688 22 19.1779 22 16.9688V10.9688V8.96875C22 6.75961 20.2091 4.96875 18 4.96875ZM20 9.96875V8.96875C20 7.86418 19.1046 6.96875 18 6.96875H6C4.89543 6.96875 4 7.86418 4 8.96875V9.96875H20ZM4 11.9688H20V16.9688C20 18.0733 19.1046 18.9688 18 18.9688H6C4.89543 18.9688 4 18.0733 4 16.9688V11.9688ZM7.01 14.9688C7.56228 14.9688 8.01 15.4165 8.01 15.9688C8.01 16.4816 7.62396 16.9043 7.12662 16.962L7 16.9688C6.44772 16.9688 6 16.521 6 15.9688C6 15.4559 6.38604 15.0332 6.88338 14.9755L7.01 14.9688ZM14 15.9688C14 15.4165 13.5523 14.9688 13 14.9688H11L10.8834 14.9755C10.386 15.0332 10 15.4559 10 15.9688C10 16.521 10.4477 16.9688 11 16.9688H13L13.1166 16.962C13.614 16.9043 14 16.4816 14 15.9688Z" fill="#03213D"/>
</svg>
