<svg fill="none" height="17" viewBox="0 0 16 17" width="16" xmlns="http://www.w3.org/2000/svg">
    <path clip-rule="evenodd"
        d="M11.9999 3.1665H3.99992C2.52716 3.1665 1.33325 4.36041 1.33325 5.83317V7.1665V11.1665C1.33325 12.6393 2.52716 13.8332 3.99992 13.8332H11.9999C13.4727 13.8332 14.6666 12.6393 14.6666 11.1665V7.1665V5.83317C14.6666 4.36041 13.4727 3.1665 11.9999 3.1665ZM13.3333 6.49984V5.83317C13.3333 5.09679 12.7363 4.49984 11.9999 4.49984H3.99992C3.26354 4.49984 2.66659 5.09679 2.66659 5.83317V6.49984H13.3333ZM2.66659 7.83317H13.3333V11.1665C13.3333 11.9029 12.7363 12.4998 11.9999 12.4998H3.99992C3.26354 12.4998 2.66659 11.9029 2.66659 11.1665V7.83317ZM4.67325 9.83317C5.04144 9.83317 5.33992 10.1316 5.33992 10.4998C5.33992 10.8417 5.08256 11.1235 4.751 11.162L4.66659 11.1665C4.2984 11.1665 3.99992 10.868 3.99992 10.4998C3.99992 10.1579 4.25728 9.87617 4.58884 9.83766L4.67325 9.83317ZM9.33325 10.4998C9.33325 10.1316 9.03477 9.83317 8.66658 9.83317H7.33325L7.2555 9.83766C6.92394 9.87617 6.66658 10.1579 6.66658 10.4998C6.66658 10.868 6.96506 11.1665 7.33325 11.1665H8.66658L8.74433 11.162C9.07589 11.1235 9.33325 10.8417 9.33325 10.4998Z"
        fill="white" fill-rule="evenodd" />
</svg>
