<svg width="24" height="24" viewBox="0 0 24 24" fill="none" xmlns="http://www.w3.org/2000/svg">
<path fill-rule="evenodd" clip-rule="evenodd" d="M12 10C9.37878 10 6.73693 9.5289 5 8.60889V12C5 12.58 7.45 14 12 14C16.55 14 19 12.58 19 12V8.60889C17.2631 9.5289 14.6212 10 12 10ZM19 14.6089C17.2631 15.5289 14.6212 16 12 16C9.37878 16 6.73693 15.5289 5 14.6089V18C5 18.58 7.45 20 12 20C16.55 20 19 18.58 19 18V14.6089ZM3 12V6C3 3.37 7.53 2 12 2C16.47 2 21 3.37 21 6V12V18C21 20.63 16.47 22 12 22C7.53 22 3 20.63 3 18V12ZM12 8C16.55 8 19 6.58 19 6C19 5.42 16.55 4 12 4C7.45 4 5 5.42 5 6C5 6.58 7.45 8 12 8Z" fill="#212C37"/>
</svg>
