<svg width="21" height="20" viewBox="0 0 21 20" fill="none" xmlns="http://www.w3.org/2000/svg">
<path fill-rule="evenodd" clip-rule="evenodd" d="M13.625 0.625C14.7233 0.625 15.6231 1.47487 15.7027 2.55285L15.7084 2.70833C15.7084 3.24254 16.1105 3.68282 16.6286 3.74299L16.75 3.75H17.7917C19.456 3.75 20.8164 5.05096 20.9114 6.69138L20.9167 6.875V16.25C20.9167 17.9142 19.6158 19.2746 17.9753 19.3697L17.7917 19.375H3.20837C1.54412 19.375 0.183727 18.074 0.0886789 16.4336L0.083374 16.25V6.875C0.083374 5.21075 1.38433 3.85035 3.02476 3.7553L3.20837 3.75H4.25004C4.82534 3.75 5.29171 3.28363 5.29171 2.70833C5.29171 1.61004 6.14158 0.710245 7.21956 0.630714L7.37504 0.625H13.625ZM13.625 2.70833H7.37504L7.36974 2.89195C7.27821 4.47162 6.01333 5.7365 4.43366 5.82803L4.25004 5.83333H3.20837C2.67417 5.83333 2.23389 6.23546 2.17372 6.75352L2.16671 6.875V16.25C2.16671 16.7842 2.56883 17.2245 3.08689 17.2847L3.20837 17.2917H17.7917C18.3259 17.2917 18.7662 16.8895 18.8264 16.3715L18.8334 16.25V6.875C18.8334 6.3408 18.4312 5.90051 17.9132 5.84034L17.7917 5.83333H16.75C15.0241 5.83333 13.625 4.43422 13.625 2.70833ZM10.5 6.875C8.19885 6.875 6.33337 8.74048 6.33337 11.0417C6.33337 13.3429 8.19885 15.2083 10.5 15.2083C12.8012 15.2083 14.6667 13.3429 14.6667 11.0417C14.6667 8.74048 12.8012 6.875 10.5 6.875ZM10.5 8.95833C11.6506 8.95833 12.5834 9.89107 12.5834 11.0417C12.5834 12.1923 11.6506 13.125 10.5 13.125C9.34945 13.125 8.41671 12.1923 8.41671 11.0417C8.41671 9.89107 9.34945 8.95833 10.5 8.95833Z" fill="white"/>
</svg>
