<svg width="180" height="158" viewBox="0 0 180 158" fill="none" xmlns="http://www.w3.org/2000/svg">
<path d="M90.001 158C98.4757 158 105.367 151.118 105.367 142.654C105.367 134.191 98.4757 127.309 90.001 127.309C81.5263 127.309 74.6348 134.191 74.6348 142.654C74.6348 151.118 81.5263 158 90.001 158ZM90.001 134.978C94.2383 134.978 97.6881 138.423 97.6881 142.654C97.6881 146.886 94.2383 150.331 90.001 150.331C85.7637 150.331 82.314 146.886 82.314 142.654C82.314 138.423 85.7637 134.978 90.001 134.978Z" fill="#1F3B73"/>
<path d="M90.001 119.633C96.2625 119.633 100.051 113.986 101.39 109.148C102.516 105.074 105.367 70.7025 105.367 58.6842C105.367 49.8435 98.6174 42.9141 90.001 42.9141C81.3846 42.9141 74.6348 49.8435 74.6348 58.6842C74.6348 70.7025 77.4859 105.082 78.6122 109.148C79.9511 113.986 83.7395 119.633 90.001 119.633ZM90.001 50.5828C94.451 50.5828 97.6881 53.9885 97.6881 58.6842C97.6881 71.08 94.7582 104.178 93.9863 107.111C93.4429 109.062 91.9385 111.972 90.0089 111.972C88.1974 111.972 86.6773 109.455 86.0315 107.119C85.2596 104.178 82.3297 71.08 82.3297 58.6842C82.3139 53.9885 85.551 50.5828 90.001 50.5828Z" fill="#1F3B73"/>
<path d="M99.8151 5.47431C97.7043 2.045 94.0341 0 90.0015 0C85.969 0 82.2987 2.045 80.1879 5.47431L1.73426 132.783C-0.486797 136.386 -0.58131 140.735 1.4901 144.432C3.55363 148.121 7.3184 150.331 11.5557 150.331H63.1126V142.654H11.5479C9.51583 142.654 8.52344 141.278 8.19265 140.688C7.86185 140.098 7.20814 138.533 8.27141 136.803L86.7251 9.49352C87.7411 7.84966 89.3557 7.67662 90.0015 7.67662C90.6474 7.67662 92.262 7.85752 93.2701 9.50139L171.724 136.811C172.787 138.541 172.133 140.098 171.803 140.688C171.472 141.278 170.479 142.654 168.447 142.654H116.89V150.331H168.447C172.685 150.331 176.442 148.129 178.513 144.432C180.576 140.743 180.49 136.386 178.269 132.791L99.8151 5.47431Z" fill="#1F3B73"/>
</svg>
