<svg width="24" height="25" viewBox="0 0 24 25" fill="none" xmlns="http://www.w3.org/2000/svg">
<path fill-rule="evenodd" clip-rule="evenodd" d="M20.3832 3.57605C20.2652 3.52705 20.1357 3.5 20 3.5H15L14.8834 3.50673C14.386 3.56449 14 3.98716 14 4.5L14.0067 4.61662C14.0645 5.11396 14.4872 5.5 15 5.5H17.5858L9.29289 13.7929L9.2097 13.8871C8.90468 14.2794 8.93241 14.8466 9.29289 15.2071C9.68342 15.5976 10.3166 15.5976 10.7071 15.2071L19 6.91421V9.5L19.0067 9.61662C19.0645 10.114 19.4872 10.5 20 10.5C20.5523 10.5 21 10.0523 21 9.5V4.5C21 4.46137 20.9978 4.42274 20.9933 4.38433L20.9933 4.38338C20.9508 4.01768 20.711 3.71216 20.3832 3.57605ZM11 6.5C11.5523 6.5 12 6.94772 12 7.5C12 8.01284 11.614 8.43551 11.1166 8.49327L11 8.5H6C5.48716 8.5 5.06449 8.88604 5.00673 9.38338L5 9.5V18.5C5 19.0128 5.38604 19.4355 5.88338 19.4933L6 19.5H15C15.5128 19.5 15.9355 19.114 15.9933 18.6166L16 18.5V13.5C16 12.9477 16.4477 12.5 17 12.5C17.5128 12.5 17.9355 12.886 17.9933 13.3834L18 13.5V18.5C18 20.0977 16.7511 21.4037 15.1763 21.4949L15 21.5H6C4.40232 21.5 3.09634 20.2511 3.00509 18.6763L3 18.5V9.5C3 7.90232 4.24892 6.59634 5.82373 6.50509L6 6.5H11Z" fill="#1F3B73"/>
</svg>
