<svg width="25" height="25" viewBox="0 0 25 25" fill="none" xmlns="http://www.w3.org/2000/svg">
<path fill-rule="evenodd" clip-rule="evenodd" d="M17.5332 22.8197H7.5332C5.8732 22.8197 4.5332 21.4697 4.5332 19.8197V5.81974C4.5332 4.15974 5.8732 2.81974 7.5332 2.81974H14.5145L14.5332 2.81958V2.81874C14.7932 2.80874 15.0532 2.91874 15.2432 3.10874L20.2432 8.10874C20.3403 8.20579 20.417 8.3261 20.467 8.45869C20.5058 8.55976 20.5287 8.66911 20.5326 8.78388C20.533 8.79548 20.5332 8.8071 20.5332 8.81874V8.81958V19.8187C20.5332 21.4687 19.1832 22.8187 17.5332 22.8187V22.8197ZM7.5332 4.81974H13.5332V7.81958C13.5332 8.91958 14.4232 9.81958 15.5332 9.81958H18.5332V19.8197C18.5332 20.3697 18.0832 20.8197 17.5332 20.8197H7.5332C6.9732 20.8197 6.5332 20.3697 6.5332 19.8197V5.81974C6.5332 5.25974 6.9732 4.81974 7.5332 4.81974ZM15.5332 7.81958V6.22974L17.123 7.81958H15.5332ZM9.5332 10.8196H10.5332C11.0832 10.8196 11.5332 10.3696 11.5332 9.81958C11.5332 9.25958 11.0832 8.81958 10.5332 8.81958H9.5332C8.9732 8.81958 8.5332 9.25958 8.5332 9.81958C8.5332 10.3696 8.9732 10.8196 9.5332 10.8196ZM15.5332 14.8196H9.5332C8.9732 14.8196 8.5332 14.3696 8.5332 13.8196C8.5332 13.2596 8.9732 12.8196 9.5332 12.8196H15.5332C16.0832 12.8196 16.5332 13.2596 16.5332 13.8196C16.5332 14.3696 16.0832 14.8196 15.5332 14.8196ZM9.5332 18.8196H15.5332C16.0832 18.8196 16.5332 18.3696 16.5332 17.8196C16.5332 17.2596 16.0832 16.8196 15.5332 16.8196H9.5332C8.9732 16.8196 8.5332 17.2596 8.5332 17.8196C8.5332 18.3696 8.9732 18.8196 9.5332 18.8196Z" fill="#36495A"/>
</svg>
