<svg width="24" height="24" viewBox="0 0 24 24" fill="none" xmlns="http://www.w3.org/2000/svg">
<path fill-rule="evenodd" clip-rule="evenodd" d="M17 21.9997V21.9987C18.65 21.9987 20 20.6487 20 18.9987V7.99951V7.99867C20 7.98703 19.9998 7.97541 19.9994 7.96381C19.9954 7.84904 19.9726 7.7397 19.9338 7.63862C19.8837 7.50603 19.807 7.38572 19.71 7.28867L14.71 2.28867C14.52 2.09867 14.26 1.98867 14 1.99867V1.99951L13.9813 1.99967H7C5.34 1.99967 4 3.33967 4 4.99967V18.9997C4 20.6497 5.34 21.9997 7 21.9997H17ZM13 3.99967H7C6.44 3.99967 6 4.43967 6 4.99967V18.9997C6 19.5497 6.44 19.9997 7 19.9997H17C17.55 19.9997 18 19.5497 18 18.9997V8.99951H15C13.89 8.99951 13 8.09951 13 6.99951V3.99967ZM15 5.40967V6.99951H16.5898L15 5.40967ZM12 17.9995C11.44 17.9995 11 17.5495 11 16.9995V13.4145L9.71036 14.7098V14.6998C9.31036 15.0898 8.68036 15.0898 8.29036 14.6998C7.89036 14.2998 7.89036 13.6698 8.28936 13.2798L11.2894 10.2798C11.6694 9.87978 12.3094 9.87978 12.6994 10.2698L15.6994 13.2698C16.0894 13.6498 16.0894 14.2898 15.6994 14.6798H15.6894C15.4994 14.8598 15.2394 14.9698 14.9794 14.9698L15.0004 14.9998C14.7304 14.9998 14.4704 14.8898 14.2904 14.7098L13 13.4138V16.9995C13 17.5495 12.55 17.9995 12 17.9995Z" fill="#F25041"/>
</svg>
