<svg width="24" height="24" viewBox="0 0 24 24" fill="none" xmlns="http://www.w3.org/2000/svg">
<path fill-rule="evenodd" clip-rule="evenodd" d="M12 3C13.5977 3 14.9037 4.24892 14.9949 5.82373L15 6V10C16.5977 10 17.9037 11.2489 17.9949 12.8237L18 13V16C18 16.2761 18.2239 16.5 18.5 16.5C18.7455 16.5 18.9496 16.3231 18.9919 16.0899L19 16V10C17.9456 10 17.0818 9.18412 17.0055 8.14926L17 8V7.41442L16.2929 6.70711C15.9324 6.34662 15.9047 5.77939 16.2097 5.3871L16.2929 5.29289C16.6534 4.93241 17.2206 4.90468 17.6129 5.2097L17.7071 5.29289L18.7071 6.29289L20.7071 8.29289L20.7168 8.30269C20.892 8.48283 21 8.72881 21 9V16C21 17.3807 19.8807 18.5 18.5 18.5C17.1745 18.5 16.09 17.4685 16.0053 16.1644L16 16V13C16 12.4872 15.614 12.0645 15.1166 12.0067L15 12V19C15.5523 19 16 19.4477 16 20C16 20.5128 15.614 20.9355 15.1166 20.9933L15 21H14H4H3C2.44772 21 2 20.5523 2 20C2 19.4872 2.38604 19.0645 2.88338 19.0067L3 19V11V6C3 4.40232 4.24892 3.09634 5.82373 3.00509L6 3H12ZM5 12V19H13V12H5ZM13 10H5V6L5.00673 5.88338C5.06449 5.38604 5.48716 5 6 5H12L12.1166 5.00673C12.614 5.06449 13 5.48716 13 6V10Z" fill="#36495A"/>
</svg>
