<svg width="21" height="21" viewBox="0 0 21 21" fill="none" xmlns="http://www.w3.org/2000/svg">
<path fill-rule="evenodd" clip-rule="evenodd" d="M10.5001 2.625C11.898 2.625 13.0408 3.71781 13.1206 5.09576L13.1251 5.25L13.1251 8.75011C14.523 8.75011 15.6658 9.84291 15.7456 11.2209L15.7501 11.3751V14.0001C15.7501 14.2417 15.9459 14.4376 16.1876 14.4376C16.4023 14.4376 16.581 14.2828 16.618 14.0787L16.6251 14.0001V8.74989H16.625C15.7024 8.74989 14.9466 8.036 14.8798 7.1305L14.875 6.99989V6.48767L14.2563 5.86883C13.9409 5.5534 13.9166 5.05708 14.1835 4.71382L14.2563 4.63139C14.5718 4.31597 15.0681 4.2917 15.4113 4.5586L15.4938 4.63139L16.3586 5.49626C16.3654 5.50282 16.3721 5.50948 16.3786 5.51625L18.1086 7.24624C18.2728 7.40518 18.3748 7.62783 18.375 7.87432L18.3751 7.87511V14.0001C18.3751 15.2082 17.3957 16.1876 16.1876 16.1876C15.0278 16.1876 14.0788 15.285 14.0047 14.1439L14.0001 14.0001V11.3751C14.0001 10.9264 13.6623 10.5565 13.2271 10.506L13.1251 10.5001L13.1251 16.6251C13.6083 16.6251 14 17.0168 14 17.5001C14 17.9488 13.6622 18.3186 13.227 18.3692L13.125 18.3751H2.625C2.14175 18.3751 1.75 17.9833 1.75 17.5001C1.75 17.0513 2.08779 16.6815 2.52296 16.6309L2.625 16.6251H2.62505V9.62511V5.25C2.62505 3.85203 3.71786 2.7093 5.09582 2.62946L5.25005 2.625H10.5001ZM4.37505 10.5001V16.6251H11.3751V10.5001H4.37505ZM11.3751 8.75011H4.37505V5.25L4.38094 5.14796C4.43148 4.71279 4.80132 4.375 5.25005 4.375H10.5001L10.6021 4.38089C11.0373 4.43143 11.3751 4.80127 11.3751 5.25V8.75011Z" fill="black"/>
</svg>
