<svg width="24" height="25" viewBox="0 0 24 25" fill="none" xmlns="http://www.w3.org/2000/svg">
<path fill-rule="evenodd" clip-rule="evenodd" d="M9.00098 3.95996H5.00098C3.89641 3.95996 3.00098 4.85539 3.00098 5.95996V9.95996C3.00098 11.0645 3.89641 11.96 5.00098 11.96H9.00098C10.1055 11.96 11.001 11.0645 11.001 9.95996V5.95996C11.001 4.85539 10.1055 3.95996 9.00098 3.95996ZM5.00098 5.95996H9.00098V9.95996H5.00098V5.95996ZM19.001 3.95996H15.001C13.8964 3.95996 13.001 4.85539 13.001 5.95996V9.95996C13.001 11.0645 13.8964 11.96 15.001 11.96H19.001C20.1055 11.96 21.001 11.0645 21.001 9.95996V5.95996C21.001 4.85539 20.1055 3.95996 19.001 3.95996ZM15.001 5.95996H19.001V9.95996H15.001V5.95996ZM5.00098 13.96H9.00098C10.1055 13.96 11.001 14.8554 11.001 15.96V19.96C11.001 21.0645 10.1055 21.96 9.00098 21.96H5.00098C3.89641 21.96 3.00098 21.0645 3.00098 19.96V15.96C3.00098 14.8554 3.89641 13.96 5.00098 13.96ZM9.00098 15.96H5.00098V19.96H9.00098V15.96ZM17.9942 14.8433C17.9365 14.346 17.5138 13.96 17.001 13.96C16.4487 13.96 16.001 14.4077 16.001 14.96V16.96H14.001L13.8844 16.9667C13.387 17.0245 13.001 17.4471 13.001 17.96C13.001 18.5122 13.4487 18.96 14.001 18.96H16.001V20.96L16.0077 21.0766C16.0655 21.5739 16.4881 21.96 17.001 21.96C17.5533 21.96 18.001 21.5122 18.001 20.96V18.96H20.001L20.1176 18.9532C20.6149 18.8955 21.001 18.4728 21.001 17.96C21.001 17.4077 20.5533 16.96 20.001 16.96H18.001V14.96L17.9942 14.8433Z" fill="#F25041"/>
</svg>
