<svg width="17" height="16" viewBox="0 0 17 16" fill="none" xmlns="http://www.w3.org/2000/svg">
<path fill-rule="evenodd" clip-rule="evenodd" d="M8.02863 1.52827C8.26895 1.28795 8.64711 1.26946 8.90863 1.47281L8.97144 1.52827L14.9714 7.52827C15.3732 7.92999 15.1185 8.60446 14.5758 8.66235L14.5 8.66634H13.8334V12.6663C13.8334 13.7315 13.0008 14.6021 11.9509 14.6629L11.8334 14.6663L10.5 14.6663H6.50003L5.1667 14.6663C4.10158 14.6663 3.23093 13.8337 3.1701 12.7839L3.1667 12.6663V8.66634H2.50003C1.93192 8.66634 1.63508 8.00933 1.97788 7.58466L2.02863 7.52827L8.02863 1.52827ZM7.1667 13.333H9.83337V9.99967C9.83337 9.65778 9.57601 9.376 9.24445 9.33749L9.1667 9.33301H7.83337C7.49148 9.33301 7.2097 9.59037 7.17119 9.92193L7.1667 9.99967V13.333ZM11.1667 13.333V9.99967L11.1633 9.88216C11.1025 8.83229 10.2318 7.99967 9.1667 7.99967H7.83337L7.71585 8.00307C6.66598 8.0639 5.83337 8.93455 5.83337 9.99967V13.333H5.1667L5.08895 13.3285C4.75739 13.29 4.50003 13.0082 4.50003 12.6663L4.50003 7.99967L4.49555 7.92193C4.49388 7.90758 4.49176 7.89337 4.4892 7.87932C4.45076 7.66852 4.31319 7.49231 4.12655 7.40077C4.10727 7.39131 4.08747 7.38276 4.06721 7.37517L8.50003 2.94301L12.9324 7.37535C12.9123 7.3829 12.8926 7.39139 12.8735 7.40077C12.6523 7.50926 12.5 7.73668 12.5 7.99967V12.6663L12.4955 12.7441C12.457 13.0756 12.1753 13.333 11.8334 13.333H11.1667Z" fill="#DA483B"/>
</svg>
