<svg width="90" height="99" viewBox="0 0 90 99" fill="none" xmlns="http://www.w3.org/2000/svg">
<g clip-path="url(#clip0_9087_37262)">
<path d="M4.02731 64.1673C3.77242 45.734 16.1216 30.705 35.2763 26.1408C55.6671 21.2866 76.899 32.1928 83.8319 51.3573C85.1423 55.2818 85.8469 59.3793 85.9219 63.5117C86.2406 71.3919 79.9321 77.5825 71.7758 77.9355C63.3391 78.3138 56.6229 72.8166 55.8455 64.8986C55.1063 57.4093 50.6713 53.3747 43.8276 53.9799C41.1864 54.1328 38.7087 55.2955 36.918 57.2224C35.1273 59.1493 34.1639 61.6893 34.2312 64.306C34.1547 77.0151 43.012 89.346 55.6798 94.1497C56.9981 94.4781 58.2792 94.9385 59.5031 95.524C60.4589 96.1544 61.7461 97.4405 61.6441 98.2852C61.4275 100.025 59.9364 100.164 58.2286 99.6848C53.086 98.3694 48.2769 96.0083 44.1079 92.7521C39.9388 89.4958 36.5013 85.4159 34.0145 80.7724C30.6107 74.9985 29.214 68.2799 30.0383 61.6457C31.1343 54.0807 38.0927 49.0374 46.1471 49.4661C49.7403 49.6773 53.1332 51.1739 55.6937 53.6768C58.2541 56.1798 59.8073 59.5184 60.0638 63.0704C60.5863 69.7906 65.5056 74.2287 71.8395 73.6739C78.1734 73.1192 82.2898 68.0128 81.6017 61.2422C79.8939 44.4102 65.837 31.2598 48.7342 29.7216C30.3315 28.0573 15.2678 39.1904 10.5014 51.8112C7.14966 60.7379 7.95253 69.7149 10.6416 78.6542C11.1142 79.6919 11.4113 80.7993 11.5209 81.9323C11.5209 82.8401 10.6416 83.7227 10.1573 84.6179C9.26518 84.0757 7.7741 83.7101 7.60843 82.9788C6.334 78.7299 5.28898 74.4052 4.39688 70.0554C4.12692 68.1044 4.0034 66.1363 4.02731 64.1673V64.1673Z" fill="#8BBBDA"/>
<path d="M21.5251 65.5543C21.5251 76.1074 26.0238 85.324 33.5047 93.2925C34.0144 93.822 34.7791 94.2633 34.9703 94.8811C35.1735 96.0383 35.2674 97.2118 35.2506 98.3862C34.0654 98.2223 32.294 98.4871 31.7715 97.8188C27.9482 93.0025 23.8955 88.3122 21.079 82.9663C17.1084 75.5624 15.8391 67.0306 17.4851 58.8089C19.9702 46.1124 32.4469 36.6814 45.6755 37.2992C60.1657 37.9674 71.4953 47.6884 73.1648 60.8514C73.1842 61.1621 73.1842 61.4737 73.1648 61.7844C73.1648 63.4865 73.7001 65.7182 71.113 65.8947C68.5259 66.0712 68.7936 63.8396 68.6406 62.2888C67.7358 53.236 62.7783 47.0958 54.52 43.6664C50.5718 41.8964 46.2044 41.2457 41.9043 41.7866C37.6043 42.3276 33.5405 44.039 30.1657 46.7302C24.1122 51.2439 21.13 57.4094 21.5251 65.5543Z" fill="#8BBBDA"/>
<path d="M90.0251 36.1644C90.0787 36.5774 90.0117 36.9971 89.8319 37.3737C89.6521 37.7502 89.3671 38.068 89.0106 38.2895C88.6541 38.5109 88.2409 38.6268 87.82 38.6233C87.399 38.6198 86.9879 38.4972 86.6351 38.27C85.8142 37.6297 85.0928 36.8735 84.4941 36.0257C64.2052 11.4396 25.9342 11.4018 5.76005 35.9248C4.48562 37.4 3.28765 40.1738 0.891731 38.0934C-1.50419 36.0131 1.27406 34.5379 2.37007 33.1636C24.0353 6.16934 67.2001 6.53498 88.5085 33.8571C89.1075 34.664 89.6046 35.5718 90.0251 36.1644Z" fill="#8BBBDA"/>
<path d="M76.4405 9.95181C76.2366 12.6752 74.7965 12.9904 73.0887 12.3852C71.381 11.78 69.4694 10.7461 67.6342 10.0149C51.296 3.44595 35.1618 4.08897 19.206 11.427C18.9256 11.5657 18.658 11.7296 18.3648 11.8556C16.8228 12.5617 14.9749 13.5073 13.9808 11.49C12.9868 9.4727 14.8857 8.59011 16.415 7.85884C35.6843 -1.31997 54.9239 -1.24432 74.1338 8.08579C74.9807 8.60685 75.7561 9.23405 76.4405 9.95181V9.95181Z" fill="#8BBBDA"/>
</g>
<defs>
<clipPath id="clip0_9087_37262">
<rect width="90" height="99" fill="white"/>
</clipPath>
</defs>
</svg>
