<svg width="114" height="113" viewBox="0 0 114 113" fill="none" xmlns="http://www.w3.org/2000/svg">
<path d="M92.3125 0.706055H81.7187C80.5181 0.706055 79.6 1.62418 79.6 2.8248C79.6 4.02543 80.5181 4.94355 81.7187 4.94355H92.3125C95.0668 4.94355 97.2562 7.13285 97.2562 9.8873V20.4811C97.2562 21.6817 98.1743 22.5998 99.375 22.5998C100.576 22.5998 101.494 21.6817 101.494 20.4811V9.8873C101.494 4.8023 97.3975 0.706055 92.3125 0.706055Z" fill="#8BBBDA"/>
<path d="M32.2821 0.706055H21.6883C16.6033 0.706055 12.5071 4.8023 12.5071 9.8873V20.4811C12.5071 21.6817 13.4252 22.5998 14.6258 22.5998C15.8265 22.5998 16.7446 21.6817 16.7446 20.4811V9.8873C16.7446 7.13301 18.9339 4.94355 21.6883 4.94355H32.2821C33.4827 4.94355 34.4008 4.02543 34.4008 2.8248C34.4008 1.62418 33.4827 0.706055 32.2821 0.706055Z" fill="#8BBBDA"/>
<path d="M14.625 67.7998C13.4244 67.7998 12.5062 68.7179 12.5062 69.9186V80.5123C12.5062 85.5973 16.6025 89.6936 21.6875 89.6936H32.2812C33.4818 89.6936 34.4 88.7754 34.4 87.5748C34.4 86.3742 33.4818 85.4561 32.2812 85.4561H21.6875C18.9332 85.4561 16.7437 83.2668 16.7437 80.5123V69.9186C16.7437 68.7179 15.8256 67.7998 14.625 67.7998Z" fill="#8BBBDA"/>
<path d="M99.375 67.7998C98.1743 67.7998 97.2562 68.7179 97.2562 69.9186V80.5123C97.2562 83.2666 95.0669 85.4561 92.3125 85.4561H81.7187C80.5181 85.4561 79.6 86.3742 79.6 87.5748C79.6 88.7754 80.5181 89.6936 81.7187 89.6936H92.3125C97.3975 89.6936 101.494 85.5973 101.494 80.5123V69.9186C101.494 68.7179 100.576 67.7998 99.375 67.7998Z" fill="#8BBBDA"/>
<path d="M51.35 54.3821C51.7031 54.3821 51.9856 54.3115 52.2681 54.1702L57.9181 51.3452C58.6243 50.9921 59.1187 50.2858 59.1187 49.4384V31.7813C59.1187 30.5807 58.2006 29.6626 57 29.6626C55.7993 29.6626 54.8812 30.5807 54.8812 31.7813V48.0953L50.4319 50.3553C49.3725 50.8497 48.9488 52.121 49.5138 53.1803C49.7963 53.9572 50.5732 54.3809 51.35 54.3809L51.35 54.3821Z" fill="#8BBBDA"/>
<path d="M39.3429 29.6621C38.1422 29.6621 37.2241 30.5802 37.2241 31.7809V38.8434C37.2241 40.044 38.1422 40.9621 39.3429 40.9621C40.5435 40.9621 41.4616 40.044 41.4616 38.8434V31.7809C41.4616 30.5802 40.5435 29.6621 39.3429 29.6621Z" fill="#8BBBDA"/>
<path d="M74.6571 29.6621C73.4565 29.6621 72.5383 30.5802 72.5383 31.7809V38.8434C72.5383 40.044 73.4565 40.9621 74.6571 40.9621C75.8577 40.9621 76.7758 40.044 76.7758 38.8434V31.7809C76.7758 30.5802 75.8577 29.6621 74.6571 29.6621Z" fill="#8BBBDA"/>
<path d="M39.9079 61.4426C39.1311 62.2901 39.2017 63.6319 40.0492 64.4089C44.8517 68.7876 50.9254 70.9771 56.9992 70.9771C63.0729 70.9771 69.1467 68.7878 73.9492 64.4089C74.7967 63.632 74.8673 62.2901 74.0904 61.4426C73.3135 60.5951 71.9717 60.5245 71.1242 61.3014C63.0729 68.6464 50.9262 68.6464 42.8742 61.3014C42.0267 60.5245 40.6849 60.5951 39.9079 61.4426Z" fill="#8BBBDA"/>
</svg>
