<svg width="106" height="106" viewBox="0 0 106 106" fill="none" xmlns="http://www.w3.org/2000/svg">
<path d="M50.1723 96.9169C49.6814 96.7466 49.1431 96.7781 48.6754 97.0045C48.2078 97.231 47.8493 97.6338 47.6785 98.1245L45.9285 103.375C45.8462 103.62 45.813 103.879 45.8309 104.138C45.8488 104.396 45.9174 104.648 46.0328 104.88C46.1482 105.111 46.3081 105.318 46.5034 105.488C46.6987 105.657 46.9256 105.787 47.171 105.869C47.3725 105.93 47.5817 105.962 47.7923 105.965C48.2064 105.966 48.6104 105.836 48.9465 105.594C49.2827 105.352 49.5341 105.011 49.6648 104.618L51.4148 99.3671C51.5678 98.8773 51.5235 98.3472 51.2914 97.8895C51.0593 97.4319 50.6578 97.0829 50.1723 96.9169Z" fill="#8BBBDA"/>
<path d="M27.658 83.0618C27.1998 82.9638 26.7217 83.0346 26.3116 83.2614C25.9016 83.4881 25.5873 83.8554 25.4268 84.2956C25.4268 84.3832 25.3393 84.4619 25.313 84.5669L25.243 84.8382C24.5255 87.7522 22.1455 93.7114 22.128 93.7727C21.9696 94.2489 21.999 94.7676 22.2102 95.2228C22.4213 95.678 22.7983 96.0354 23.2642 96.222C23.73 96.4086 24.2495 96.4102 24.7165 96.2266C25.1835 96.043 25.5627 95.6879 25.7768 95.234C25.873 94.989 28.0605 89.5111 28.9443 86.2471C28.9443 86.0983 29.0318 85.9233 29.0668 85.7833L29.1543 85.407C29.2109 85.1547 29.2171 84.8937 29.1725 84.639C29.1279 84.3843 29.0333 84.1409 28.8942 83.9229C28.7552 83.7049 28.5743 83.5166 28.3622 83.3688C28.15 83.221 27.9107 83.1167 27.658 83.0618Z" fill="#8BBBDA"/>
<path d="M4.375 60.2754C4.08668 57.8067 3.94934 55.3227 3.96375 52.8373C3.97324 50.2166 4.18975 47.6007 4.61125 45.0141C4.89729 43.1853 5.28582 41.3739 5.775 39.5887C5.84756 39.3364 5.86872 39.0721 5.83722 38.8116C5.80573 38.551 5.72221 38.2993 5.59164 38.0716C5.46107 37.8439 5.2861 37.6448 5.0771 37.486C4.86811 37.3272 4.62935 37.212 4.375 37.1472C3.92975 37.0256 3.45568 37.0672 3.03846 37.2646C2.62123 37.462 2.28836 37.8021 2.1 38.2236C2.04009 38.3141 1.99021 38.411 1.95125 38.5123C1.27316 40.9493 0.773093 43.4323 0.455 45.9417C0.153862 48.225 0.00187251 50.5255 0 52.8285C0 60.5029 0.9625 66.0159 3.1325 70.715C3.3518 71.1896 3.75064 71.5577 4.24129 71.7382C4.73193 71.9187 5.27418 71.8969 5.74875 71.6776C6.22332 71.4583 6.59134 71.0594 6.77184 70.5687C6.95235 70.078 6.93055 69.5357 6.71125 69.0611C5.47646 66.2733 4.68806 63.3084 4.375 60.2754Z" fill="#8BBBDA"/>
<path d="M22.4262 66.6191C22.3037 66.5316 22.19 66.4178 22.0587 66.3303C22.19 66.4178 22.3037 66.5228 22.4262 66.6103C22.2687 64.8602 22.0237 63.1538 21.7875 61.4911C21.3106 58.6269 21.0474 55.7312 21 52.8279C21 51.8391 21.0612 50.8678 21.1487 49.9052C21.689 43.7755 23.9999 37.9351 27.7999 33.0954C31.5999 28.2557 36.7251 24.6254 42.5512 22.6466C48.3535 20.674 54.6094 20.4609 60.5325 22.0341C60.7824 22.1007 61.043 22.1175 61.2994 22.0834C61.5558 22.0494 61.803 21.9651 62.0268 21.8355C62.2507 21.7059 62.4468 21.5335 62.604 21.3281C62.7612 21.1227 62.8764 20.8883 62.9431 20.6384C63.0097 20.3884 63.0265 20.1278 62.9924 19.8714C62.9584 19.6149 62.8741 19.3677 62.7445 19.1439C62.6149 18.92 62.4425 18.7239 62.2371 18.5666C62.0317 18.4094 61.7974 18.2942 61.5475 18.2275C53.1325 15.9971 44.1884 16.983 36.4612 20.9928H36.4H36.3212C30.9733 23.8144 26.4139 27.926 23.0562 32.955C19.2078 38.8706 17.1284 45.7621 17.0625 52.8192C17.1222 55.9141 17.4147 59.0001 17.9375 62.0512C17.9375 62.3925 18.0337 62.7337 18.0775 63.075C18.9567 68.2912 18.9271 73.6202 17.99 78.8263C17.3942 82.0396 16.5815 85.2087 15.5575 88.3121C15.3977 88.8088 15.4416 89.3486 15.6795 89.8129C15.9174 90.2772 16.3298 90.6282 16.8262 90.7886C17.0219 90.849 17.2252 90.8814 17.43 90.8848C17.837 90.8724 18.2302 90.7346 18.5559 90.4902C18.8817 90.2459 19.1241 89.907 19.25 89.5197C20.1862 86.597 20.8775 83.9893 21.3937 81.6441C22.5374 76.7229 22.8859 71.6504 22.4262 66.6191Z" fill="#8BBBDA"/>
<path d="M13.3516 63.5476C13.1241 61.7449 12.8616 59.7235 12.6866 57.7459C12.5554 56.2232 12.4679 54.6306 12.4679 52.863C12.4712 49.6821 12.8501 46.5129 13.5966 43.4209C13.5966 43.3247 13.7016 42.9834 13.7191 42.8959C14.8661 38.3846 16.7747 34.1023 19.3629 30.2336L19.2491 30.1286L19.3366 30.1986C21.9956 26.2262 25.3407 22.7593 29.2154 19.9602C29.4451 19.7927 29.6349 19.5763 29.7711 19.3266C29.9072 19.077 29.9864 18.8002 30.0029 18.5163C30.0424 18.0554 29.9218 17.595 29.6616 17.2125C29.3549 16.791 28.8942 16.5076 28.3797 16.424C27.8652 16.3405 27.3385 16.4634 26.9141 16.7662L26.7741 16.8712C22.7809 19.7966 19.3082 23.373 16.5016 27.4508L16.4316 27.5733C13.9801 31.1495 12.0504 35.0565 10.7004 39.1768C10.7004 39.2293 10.5866 39.5618 10.5604 39.6231C9.32009 43.6433 8.6457 47.8166 8.55664 52.0229C8.55664 52.1104 8.55664 53.0555 8.55664 53.1692C8.59668 56.8195 8.88904 60.4627 9.43164 64.0726C9.71164 66.1378 9.96539 68.1067 10.0966 70.1456C10.3327 73.9947 10.0382 77.8578 9.22164 81.6266C9.16269 81.8831 9.15576 82.1488 9.20125 82.408C9.24674 82.6672 9.34372 82.9147 9.48647 83.1357C9.62923 83.3568 9.81485 83.547 10.0324 83.6952C10.2499 83.8433 10.4949 83.9463 10.7529 83.9981C10.8867 84.0109 11.0215 84.0109 11.1554 83.9981C11.6073 83.9976 12.0452 83.8416 12.3957 83.5564C12.7463 83.2712 12.988 82.874 13.0804 82.4317C13.6022 80.0023 13.9328 77.5358 14.0691 75.0548C14.2131 71.2048 13.9727 67.3499 13.3516 63.5476Z" fill="#8BBBDA"/>
<path d="M96.5816 67.9235H96.5116C95.9953 67.9572 95.5135 68.1947 95.1722 68.5836C94.8309 68.9725 94.658 69.4811 94.6916 69.9974C94.6916 70.1725 94.6916 70.365 94.6916 70.54C94.7704 72.7364 94.8229 75.0379 94.8229 77.4706C94.8229 77.9928 95.0303 78.4936 95.3995 78.8628C95.7687 79.232 96.2695 79.4395 96.7916 79.4395C97.3138 79.4395 97.8145 79.232 98.1837 78.8628C98.5529 78.4936 98.7604 77.9928 98.7604 77.4706C98.7604 74.7928 98.6991 72.2201 98.6116 69.8487C98.612 69.5868 98.559 69.3276 98.4557 69.0869C98.3525 68.8462 98.2012 68.6291 98.0112 68.4489C97.8212 68.2687 97.5964 68.1291 97.3506 68.0388C97.1048 67.9485 96.8431 67.9092 96.5816 67.9235Z" fill="#8BBBDA"/>
<path d="M63.9799 80.8302C64.0086 80.3084 63.8296 79.7964 63.482 79.4061C63.1344 79.0159 62.6465 78.7791 62.1249 78.7475C61.8664 78.7297 61.607 78.7636 61.3618 78.8472C61.1166 78.9307 60.8904 79.0623 60.6966 79.2341C60.5028 79.406 60.3451 79.6148 60.2327 79.8482C60.1204 80.0817 60.0557 80.3352 60.0424 80.5939C59.7344 84.2817 59.1494 87.9411 58.2924 91.5411C57.4417 95.2067 56.3126 98.802 54.9149 102.296C54.7212 102.78 54.7266 103.321 54.9298 103.801C55.133 104.281 55.5176 104.662 55.9999 104.86C56.2369 104.952 56.4891 105 56.7436 105C57.1358 105.001 57.5193 104.884 57.8439 104.664C58.1686 104.443 58.4194 104.131 58.5636 103.766C60.1952 99.5854 61.4999 95.2846 62.4661 90.9023C62.5099 90.6835 62.5449 90.491 62.5886 90.281C62.5886 90.2197 62.5886 90.1322 62.5886 90.071C63.254 87.0245 63.7188 83.9376 63.9799 80.8302Z" fill="#8BBBDA"/>
<path d="M81.7355 66.9258C81.5819 62.0401 81.1054 57.1699 80.3093 52.3471C80.3093 52.2946 80.0993 51.2095 80.0205 50.7982C79.639 48.9382 79.1452 47.103 78.5418 45.3027C78.3724 44.8084 78.0136 44.4016 77.5442 44.1718C77.0749 43.9421 76.5336 43.9082 76.0393 44.0776C75.545 44.247 75.1382 44.6059 74.9085 45.0752C74.6788 45.5446 74.6449 46.086 74.8143 46.5803C75.3702 48.2308 75.8231 49.9142 76.1705 51.6207C76.3455 52.4958 76.5118 53.4584 76.6693 54.491C77.4106 59.4927 77.814 64.5387 77.8768 69.5947C77.9785 75.0168 77.6861 80.439 77.0018 85.8186C76.5186 89.6675 75.7286 93.4716 74.6393 97.1945C74.4919 97.6958 74.5479 98.235 74.7952 98.6953C75.0425 99.1555 75.4612 99.4998 75.9605 99.6535C76.1456 99.706 76.337 99.7325 76.5293 99.7323C76.9515 99.7315 77.3624 99.595 77.7011 99.3429C78.0398 99.0908 78.2886 98.7364 78.4105 98.3321C79.7935 93.4097 80.7479 88.3767 81.263 83.2896L81.3418 82.5633C81.8245 77.3569 81.9823 72.1255 81.8143 66.8995L81.7355 66.9258Z" fill="#8BBBDA"/>
<path d="M72.8449 65.5693C72.7487 62.2265 72.4687 58.98 72.1974 56.5123C72.1974 56.5123 72.1449 56.0485 72.1362 55.9872C71.8229 53.0599 71.2608 50.1646 70.4562 47.3327C69.6301 44.6313 68.1861 42.1596 66.2387 40.1134C64.4786 38.2302 62.3519 36.727 59.9895 35.6962C57.627 34.6653 55.0787 34.1287 52.5012 34.1191C50.5004 34.1179 48.5134 34.4491 46.6212 35.0992L46.2449 35.2305C45.7541 35.4092 45.3544 35.7756 45.1337 36.249C44.913 36.7225 44.8894 37.2642 45.068 37.7551C45.2467 38.2459 45.6131 38.6457 46.0865 38.8664C46.5599 39.0871 47.1016 39.1107 47.5924 38.932L47.8899 38.827C49.3738 38.3167 50.9321 38.0565 52.5012 38.057C55.7608 38.0834 58.9225 39.1742 61.5049 41.1635C63.9701 43.0127 65.7914 45.5903 66.7112 48.5316C67.5654 51.596 68.1308 54.7337 68.3999 57.9036C68.6362 60.1088 68.8287 62.664 68.9162 65.6743C68.9862 68.2995 68.9162 70.9247 68.8549 73.4887C68.6659 78.9694 68.0427 84.4265 66.9912 89.8088H67.0524H66.9912C66.2199 93.7405 65.1791 97.6146 63.8762 101.403C63.706 101.897 63.7384 102.437 63.9665 102.907C64.1945 103.376 64.5995 103.735 65.0924 103.906C65.3005 103.979 65.5196 104.014 65.7399 104.011C66.1494 104.012 66.549 103.885 66.883 103.649C67.2171 103.412 67.469 103.077 67.6037 102.69C69.1622 98.0129 70.3759 93.228 71.2349 88.3737C71.2349 88.2687 71.3312 87.7874 71.3224 87.7874C72.1887 82.5784 72.6887 77.315 72.8187 72.0361V71.9048C72.8187 71.9048 72.8187 71.8173 72.8187 71.7735C72.8799 69.7259 72.9062 67.6607 72.8449 65.5693Z" fill="#8BBBDA"/>
<path d="M55.9218 74.9236C56.1234 70.5962 56.0884 66.261 55.8168 61.9375C55.7731 61.3337 55.6156 59.1985 55.6156 59.146C55.2568 55.3832 54.8193 53.0205 54.7406 52.7667C54.7014 52.5032 54.6092 52.2505 54.4695 52.0237C54.3298 51.7969 54.1455 51.6008 53.9278 51.4473C53.7102 51.2937 53.4636 51.186 53.2031 51.1305C52.9426 51.0751 52.6735 51.0731 52.4122 51.1246C52.1509 51.1762 51.9027 51.2802 51.6828 51.4305C51.4628 51.5807 51.2757 51.7741 51.1326 51.9987C50.9895 52.2234 50.8935 52.4748 50.8504 52.7377C50.8073 53.0005 50.818 53.2694 50.8818 53.528C50.8818 53.5893 51.3281 55.9257 51.6868 59.7586C51.6868 59.9423 51.7743 60.7911 51.7918 61.0187C52.1955 66.0438 52.2335 71.0917 51.9056 76.1224C51.6427 80.3006 51.0902 84.4556 50.2518 88.5572C50.1994 88.8106 50.1974 89.0719 50.246 89.326C50.2945 89.5802 50.3927 89.8223 50.535 90.0385C50.6772 90.2547 50.8606 90.4407 51.0748 90.5859C51.2889 90.7312 51.5296 90.8328 51.7831 90.8849C51.9169 90.8978 52.0517 90.8978 52.1856 90.8849C52.6382 90.8824 53.0763 90.7246 53.4267 90.4379C53.777 90.1512 54.0184 89.753 54.1106 89.3098C54.968 84.8959 55.5524 80.4333 55.8606 75.9474C55.8606 75.9474 55.9306 74.9236 55.9218 74.9236Z" fill="#8BBBDA"/>
<path d="M37.0634 88.5927C38.3106 84.1264 39.0646 79.537 39.3122 74.9065C39.3122 74.8453 39.3122 74.2502 39.3122 74.1715C39.4466 69.028 39.1833 63.8818 38.5247 58.7789C38.5247 58.6564 38.5247 58.5514 38.5247 58.4289C38.2791 56.5709 38.1273 54.7017 38.0697 52.8284C38.0523 49.4583 39.1851 46.1831 41.2809 43.5439C41.6046 43.1343 41.7523 42.6128 41.6916 42.0943C41.6309 41.5757 41.3667 41.1025 40.9572 40.7787C40.8314 40.6961 40.6963 40.6285 40.5547 40.5774C40.3304 40.4857 40.0951 40.4239 39.8547 40.3937C39.5408 40.3675 39.2253 40.4183 38.9355 40.5419C38.6458 40.6654 38.3906 40.8579 38.1922 41.1025C35.5584 44.4437 34.1253 48.5739 34.1234 52.8284C34.1508 54.2589 34.2501 55.6871 34.4209 57.1075C34.4909 57.7989 34.5522 58.4639 34.6397 59.2165C35.2554 63.8571 35.5245 68.5371 35.4447 73.2176C35.2922 78.2547 34.5073 83.2526 33.1084 88.0939C32.1798 91.3412 30.9888 94.5078 29.5472 97.5622C29.3251 98.0347 29.2989 98.5759 29.4743 99.0678C29.6497 99.5596 30.0125 99.962 30.4834 100.187C30.758 100.312 31.0568 100.375 31.3584 100.371C31.726 100.363 32.0842 100.254 32.3932 100.054C32.7022 99.8552 32.9498 99.574 33.1084 99.2423C34.5576 96.0638 35.794 92.7926 36.8097 89.4502C36.8097 89.2927 36.8884 89.1527 36.9322 89.004C36.9759 88.8552 37.0284 88.6889 37.0634 88.5489V88.5927Z" fill="#8BBBDA"/>
<path d="M47.6613 75.1426C47.6613 75.0726 47.6613 74.9238 47.6613 74.9238C47.8964 69.9822 47.7589 65.0298 47.2501 60.1088C47.2501 59.8288 47.1626 59.2338 47.1538 59.1462C47.0751 58.4112 46.9963 57.7024 46.9263 57.0548C46.7163 55.2172 46.5501 53.7733 46.5501 52.8195C46.5218 51.2067 47.1307 49.6478 48.2447 48.4813C49.3587 47.3148 50.8878 46.6348 52.5001 46.589C55.1251 46.589 56.7876 47.7528 58.2838 50.7455C58.6951 51.5594 59.4301 55.1822 59.9813 59.7763C60.422 63.3509 60.6645 66.9471 60.7076 70.5484C60.7076 71.0691 60.9138 71.5686 61.2811 71.9376C61.6484 72.3066 62.1469 72.515 62.6676 72.5174C63.1905 72.515 63.6912 72.3057 64.0602 71.935C64.4292 71.5644 64.6363 71.0627 64.6363 70.5397C64.6363 67.0394 64.2688 62.664 63.8576 59.0937C63.8576 58.945 63.7876 58.5424 63.7788 58.4899C63.2101 54.0183 62.4488 50.2905 61.7926 48.9779C60.4276 46.2652 57.9863 42.6511 52.4826 42.6511C49.8322 42.704 47.3106 43.8044 45.4692 45.7115C43.6278 47.6186 42.6165 50.1774 42.6563 52.8282C42.6563 54.0008 42.8313 55.5409 43.0501 57.5011C43.1201 58.1312 43.1988 58.805 43.2776 59.5138C43.8984 64.7609 44.039 70.0537 43.6976 75.3263C43.3341 80.4883 42.4159 85.5961 40.9588 90.5614C39.9537 93.982 38.7081 97.3273 37.2313 100.572C37.1213 100.808 37.0592 101.064 37.0485 101.324C37.0379 101.584 37.0789 101.843 37.1692 102.087C37.2595 102.332 37.3974 102.555 37.5747 102.746C37.7521 102.936 37.9655 103.09 38.2026 103.197C38.4387 103.306 38.6939 103.367 38.9537 103.377C39.2134 103.388 39.4726 103.346 39.7164 103.256C39.9603 103.166 40.1839 103.028 40.3745 102.852C40.5652 102.675 40.7191 102.462 40.8276 102.226C42.4173 98.6691 43.765 95.0088 44.8613 91.2702C44.8613 91.2702 45.0626 90.5789 45.0538 90.5789C46.336 85.7691 47.191 80.8554 47.6088 75.8951C47.6088 75.8951 47.6438 75.3876 47.6613 75.1426Z" fill="#8BBBDA"/>
<path d="M104.52 46.0816C104.172 43.4213 103.634 40.7894 102.91 38.206L102.831 37.8822C102.063 35.2659 101.104 32.7096 99.961 30.2341V30.1553C99.9595 30.1232 99.9595 30.0911 99.961 30.059C96.5817 23.0276 91.7153 16.8142 85.6985 11.8488C78.8721 6.24379 70.7339 2.4649 62.0473 0.866607C61.7928 0.820066 61.5316 0.824116 61.2786 0.878525C61.0257 0.932935 60.7859 1.03664 60.573 1.18372C60.1431 1.48075 59.8488 1.93642 59.7548 2.45049C59.6608 2.96455 59.7749 3.4949 60.0719 3.92487C60.3689 4.35483 60.8245 4.64919 61.3385 4.74318C69.0093 6.16955 76.2171 9.44338 82.3385 14.2815C85.9696 17.1129 89.1807 20.4452 91.876 24.1785C94.2057 27.4331 96.1303 30.9594 97.6073 34.6794C97.6073 34.6269 97.6073 34.6269 97.6073 34.6794C98.9308 38.0007 99.8845 41.4576 100.451 44.9878C100.875 47.5711 101.092 50.1843 101.099 52.8022V53.126C101.102 53.5709 101.259 54.001 101.543 54.3437C101.826 54.6864 102.22 54.9208 102.656 55.0074C102.789 55.054 102.927 55.0834 103.067 55.0949C103.579 55.0858 104.067 54.878 104.428 54.5154C104.789 54.1527 104.994 53.6638 105.001 53.1522V52.8284C104.987 50.5715 104.826 48.3178 104.52 46.0816Z" fill="#8BBBDA"/>
<path d="M96.0133 62.0163H96.197C96.7121 61.9611 97.1847 61.705 97.5122 61.3037C97.8398 60.9024 97.996 60.3881 97.947 59.8724C97.667 56.8884 97.2733 53.8256 96.932 51.4629C96.932 51.3404 96.862 50.9729 96.8445 50.9029C96.3799 47.6101 95.7402 44.3443 94.9283 41.1196C94.7708 40.5333 94.4558 39.6582 94.2808 39.0894C92.9687 34.9688 91.0551 31.0647 88.6021 27.5034C85.745 23.3897 82.2126 19.7891 78.1545 16.8538C72.1959 12.5162 65.2353 9.75961 57.9227 8.84144C50.6101 7.92328 43.1842 8.87349 36.3383 11.6033C36.0811 11.687 35.8438 11.8226 35.6411 12.0016C35.4384 12.1807 35.2746 12.3994 35.1597 12.6443C35.0449 12.8892 34.9815 13.1551 34.9735 13.4254C34.9655 13.6958 35.0131 13.9649 35.1132 14.2162C35.2133 14.4674 35.3639 14.6955 35.5557 14.8862C35.7475 15.077 35.9763 15.2263 36.2281 15.3251C36.4799 15.4238 36.7493 15.4699 37.0195 15.4604C37.2898 15.4509 37.5553 15.3861 37.7995 15.2699C43.7094 12.9165 50.0981 12.0172 56.4279 12.6476C62.7578 13.2781 68.8436 15.4198 74.1733 18.8927C82.5147 24.3038 88.5583 32.611 91.1395 42.2134C91.1921 42.3797 91.2708 42.6947 91.367 43.0885V43.0447V43.0885C92.3189 47.1279 93.0404 51.2182 93.5283 55.3395C93.5283 55.6283 93.9308 58.8398 94.062 60.2399C94.1116 60.7243 94.3381 61.1734 94.6981 61.5012C95.0581 61.8289 95.5264 62.0124 96.0133 62.0163Z" fill="#8BBBDA"/>
<path d="M89.4684 60.8873C89.4684 60.7123 89.4159 60.2222 89.4071 60.1522C89.0356 55.6991 88.3987 51.2721 87.4996 46.8949C87.4996 46.8949 87.3859 46.3436 87.3684 46.2736C87.3509 46.2036 86.9309 44.3922 86.7646 43.7971C85.763 39.9398 84.1215 36.2779 81.9084 32.9637C79.1354 28.7456 75.4964 25.166 71.2334 22.4628C71.0133 22.3244 70.7681 22.2306 70.5119 22.1869C70.2556 22.1432 69.9932 22.1504 69.7397 22.208C69.4862 22.2657 69.2465 22.3728 69.0344 22.5231C68.8223 22.6734 68.6418 22.8641 68.5033 23.0841C68.3649 23.3042 68.2711 23.5494 68.2274 23.8057C68.1837 24.062 68.1909 24.3244 68.2486 24.5779C68.3063 24.8315 68.4133 25.0711 68.5636 25.2833C68.7139 25.4954 68.9046 25.6759 69.1246 25.8144C72.8863 28.1739 76.1068 31.3021 78.5746 34.9939C80.6117 38.0418 82.1203 41.4114 83.0371 44.961C83.2996 45.9148 83.6934 47.5074 84.1046 49.6951C84.9693 54.5049 85.5188 59.3661 85.7496 64.2476C85.9771 68.6229 86.0296 73.6721 85.7496 79.4213C85.5921 82.6766 85.3559 86.1157 84.9884 89.7997C84.9369 90.3169 85.092 90.8334 85.4198 91.2367C85.7477 91.6399 86.2216 91.8972 86.7384 91.9524H86.9396C87.4235 91.953 87.8905 91.7746 88.2508 91.4515C88.611 91.1284 88.839 90.6834 88.8909 90.2022C89.3896 85.1706 89.6696 80.5764 89.7659 76.2973C89.8971 70.7056 89.7046 65.2014 89.3984 60.9136L89.4684 60.8873Z" fill="#8BBBDA"/>
<path d="M9.16094 30.7413C10.3126 28.4556 11.6377 26.2615 13.1247 24.1783L13.0022 24.0208C13.0459 24.0733 13.0809 24.1258 13.1334 24.1783C15.8181 20.442 19.0206 17.1066 22.6447 14.2724C30.9835 7.70472 41.2562 4.07208 51.8697 3.93783C52.3918 3.93783 52.8926 3.73039 53.2618 3.36115C53.631 2.9919 53.8384 2.4911 53.8384 1.96891C53.8384 1.44673 53.631 0.945925 53.2618 0.576682C52.8926 0.207439 52.3918 0 51.8697 0C40.011 0.133711 28.553 4.31044 19.3897 11.8397C16.1499 14.5135 13.2391 17.5626 10.7184 20.923C10.721 20.9404 10.721 20.9581 10.7184 20.9755L10.6572 21.0543C8.74799 23.6031 7.05621 26.3079 5.59969 29.1399L5.52094 29.2974C5.4132 29.522 5.35268 29.7663 5.34313 30.0151C5.33359 30.264 5.37521 30.5122 5.46544 30.7443C5.55566 30.9765 5.69256 31.1876 5.86766 31.3647C6.04277 31.5418 6.25235 31.6811 6.48344 31.7739C6.72041 31.8993 6.98536 31.9626 7.25344 31.9577C7.65007 31.9398 8.03504 31.818 8.36981 31.6045C8.70457 31.3911 8.97739 31.0934 9.16094 30.7413Z" fill="#8BBBDA"/>
<path d="M52.5 25.5874C48.1803 25.5982 43.9273 26.6544 40.1043 28.6658C36.2813 30.6773 33.002 33.5842 30.5463 37.1384C27.3199 41.7339 25.5904 47.2133 25.5938 52.8284V52.8897C25.6133 55.038 25.7652 57.1831 26.0488 59.3127C26.32 61.7017 26.6438 64.5632 26.8013 69.3761C26.8625 71.1262 26.8975 73.1214 26.9063 75.5016C26.9132 76.0184 27.1239 76.5116 27.4926 76.8738C27.8614 77.2359 28.3582 77.4378 28.875 77.4355C29.1335 77.4343 29.3893 77.3823 29.6277 77.2823C29.8662 77.1823 30.0826 77.0363 30.2646 76.8526C30.4466 76.669 30.5906 76.4513 30.6885 76.212C30.7864 75.9726 30.8362 75.7164 30.835 75.4578C30.835 74.0577 30.835 72.5963 30.7825 71.38V71.1C30.7219 67.0047 30.4473 62.9155 29.96 58.8489C29.8025 57.5101 29.6713 56.3287 29.6013 55.0511C29.6013 54.3511 29.5313 53.6247 29.5313 52.8197C29.5266 47.7091 31.1988 42.7383 34.2913 38.6697C36.3848 35.8658 39.0968 33.5827 42.2164 31.9978C45.336 30.4129 48.7791 29.569 52.2779 29.5317C55.7768 29.4945 59.237 30.2649 62.3897 31.783C65.5423 33.3011 68.3023 35.526 70.455 38.2847C70.5705 38.4164 70.7064 38.5287 70.8575 38.6172C71.2362 38.8755 71.6938 38.9922 72.1499 38.9469C72.606 38.9015 73.0316 38.6971 73.3521 38.3693C73.6726 38.0415 73.8674 37.6113 73.9024 37.1542C73.9375 36.6972 73.8105 36.2423 73.5438 35.8695C71.0497 32.6672 67.8576 30.0765 64.2108 28.2947C60.5641 26.5128 56.5588 25.5869 52.5 25.5874Z" fill="#8BBBDA"/>
</svg>
