<svg width="24" height="12" viewBox="0 0 24 12" fill="none" xmlns="http://www.w3.org/2000/svg">
<path d="M12.0004 6.71334C13.5564 6.71334 14.9309 7.08385 16.0477 7.56835C17.0786 8.02435 17.7277 9.05036 17.7277 10.1619V10.7509C17.7277 11.2734 17.2982 11.7009 16.7732 11.7009H7.22772C6.70272 11.7009 6.27317 11.2734 6.27317 10.7509V10.1714C6.27317 9.05036 6.92226 8.02435 7.95317 7.57785C9.06999 7.08385 10.4445 6.71334 12.0004 6.71334ZM4.36408 6.95084C5.41408 6.95084 6.27317 6.09584 6.27317 5.05083C6.27317 4.00582 5.41408 3.15081 4.36408 3.15081C3.31408 3.15081 2.45499 4.00582 2.45499 5.05083C2.45499 6.09584 3.31408 6.95084 4.36408 6.95084ZM5.44272 7.99586C5.08953 7.93885 4.73635 7.90085 4.36408 7.90085C3.41908 7.90085 2.52181 8.10036 1.71044 8.45186C1.00408 8.75586 0.545898 9.43987 0.545898 10.2094V10.7509C0.545898 11.2734 0.975444 11.7009 1.50044 11.7009H4.84135V10.1714C4.84135 9.38287 5.0609 8.64186 5.44272 7.99586ZM19.6368 6.95084C20.6868 6.95084 21.5459 6.09584 21.5459 5.05083C21.5459 4.00582 20.6868 3.15081 19.6368 3.15081C18.5868 3.15081 17.7277 4.00582 17.7277 5.05083C17.7277 6.09584 18.5868 6.95084 19.6368 6.95084ZM23.455 10.2094C23.455 9.43987 22.9968 8.75586 22.2904 8.45186C21.4791 8.10036 20.5818 7.90085 19.6368 7.90085C19.2645 7.90085 18.9114 7.93885 18.5582 7.99586C18.94 8.64186 19.1595 9.38287 19.1595 10.1714V11.7009H22.5004C23.0254 11.7009 23.455 11.2734 23.455 10.7509V10.2094ZM12.0004 0.300781C13.585 0.300781 14.8641 1.57379 14.8641 3.15081C14.8641 4.72782 13.585 6.00084 12.0004 6.00084C10.4159 6.00084 9.13681 4.72782 9.13681 3.15081C9.13681 1.57379 10.4159 0.300781 12.0004 0.300781Z" fill="white"/>
</svg>
