<svg width="20" height="21" viewBox="0 0 20 21" fill="none" xmlns="http://www.w3.org/2000/svg">
<path fill-rule="evenodd" clip-rule="evenodd" d="M9.88386 0.506672L9.99784 0.5L10.1159 0.506672L10.1745 0.515238L10.2361 0.528213L10.3472 0.561978C10.4224 0.589792 10.495 0.62702 10.5634 0.673772L10.6679 0.756009L10.9225 0.974005C12.9396 2.64968 15.4897 3.54971 18.1118 3.51139L18.4542 3.50105C18.9143 3.48 19.3293 3.77602 19.4593 4.21798C20.4521 7.5953 20.0328 11.2309 18.2973 14.2936C16.5618 17.3562 13.6584 19.5841 10.2509 20.468C10.0863 20.5107 9.91345 20.5107 9.74879 20.468C6.34132 19.5841 3.43795 17.3562 1.70244 14.2936C-0.0330801 11.2309 -0.452357 7.5953 0.540458 4.21798C0.670378 3.77602 1.0854 3.48 1.54558 3.50105C4.28724 3.62651 6.9724 2.72253 9.0772 0.974005L9.33986 0.748603L9.43635 0.673772C9.50471 0.62702 9.57736 0.589792 9.65254 0.561978L9.76486 0.528009C9.80559 0.518091 9.84463 0.511218 9.88386 0.506672ZM9.99986 2.79501L9.82338 2.93131C7.71144 4.50745 5.16906 5.40476 2.53567 5.50345L2.27186 5.50901L2.20832 5.81905C1.74256 8.25509 2.11301 10.7858 3.27161 12.9943L3.44248 13.3075C4.85661 15.803 7.18707 17.6436 9.93236 18.4443L9.99986 18.463L10.0674 18.4443C12.7071 17.6744 14.9632 15.9431 16.39 13.5925L16.5572 13.3075C17.8495 11.027 18.2793 8.3711 17.7914 5.81905L17.7269 5.50901L17.4641 5.50345C14.8307 5.40476 12.2883 4.50745 10.1763 2.93131L9.99986 2.79501Z" fill="white"/>
</svg>
