<svg fill="none" height="20" viewBox="0 0 21 20" width="21" xmlns="http://www.w3.org/2000/svg">
    <g clip-path="url(#clip0_8291_56275)">
        <path
            d="M1.92733 9.64041C1.92733 11.8104 1.92733 13.9803 1.92733 16.1502C1.92733 17.327 2.34059 17.7271 3.51267 17.7295C4.61937 17.7295 5.72373 17.7295 6.83043 17.7295C7.43982 17.7295 7.76436 17.986 7.78771 18.4355C7.81106 18.885 7.45383 19.1886 6.82343 19.191C5.63968 19.191 4.45593 19.191 3.27218 19.191C1.65182 19.1745 0.514772 18.0613 0.510103 16.4256C0.491424 11.8755 0.491424 7.31984 0.510103 2.75873C0.510103 1.12538 1.65883 0.00746095 3.28152 0.00510743C7.12151 -0.00430664 10.9631 -0.00430664 14.8062 0.00510743C15.1713 -0.00835045 15.5352 0.0541008 15.8753 0.188574C16.2154 0.323047 16.5245 0.526665 16.7831 0.786743C17.0418 1.04682 17.2446 1.3578 17.3788 1.7003C17.5131 2.0428 17.576 2.40949 17.5636 2.77755C17.5636 3.69778 17.5636 4.61565 17.5636 5.53588C17.5636 6.02305 17.3464 6.3549 16.8631 6.36902C16.3798 6.38314 16.1463 6.04424 16.144 5.56177C16.144 4.70273 16.144 3.84135 16.144 2.9729C16.1323 1.88087 15.7004 1.45959 14.6077 1.45959H3.49166C2.33826 1.45959 1.92967 1.8738 1.92967 3.05998C1.925 5.25659 1.92422 7.45007 1.92733 9.64041Z"
            fill="white" />
        <path
            d="M20.5001 10.1292C20.5001 11.0895 20.255 11.6708 19.7834 12.1462C17.7443 14.2079 15.7006 16.2641 13.6521 18.3148C13.4246 18.552 13.1359 18.7207 12.8186 18.802C11.9267 18.9714 11.0208 19.082 10.1149 19.1809C10.0082 19.2009 9.89819 19.1947 9.79433 19.1628C9.69047 19.1309 9.59579 19.0742 9.51833 18.9975C9.44087 18.9208 9.38291 18.8264 9.34938 18.7223C9.31585 18.6182 9.30774 18.5074 9.32574 18.3995C9.43081 17.411 9.58023 16.4249 9.74834 15.4458C9.8087 15.2184 9.93271 15.0134 10.1056 14.8551C12.1812 12.7487 14.2522 10.6352 16.3605 8.56415C16.7005 8.20466 17.1475 7.96674 17.6337 7.88646C18.12 7.80619 18.6189 7.88794 19.0549 8.11933C20.0052 8.57121 20.4721 9.35258 20.5001 10.1292ZM10.9391 17.7146C11.5858 17.5334 12.3213 17.5428 12.7065 17.178C14.7542 15.2387 16.7248 13.2171 18.6837 11.1883C18.8037 11.046 18.8929 10.8799 18.9456 10.7008C18.9982 10.5216 19.0132 10.3334 18.9895 10.1481C18.9291 9.98231 18.8358 9.83069 18.7154 9.70243C18.595 9.57417 18.4499 9.47195 18.2891 9.402C17.8221 9.19254 17.4415 9.48202 17.1217 9.81857C15.3986 11.5625 13.7105 13.3488 11.9267 15.0246C11.1492 15.7424 10.8994 16.5332 10.9391 17.7146Z"
            fill="white" />
        <path
            d="M8.05322 6.39185C7.14264 6.39185 6.22973 6.39185 5.31916 6.39185C4.73078 6.39185 4.38523 6.09766 4.42959 5.62695C4.47396 5.08094 4.84519 4.9209 5.32616 4.9209C7.15043 4.9209 8.97469 4.9209 10.799 4.9209C11.2893 4.9209 11.6442 5.088 11.6885 5.62695C11.7235 6.09766 11.378 6.37772 10.7896 6.38243C9.87904 6.3989 8.96613 6.39185 8.05322 6.39185Z"
            fill="white" />
        <path
            d="M6.07798 10.3011C5.75111 10.3011 5.41957 10.327 5.09503 10.3011C5.0022 10.304 4.90983 10.2868 4.82416 10.2506C4.73849 10.2145 4.66152 10.1602 4.59845 10.0915C4.53537 10.0228 4.48766 9.94123 4.45853 9.85233C4.4294 9.76344 4.41954 9.66928 4.42961 9.57621C4.42529 9.48749 4.4394 9.39883 4.47105 9.31592C4.50269 9.23302 4.55118 9.15768 4.61338 9.09476C4.67559 9.03183 4.75015 8.9827 4.83228 8.95051C4.91442 8.91831 5.00232 8.90377 5.09035 8.90782C5.76512 8.87957 6.44221 8.87722 7.11697 8.90782C7.21009 8.90341 7.30305 8.91949 7.38938 8.95495C7.47572 8.99041 7.55336 9.04439 7.6169 9.11315C7.68045 9.18191 7.72837 9.26379 7.75735 9.3531C7.78634 9.44241 7.79568 9.53703 7.78473 9.63035C7.78697 9.71905 7.7713 9.80728 7.73865 9.88968C7.706 9.97208 7.65707 10.0469 7.59483 10.1097C7.53258 10.1724 7.45833 10.2217 7.37659 10.2547C7.29484 10.2876 7.2073 10.3034 7.11931 10.3011C6.77609 10.3246 6.42587 10.3011 6.07798 10.3011Z"
            fill="white" />
    </g>
    <defs>
        <clipPath id="clip0_8291_56275">
            <rect fill="white" height="19.2" transform="translate(0.5)" width="20" />
        </clipPath>
    </defs>
</svg>
