<svg width="148" height="148" viewBox="0 0 148 148" fill="none" xmlns="http://www.w3.org/2000/svg">
<path fill-rule="evenodd" clip-rule="evenodd" d="M135.665 30.8333C135.665 20.616 127.383 12.3333 117.165 12.3333H49.332L48.1009 12.3634C35.0498 13.0049 24.6654 23.7897 24.6654 36.9999V98.6666H18.4987L17.7795 98.7081C14.7126 99.0643 12.332 101.671 12.332 104.833V111L12.3622 112.231C13.0037 125.282 23.7885 135.667 36.9987 135.667H92.4987L93.5857 135.635C103.297 135.073 110.999 127.019 110.999 117.167V49.3333H117.165L118.252 49.3018C127.964 48.7392 135.665 40.6856 135.665 30.8333ZM49.332 24.6666L99.7179 24.6671L99.3467 25.8415C98.9027 27.4294 98.6654 29.1036 98.6654 30.8333V117.167L98.6239 117.886C98.2677 120.953 95.6612 123.333 92.4987 123.333C89.0929 123.333 86.332 120.572 86.332 117.167V104.833L86.2905 104.114C85.9343 101.047 83.3279 98.6666 80.1654 98.6666H36.9987V36.9999L37.0325 36.0795C37.5033 29.6978 42.8301 24.6666 49.332 24.6666ZM24.6654 111C24.6654 117.502 29.6966 122.829 36.0782 123.299L36.9987 123.333H75.047L74.7549 122.419C74.3612 121.087 74.1135 119.692 74.0301 118.254L73.9987 117.167V111H24.6654ZM111.04 30.1141C111.396 27.0472 114.003 24.6666 117.165 24.6666C120.571 24.6666 123.332 27.4275 123.332 30.8333L123.291 31.5524C122.934 34.6193 120.328 36.9999 117.165 36.9999H110.999V30.8333L111.04 30.1141ZM80.1654 36.9999C83.5711 36.9999 86.332 39.7608 86.332 43.1666C86.332 46.3291 83.9514 48.9355 80.8845 49.2918L80.1654 49.3333H55.4987C52.0929 49.3333 49.332 46.5723 49.332 43.1666C49.332 40.0041 51.7126 37.3976 54.7795 37.0414L55.4987 36.9999H80.1654ZM86.332 67.8332C86.332 64.4275 83.5711 61.6666 80.1654 61.6666H55.4987L54.7795 61.7081C51.7126 62.0643 49.332 64.6708 49.332 67.8332C49.332 71.239 52.0929 73.9999 55.4987 73.9999H80.1654L80.8845 73.9584C83.9514 73.6022 86.332 70.9957 86.332 67.8332Z" fill="#1F3B73"/>
</svg>
