<svg width="24" height="24" viewBox="0 0 24 24" fill="none" xmlns="http://www.w3.org/2000/svg">
<path fill-rule="evenodd" clip-rule="evenodd" d="M17 6C17 3.23858 14.7614 1 12 1C9.23858 1 7 3.23858 7 6V10C5.34315 10 4 11.3431 4 13V19C4 20.6569 5.34315 22 7 22H17C18.6569 22 20 20.6569 20 19V13C20 11.3431 18.6569 10 17 10H9V6L9.00509 5.82373C9.09634 4.24892 10.4023 3 12 3C13.6569 3 15 4.34315 15 6L15.0067 6.11662C15.0645 6.61396 15.4872 7 16 7C16.5523 7 17 6.55228 17 6ZM8 12H7C6.44772 12 6 12.4477 6 13V19C6 19.5523 6.44772 20 7 20H17C17.5523 20 18 19.5523 18 19V13C18 12.4477 17.5523 12 17 12H8ZM12 14C10.8954 14 10 14.8954 10 16C10 17.1046 10.8954 18 12 18C13.1046 18 14 17.1046 14 16C14 14.8954 13.1046 14 12 14Z" fill="#36495A"/>
</svg>
