<svg width="118" height="37" viewBox="0 0 118 37" fill="none" xmlns="http://www.w3.org/2000/svg">
<path d="M113.736 6.27567H52.9058L55.227 2.86152C55.8245 1.98123 56.6354 1.25927 57.5873 0.759997C58.5392 0.26072 59.6025 -0.000368824 60.6825 3.91046e-07H118L113.736 6.27567Z" fill="#F05142"/>
<path d="M105.817 18.6128H44.99L49.251 12.3342H110.081L105.817 18.6128Z" fill="#F05142"/>
<path d="M97.8987 30.9473H37.0713L41.3352 24.6716H102.163L97.8987 30.9473Z" fill="#F05142"/>
<path d="M49.0085 12.3286H15.8345L20.0984 6.05298H53.2724L49.0085 12.3286Z" fill="#8BBBDA"/>
<path d="M41.0927 24.6658H7.9187L12.1826 18.3872H45.3537L41.0927 24.6658Z" fill="#8BBBDA"/>
<path d="M29.4926 37H0L4.26392 30.7244H37.4379L35.2113 33.9996C34.5848 34.9223 33.7348 35.6791 32.7371 36.2026C31.7393 36.7261 30.6247 37 29.4926 37Z" fill="#F05142"/>
</svg>
