<svg width="221" height="90" viewBox="0 0 221 90" fill="none" xmlns="http://www.w3.org/2000/svg">
<path d="M188.126 7.12222H115.595L118.363 3.24752C119.075 2.24849 120.042 1.42914 121.177 0.862517C122.312 0.29589 123.58 -0.000418577 124.868 4.43796e-07H193.21L188.126 7.12222Z" fill="#F05142"/>
<path d="M178.684 21.1236H106.153L111.237 13.998H183.769L178.684 21.1236Z" fill="#F05142"/>
<path d="M169.243 35.1217H96.715L101.799 27.9995H174.327L169.243 35.1217Z" fill="#F05142"/>
<path d="M110.948 13.9919H71.3932L76.4773 6.86963H116.032L110.948 13.9919Z" fill="#8BBBDA"/>
<path d="M101.51 27.9932H61.9548L67.0354 20.8677H106.59L101.51 27.9932Z" fill="#8BBBDA"/>
<path d="M87.6785 41.9914H52.5129L57.6041 34.8691H97.1521L94.4972 38.5862C93.7502 39.6334 92.7367 40.4922 91.547 41.0863C90.3573 41.6805 89.0284 41.9913 87.6785 41.9914Z" fill="#F05142"/>
<path d="M13.0425 66.0901C11.5454 66.8743 10.3216 68.0425 9.51681 69.4558C8.6092 71.0859 8.16037 72.9037 8.21229 74.7392C8.17777 76.4789 8.61043 78.1991 9.47097 79.7435C10.2677 81.1645 11.4803 82.3463 12.9685 83.1519C14.5438 83.98 16.3286 84.3996 18.1372 84.3668C19.6425 84.3948 21.1443 84.2223 22.5972 83.8546C23.8139 83.5255 24.9765 83.0427 26.0524 82.4197V78.5712H17.6859V73.5046H32.6843V85.3749C30.8192 86.8268 28.6786 87.9406 26.3733 88.6586C23.7286 89.5229 20.9434 89.955 18.1407 89.9359C14.5445 89.9359 11.4125 89.2682 8.74468 87.9329C6.18277 86.701 4.05193 84.8133 2.60287 82.4919C1.1718 80.1282 0.441683 77.4525 0.487438 74.7392C0.459681 72.0592 1.17625 69.418 2.56761 67.0719C3.90174 64.7973 5.86067 62.8935 8.24402 61.5554C10.6197 60.2108 13.3512 59.5103 16.1311 59.5327C18.0216 59.5135 19.9019 59.7944 21.6911 60.3634C23.3414 60.8942 24.869 61.7109 26.1935 62.7703V60.1434H32.6843V69.8564L27.8365 70.1552C26.826 68.6756 25.4747 67.4238 23.8806 66.4907C22.1412 65.4562 20.1126 64.9227 18.0491 64.9572C16.3033 64.9268 14.5787 65.317 13.0425 66.0901Z" fill="white"/>
<path d="M68.2977 77.0804V89.3481H38.5652V83.9399H43.6881V65.5515H38.5652V60.127H56.1304V65.5384H51.0534V83.9268H61.3308V77.0804H68.2977Z" fill="white"/>
<path d="M80.8738 87.88C78.3282 86.5994 76.2031 84.6997 74.725 82.3832C73.2702 80.0593 72.5037 77.4174 72.5037 74.7274C72.5037 72.0374 73.2702 69.3955 74.725 67.0716C76.1983 64.7465 78.3241 62.8394 80.8738 61.5551C83.5663 60.1896 86.591 59.493 89.6564 59.5323C92.6992 59.495 95.7006 60.1918 98.3685 61.5551C100.909 62.845 103.027 64.752 104.497 67.0734C105.967 69.3948 106.735 72.0439 106.717 74.7389C106.745 77.4286 105.976 80.0735 104.496 82.3832C103.022 84.6958 100.905 86.5949 98.3685 87.88C95.7006 89.2433 92.6992 89.9401 89.6564 89.9028C86.591 89.9421 83.5663 89.2455 80.8738 87.88ZM94.6241 83.0235C96.0365 82.1651 97.1616 80.9545 97.8713 79.5297C98.6102 78.0188 98.9925 76.3778 98.9925 74.7175C98.9925 73.0573 98.6102 71.4163 97.8713 69.9054C97.1616 68.4805 96.0365 67.27 94.6241 66.4116C93.1144 65.5576 91.3811 65.1076 89.6146 65.1111C87.8482 65.1145 86.117 65.5713 84.6111 66.4313C83.2002 67.3006 82.0751 68.5167 81.3604 69.9448C80.6237 71.4569 80.2426 73.0981 80.2426 74.7586C80.2426 76.419 80.6237 78.0603 81.3604 79.5724C82.0673 80.9938 83.195 82.1979 84.6111 83.0432C86.1241 83.9219 87.881 84.3672 89.6635 84.3238C91.412 84.3564 93.1315 83.9038 94.603 83.0235H94.6241Z" fill="white"/>
<path d="M145.278 86.8788C144.43 87.7612 143.433 88.5097 142.327 89.0953C141.079 89.699 139.685 89.992 138.28 89.9457C136.918 89.9795 135.564 89.7444 134.307 89.256C133.049 88.7676 131.917 88.0369 130.985 87.1119C129.046 85.2249 127.59 82.2795 126.617 78.2757L126.479 77.7207H121.631V83.9826H126.525V89.3481H109.097V83.9399H114.22V65.5515H109.097V60.127H127.896C131.676 60.127 134.71 60.8866 137 62.4058C139.289 63.925 140.432 66.0769 140.427 68.8614C140.427 71.0746 139.779 72.8992 138.484 74.3353C137.189 75.7713 135.352 76.7564 132.973 77.2906L133.203 77.9473C133.931 80.0751 134.762 81.5582 135.695 82.3966C136.087 82.7845 136.558 83.0955 137.08 83.3115C137.603 83.5274 138.166 83.644 138.738 83.6543C139.335 83.6656 139.928 83.5534 140.473 83.3259C140.991 83.0907 141.467 82.7816 141.883 82.4098L145.278 86.8788ZM121.631 72.6508H128.119C129.337 72.6661 130.535 72.3562 131.57 71.7576C132.593 71.16 133.104 70.1946 133.104 68.8614C133.104 67.6662 132.608 66.8135 131.616 66.3035C130.539 65.7747 129.335 65.5113 128.119 65.5384H121.631V72.6508Z" fill="white"/>
<path d="M160.813 65.5384V83.9268H165.981V89.3481H148.282V83.9399H153.405V65.5515H148.282V60.127H165.981V65.5384H160.813Z" fill="white"/>
<path d="M199.592 60.127V69.0946H193.143V65.5384H183.391V72.6935H188.906V77.55H183.391V83.9399H188.906V89.3481H170.998V83.9399H176.121V65.5515H170.998V60.127H199.592Z" fill="#8BBBDA"/>
<path d="M215.722 65.5384V83.9268H220.891V89.3481H203.188V83.9399H208.311V65.5515H203.188V60.127H220.891V65.5384H215.722Z" fill="#8BBBDA"/>
</svg>
