<svg width="24" height="24" viewBox="0 0 24 24" fill="none" xmlns="http://www.w3.org/2000/svg">
<path fill-rule="evenodd" clip-rule="evenodd" d="M19 20C19 20.55 19.44 21 20 21C20.55 21 21 20.55 21 20V4C21 3.44 20.55 3 20 3C19.44 3 19 3.44 19 4V20ZM9.29023 8.70998L11.5803 11H4C3.44 11 3 11.44 3 12C3 12.55 3.44 13 4 13H11.5596L9.27954 15.2801V15.2901C8.88954 15.6801 8.88954 16.3201 9.28954 16.7101C9.46954 16.8901 9.72954 17.0001 9.99954 17.0001L9.98954 16.9891C10.2495 16.9891 10.5095 16.8791 10.6995 16.6991L14.6 12.7987C14.8066 12.6428 14.9515 12.409 14.9899 12.1419C15.0393 11.8347 14.9461 11.5098 14.7102 11.28L10.7102 7.27998C10.3102 6.87998 9.68023 6.87998 9.29023 7.27998C8.89023 7.66998 8.89023 8.29998 9.29023 8.69998V8.70998Z" fill="white"/>
</svg>
