<svg fill="none" height="24" viewBox="0 0 24 24" width="24" xmlns="http://www.w3.org/2000/svg">
    <path clip-rule="evenodd"
        d="M19 4H4.99998C3.34952 4 2.01035 5.3328 2.00004 6.98083C1.99984 6.99179 1.99982 7.00273 1.99998 7.01367V17C1.99998 18.6569 3.34313 20 4.99998 20H19C20.6568 20 22 18.6569 22 17V7.01366C22.0001 7.00273 22.0001 6.99179 21.9999 6.98085C21.9896 5.33281 20.6504 4 19 4ZM19.8879 6.53948C19.7213 6.21894 19.3862 6 19 6H4.99998C4.61377 6 4.27869 6.21894 4.1121 6.53948L12 11.797L19.8879 6.53948ZM3.99998 8.86852V17C3.99998 17.5523 4.4477 18 4.99998 18H19C19.5523 18 20 17.5523 20 17V8.86852L12.5547 13.8321C12.2561 14.0311 11.8772 14.0532 11.5607 13.8984L11.4453 13.8321L3.99998 8.86852Z"
        fill="#1F3B73" fill-rule="evenodd" />
</svg>
