<svg width="12" height="19" viewBox="0 0 12 19" fill="none" xmlns="http://www.w3.org/2000/svg">
<path fill-rule="evenodd" clip-rule="evenodd" d="M2.99329 0.883379C2.93553 0.38604 2.51286 0 2.00002 0C1.44774 0 1.00002 0.447715 1.00002 1V7L1.00675 7.11662C1.06451 7.61396 1.48719 8 2.00002 8C2.55231 8 3.00002 7.55228 3.00002 7V1L2.99329 0.883379ZM10.9933 0.883379C10.9355 0.38604 10.5129 0 10 0C9.44774 0 9.00002 0.447715 9.00002 1V7L9.00675 7.11662C9.06451 7.61396 9.48719 8 10 8C10.5523 8 11 7.55228 11 7V1L10.9933 0.883379ZM6.00002 0C6.51286 0 6.93553 0.38604 6.99329 0.883379L7.00002 1V4C7.00002 4.55228 6.55231 5 6.00002 5C5.48719 5 5.06451 4.61396 5.00675 4.11662L5.00002 4V1C5.00002 0.447715 5.44774 0 6.00002 0ZM3.83302 10.097L1.33562 10.5136L1.21898 10.5399C0.503989 10.7448 0.24653 11.6607 0.792915 12.2071L2.43902 13.854L2.01007 16.8586L2.00027 16.9662C1.9712 17.7095 2.75853 18.2388 3.44724 17.8944L6.00002 16.618L8.55281 17.8944L8.65177 17.9377C9.34779 18.2004 10.0989 17.6208 9.98997 16.8586L9.56002 13.854L11.2071 12.2071L11.2868 12.1179C11.7495 11.5356 11.4266 10.6406 10.6644 10.5136L8.16602 10.097L6.89445 7.55279C6.52592 6.81574 5.47412 6.81574 5.10559 7.55279L3.83302 10.097ZM6.00002 10.236L6.60559 11.4472L6.6651 11.5504C6.81721 11.7812 7.05949 11.9404 7.33562 11.9864L8.41802 12.166L7.79291 12.7929L7.71503 12.8805C7.54648 13.094 7.47112 13.3688 7.51007 13.6414L7.74002 15.252L6.44724 14.6056L6.32382 14.5539C6.07205 14.4677 5.79412 14.4849 5.55281 14.6056L4.25902 15.252L4.48997 13.6414L4.49973 13.5246C4.50645 13.2527 4.40187 12.9876 4.20713 12.7929L3.58102 12.166L4.66442 11.9864C4.98 11.9338 5.25137 11.7334 5.39445 11.4472L6.00002 10.236Z" fill="#36495A"/>
</svg>
