<svg width="148" height="148" viewBox="0 0 148 148" fill="none" xmlns="http://www.w3.org/2000/svg">
<path fill-rule="evenodd" clip-rule="evenodd" d="M64.9345 23.1715C65.7605 19.8674 69.1086 17.8586 72.4127 18.6846C75.4807 19.4516 77.432 22.3933 77.0337 25.455L76.8996 26.1628L73.8162 38.4961C72.9902 41.8002 69.6421 43.809 66.3381 42.983C63.27 42.216 61.3187 39.2743 61.717 36.2126L61.8511 35.5048L64.9345 23.1715ZM36.9589 23.948C36.6026 20.8811 33.9962 18.5005 30.8337 18.5005C27.4279 18.5005 24.667 21.2614 24.667 24.6671L23.9479 24.7086C20.8809 25.0649 18.5004 27.6713 18.5004 30.8338C18.5004 34.2396 21.2613 37.0005 24.667 37.0005L24.7085 37.7196C25.0647 40.7866 27.6712 43.1671 30.8337 43.1671C34.2394 43.1671 37.0004 40.4062 37.0004 37.0005L37.7195 36.959C40.7864 36.6028 43.167 33.9963 43.167 30.8338C43.167 27.4281 40.4061 24.6672 37.0004 24.6671L36.9589 23.948ZM129.5 30.8338C129.5 27.4281 126.739 24.6672 123.334 24.6672L123.292 23.948C122.936 20.8811 120.33 18.5005 117.167 18.5005C113.761 18.5005 111 21.2614 111 24.6672L110.281 24.7086C107.214 25.0649 104.834 27.6713 104.834 30.8338C104.834 34.2396 107.595 37.0005 111 37.0005L111.042 37.7196C111.398 40.7866 114.005 43.1671 117.167 43.1671C120.573 43.1671 123.334 40.4062 123.334 37.0005L124.053 36.959C127.12 36.6028 129.5 33.9963 129.5 30.8338ZM96.8608 51.14C94.4526 48.7318 90.5481 48.7318 88.1399 51.14L81.9732 57.3067L81.4602 57.8876C79.5792 60.3067 79.7502 63.8047 81.9732 66.0276C84.3814 68.4359 88.2859 68.4359 90.6942 66.0276L96.8608 59.861L97.3738 59.28C99.2548 56.8609 99.0838 53.363 96.8608 51.14ZM121.838 71.1013C125.142 70.2753 128.49 72.2841 129.316 75.5882C130.083 78.6562 128.406 81.7623 125.517 82.8517L124.829 83.0664L112.496 86.1497C109.192 86.9757 105.844 84.9669 105.018 81.6628C104.251 78.5947 105.928 75.4887 108.817 74.3993L109.505 74.1846L121.838 71.1013ZM129.5 117.167C129.5 113.761 126.739 111 123.334 111L123.292 110.281C122.936 107.214 120.33 104.834 117.167 104.834C113.761 104.834 111 107.595 111 111L110.281 111.042C107.214 111.398 104.834 114.005 104.834 117.167C104.834 120.573 107.595 123.334 111 123.334L111.042 124.053C111.398 127.12 114.005 129.5 117.167 129.5C120.573 129.5 123.334 126.74 123.334 123.334L124.053 123.292C127.12 122.936 129.5 120.33 129.5 117.167ZM40.5333 59.0982L13.4616 118.175C11.3163 122.873 12.3137 128.401 15.96 132.047C19.6062 135.693 25.134 136.691 29.8247 134.549L88.9029 107.474C90.8514 106.581 92.1783 104.751 92.4491 102.658L92.5004 101.861C92.5004 100.226 91.8506 98.6575 90.6942 97.501L50.4998 57.3067C47.461 54.2678 42.3236 55.1913 40.5333 59.0982ZM48.0448 72.2985L75.6962 99.9498L24.6758 123.316L48.0448 72.2985Z" fill="#1F3B73"/>
</svg>
