<svg width="20" height="21" viewBox="0 0 20 21" fill="none" xmlns="http://www.w3.org/2000/svg">
<path fill-rule="evenodd" clip-rule="evenodd" d="M9 8.5V7.5C9 4.81124 6.87769 2.61818 4.21689 2.50462L4 2.5H2V3.5C2 6.18876 4.12231 8.38182 6.78311 8.49538L7 8.5H9ZM9 10.5H7C3.21455 10.5 0.130901 7.49522 0.00405902 3.74065L0 3.5V1.5C0 0.987164 0.38604 0.564493 0.883379 0.506728L1 0.5H4C7.01576 0.5 9.5861 2.4071 10.5708 5.08108C11.8072 3.56389 13.6668 2.57475 15.7593 2.50406L16 2.5H19C19.5128 2.5 19.9355 2.88604 19.9933 3.38338L20 3.5V4.5C20 8.28545 16.9952 11.3691 13.2407 11.4959L13 11.5H11V12.5H15C15.5523 12.5 16 12.9477 16 13.5V17.5C16 19.1569 14.6569 20.5 13 20.5H7C5.34315 20.5 4 19.1569 4 17.5V13.5C4 12.9477 4.44772 12.5 5 12.5H9V10.5ZM10 14.5H6V17.5C6 18.0128 6.38604 18.4355 6.88338 18.4933L7 18.5H13C13.5523 18.5 14 18.0523 14 17.5V14.5H10ZM11 9.5H13C15.6888 9.5 17.8818 7.37769 17.9954 4.71689L18 4.5H16C13.3112 4.5 11.1182 6.62231 11.0046 9.28311L11 9.5Z" fill="white"/>
</svg>
