<svg width="14" height="18" viewBox="0 0 14 18" fill="none" xmlns="http://www.w3.org/2000/svg">
<path fill-rule="evenodd" clip-rule="evenodd" d="M11.1666 0.666626H2.83325C1.45254 0.666626 0.333252 1.78591 0.333252 3.16663V14.8333C0.333252 16.214 1.45254 17.3333 2.83325 17.3333H11.1666C12.5473 17.3333 13.6666 16.214 13.6666 14.8333V3.16663C13.6666 1.78591 12.5473 0.666626 11.1666 0.666626ZM2.83325 2.33329H11.1666C11.6268 2.33329 11.9999 2.70639 11.9999 3.16663V14.8333C11.9999 15.2935 11.6268 15.6666 11.1666 15.6666H2.83325C2.37301 15.6666 1.99992 15.2935 1.99992 14.8333V3.16663C1.99992 2.70639 2.37301 2.33329 2.83325 2.33329ZM10.3333 4.83329C10.3333 4.37306 9.96016 3.99996 9.49992 3.99996H4.49992L4.40273 4.00557C3.98829 4.0537 3.66659 4.40593 3.66659 4.83329C3.66659 5.29353 4.03968 5.66663 4.49992 5.66663H9.49992L9.5971 5.66102C10.0116 5.61288 10.3333 5.26066 10.3333 4.83329ZM9.49992 7.33329C9.96016 7.33329 10.3333 7.70639 10.3333 8.16663C10.3333 8.59399 10.0116 8.94622 9.5971 8.99435L9.49992 8.99996H4.49992C4.03968 8.99996 3.66659 8.62686 3.66659 8.16663C3.66659 7.73926 3.98829 7.38704 4.40273 7.3389L4.49992 7.33329H9.49992ZM8.66659 11.5C8.66659 11.0397 8.29349 10.6666 7.83325 10.6666H4.49992L4.40273 10.6722C3.98829 10.7204 3.66659 11.0726 3.66659 11.5C3.66659 11.9602 4.03968 12.3333 4.49992 12.3333H7.83325L7.93044 12.3277C8.34489 12.2795 8.66659 11.9273 8.66659 11.5Z" fill="#1F3B73"/>
</svg>
