<svg fill="none" height="17" viewBox="0 0 17 17" width="17" xmlns="http://www.w3.org/2000/svg">
    <path clip-rule="evenodd"
        d="M8.05688 7.16683V6.50016C8.05688 4.70766 6.64201 3.24562 4.86814 3.16991L4.72355 3.16683H3.39022V3.8335C3.39022 5.626 4.80509 7.08804 6.57896 7.16375L6.72355 7.16683H8.05688ZM8.05688 8.50016L6.72355 8.50016C4.19992 8.50016 2.14415 6.49697 2.05959 3.99393L2.05688 3.8335V2.50016C2.05688 2.15827 2.31424 1.87649 2.6458 1.83798L2.72355 1.8335H4.72355C6.73406 1.8335 8.44762 3.10489 9.10409 4.88755C9.92833 3.87609 11.1681 3.21666 12.5631 3.16954L12.7236 3.16683H14.7236C15.0654 3.16683 15.3472 3.42419 15.3857 3.75575L15.3902 3.8335V4.50016C15.3902 7.0238 13.387 9.07956 10.884 9.16412L10.7236 9.16683H9.39022V9.8335H12.0569C12.4251 9.8335 12.7236 10.132 12.7236 10.5002V13.1668C12.7236 14.2714 11.8281 15.1668 10.7236 15.1668H6.72355C5.61898 15.1668 4.72355 14.2714 4.72355 13.1668V10.5002C4.72355 10.132 5.02203 9.8335 5.39022 9.8335H8.05688V8.50016ZM8.72355 11.1668H6.05688V13.1668C6.05688 13.5087 6.31425 13.7905 6.6458 13.829L6.72355 13.8335H10.7236C11.0917 13.8335 11.3902 13.535 11.3902 13.1668V11.1668H8.72355ZM9.39022 7.8335L10.7236 7.8335C12.5161 7.8335 13.9781 6.41862 14.0538 4.64476L14.0569 4.50016H12.7236C10.931 4.50016 9.46901 5.91503 9.3933 7.6889L9.39022 7.8335Z"
        fill="white" fill-rule="evenodd" />
</svg>
