<svg width="20" height="20" viewBox="0 0 20 20" fill="none" xmlns="http://www.w3.org/2000/svg">
<path d="M7.5 0L7.01 2.52C6.19483 2.82475 5.43484 3.26048 4.76 3.81L2.34 3L0 7L1.94 8.69C1.86969 9.12319 1.83291 9.56115 1.83 10C1.83393 10.4322 1.87071 10.8634 1.94 11.29L0 13L2.34 17L4.76 16.17C5.43484 16.7195 6.19483 17.1552 7.01 17.46L7.5 20H12.16L12.65 17.48C13.4645 17.1738 14.2243 16.7382 14.9 16.19L17.32 17.02L19.66 13.02L17.72 11.33C17.7913 10.8902 17.8281 10.4455 17.83 10C17.8261 9.56783 17.7893 9.13659 17.72 8.71L19.66 7L17.32 3L14.9 3.83C14.2252 3.28048 13.4652 2.84475 12.65 2.54L12.16 0H7.5ZM9.14 2H10.52L10.9 4L11.9 4.39C12.5105 4.63005 13.0779 4.96779 13.58 5.39L14.44 6.1L16.37 5.44L17.05 6.62L15.57 7.93L15.74 9.03C15.7957 9.35043 15.8258 9.67479 15.83 10C15.8274 10.3352 15.7973 10.6697 15.74 11L15.56 12.1L17.1 13.44L16.41 14.62L14.49 13.96L13.63 14.67C13.1279 15.0922 12.5605 15.43 11.95 15.67L10.95 16.06L10.56 18.06H9.14L8.76 16.06L7.76 15.67C7.14949 15.43 6.58208 15.0922 6.08 14.67L5.22 13.96L3.29 14.62L2.61 13.44L4.15 12.1L3.92 11C3.86271 10.6697 3.8326 10.3352 3.83 10C3.8326 9.66477 3.86271 9.33031 3.92 9L4.1 7.9L2.56 6.59L3.24 5.41L5.17 6.07L6.03 5.36C6.53208 4.93779 7.09949 4.60005 7.71 4.36L8.71 3.97L9.14 2ZM9.83 6C9.03887 6 8.26552 6.2346 7.60772 6.67412C6.94992 7.11365 6.43723 7.73836 6.13448 8.46927C5.83173 9.20017 5.75252 10.0044 5.90686 10.7804C6.0612 11.5563 6.44216 12.269 7.00157 12.8284C7.56098 13.3878 8.27372 13.7688 9.04964 13.9231C9.82556 14.0775 10.6298 13.9983 11.3607 13.6955C12.0916 13.3928 12.7164 12.8801 13.1559 12.2223C13.5954 11.5645 13.83 10.7911 13.83 10C13.83 8.93913 13.4086 7.92172 12.6584 7.17157C11.9083 6.42143 10.8909 6 9.83 6ZM9.83 8C10.2256 8 10.6122 8.1173 10.9411 8.33706C11.27 8.55682 11.5264 8.86918 11.6778 9.23463C11.8291 9.60009 11.8687 10.0022 11.7916 10.3902C11.7144 10.7781 11.5239 11.1345 11.2442 11.4142C10.9645 11.6939 10.6081 11.8844 10.2202 11.9616C9.83222 12.0387 9.43009 11.9991 9.06463 11.8478C8.69918 11.6964 8.38682 11.44 8.16706 11.1111C7.9473 10.7822 7.83 10.3956 7.83 10C7.83 9.46957 8.04071 8.96086 8.41579 8.58579C8.79086 8.21071 9.29957 8 9.83 8Z" fill="black"/>
</svg>
