<svg width="24" height="25" viewBox="0 0 24 25" fill="none" xmlns="http://www.w3.org/2000/svg">
<path fill-rule="evenodd" clip-rule="evenodd" d="M11 15.4687C11 16.021 11.4477 16.4687 12 16.4687C12.5523 16.4687 13 16.021 13 15.4687C12.8512 14.2629 13.3874 13.0748 14.39 12.3887C16.0185 11.7869 17.0729 10.2033 17 8.46868C16.8552 6.12475 14.8447 4.33771 12.5 4.46868H11.5C9.15526 4.33771 7.14484 6.12475 7 8.46868C7 9.02096 7.44772 9.46868 8 9.46868C8.55228 9.46868 9 9.02096 9 8.46868C9.15643 7.23624 10.2633 6.35076 11.5 6.46868H12.5C13.7541 6.35227 14.8685 7.26612 15 8.51868C15.0509 9.40697 14.5089 10.2221 13.67 10.5187H13.58C11.8209 11.5173 10.8111 13.4548 11 15.4687ZM11 19.4687C11 20.021 11.4477 20.4687 12 20.4687C12.5523 20.4687 13 20.021 13 19.4687C13 18.9164 12.5523 18.4687 12 18.4687C11.4477 18.4687 11 18.9164 11 19.4687Z" fill="#F25041"/>
</svg>
