<svg width="24" height="24" viewBox="0 0 24 24" fill="none" xmlns="http://www.w3.org/2000/svg">
<path fill-rule="evenodd" clip-rule="evenodd" d="M13 2H11C9.69378 2 8.58254 2.83481 8.17071 4H7L6.82373 4.00509C5.24892 4.09634 4 5.40232 4 7V19L4.00509 19.1763C4.09634 20.7511 5.40232 22 7 22H17L17.1763 21.9949C18.7511 21.9037 20 20.5977 20 19V7L19.9949 6.82373C19.9037 5.24892 18.5977 4 17 4H15.8293C15.4175 2.83481 14.3062 2 13 2ZM15.8293 6H17L17.1166 6.00673C17.614 6.06449 18 6.48716 18 7V19L17.9933 19.1166C17.9355 19.614 17.5128 20 17 20H7L6.88338 19.9933C6.38604 19.9355 6 19.5128 6 19V7L6.00673 6.88338C6.06449 6.38604 6.48716 6 7 6H8.17071C8.58254 7.16519 9.69378 8 11 8H13C14.3062 8 15.4175 7.16519 15.8293 6ZM10 5C10 5.55228 10.4477 6 11 6H13C13.5523 6 14 5.55228 14 5C14 4.44772 13.5523 4 13 4H11C10.4477 4 10 4.44772 10 5ZM14 10C14.5523 10 15 10.4477 15 11C15 11.5128 14.614 11.9355 14.1166 11.9933L14 12H12H11.5C11.2239 12 11 12.2239 11 12.5C11 12.7455 11.1769 12.9496 11.4101 12.9919L11.5 13H12.5C13.8807 13 15 14.1193 15 15.5C15 16.7095 14.1411 17.7184 13 17.95V18C13 18.5523 12.5523 19 12 19C11.4872 19 11.0645 18.614 11.0067 18.1166L11 18H10C9.44772 18 9 17.5523 9 17C9 16.4872 9.38604 16.0645 9.88338 16.0067L10 16H12H12.5C12.7761 16 13 15.7761 13 15.5C13 15.2545 12.8231 15.0504 12.5899 15.0081L12.5 15H11.5C10.1193 15 9 13.8807 9 12.5C9 11.2905 9.85888 10.2816 11 10.05V10C11 9.44772 11.4477 9 12 9C12.5128 9 12.9355 9.38604 12.9933 9.88338L13 10H14Z" fill="#F25041"/>
</svg>
