<svg width="20" height="19" viewBox="0 0 20 19" fill="none" xmlns="http://www.w3.org/2000/svg">
<path fill-rule="evenodd" clip-rule="evenodd" d="M2.59947 6.625C2.59947 2.96611 5.73348 0 9.59947 0C13.4655 0 16.5995 2.96611 16.5995 6.625C16.5995 7.63258 16.3618 8.58762 15.9366 9.44266L19.0632 14.5678C19.4435 15.1913 18.9784 15.9572 18.2448 15.9867L18.1328 15.9855L15.1996 15.8059L13.8974 18.2998C13.5602 18.9451 12.6289 19.0038 12.196 18.4424L12.135 18.3535L9.59947 14.1972L7.064 18.3535C6.68367 18.977 5.75029 18.9788 5.35645 18.3922L5.30156 18.2998L3.9993 15.8059L1.06618 15.9855C0.307092 16.0318 -0.212223 15.2978 0.0850114 14.6623L0.135793 14.5678L3.2623 9.44266C2.83714 8.58762 2.59947 7.63258 2.59947 6.625ZM4.51361 11.1771L2.80275 13.9817L4.53554 13.877C4.89364 13.8551 5.23286 14.0163 5.42949 14.2929L5.4963 14.4019L6.26636 15.8754L7.97702 13.0711C6.63009 12.7686 5.43384 12.0977 4.51361 11.1771ZM11.2216 13.0712C12.5686 12.7687 13.7649 12.0979 14.6851 11.1774L16.3953 13.9822L14.6634 13.877L14.5303 13.8772C14.1788 13.9001 13.8617 14.0975 13.7026 14.4019L12.9317 15.8758L11.2216 13.0712ZM14.5995 6.625C14.5995 4.01151 12.3609 1.89286 9.59947 1.89286C6.83805 1.89286 4.59947 4.01151 4.59947 6.625C4.59947 9.23849 6.83805 11.3571 9.59947 11.3571C12.3609 11.3571 14.5995 9.23849 14.5995 6.625Z" fill="white"/>
</svg>
