<svg width="20" height="19" viewBox="0 0 20 19" fill="none" xmlns="http://www.w3.org/2000/svg">
<path fill-rule="evenodd" clip-rule="evenodd" d="M9.59942 0C5.73419 0 2.59942 2.9668 2.59942 6.625C2.59942 7.63281 2.8377 8.58789 3.26153 9.44336L0.136531 14.5684L0.0857497 14.6621C-0.213078 15.2969 0.306453 16.0312 1.06622 15.9863L3.99981 15.8066L5.30059 18.3008L5.35723 18.3926C5.74981 18.9785 6.68341 18.9766 7.06427 18.3535L9.59942 14.1973L12.1346 18.3535L12.1951 18.4434C12.6287 19.0039 13.5604 18.9453 13.8963 18.3008L15.199 15.8066L18.1326 15.9863H18.244C18.6365 15.9707 18.951 15.7441 19.1033 15.4414C19.2342 15.1777 19.24 14.8574 19.0623 14.5684L15.9373 9.44336C16.1541 9.00391 16.324 8.53906 16.4354 8.05469C16.5428 7.59375 16.5994 7.11523 16.5994 6.625C16.5994 2.9668 13.4647 0 9.59942 0ZM2.80255 13.9824L4.51348 11.1777C4.95684 11.6211 5.46466 12.0078 6.02325 12.3223C6.62286 12.6582 7.27911 12.9141 7.97637 13.0703L6.26544 15.875L5.49591 14.4023L5.4295 14.293C5.23223 14.0156 4.89434 13.8555 4.53497 13.877L2.80255 13.9824ZM14.6854 11.1777C13.7654 12.0977 12.5682 12.7695 11.2205 13.0703L12.9315 15.875L13.7029 14.4023C13.7635 14.2852 13.8494 14.1836 13.951 14.1016C14.1111 13.9707 14.3143 13.8906 14.5291 13.877H14.6639L16.3943 13.9824L14.6854 11.1777Z" fill="white"/>
</svg>
