<svg width="14" height="21" viewBox="0 0 14 21" fill="none" xmlns="http://www.w3.org/2000/svg">
<path fill-rule="evenodd" clip-rule="evenodd" d="M7 0.892578C7.51284 0.892578 7.93551 1.25794 7.99327 1.72863L8 1.83901V3.73252L9.04314 3.73274C10.6751 3.79943 12.1002 4.79853 12.6431 6.25655C12.8267 6.74953 12.5533 7.29002 12.0324 7.46376C11.5487 7.6251 11.0218 7.41348 10.802 6.98773L10.7569 6.88574C10.5035 6.20533 9.86587 5.72481 9.15365 5.63737L9 5.62472H7H5C3.89543 5.62472 3 6.47218 3 7.51758C3 8.51546 3.81588 9.33298 4.85074 9.40524L5 9.41044H9C11.2091 9.41044 13 11.1054 13 13.1961C13 15.2236 11.316 16.8788 9.19964 16.9772L9 16.9819L8 16.9816V18.8747C8 19.3974 7.55228 19.8211 7 19.8211C6.48716 19.8211 6.06449 19.4558 6.00673 18.9851L6 18.8747V16.9812L4.95686 16.981C3.32494 16.9143 1.89982 15.9152 1.35686 14.4572C1.17328 13.9642 1.44672 13.4237 1.9676 13.25C2.45127 13.0886 2.97823 13.3002 3.19803 13.726L3.24314 13.828C3.49652 14.5084 4.13413 14.9889 4.84635 15.0764L5 15.089H6.99857C6.99904 15.089 6.99952 15.089 7 15.089C7.00048 15.089 7.00096 15.089 7.00143 15.089H9C10.1046 15.089 11 14.2415 11 13.1961C11 12.1983 10.1841 11.3807 9.14926 11.3085L9 11.3033H5C2.79086 11.3033 1 9.60837 1 7.51758C1 5.49014 2.68397 3.83495 4.80036 3.7365L5 3.73186L6 3.73208V1.83901C6 1.31631 6.44772 0.892578 7 0.892578Z" fill="white"/>
<path d="M7.99327 1.72863L8.24281 1.71342L8.24234 1.70578L8.24141 1.69818L7.99327 1.72863ZM8 1.83901H8.25V1.83139L8.24954 1.8238L8 1.83901ZM8 3.73252H7.75V3.98246L7.99995 3.98252L8 3.73252ZM9.04314 3.73274L9.05335 3.48275L9.04319 3.48274L9.04314 3.73274ZM12.6431 6.25655L12.8774 6.16931L12.6431 6.25655ZM12.0324 7.46376L11.9533 7.22661H11.9533L12.0324 7.46376ZM10.802 6.98773L10.5733 7.08886L10.5764 7.09573L10.5798 7.10241L10.802 6.98773ZM10.7569 6.88574L10.5226 6.97299L10.5252 6.98002L10.5282 6.98688L10.7569 6.88574ZM9.15365 5.63737L9.18414 5.38903L9.17416 5.38821L9.15365 5.63737ZM9 5.62472L9.02051 5.37556L9.01027 5.37472H9V5.62472ZM4.85074 9.40524L4.83331 9.65479L4.84205 9.65509L4.85074 9.40524ZM5 9.41044L4.9913 9.66044H5V9.41044ZM9.19964 16.9772L9.20544 17.2272L9.21126 17.227L9.19964 16.9772ZM9 16.9819L8.99995 17.2319L9.0058 17.2318L9 16.9819ZM8 16.9816L8.00005 16.7316L7.75 16.7316V16.9816H8ZM6.00673 18.9851L5.75719 19.0003L5.75766 19.0079L5.75859 19.0155L6.00673 18.9851ZM6 18.8747H5.75V18.8823L5.75046 18.8899L6 18.8747ZM6 16.9812H6.25V16.7313L6.00005 16.7312L6 16.9812ZM4.95686 16.981L4.94665 17.231L4.95681 17.231L4.95686 16.981ZM1.35686 14.4572L1.59114 14.3699L1.35686 14.4572ZM1.9676 13.25L2.0467 13.4871H2.0467L1.9676 13.25ZM3.19803 13.726L3.42666 13.6249L3.42362 13.618L3.42017 13.6113L3.19803 13.726ZM3.24314 13.828L3.47742 13.7407L3.4748 13.7337L3.47177 13.7269L3.24314 13.828ZM4.84635 15.0764L4.81586 15.3247L4.82584 15.3255L4.84635 15.0764ZM5 15.089L4.97949 15.3382L4.98973 15.339H5V15.089ZM9.14926 11.3085L9.16669 11.0589L9.15795 11.0586L9.14926 11.3085ZM9 11.3033L9.00869 11.0533H9V11.3033ZM4.80036 3.7365L4.79456 3.4865L4.78874 3.48677L4.80036 3.7365ZM5 3.73186L5.00005 3.48179L4.9942 3.48193L5 3.73186ZM6 3.73208L5.99995 3.98208L6.25 3.98214V3.73208H6ZM8.24141 1.69818C8.16715 1.09308 7.6298 0.642578 7 0.642578V1.14258C7.39587 1.14258 7.70386 1.42279 7.74513 1.75909L8.24141 1.69818ZM8.24954 1.8238L8.24281 1.71342L7.74374 1.74384L7.75046 1.85422L8.24954 1.8238ZM8.25 3.73252V1.83901H7.75V3.73252H8.25ZM7.99995 3.98252L9.04308 3.98274L9.04319 3.48274L8.00005 3.48252L7.99995 3.98252ZM9.03293 3.98254C10.5708 4.04538 11.9033 4.98612 12.4089 6.3438L12.8774 6.16931C12.2971 4.61094 10.7793 3.55349 9.05335 3.48295L9.03293 3.98254ZM12.4089 6.3438C12.5394 6.69435 12.3502 7.09422 11.9533 7.22661L12.1115 7.70092C12.7564 7.48581 13.114 6.80471 12.8774 6.16931L12.4089 6.3438ZM11.9533 7.22661C11.581 7.3508 11.1848 7.18423 11.0241 6.87304L10.5798 7.10241C10.8588 7.64274 11.5165 7.8994 12.1115 7.70092L11.9533 7.22661ZM11.0306 6.88659L10.9855 6.78461L10.5282 6.98688L10.5733 7.08886L11.0306 6.88659ZM10.9911 6.7985C10.7037 6.02659 9.98465 5.48752 9.18411 5.38923L9.12319 5.88551C9.74709 5.9621 10.3033 6.38407 10.5226 6.97299L10.9911 6.7985ZM9.17416 5.38821L9.02051 5.37556L8.97949 5.87388L9.13313 5.88653L9.17416 5.38821ZM9 5.37472H7V5.87472H9V5.37472ZM7 5.37472H5V5.87472H7V5.37472ZM5 5.37472C3.77051 5.37472 2.75 6.32132 2.75 7.51758H3.25C3.25 6.62304 4.02035 5.87472 5 5.87472V5.37472ZM2.75 7.51758C2.75 8.65919 3.68024 9.57412 4.83332 9.65464L4.86815 9.15585C3.95152 9.09185 3.25 8.37172 3.25 7.51758H2.75ZM4.84205 9.65509L4.99131 9.66028L5.00869 9.16059L4.85943 9.15539L4.84205 9.65509ZM5 9.66044H9V9.16044H5V9.66044ZM9 9.66044C11.0842 9.66044 12.75 11.2562 12.75 13.1961H13.25C13.25 10.9545 11.3341 9.16044 9 9.16044V9.66044ZM12.75 13.1961C12.75 15.0775 11.1839 16.6347 9.18802 16.7275L9.21126 17.227C11.4482 17.1229 13.25 15.3697 13.25 13.1961H12.75ZM9.19384 16.7273L8.9942 16.7319L9.0058 17.2318L9.20544 17.2272L9.19384 16.7273ZM9.00005 16.7319L8.00005 16.7316L7.99995 17.2316L8.99995 17.2319L9.00005 16.7319ZM8.25 18.8747V16.9816H7.75V18.8747H8.25ZM7 20.0711C7.67721 20.0711 8.25 19.5483 8.25 18.8747H7.75C7.75 19.2466 7.42736 19.5711 7 19.5711V20.0711ZM5.75859 19.0155C5.83285 19.6206 6.3702 20.0711 7 20.0711V19.5711C6.60413 19.5711 6.29614 19.2909 6.25487 18.9546L5.75859 19.0155ZM5.75046 18.8899L5.75719 19.0003L6.25626 18.9699L6.24954 18.8595L5.75046 18.8899ZM5.75 16.9812V18.8747H6.25V16.9812H5.75ZM6.00005 16.7312L4.95692 16.731L4.95681 17.231L5.99995 17.2312L6.00005 16.7312ZM4.96707 16.7312C3.42923 16.6683 2.09674 15.7276 1.59114 14.3699L1.12258 14.5444C1.70291 16.1028 3.22066 17.1602 4.94665 17.2308L4.96707 16.7312ZM1.59114 14.3699C1.4606 14.0194 1.64981 13.6195 2.0467 13.4871L1.88849 13.0128C1.24363 13.2279 0.88596 13.909 1.12258 14.5444L1.59114 14.3699ZM2.0467 13.4871C2.41902 13.3629 2.81523 13.5295 2.97588 13.8407L3.42017 13.6113C3.14123 13.071 2.48352 12.8143 1.88849 13.0128L2.0467 13.4871ZM2.9694 13.8271L3.01451 13.9291L3.47177 13.7269L3.42666 13.6249L2.9694 13.8271ZM3.00886 13.9152C3.29631 14.6871 4.01535 15.2262 4.81589 15.3245L4.87682 14.8282C4.25291 14.7516 3.69673 14.3297 3.47742 13.7407L3.00886 13.9152ZM4.82584 15.3255L4.97949 15.3382L5.02051 14.8399L4.86686 14.8272L4.82584 15.3255ZM5 15.339H6.99857V14.839H5V15.339ZM7 14.839C6.99962 14.839 6.99925 14.839 6.99903 14.839C6.99877 14.839 6.99866 14.839 6.99857 14.839V15.339C6.99895 15.339 6.99931 15.339 6.99953 15.339C6.99979 15.339 6.99991 15.339 7 15.339V14.839ZM7.00143 14.839C7.00134 14.839 7.00123 14.839 7.00097 14.839C7.00075 14.839 7.00038 14.839 7 14.839V15.339C7.00009 15.339 7.00021 15.339 7.00047 15.339C7.00069 15.339 7.00105 15.339 7.00143 15.339V14.839ZM7.00143 15.339H9V14.839H7.00143V15.339ZM9 15.339C10.2295 15.339 11.25 14.3924 11.25 13.1961H10.75C10.75 14.0907 9.97965 14.839 9 14.839V15.339ZM11.25 13.1961C11.25 12.0545 10.3198 11.1396 9.16668 11.0591L9.13185 11.5579C10.0485 11.6219 10.75 12.342 10.75 13.1961H11.25ZM9.15795 11.0586L9.00869 11.0534L8.99131 11.5531L9.14057 11.5583L9.15795 11.0586ZM9 11.0533H5V11.5533H9V11.0533ZM5 11.0533C2.91578 11.0533 1.25 9.45751 1.25 7.51758H0.75C0.75 9.75923 2.66594 11.5533 5 11.5533V11.0533ZM1.25 7.51758C1.25 5.63625 2.81609 4.07907 4.81198 3.98623L4.78874 3.48677C2.55185 3.59083 0.75 5.34404 0.75 7.51758H1.25ZM4.80616 3.98643L5.0058 3.9818L4.9942 3.48193L4.79456 3.48656L4.80616 3.98643ZM4.99995 3.98186L5.99995 3.98208L6.00005 3.48208L5.00005 3.48186L4.99995 3.98186ZM5.75 1.83901V3.73208H6.25V1.83901H5.75ZM7 0.642578C6.32279 0.642578 5.75 1.16545 5.75 1.83901H6.25C6.25 1.46717 6.57264 1.14258 7 1.14258V0.642578Z" fill="white"/>
</svg>
