<svg width="12" height="20" viewBox="0 0 12 20" fill="none" xmlns="http://www.w3.org/2000/svg">
<path fill-rule="evenodd" clip-rule="evenodd" d="M6 0.892578C6.51284 0.892578 6.93551 1.25794 6.99327 1.72863L7 1.83901V3.73252L8.04314 3.73274C9.67506 3.79943 11.1002 4.79853 11.6431 6.25655C11.8267 6.74953 11.5533 7.29002 11.0324 7.46376C10.5487 7.6251 10.0218 7.41348 9.80197 6.98773L9.75686 6.88574C9.50348 6.20533 8.86587 5.72481 8.15365 5.63737L8 5.62472H6H4C2.89543 5.62472 2 6.47218 2 7.51758C2 8.51546 2.81588 9.33298 3.85074 9.40524L4 9.41044H8C10.2091 9.41044 12 11.1054 12 13.1961C12 15.2236 10.316 16.8788 8.19964 16.9772L8 16.9819L7 16.9816V18.8747C7 19.3974 6.55228 19.8211 6 19.8211C5.48716 19.8211 5.06449 19.4558 5.00673 18.9851L5 18.8747V16.9812L3.95686 16.981C2.32494 16.9143 0.899821 15.9152 0.356862 14.4572C0.173282 13.9642 0.446717 13.4237 0.967598 13.25C1.45127 13.0886 1.97823 13.3002 2.19803 13.726L2.24314 13.828C2.49652 14.5084 3.13413 14.9889 3.84635 15.0764L4 15.089H5.99857C5.99904 15.089 5.99952 15.089 6 15.089C6.00048 15.089 6.00096 15.089 6.00143 15.089H8C9.10457 15.089 10 14.2415 10 13.1961C10 12.1983 9.18412 11.3807 8.14926 11.3085L8 11.3033H4C1.79086 11.3033 0 9.60837 0 7.51758C0 5.49014 1.68397 3.83495 3.80036 3.7365L4 3.73186L5 3.73208V1.83901C5 1.31631 5.44772 0.892578 6 0.892578Z" fill="white"/>
</svg>
