<svg width="19" height="21" viewBox="0 0 19 21" fill="none" xmlns="http://www.w3.org/2000/svg">
<g clip-path="url(#clip0_129_9426)">
<path fill-rule="evenodd" clip-rule="evenodd" d="M9.44922 8.9502C9.87655 8.9502 10.2288 9.259 10.277 9.65692L10.2826 9.7502H11.1159C11.5761 9.7502 11.9492 10.1084 11.9492 10.5502C11.9492 10.9604 11.6276 11.2986 11.2131 11.3448L11.1159 11.3502H9.44922H9.03255C8.80247 11.3502 8.61589 11.5293 8.61589 11.7502C8.61589 11.9466 8.7633 12.1099 8.95764 12.1437L9.03255 12.1502H9.86589C11.0165 12.1502 11.9492 13.0456 11.9492 14.1502C11.9492 15.1178 11.2335 15.9249 10.2826 16.1102V16.1502C10.2826 16.592 9.90947 16.9502 9.44922 16.9502C9.02189 16.9502 8.66964 16.6414 8.62147 16.2435L8.61589 16.1502H7.78255C7.3223 16.1502 6.94922 15.792 6.94922 15.3502C6.94922 14.94 7.27089 14.6018 7.68539 14.5556L7.78255 14.5502H9.44922H9.86589C10.096 14.5502 10.2826 14.3711 10.2826 14.1502C10.2826 13.9538 10.1351 13.7905 9.9408 13.7567L9.86589 13.7502H9.03255C7.88197 13.7502 6.94922 12.8548 6.94922 11.7502C6.94922 10.7826 7.66497 9.97546 8.61589 9.79018V9.7502C8.61589 9.30836 8.98897 8.9502 9.44922 8.9502Z" fill="#04223E"/>
<path fill-rule="evenodd" clip-rule="evenodd" d="M3.59404 1.90622C4.91906 1.23921 7.09311 0.450195 9.47115 0.450195C11.8012 0.450195 13.9172 1.20621 15.2353 1.86522L15.3103 1.90222C15.7073 2.10423 16.0413 2.45923 15.9493 2.95024C15.8623 3.41825 14.2592 5.45029 14.2592 5.45029C18.8573 10.2874 22.4084 20.4506 9.47115 20.4506C-3.4651 20.4506 -0.00903225 10.4724 4.62806 5.45029C4.62806 5.45029 2.66325 2.92924 2.68625 2.62624C2.70125 2.43023 2.94922 2.17973 3.10703 2.11623C3.35803 2.01523 3.46204 1.97222 3.59404 1.90622ZM12.9772 5.41029C12.9772 5.41029 14.4492 3.45025 14.5743 3.00924C14.6983 2.56724 11.3222 3.47725 9.62216 3.98426C8.40713 4.34527 7.05711 4.29027 5.80708 4.05326C5.49207 3.99326 4.93306 3.72426 4.86906 3.83926C4.75906 4.03726 5.90608 5.40929 5.90608 5.40929C8.12813 6.22331 10.7552 6.22331 12.9772 5.41029ZM5.28207 6.35631C7.88212 7.38933 11.0062 7.38933 13.6062 6.35531C14.6913 7.53233 15.5993 8.87036 16.2993 10.3244C17.0293 11.8564 17.4273 13.3884 17.3623 14.7085C17.2993 15.9825 16.8123 17.0705 15.7003 17.8795C14.5413 18.7225 12.5912 19.3396 9.47115 19.3396C6.34809 19.3396 4.38905 18.7335 3.21903 17.8995C2.09801 17.1005 1.607 16.0275 1.537 14.7705C1.464 13.4644 1.853 11.9404 2.58002 10.3974C3.27403 8.92636 4.24205 7.51033 5.28207 6.35631ZM4.66106 2.62624C4.53806 2.72224 5.54508 2.87324 6.00208 2.96024C7.16311 3.18025 8.30913 3.14225 9.32115 2.91624C10.5462 2.64324 12.8802 2.30523 12.8472 2.09923C12.8102 1.87522 10.6912 1.56122 9.47115 1.56122C7.61112 1.56122 5.15207 2.24123 4.66106 2.62624Z" fill="#04223E"/>
<path fill-rule="evenodd" clip-rule="evenodd" d="M4.62884 5.4501C4.62884 5.4501 2.66403 2.92905 2.68703 2.62604C2.70203 2.43004 2.95 2.17953 3.10781 2.11603C3.35882 2.01503 3.46282 1.97203 3.59482 1.90603C4.91985 1.23902 7.09389 0.45 9.47194 0.45C11.802 0.45 13.918 1.20601 15.236 1.86503L15.311 1.90203C15.7081 2.10403 16.0421 2.45904 15.9501 2.95005C15.8631 3.41806 14.26 5.4501 14.26 5.4501C18.8581 10.2872 22.4092 20.4504 9.47194 20.4504C-3.46432 20.4504 -0.00824785 10.4722 4.62884 5.4501ZM14.8497 5.42419C15.9317 6.61951 16.9386 8.08924 17.6773 9.64112C18.4739 11.3144 18.9734 13.1143 18.8912 14.7862C18.8082 16.4752 18.1291 18.0313 16.5892 19.1508C15.0676 20.257 12.7557 20.9004 9.47194 20.9004C6.18964 20.9004 3.87351 20.269 2.34446 19.1793C0.796355 18.076 0.104335 16.5379 0.0110784 14.8585C-0.0811833 13.197 0.410394 11.4021 1.20311 9.72069C1.94067 8.15622 2.95152 6.66291 4.04309 5.42734C4.01836 5.39504 3.99205 5.36062 3.96437 5.32432C3.77944 5.08181 3.53259 4.7546 3.286 4.41723C3.04034 4.08111 2.79106 3.7296 2.60322 3.44004C2.50992 3.29623 2.42652 3.15967 2.36562 3.04391C2.33546 2.98659 2.30599 2.92531 2.28355 2.86529C2.26736 2.82199 2.22895 2.71539 2.23832 2.59198C2.2571 2.34666 2.40164 2.1428 2.50594 2.02419C2.61625 1.89875 2.77264 1.76584 2.93983 1.69856C3.1919 1.59713 3.27988 1.56036 3.39303 1.50381C4.75779 0.816876 7.002 0 9.47194 0C11.8922 0 14.0776 0.782863 15.4362 1.46199C15.4366 1.46217 15.4369 1.46235 15.4373 1.46253L15.5151 1.50093C15.9812 1.73805 16.5396 2.2472 16.3924 3.03292C16.3683 3.1616 16.3061 3.2948 16.2518 3.39937C16.1913 3.51563 16.1141 3.64539 16.0293 3.77909C15.8594 4.04714 15.6445 4.35382 15.4365 4.64009C15.2277 4.92746 15.0221 5.19934 14.869 5.39905C14.8625 5.40756 14.856 5.41595 14.8497 5.42419ZM12.978 5.4101C12.978 5.4101 14.45 3.45006 14.575 3.00905C14.6032 2.90862 14.4507 2.87799 14.1782 2.89657C14.1771 2.89664 14.176 2.89672 14.1749 2.8968C14.163 2.89762 14.1509 2.89854 14.1386 2.89954C14.138 2.89959 14.1374 2.89964 14.1368 2.89969C13.1842 2.97815 10.9176 3.59796 9.62294 3.98407C8.40792 4.34508 7.05789 4.29007 5.80787 4.05307C5.69173 4.03095 5.54242 3.98042 5.39698 3.93119C5.38508 3.92717 5.3732 3.92315 5.36138 3.91915C5.34453 3.91346 5.32778 3.90783 5.31118 3.90229C5.09552 3.83033 4.90557 3.77487 4.86985 3.83907C4.83791 3.89655 4.91193 4.053 5.03307 4.24609C5.04323 4.26228 5.05372 4.27873 5.0645 4.2954C5.36814 4.76469 5.90687 5.4091 5.90687 5.4091C8.12891 6.22311 10.756 6.22311 12.978 5.4101ZM6.17539 5.02735C8.23153 5.74906 10.641 5.75039 12.6985 5.03214C12.737 4.9803 12.7877 4.91171 12.8472 4.83065C12.9861 4.64152 13.1721 4.3853 13.3616 4.11597C13.5365 3.86754 13.712 3.61121 13.8556 3.3875C13.5882 3.42863 13.2553 3.49515 12.8823 3.57957C11.8552 3.81206 10.597 4.16317 9.75155 4.4153C8.45516 4.80048 7.041 4.74075 5.76253 4.50243C5.87685 4.65412 5.99059 4.79827 6.08019 4.9098C6.11664 4.95518 6.14892 4.99494 6.17539 5.02735ZM3.21982 17.8993C4.38984 18.7334 6.34888 19.3394 9.47194 19.3394C12.592 19.3394 14.542 18.7224 15.7011 17.8793C16.8131 17.0703 17.3001 15.9823 17.3631 14.7083C17.4281 13.3883 17.0301 11.8562 16.3001 10.3242C15.6001 8.87016 14.692 7.53214 13.607 6.35511C11.007 7.38913 7.88291 7.38913 5.28286 6.35611C4.24283 7.51014 3.27482 8.92616 2.5808 10.3972C1.85379 11.9402 1.46478 13.4643 1.53778 14.7703C1.60778 16.0273 2.09879 17.1003 3.21982 17.8993ZM2.98788 10.589C2.27952 12.0924 1.9197 13.5397 1.98708 14.7452C2.05048 15.8837 2.48517 16.8231 3.481 17.5329C4.54466 18.2911 6.39711 18.8894 9.47194 18.8894C12.5425 18.8894 14.3844 18.2806 15.4364 17.5154C16.4235 16.7972 16.8564 15.8435 16.9136 14.6861C16.9737 13.4656 16.6047 12.0099 15.8941 10.5184C15.2576 9.19644 14.4444 7.97347 13.4796 6.88511C10.9339 7.81204 7.95995 7.81249 5.41397 6.88733C4.47907 7.96659 3.61658 9.25647 2.98788 10.589ZM9.32193 2.91605C9.70694 2.83025 10.2015 2.73803 10.6977 2.6455C11.2751 2.53783 11.8547 2.42975 12.2664 2.33089C12.3286 2.31597 12.3869 2.30127 12.4408 2.28681C12.6995 2.2174 12.8567 2.15359 12.848 2.09903C12.8383 2.04041 12.686 1.97562 12.4446 1.91191C12.3888 1.89719 12.3283 1.88254 12.2636 1.86802C11.539 1.7053 10.2989 1.56102 9.47194 1.56102C8.00023 1.56102 6.15351 1.98674 5.20335 2.3552C5.14574 2.37754 5.09142 2.39968 5.04068 2.42149C4.87063 2.4946 4.7408 2.56413 4.66184 2.62604C4.63701 2.64543 4.65824 2.66705 4.71172 2.68994C4.7116 2.68989 4.71183 2.68999 4.71172 2.68994C4.78498 2.72123 4.91873 2.75501 5.07699 2.78851C5.13123 2.79999 5.1884 2.81145 5.24707 2.82279C5.39624 2.85164 5.5551 2.87973 5.7003 2.9054C5.81304 2.92533 5.91754 2.9438 6.00287 2.96005C7.16389 3.18005 8.30991 3.14205 9.32193 2.91605ZM6.12696 2.52545C7.21268 2.72535 8.28199 2.6872 9.22386 2.47687C9.61519 2.38965 10.1261 2.29433 10.6291 2.20049C10.7689 2.17441 10.9081 2.14843 11.044 2.12278C10.4955 2.0553 9.91625 2.01102 9.47194 2.01102C8.58881 2.01102 7.54615 2.17364 6.65855 2.38672C6.47209 2.43148 6.29393 2.47812 6.12696 2.52545Z" fill="#04223E"/>
</g>
<defs>
<clipPath id="clip0_129_9426">
<rect width="19" height="21" fill="white"/>
</clipPath>
</defs>
</svg>
