<svg width="19" height="20" viewBox="0 0 19 20" fill="none" xmlns="http://www.w3.org/2000/svg">
<path d="M16.5442 2H12.4119C11.9966 0.84 10.9092 0 9.624 0C8.33881 0 7.25135 0.84 6.83613 2H2.70377C1.61631 2 0.726562 2.9 0.726562 4V18C0.726562 19.1 1.61631 20 2.70377 20H16.5442C17.6317 20 18.5214 19.1 18.5214 18V4C18.5214 2.9 17.6317 2 16.5442 2ZM9.624 2C10.1677 2 10.6126 2.45 10.6126 3C10.6126 3.55 10.1677 4 9.624 4C9.08027 4 8.63539 3.55 8.63539 3C8.63539 2.45 9.08027 2 9.624 2ZM11.6012 16H4.68098V14H11.6012V16ZM14.567 12H4.68098V10H14.567V12ZM14.567 8H4.68098V6H14.567V8Z" fill="#8BBBDA"/>
</svg>
