<svg width="25" height="8" viewBox="0 0 25 8" fill="none" xmlns="http://www.w3.org/2000/svg">
<path d="M24.0966 1.3569H11.2089L11.7006 0.618707C11.8272 0.428374 11.999 0.272276 12.2007 0.164324C12.4024 0.0563719 12.6277 -7.97458e-05 12.8565 8.45504e-08H25L24.0966 1.3569Z" fill="#8BBBDA"/>
<path d="M22.4189 4.02451H9.53174L10.4345 2.66699H23.3223L22.4189 4.02451Z" fill="#8BBBDA"/>
<path d="M20.7413 6.69089H7.85413L8.7575 5.33398H21.6446L20.7413 6.69089Z" fill="#8BBBDA"/>
<path d="M10.3831 2.66549H3.35474L4.25811 1.30859H11.2865L10.3831 2.66549Z" fill="#8BBBDA"/>
<path d="M8.70613 5.33311H1.67773L2.58111 3.97559H9.60888L8.70613 5.33311Z" fill="#8BBBDA"/>
<path d="M6.24843 8.00045H0L0.903373 6.64355H7.93177L7.46003 7.35172C7.32729 7.55122 7.14721 7.71485 6.93582 7.82803C6.72443 7.94122 6.48829 8.00045 6.24843 8.00045Z" fill="#8BBBDA"/>
</svg>
