<svg fill="none" height="14" viewBox="0 0 15 14" width="15" xmlns="http://www.w3.org/2000/svg">
<path clip-rule="evenodd" d="M5.73511 1.72087C5.65772 2.03914 5.2956 2.18921 5.01466 2.0184C3.38895 1.02865 1.5287 2.88935 2.51898 4.51488C2.59935 4.6467 2.61191 4.80871 2.55292 4.9511C2.49392 5.0935 2.37046 5.19916 2.22066 5.23546C0.370487 5.6843 0.370487 8.31578 2.22048 8.76458C2.36978 8.80089 2.49309 8.90653 2.55202 9.04884C2.61094 9.19114 2.59841 9.35303 2.51829 9.48458C1.52826 11.1107 3.38896 12.971 5.01449 11.9807C5.14631 11.9003 5.30832 11.8878 5.45072 11.9468C5.59311 12.0058 5.69877 12.1292 5.73507 12.279C6.18391 14.1292 8.81539 14.1292 9.26419 12.2792C9.3005 12.1299 9.40614 12.0066 9.54845 11.9477C9.69076 11.8888 9.85264 11.9013 9.98419 11.9814C11.6104 12.9714 13.4706 11.1107 12.4803 9.4852C12.4 9.35338 12.3874 9.19137 12.4464 9.04898C12.5054 8.90658 12.6288 8.80092 12.7786 8.76463C14.6288 8.31578 14.6288 5.6843 12.7788 5.2355C12.6295 5.19919 12.5062 5.09355 12.4473 4.95124C12.3884 4.80894 12.4009 4.64705 12.481 4.51551C13.471 2.88934 11.6103 1.02909 9.98481 2.01937C9.853 2.09974 9.69099 2.1123 9.54859 2.0533C9.40619 1.99431 9.30053 1.87085 9.26419 1.72087C8.81539 -0.129124 6.18391 -0.129124 5.73511 1.72087ZM7.9684 2.03503C8.10496 2.59864 8.50249 3.06314 9.03825 3.2851C9.57401 3.50707 10.1836 3.45981 10.6787 3.15792C11.0918 2.90629 11.5625 3.34806 11.3723 3.76535L11.3422 3.82203C11.0408 4.31684 10.9937 4.92592 11.2154 5.46134C11.4371 5.99677 11.901 6.39423 12.4641 6.53116C12.9558 6.65045 12.9558 7.34964 12.4645 7.46883C11.9011 7.60535 11.4366 8.00288 11.2146 8.53864C10.9926 9.0744 11.0399 9.68395 11.3418 10.1791C11.5934 10.5921 11.1516 11.0629 10.7343 10.8727L10.6777 10.8426C10.1829 10.5412 9.57377 10.4941 9.03835 10.7158C8.50293 10.9375 8.10547 11.4014 7.96853 11.9645C7.84925 12.4562 7.15006 12.4562 7.03086 11.9649C6.89434 11.4014 6.49681 10.9369 5.96105 10.715C5.42529 10.493 4.81574 10.5403 4.3206 10.8422C3.90755 11.0938 3.43677 10.652 3.62699 10.2347L3.65709 10.1781C3.95848 9.68325 4.00562 9.07416 3.78392 8.53874C3.56221 8.00332 3.09828 7.60586 2.53518 7.46892C2.04348 7.34964 2.04348 6.65045 2.53482 6.53125C3.09825 6.39473 3.56275 5.9972 3.78472 5.46144C4.00668 4.92568 3.95942 4.31613 3.65753 3.82099C3.39446 3.38916 3.88926 2.89424 4.32164 3.15748C5.37378 3.79718 6.74009 3.23094 7.03077 2.03556C7.14378 1.56975 7.77725 1.54523 7.94497 1.96172L7.9684 2.03503ZM7.49965 4.33337C6.02689 4.33337 4.83298 5.52728 4.83298 7.00004C4.83298 8.4728 6.02689 9.66671 7.49965 9.66671C8.97241 9.66671 10.1663 8.4728 10.1663 7.00004C10.1663 5.52728 8.97241 4.33337 7.49965 4.33337ZM7.49965 5.66671C8.23603 5.66671 8.83298 6.26366 8.83298 7.00004C8.83298 7.73642 8.23603 8.33337 7.49965 8.33337C6.76327 8.33337 6.16632 7.73642 6.16632 7.00004C6.16632 6.26366 6.76327 5.66671 7.49965 5.66671Z" fill="#DA483B" fill-rule="evenodd"/>
</svg>
