<svg width="24" height="24" viewBox="0 0 24 24" fill="none" xmlns="http://www.w3.org/2000/svg">
<path fill-rule="evenodd" clip-rule="evenodd" d="M11.9988 2L11.8848 2.00667C11.8456 2.01122 11.8066 2.01809 11.7658 2.02801L11.6535 2.06198C11.5783 2.08979 11.5057 2.12702 11.4373 2.17377L11.3408 2.2486L11.0782 2.47401C8.97337 4.22253 6.28822 5.12651 3.54655 5.00105C3.08638 4.98 2.67135 5.27602 2.54143 5.71798C1.54862 9.0953 1.9679 12.7309 3.70341 15.7936C5.43893 18.8562 8.3423 21.0841 11.7498 21.968C11.9144 22.0107 12.0873 22.0107 12.2519 21.968C15.6594 21.0841 18.5628 18.8562 20.2983 15.7936C22.0338 12.7309 22.4531 9.0953 21.4602 5.71798C21.3303 5.27602 20.9153 4.98 20.4551 5.00105L20.1128 5.01139C17.4907 5.04971 14.9406 4.14968 12.9235 2.47401L12.6688 2.25601L12.5644 2.17377C12.496 2.12702 12.4233 2.08979 12.3482 2.06198L12.237 2.02821L12.1755 2.01524L12.1168 2.00667L11.9988 2ZM11.8244 4.43131L12.0008 4.29501L12.1773 4.43131C14.2893 6.00745 16.8316 6.90476 19.465 7.00345L19.7278 7.00901L19.7924 7.31905C20.2803 9.8711 19.8505 12.527 18.5582 14.8075L18.391 15.0925C16.9642 17.4431 14.708 19.1744 12.0683 19.9443L12.0008 19.963L11.9333 19.9443C9.18805 19.1436 6.85758 17.303 5.44346 14.8075L5.27259 14.4943C4.11399 12.2858 3.74353 9.75509 4.2093 7.31905L4.27284 7.00901L4.53664 7.00345C7.17004 6.90476 9.71242 6.00745 11.8244 4.43131ZM12.0008 9.00001C10.8963 9.00001 10.0008 9.89544 10.0008 11C10.0008 11.7403 10.403 12.3866 11.0008 12.7324V14.5L11.0076 14.6166C11.0653 15.114 11.488 15.5 12.0008 15.5C12.5531 15.5 13.0008 15.0523 13.0008 14.5V12.7324C13.5986 12.3866 14.0008 11.7403 14.0008 11C14.0008 9.89544 13.1054 9.00001 12.0008 9.00001Z" fill="#04223E"/>
</svg>
