<svg width="17" height="16" viewBox="0 0 17 16" fill="none" xmlns="http://www.w3.org/2000/svg">
<path fill-rule="evenodd" clip-rule="evenodd" d="M8.42452 1.33746L8.50051 1.33301L8.5792 1.33746L8.61831 1.34317L8.65933 1.35182L8.73341 1.37433C8.78353 1.39287 8.83196 1.41769 8.87754 1.44886L8.9472 1.50368L9.11697 1.64901C10.4617 2.76613 12.1618 3.36615 13.9098 3.3406L14.1381 3.33371C14.4448 3.31967 14.7215 3.51702 14.8081 3.81166C15.47 6.06321 15.1905 8.48692 14.0335 10.5287C12.8765 12.5705 10.9409 14.0558 8.66924 14.645C8.55947 14.6735 8.44425 14.6735 8.33448 14.645C6.06283 14.0558 4.12725 12.5705 2.97024 10.5287C1.81323 8.48692 1.53371 6.06321 2.19559 3.81166C2.2822 3.51702 2.55889 3.31967 2.86567 3.33371C4.69345 3.41735 6.48355 2.8147 7.88675 1.64901L8.06186 1.49874L8.12619 1.44886C8.17176 1.41769 8.2202 1.39287 8.27031 1.37433L8.3452 1.35168C8.37235 1.34507 8.39837 1.34049 8.42452 1.33746ZM8.50186 2.86301L8.38421 2.95388C6.97625 4.00464 5.28133 4.60285 3.52573 4.66864L3.34986 4.67235L3.3075 4.87904C2.99699 6.50307 3.24396 8.19019 4.01636 9.66252L4.13027 9.87136C5.07302 11.535 6.62667 12.7621 8.45686 13.2959L8.50186 13.3083L8.54686 13.2959C10.3067 12.7826 11.8108 11.6284 12.762 10.0614L12.8734 9.87136C13.735 8.35101 14.0215 6.58041 13.6962 4.87904L13.6532 4.67235L13.478 4.66864C11.7224 4.60285 10.0275 4.00464 8.61952 2.95388L8.50186 2.86301ZM10.9733 6.19494C10.7129 5.93459 10.2908 5.93459 10.0305 6.19494L7.8352 8.38968L6.97327 7.52828L6.91046 7.47282C6.64893 7.26947 6.27078 7.28795 6.03046 7.52828C5.77011 7.78863 5.77011 8.21074 6.03046 8.47109L7.36379 9.80442L7.4266 9.85988C7.68812 10.0632 8.06628 10.0447 8.3066 9.80442L10.9733 7.13775L11.0287 7.07495C11.2321 6.81342 11.2136 6.43527 10.9733 6.19494Z" fill="#DA483B"/>
</svg>
