<svg fill="none" height="17" viewBox="0 0 16 17" width="16" xmlns="http://www.w3.org/2000/svg">
    <path clip-rule="evenodd"
        d="M7.92257 1.83794L7.99856 1.8335L8.07725 1.83794L8.11636 1.84365L8.15737 1.8523L8.23146 1.87481C8.28157 1.89336 8.33001 1.91818 8.37558 1.94934L8.44524 2.00417L8.61502 2.1495C9.95975 3.26662 11.6598 3.86664 13.4079 3.84109L13.6361 3.8342C13.9429 3.82016 14.2196 4.01751 14.3062 4.31215C14.9681 6.5637 14.6885 8.98741 13.5315 11.0292C12.3745 13.071 10.4389 14.5563 8.16729 15.1455C8.05752 15.174 7.9423 15.174 7.83253 15.1455C5.56088 14.5563 3.6253 13.071 2.46829 11.0292C1.31128 8.98741 1.03176 6.5637 1.69364 4.31215C1.78025 4.01751 2.05693 3.82016 2.36372 3.8342C4.19149 3.91784 5.9816 3.31519 7.3848 2.1495L7.55991 1.99923L7.62423 1.94934C7.66981 1.91818 7.71824 1.89336 7.76836 1.87481L7.84324 1.85217C7.8704 1.84556 7.89642 1.84097 7.92257 1.83794ZM7.99991 3.3635L7.88225 3.45437C6.47429 4.50513 4.77937 5.10334 3.02378 5.16913L2.84791 5.17284L2.80555 5.37953C2.49504 7.00356 2.74201 8.69068 3.51441 10.163L3.62832 10.3718C4.57107 12.0355 6.12471 13.2625 7.95491 13.7964L7.99991 13.8088L8.04491 13.7964C9.80471 13.2831 11.3088 12.1289 12.26 10.5619L12.3715 10.3718C13.233 8.8515 13.5196 7.08089 13.1943 5.37953L13.1512 5.17284L12.976 5.16913C11.2204 5.10334 9.52552 4.50513 8.11756 3.45437L7.99991 3.3635Z"
        fill="white" fill-rule="evenodd" />
</svg>
