<svg width="18" height="20" viewBox="0 0 18 20" fill="none" xmlns="http://www.w3.org/2000/svg">
<path fill-rule="evenodd" clip-rule="evenodd" d="M3 0C3.51284 0 3.93551 0.38604 3.99327 0.883379L4 1V2.06888L17.0712 3.00254C17.6113 3.04111 18.015 3.49956 17.9997 4.02738L17.9899 4.14142L16.9899 11.1414C16.925 11.5962 16.5605 11.943 16.1134 11.9936L16 12H4V14H14C15.6569 14 17 15.3431 17 17C17 18.6569 15.6569 20 14 20C12.3431 20 11 18.6569 11 17C11 16.6494 11.0602 16.3128 11.1707 16H5.82929C5.93985 16.3128 6 16.6494 6 17C6 18.6569 4.65685 20 3 20C1.34315 20 0 18.6569 0 17C0 15.6938 0.834808 14.5825 2 14.1707V11V2H1C0.487164 2 0.0644928 1.61396 0.00672773 1.11662L0 1C0 0.487164 0.38604 0.0644928 0.883379 0.00672773L1 0H3ZM4 10H15.133L15.858 4.921L4 4.07398V10ZM13 17C13 16.4477 13.4477 16 14 16C14.5523 16 15 16.4477 15 17C15 17.5523 14.5523 18 14 18C13.4477 18 13 17.5523 13 17ZM2 17C2 16.4477 2.44772 16 3 16C3.55228 16 4 16.4477 4 17C4 17.5523 3.55228 18 3 18C2.44772 18 2 17.5523 2 17Z" fill="#36495A"/>
</svg>
