<svg width="24" height="24" viewBox="0 0 24 24" fill="none" xmlns="http://www.w3.org/2000/svg">
<path fill-rule="evenodd" clip-rule="evenodd" d="M9.77827 3.77274C11.0447 2.78754 12.7961 2.7447 14.1046 3.64418L14.2802 3.77268L19.6128 7.92034C20.447 8.56843 20.958 9.54235 21.0224 10.5896L21.0293 10.815V18.015C21.0293 19.6127 19.7804 20.9187 18.2056 21.0099L18.0293 21.015H6.0293C4.43162 21.015 3.12564 19.7661 3.03439 18.1913L3.0293 18.015V10.8155C3.0288 9.75925 3.48375 8.75809 4.27074 8.06446L4.44442 7.92062L9.77827 3.77274ZM13.0523 5.35131C12.4907 4.91444 11.7193 4.88531 11.1296 5.26403L11.0062 5.35142L5.67218 9.49942C5.31143 9.77996 5.08387 10.1947 5.03792 10.6448L5.0293 10.815V18.015C5.0293 18.5279 5.41534 18.9505 5.91268 19.0083L6.0293 19.015H18.0293C18.5421 19.015 18.9648 18.629 19.0226 18.1316L19.0293 18.015V10.815C19.0293 10.3578 18.8416 9.92338 18.5148 9.61095L18.3858 9.4997L13.0523 5.35131ZM16.8556 14.4835C16.5703 14.0106 15.9557 13.8585 15.4828 14.1437C13.5905 15.2851 10.4063 15.2851 8.51613 14.1439C8.04333 13.8585 7.42865 14.0104 7.14321 14.4832C6.85777 14.956 7.00966 15.5707 7.48247 15.8561C10.0082 17.381 13.9881 17.381 16.5158 15.8563C16.9887 15.5711 17.1408 14.9565 16.8556 14.4835Z" fill="#04223E"/>
</svg>
