<svg width="231" height="102" viewBox="0 0 231 102" fill="none" xmlns="http://www.w3.org/2000/svg">
<path d="M183.203 6.62864H120.339L122.72 3.02463C123.34 2.09357 124.18 1.33021 125.166 0.802503C126.153 0.274794 127.254 -0.000886815 128.372 2.14309e-06H187.61L183.203 6.62864Z" fill="#DD5844"/>
<path d="M175.019 19.6579H112.155L116.561 13.0293H179.426L175.019 19.6579Z" fill="#DD5844"/>
<path d="M166.839 32.6867H103.975L108.377 26.0581H171.246L166.839 32.6867Z" fill="#DD5844"/>
<path d="M116.311 13.0197H82.0269L86.4338 6.39111H120.717L116.311 13.0197Z" fill="#67C6ED"/>
<path d="M108.131 26.049H73.8472L78.2495 19.4204H112.533L108.131 26.049Z" fill="#67C6ED"/>
<path d="M96.1418 39.0783H65.6628L70.0698 32.4497H104.353L102.05 35.9123C101.402 36.8858 100.524 37.6842 99.4929 38.2365C98.4623 38.7889 97.3111 39.078 96.1418 39.0783Z" fill="#DD5844"/>
<path d="M11.5844 63.4668C10.216 64.1968 9.08676 65.3054 8.3317 66.6602C7.50128 68.1998 7.08767 69.9297 7.13189 71.6784C7.10234 73.3392 7.50143 74.9796 8.29065 76.4412C9.03929 77.8058 10.1592 78.9304 11.5206 79.6848C12.9836 80.4742 14.6258 80.8718 16.2879 80.839C17.6724 80.8647 19.0538 80.7005 20.3937 80.3509C21.5143 80.0386 22.5882 79.5783 23.5871 78.9823V75.3326H15.8636V70.5197H29.7003V81.829C27.9687 83.2189 25.9952 84.2768 23.8791 84.9494C21.4341 85.775 18.8684 86.1867 16.2879 86.1675C13.2872 86.239 10.3136 85.5848 7.62003 84.2605C5.27984 83.1041 3.3176 81.3049 1.96311 79.0735C0.643248 76.8418 -0.0355297 74.2892 0.00143292 71.6967C-0.0226162 69.1356 0.640627 66.615 1.92205 64.3974C3.18435 62.2006 5.00792 60.3788 7.20598 59.1187C9.40404 57.8585 11.8976 57.2053 14.4311 57.2259C16.1705 57.2082 17.901 57.4748 19.5543 58.0152C21.068 58.5138 22.4768 59.287 23.7103 60.2962V57.7825H29.7003V67.0252L25.2295 67.308C24.2873 65.8893 23.0404 64.6985 21.5798 63.8226C19.9623 62.8343 18.0965 62.3278 16.2012 62.3628C14.5943 62.3396 13.0071 62.7191 11.5844 63.4668Z" fill="white"/>
<path d="M62.5014 73.9051V85.5793H34.4038V80.4516H39.1301V62.9562H34.4038V57.792H50.6036V62.9562H45.9229V80.4653H56.1145V73.9051H62.5014Z" fill="white"/>
<path d="M73.3728 84.2014C71.0441 83.0026 69.0831 81.1961 67.6976 78.9733C66.3563 76.7749 65.6467 74.2494 65.6467 71.6741C65.6467 69.0987 66.3563 66.5732 67.6976 64.3748C69.0796 62.1446 71.0411 60.3313 73.3728 59.1285C75.8725 57.8259 78.6565 57.1644 81.475 57.2033C84.2714 57.1666 87.0327 57.8283 89.5087 59.1285C91.8316 60.337 93.7858 62.1494 95.1656 64.3748C96.507 66.5732 97.2166 69.0987 97.2166 71.6741C97.2166 74.2494 96.507 76.7749 95.1656 78.9733C93.7821 81.191 91.8284 82.9966 89.5087 84.2014C87.0327 85.5015 84.2714 86.1633 81.475 86.1266C78.6565 86.1654 75.8725 85.5039 73.3728 84.2014ZM86.0507 79.5801C87.3417 78.7742 88.3802 77.6219 89.048 76.2543C89.7429 74.8349 90.096 73.2726 90.079 71.6923C90.0983 70.0986 89.7453 68.5224 89.048 67.0892C88.3802 65.7229 87.3415 64.5721 86.0507 63.768C84.648 62.9523 83.0543 62.5226 81.4316 62.5226C79.809 62.5226 78.2153 62.9523 76.8126 63.768C75.5235 64.584 74.4859 65.7416 73.8153 67.112C73.1364 68.5435 72.7843 70.108 72.7843 71.6923C72.7843 73.2766 73.1364 74.8411 73.8153 76.2726C74.4784 77.6372 75.5185 78.7834 76.8126 79.5755C78.2203 80.414 79.837 80.8364 81.475 80.7936C83.0851 80.8367 84.6736 80.4154 86.0507 79.5801Z" fill="white"/>
<path d="M133.341 83.2481C132.548 84.0945 131.624 84.8063 130.603 85.3558C129.444 85.932 128.16 86.2111 126.867 86.1678C125.625 86.2013 124.389 85.9806 123.235 85.5194C122.081 85.0581 121.033 84.3659 120.156 83.4854C118.374 81.6879 117.031 78.8838 116.128 75.073L116 74.5483H111.529V80.5064H116.046V85.6113H99.9692V80.4516H104.696V62.9562H99.9692V57.792H117.305C120.796 57.792 123.594 58.5158 125.699 59.9635C126.713 60.6256 127.538 61.5395 128.093 62.6158C128.648 63.6922 128.914 64.894 128.865 66.104C128.939 68.0021 128.299 69.859 127.072 71.3093C125.877 72.6779 124.185 73.6131 121.99 74.1286L122.2 74.7354C122.875 76.7609 123.636 78.1736 124.481 78.9735C125.225 79.7214 126.232 80.15 127.287 80.1688C127.836 80.183 128.382 80.0788 128.888 79.8631C129.367 79.6425 129.809 79.3485 130.197 78.9918L133.341 83.2481ZM111.529 69.708H117.519C118.642 69.7251 119.747 69.4314 120.713 68.8595C121.175 68.5749 121.55 68.1695 121.799 67.6871C122.047 67.2047 122.159 66.6636 122.122 66.1223C122.157 65.6275 122.046 65.1336 121.803 64.7014C121.559 64.2692 121.195 63.9178 120.754 63.6907C119.754 63.1836 118.644 62.9328 117.524 62.9608H111.529V69.708Z" fill="white"/>
<path d="M146.922 62.9562V80.4653H151.689V85.6113H135.361V80.4516H140.083V62.9562H135.361V57.792H151.689V62.9562H146.922Z" fill="white"/>
<path d="M211.634 57.7917V67.7232H206.698V62.0435H193.924V70.1502H199.198V66.6648H203.377V77.486H199.198V74.0006H193.915V81.3409H199.362V85.5973H183.368V81.3409H188.413V62.0435H183.35V57.7871L211.634 57.7917Z" fill="#66C5EB"/>
<path d="M225.895 62.0435V81.3409H231V85.5973H215.22V81.3409H220.284V62.0435H215.22V57.7871H231V62.0435H225.895Z" fill="#66C5EB"/>
<path d="M170.339 69.5525L175.498 69.6072L171.338 72.6592L172.88 77.5862L168.692 74.5707L164.486 77.5588L166.055 72.6455L161.913 69.5661L167.072 69.5433L168.719 64.6528L170.339 69.5525Z" fill="#67C6ED"/>
<path d="M20.7631 94.5022H16.3288V97.0661H20.2932V97.8052H16.3288V100.935H15.5122V93.7495H20.7631V94.5022Z" fill="#C1C7CD"/>
<path d="M25.8819 93.7495V100.935H25.0562V93.7495H25.8819Z" fill="#C1C7CD"/>
<path d="M36.0414 93.7495H36.8443V100.935H36.1783L31.4475 95.0451V100.935H30.6445V93.7495H31.4155L36.0414 99.5114V93.7495Z" fill="#C1C7CD"/>
<path d="M48.3588 100.935H47.4463L46.5841 99.0373H42.6152L41.7438 100.935H40.8953L44.2529 93.6997H45.0285L48.3588 100.935ZM44.627 94.6532L42.9527 98.3028H46.2876L44.627 94.6532Z" fill="#C1C7CD"/>
<path d="M57.798 93.7495H58.6009V100.935H57.9394L53.2086 95.0451V100.935H52.4011V93.7495H53.1767L57.7934 99.5114L57.798 93.7495Z" fill="#C1C7CD"/>
<path d="M68.975 100.315C68.7695 100.47 68.5477 100.603 68.3135 100.712C68.0682 100.825 67.8112 100.91 67.5471 100.967C67.2475 101.033 66.9413 101.063 66.6347 101.058C66.132 101.064 65.6334 100.967 65.1703 100.771C64.7349 100.588 64.3397 100.321 64.007 99.9862C63.6749 99.6503 63.4128 99.2518 63.236 98.8138C62.8709 97.8795 62.8709 96.842 63.236 95.9077C63.4148 95.4667 63.6765 95.0641 64.007 94.7216C64.3395 94.3786 64.7384 94.107 65.1794 93.9233C65.6494 93.7228 66.1558 93.6218 66.6666 93.6267C66.9728 93.6234 67.2784 93.6509 67.5791 93.7089C67.836 93.7595 68.0868 93.8375 68.3272 93.9415C68.5522 94.0389 68.7662 94.1597 68.9659 94.3019C69.1635 94.4424 69.3524 94.5948 69.5316 94.7581L68.9614 95.3466C68.6572 95.0672 68.3183 94.828 67.9531 94.6349C67.5488 94.443 67.1049 94.3492 66.6575 94.3612C66.2798 94.3568 65.9053 94.4298 65.5569 94.5757C65.2085 94.7217 64.8937 94.9375 64.632 95.2098C64.3773 95.4832 64.1761 95.8019 64.0389 96.1495C63.7532 96.9019 63.7532 97.7329 64.0389 98.4853C64.1728 98.8359 64.3743 99.1567 64.632 99.4296C64.891 99.6995 65.2011 99.9151 65.5444 100.064C65.8985 100.217 66.2808 100.295 66.6666 100.292C67.1149 100.303 67.5596 100.21 67.9668 100.023C68.3571 99.819 68.7165 99.5609 69.0343 99.2563L69.5772 99.7809C69.3918 99.9754 69.1904 100.154 68.975 100.315Z" fill="#C1C7CD"/>
<path d="M74.5269 93.7495V100.935H73.7012V93.7495H74.5269Z" fill="#C1C7CD"/>
<path d="M86.11 100.935H85.2204L84.3627 99.0373H80.3755L79.5087 100.935H78.6602L81.9996 93.6997H82.7751L86.11 100.935ZM82.3737 94.6532L80.6994 98.3028H84.0388L82.3737 94.6532Z" fill="#C1C7CD"/>
<path d="M90.1702 93.7495H90.9959V100.187H95.1017V100.935H90.1702V93.7495Z" fill="#C1C7CD"/>
<path d="M105.918 93.7495V100.935H105.092V93.7495H105.918Z" fill="#C1C7CD"/>
<path d="M116.069 93.7495H116.876V100.935H116.215L111.484 95.0451V100.935H110.681V93.7495H111.452L116.069 99.5114V93.7495Z" fill="#C1C7CD"/>
<path d="M127.738 98.7543C127.556 99.1894 127.282 99.58 126.935 99.8994C126.578 100.231 126.16 100.49 125.704 100.661C125.2 100.848 124.667 100.941 124.13 100.935H121.584V93.7498H124.089C124.626 93.744 125.159 93.8367 125.663 94.0235C126.118 94.1917 126.537 94.4474 126.894 94.7762C127.239 95.0957 127.513 95.4844 127.697 95.9167C127.884 96.3664 127.98 96.8486 127.98 97.3355C127.98 97.8225 127.884 98.3046 127.697 98.7543H127.738ZM126.926 96.2589C126.788 95.9166 126.582 95.6061 126.32 95.3465C126.044 95.0824 125.718 94.8761 125.362 94.7397C124.961 94.5899 124.535 94.5157 124.107 94.5208H122.387V100.205H124.089C124.516 100.209 124.941 100.137 125.343 99.9906C125.694 99.8631 126.015 99.6638 126.284 99.4053C126.554 99.1469 126.766 98.835 126.908 98.4897C127.053 98.1351 127.126 97.7551 127.123 97.372C127.13 96.9918 127.063 96.6137 126.926 96.2589Z" fill="#C1C7CD"/>
<path d="M137.656 94.4886H133.213V96.9429H137.209V97.682H133.213V100.196H137.729V100.935H132.36V93.7495H137.656V94.4886Z" fill="#C1C7CD"/>
<path d="M147.241 97.0663C147.092 97.3574 146.878 97.6102 146.616 97.8054C146.343 98.0139 146.034 98.1687 145.703 98.2616C145.343 98.3632 144.97 98.4139 144.595 98.4121H142.816V100.944H141.985V93.7497H144.723C145.104 93.7457 145.484 93.7996 145.849 93.9094C146.164 94.0072 146.458 94.1618 146.716 94.3656C146.956 94.5588 147.146 94.8057 147.273 95.0864C147.405 95.3881 147.47 95.715 147.464 96.0444C147.473 96.398 147.396 96.7485 147.241 97.0663ZM146.105 94.8902C145.681 94.6113 145.179 94.4739 144.672 94.4979H142.816V97.6594H144.64C144.918 97.6608 145.195 97.6224 145.462 97.5453C145.693 97.4785 145.91 97.3686 146.1 97.2214C146.273 97.0874 146.414 96.9158 146.511 96.7196C146.607 96.5159 146.656 96.2927 146.652 96.0672C146.666 95.8411 146.623 95.6151 146.527 95.4097C146.431 95.2043 146.286 95.0258 146.105 94.8902Z" fill="#C1C7CD"/>
<path d="M156.89 94.4886H152.419V96.9429H156.42V97.682H152.419V100.196H156.935V100.935H151.593V93.7495H156.89V94.4886Z" fill="#C1C7CD"/>
<path d="M166.612 93.7495H167.428V100.935H166.771L162.04 95.0451V100.935H161.233V93.7495H162.008L166.625 99.5114L166.612 93.7495Z" fill="#C1C7CD"/>
<path d="M178.254 98.7544C178.077 99.1916 177.808 99.5854 177.465 99.9086C177.105 100.239 176.685 100.498 176.228 100.67C175.725 100.858 175.191 100.95 174.654 100.944H172.113V93.7498H174.654C175.191 93.7436 175.725 93.8364 176.228 94.0235C176.685 94.1928 177.105 94.4484 177.465 94.7763C177.808 95.0959 178.08 95.4846 178.263 95.9168C178.45 96.3665 178.546 96.8486 178.546 97.3356C178.546 97.8225 178.45 98.3047 178.263 98.7544H178.254ZM177.465 96.2589C177.33 95.9149 177.123 95.6037 176.858 95.3465C176.584 95.0805 176.258 94.8739 175.9 94.7398C175.499 94.5891 175.073 94.5148 174.645 94.5208H172.93V100.205H174.645C175.073 100.21 175.498 100.138 175.9 99.9907C176.258 99.8598 176.585 99.6546 176.858 99.3885C177.122 99.1303 177.329 98.8194 177.465 98.4761C177.612 98.1221 177.685 97.7417 177.679 97.3584C177.681 96.9813 177.608 96.6076 177.465 96.2589Z" fill="#C1C7CD"/>
<path d="M188.194 94.4886H183.728V96.9429H187.724V97.682H183.728V100.196H188.249V100.935H182.902V93.7495H188.194V94.4886Z" fill="#C1C7CD"/>
<path d="M197.916 93.7495H198.723V100.935H198.062L193.336 95.0451V100.935H192.519V93.7495H193.295L197.907 99.5114L197.916 93.7495Z" fill="#C1C7CD"/>
<path d="M209.098 100.315C208.674 100.632 208.187 100.854 207.67 100.967C207.37 101.032 207.064 101.063 206.757 101.058C206.255 101.064 205.756 100.966 205.293 100.771C204.858 100.588 204.464 100.321 204.133 99.9848C203.802 99.649 203.54 99.251 203.363 98.8138C202.992 97.8806 202.992 96.8409 203.363 95.9077C203.542 95.4667 203.804 95.0641 204.134 94.7216C204.467 94.3786 204.866 94.107 205.307 93.9233C205.775 93.7233 206.28 93.6223 206.789 93.6267C207.095 93.6234 207.401 93.6509 207.702 93.7089C207.959 93.7602 208.209 93.8382 208.45 93.9415C208.675 94.0389 208.889 94.1597 209.089 94.3019C209.285 94.4424 209.472 94.5948 209.65 94.7581L209.084 95.3466C208.779 95.0661 208.439 94.8268 208.071 94.6349C207.669 94.443 207.226 94.3492 206.78 94.3612C206.402 94.3551 206.027 94.4274 205.679 94.5735C205.33 94.7195 205.015 94.9361 204.755 95.2098C204.499 95.483 204.296 95.8017 204.157 96.1495C203.871 96.9019 203.871 97.7329 204.157 98.4853C204.293 98.8362 204.496 99.157 204.755 99.4296C205.014 99.699 205.324 99.9145 205.667 100.064C206.023 100.217 206.407 100.295 206.794 100.292C207.241 100.303 207.684 100.211 208.09 100.023C208.481 99.8212 208.841 99.563 209.157 99.2563L209.704 99.7809C209.517 99.9744 209.314 100.153 209.098 100.315Z" fill="#C1C7CD"/>
<path d="M219.043 94.4886H214.577V96.9429H218.573V97.682H214.577V100.196H219.098V100.935H213.751V93.7495H219.043V94.4886Z" fill="#C1C7CD"/>
</svg>
