<svg width="20" height="20" viewBox="0 0 20 20" fill="none" xmlns="http://www.w3.org/2000/svg">
<path fill-rule="evenodd" clip-rule="evenodd" d="M3.86141 17.8947H3.15789C2.57654 17.8947 2.10526 18.366 2.10526 18.9474C2.10526 19.5287 2.57654 20 3.1579 20H10H16.8421C17.4235 20 17.8947 19.5287 17.8947 18.9474C17.8947 18.366 17.4235 17.8947 16.8421 17.8947H16.1386C18.4885 16.0649 20 13.209 20 10C20 4.47715 15.5228 0 10 0C4.47715 0 0 4.47715 0 10C0 13.209 1.51151 16.0649 3.86141 17.8947ZM7.82723 17.8947C6.50249 17.5315 5.25122 16.8295 4.21044 15.7887C1.01295 12.5912 1.01295 7.40707 4.21044 4.20959C7.40792 1.0121 12.5921 1.0121 15.7896 4.20959C18.987 7.40707 18.9871 12.5912 15.7896 15.7887C14.7488 16.8295 13.4975 17.5315 12.1728 17.8947H7.82723ZM13.682 15.4182L11.2793 13.0154C10.3324 13.4167 9.23511 13.3521 8.33667 12.8218L5.98376 15.1747C8.23046 16.9227 11.3539 17.0039 13.682 15.4182ZM15.1744 5.98203C17.0923 8.4459 17.0049 11.9649 14.9123 14.3326L12.5875 12.0079C13.4182 10.9403 13.4962 9.47684 12.8214 8.33499L15.1744 5.98203ZM14.0163 4.82424L11.6632 7.17737C10.522 6.50374 9.0599 6.58168 7.99291 7.41118L5.66789 5.08617C8.0353 2.99477 11.5529 2.90746 14.0163 4.82424ZM4.58209 6.31619L6.98478 8.71889C6.58267 9.66647 6.64725 10.765 7.17852 11.6641L4.82571 14.0169C3.0764 11.7697 2.99519 8.64486 4.58209 6.31619ZM11.1257 8.81054C10.4841 8.20254 9.47097 8.21299 8.84209 8.84187C8.20259 9.48136 8.20259 10.5182 8.84209 11.1577C9.48158 11.7972 10.5184 11.7972 11.1579 11.1577C11.7871 10.5285 11.7972 9.51482 11.1885 8.87323C11.1776 8.8632 11.1668 8.85288 11.1562 8.84228C11.1458 8.83185 11.1356 8.82126 11.1257 8.81054Z" fill="#36495A"/>
</svg>
