<svg width="24" height="24" viewBox="0 0 24 24" fill="none" xmlns="http://www.w3.org/2000/svg">
<path fill-rule="evenodd" clip-rule="evenodd" d="M6.06908 2.59768C8.74594 1.31923 11.938 1.86689 14.0356 3.96451C15.9365 5.86548 16.5646 8.66527 15.7141 11.1659L15.678 11.263L21.2072 16.7929C22.3792 17.965 22.4243 19.8373 21.3424 21.0632L21.2072 21.2072C20.0351 22.3792 18.1628 22.4243 16.9369 21.3424L16.7929 21.2072L11.263 15.678L11.1659 15.7141C8.7515 16.5352 6.05821 15.9781 4.16432 14.2277L3.96451 14.0356C1.86689 11.938 1.31923 8.74594 2.59768 6.06908C2.87763 5.48292 3.624 5.3232 4.11772 5.71332L4.20715 5.79294L7.41505 9.00005H9.00005V7.41505L5.79294 4.20715C5.33361 3.74783 5.43183 2.9909 5.9642 2.65546L6.06908 2.59768ZM12.6214 5.37873C11.5115 4.26888 9.97274 3.76649 8.47232 3.95175L8.38005 3.96505L10.7072 6.29294C10.8634 6.44922 10.9626 6.6519 10.9914 6.8686L11 7.00005V10C11 10.5129 10.614 10.9356 10.1167 10.9933L10 11H7.00005L6.94102 10.9983L6.88343 10.9933L6.82362 10.9844L6.77076 10.9736L6.66279 10.9417L6.59611 10.9151L6.46396 10.8444L6.3746 10.7804L6.29294 10.7072L3.96505 8.38005L3.95175 8.47232C3.77576 9.89772 4.22036 11.3577 5.21682 12.4517L5.37873 12.6214C6.87703 14.1197 9.15704 14.5109 11.0691 13.5977C11.4133 13.4333 11.817 13.4802 12.1128 13.7097L12.2072 13.7929L18.2072 19.7929C18.6451 20.2308 19.355 20.2308 19.7929 19.7929C20.1996 19.3863 20.2286 18.7451 19.8801 18.305L19.7929 18.2072L13.7929 12.2072C13.4933 11.9075 13.415 11.4515 13.5977 11.0691C14.5109 9.15704 14.1197 6.87703 12.6214 5.37873Z" fill="#36495A"/>
</svg>
