<svg width="24" height="24" viewBox="0 0 24 24" fill="none" xmlns="http://www.w3.org/2000/svg">
<path fill-rule="evenodd" clip-rule="evenodd" d="M2.30109 17.7107C2.48098 17.8903 2.74083 18 3.01067 18L2.98069 17.9691C3.24054 17.9691 3.50038 17.8594 3.69027 17.6798L8.97717 12.3931L12.2652 15.6848L12.2752 15.6948C12.665 16.0838 13.3046 16.0838 13.6944 15.6948L20.0012 9.40013V14.0102C20.0012 14.5589 20.4409 15.0077 21.0006 15.0077C21.5503 15.0077 22 14.5589 22 14.0102V7.02777C22 6.78395 21.9143 6.56293 21.772 6.39126C21.7469 6.35905 21.7194 6.32802 21.6897 6.29838C21.4264 6.03617 21.0632 5.94671 20.7346 6.03027H14.0047C13.445 6.03027 13.0053 6.46917 13.0053 7.02777C13.0053 7.57639 13.445 8.02527 14.0047 8.02527H18.5437L12.9848 13.5811L9.69675 10.2894C9.30698 9.90033 8.66736 9.90033 8.28758 10.2993L2.29109 16.2843V16.2943C1.90132 16.6833 1.90132 17.3217 2.30109 17.7107Z" fill="#212C37"/>
</svg>
