<svg width="24" height="24" viewBox="0 0 24 24" fill="none" xmlns="http://www.w3.org/2000/svg">
<path fill-rule="evenodd" clip-rule="evenodd" d="M8.6129 2.2097C8.22061 1.90468 7.65338 1.93241 7.29289 2.29289C6.90237 2.68342 6.90237 3.31658 7.29289 3.70711L9.58579 6H5C3.34315 6 2 7.34315 2 9V18C2 19.6569 3.34315 21 5 21H19C20.6569 21 22 19.6569 22 18V9C22 7.34315 20.6569 6 19 6H14.4142L16.7071 3.70711L16.7903 3.6129C17.0953 3.22061 17.0676 2.65338 16.7071 2.29289L16.6129 2.2097C16.2206 1.90468 15.6534 1.93241 15.2929 2.29289L12 5.585L8.70711 2.29289L8.6129 2.2097ZM12.0007 8C12.0003 8 11.9998 8 11.9994 8H5C4.44772 8 4 8.44772 4 9V18C4 18.5523 4.44772 19 5 19H19C19.5523 19 20 18.5523 20 18V9C20 8.44772 19.5523 8 19 8H12.0007Z" fill="#F5F5F5"/>
</svg>
