<svg width="24" height="25" viewBox="0 0 24 25" fill="none" xmlns="http://www.w3.org/2000/svg">
<path fill-rule="evenodd" clip-rule="evenodd" d="M4 7.39185C4 4.63042 6.23858 2.39185 9 2.39185C11.7614 2.39185 14 4.63042 14 7.39185C14 10.1533 11.7614 12.3918 9 12.3918C6.23858 12.3918 4 10.1533 4 7.39185ZM12 7.39185C12 5.73499 10.6569 4.39185 9 4.39185C7.34315 4.39185 6 5.73499 6 7.39185C6 9.0487 7.34315 10.3918 9 10.3918C10.6569 10.3918 12 9.0487 12 7.39185ZM11 14.3918C13.6888 14.3918 15.8818 16.5142 15.9954 19.175L16 19.3918V21.3918C16 21.9441 15.5523 22.3918 15 22.3918C14.4872 22.3918 14.0645 22.0058 14.0067 21.5085L14 21.3918V19.3918C14 17.7942 12.7511 16.4882 11.1763 16.3969L11 16.3918H7C5.40232 16.3918 4.09634 17.6408 4.00509 19.2156L4 19.3918V21.3918C4 21.9441 3.55228 22.3918 3 22.3918C2.48716 22.3918 2.06449 22.0058 2.00673 21.5085L2 21.3918V19.3918C2 16.7031 4.12231 14.51 6.78311 14.3965L7 14.3918H11ZM22.7071 8.68474C22.3166 8.29421 21.6834 8.29421 21.2929 8.68474L18 11.9768L16.7071 10.6847L16.6129 10.6016C16.2206 10.2965 15.6534 10.3243 15.2929 10.6847C14.9024 11.0753 14.9024 11.7084 15.2929 12.099L17.2929 14.099L17.3871 14.1821C17.7794 14.4872 18.3466 14.4594 18.7071 14.099L22.7071 10.099L22.7903 10.0047C23.0953 9.61245 23.0676 9.04522 22.7071 8.68474Z" fill="#36495A"/>
</svg>
