<?xml version="1.0" encoding="UTF-8"?>
<svg width="7px" height="12px" viewBox="0 0 7 12" version="1.1" xmlns="http://www.w3.org/2000/svg" xmlns:xlink="http://www.w3.org/1999/xlink">
    <title>left_chevron_desktop</title>
    <g id="left_chevron_desktop" stroke="none" stroke-width="1" fill="none" fill-rule="evenodd">
        <g fill="#616266" fill-rule="nonzero" id="AST:arrow-copy-4">
            <path d="M0.77372517,11.9510147 C0.55333017,11.9510147 0.33411117,11.8449187 0.17888967,11.6396227 C-0.0940473295,11.2711907 -0.0498108295,10.7257987 0.27841917,10.4176707 L5.02134267,5.97499867 L0.27841917,1.53050267 C-0.0498108295,1.22456667 -0.0940473295,0.678806669 0.17888967,0.309638669 C0.45379017,-0.0569693304 0.94277517,-0.10421733 1.27060617,0.200998669 L6.72409617,5.31007067 C6.90144117,5.47575067 7.00216767,5.71810267 7.00216767,5.97499867 C7.00216767,6.23187867 6.90144117,6.47533467 6.72409617,6.64029467 L1.27060617,11.7493507 C1.12446717,11.8848867 0.94909617,11.9510147 0.77372517,11.9510147 Z" transform="translate(3.501084, 5.975507) scale(-1, 1) translate(-3.501084, -5.975507) "></path>
        </g>
    </g>
</svg>