<?xml version="1.0" encoding="UTF-8"?>
<svg width="14px" height="12px" viewBox="0 0 14 12" version="1.1" xmlns="http://www.w3.org/2000/svg" xmlns:xlink="http://www.w3.org/1999/xlink">
    <title>refresh</title>
    <g id="Page-1" stroke="none" stroke-width="1" fill="none" fill-rule="evenodd">
        <g id="6---User-feedback---Amount-input---Sending-error-state" transform="translate(-249.000000, -182.000000)" fill="#2C375F" fill-rule="nonzero">
            <g id="refresh" transform="translate(249.000000, 182.000000)">
                <g id="Refresh" transform="translate(1.000000, 0.000000)">
                    <path d="M6.01100806,0 C7.61429032,0.00288878494 9.06996774,0.634678594 10.1446935,1.66174228 L11.0087661,0.797670397 C11.3745726,0.431888436 12,0.690952742 12,1.20825877 L12,4.45161904 C12,4.77230426 11.7400403,5.03226373 11.4193548,5.03226373 L8.17599194,5.03226373 C7.65868548,5.03226373 7.39962097,4.40683682 7.76540323,4.04103066 L8.77548387,3.03095084 C8.02877419,2.33178205 7.06255645,1.94449205 6.03604839,1.93563721 C3.8006129,1.91633078 1.91629839,3.72540189 1.93562903,6.03503711 C1.95396774,8.22602726 3.73025806,10.0645177 6,10.0645177 C6.99500806,10.0645177 7.93541129,9.70940509 8.67650806,9.05913142 C8.79125806,8.95846215 8.96455645,8.96458311 9.07250806,9.07251044 L10.0320726,10.0320742 C10.1499435,10.1499451 10.1441129,10.3421143 10.0204113,10.45384 C8.9565,11.4148311 7.54659677,12 6,12 C2.68630645,12 0,9.31371993 0,6.00005326 C0,2.69016079 2.7011129,-0.00591765951 6.01100806,0 Z" id="Path"></path>
                </g>
            </g>
        </g>
    </g>
</svg>