<?xml version="1.0" encoding="UTF-8"?>
<svg width="14px" height="12px" viewBox="0 0 14 12" version="1.1" xmlns="http://www.w3.org/2000/svg" xmlns:xlink="http://www.w3.org/1999/xlink">
    <title>send_button_disabled copy</title>
    <g id="Page-1" stroke="none" stroke-width="1" fill="none" fill-rule="evenodd">
        <g id="1---User-feedback---Date-Input---initial" transform="translate(-249.000000, -182.000000)" fill="#ABABAB" fill-rule="nonzero" stroke="#ABABAB">
            <g id="send_button_disabled-copy" transform="translate(249.001538, 182.000235)">
                <path d="M13,6.00010712 C12.9995732,6.11718133 12.925385,6.22311601 12.810511,6.27068208 L1.44116983,10.9763334 C1.40156595,10.9931231 1.35833553,11.0011748 1.31484382,10.9998617 C1.22331863,10.9993535 1.13623042,10.9630715 1.07482439,10.8998666 C0.985357792,10.8019509 0.975102883,10.6610899 1.04955919,10.5528248 L3.66450766,6.65301625 L3.99846237,5.99976487 L3.66450766,5.347198 L1.04955919,1.44738943 C0.975102883,1.33912434 0.985357792,1.19826334 1.07482439,1.10034764 C1.1667207,1.00437547 1.314077,0.973617965 1.44116983,1.02388081 L12.810511,5.72953217 C12.925385,5.77709824 12.9995732,5.88303291 13,6.00010712 Z" id="Path-Copy"></path>
            </g>
        </g>
    </g>
</svg>