<?xml version="1.0" encoding="UTF-8"?>
<svg width="13px" height="13px" viewBox="0 0 13 13" version="1.1" xmlns="http://www.w3.org/2000/svg" xmlns:xlink="http://www.w3.org/1999/xlink">
    <title>Components/User feedback/Close button</title>
    <g id="Symbols" stroke="none" stroke-width="1" fill="none" fill-rule="evenodd">
        <g id="Components/User-feedback/Teaser/User-text-bubble" transform="translate(-4.000000, -4.000000)">
            <g id="Group" transform="translate(4.000000, 4.000000)">
                <circle id="Ellipse" fill="#FFFFFF" cx="6.5" cy="6.5" r="6.5"></circle>
                <path d="M7.407,6.5 L9.875,8.967 C10.0391908,9.13330171 10.0391908,9.40069829 9.875,9.567 L9.575,9.867 C9.49470548,9.94748498 9.38568836,9.99271702 9.272,9.99271702 C9.15831164,9.99271702 9.04929452,9.94748498 8.969,9.867 L6.503,7.401 L4.036,9.867 C3.86992134,10.0317333 3.60207866,10.0317333 3.436,9.867 L3.136,9.567 C2.97126666,9.40092134 2.97126666,9.13307866 3.136,8.967 L5.602,6.5 L3.136,4.033 C2.97126666,3.86692134 2.97126666,3.59907866 3.136,3.433 L3.436,3.133 C3.60230171,2.96880917 3.86969829,2.96880917 4.036,3.133 L6.503,5.6 L8.969,3.133 C9.04929452,3.05251502 9.15831164,3.00728298 9.272,3.00728298 C9.38568836,3.00728298 9.49470548,3.05251502 9.575,3.133 L9.875,3.433 C10.0355099,3.60079573 10.0355099,3.86520427 9.875,4.033 L7.407,6.5 Z" id="X" fill="#2C375F"></path>
            </g>
        </g>
    </g>
</svg>