<?xml version="1.0" encoding="UTF-8"?>
<svg width="20px" height="20px" viewBox="0 0 20 20" version="1.1" xmlns="http://www.w3.org/2000/svg" xmlns:xlink="http://www.w3.org/1999/xlink">
    <title>Icons/Retail/cg0</title>
    <g id="Icons/Retail/cg0" stroke="none" stroke-width="1" fill="none" fill-rule="evenodd">
        <g id="Group" transform="translate(1.000000, 1.000000)">
            <path d="M8.88157895,0.470842105 C6.6511741,0.470842105 4.51216236,1.35706133 2.9352945,2.93446221 C1.35842665,4.51186309 0.472930271,6.65117423 0.473683729,8.88157895 L2.69621053,8.88157895 C2.69621053,5.4654943 5.4654943,2.69621053 8.88157895,2.69621053 C12.2976636,2.69621053 15.0669474,5.4654943 15.0669474,8.88157895 L17.2894742,8.88157895 C17.2902276,6.65117423 16.4047312,4.51186309 14.8278634,2.93446221 C13.2509955,1.35706133 11.1119838,0.470842105 8.88157895,0.470842105 Z" id="Path" fill="#FFFFFF"></path>
            <path d="M15.0669474,8.88157895 C15.0669474,12.2976636 12.2976636,15.0669474 8.88157895,15.0669474 C5.4654943,15.0669474 2.69621053,12.2976636 2.69621053,8.88157895 L0.473684211,8.88157895 C0.473684211,13.5251309 4.23802695,17.2894736 8.88157895,17.2894736 C13.5251309,17.2894736 17.2894737,13.5251309 17.2894737,8.88157895 L15.0669474,8.88157895 Z" id="Path" fill="#FFFFFF"></path>
            <circle id="Oval" fill="#FFFFFF" cx="8.88157895" cy="8.87873684" r="6.42978947"></circle>
            <path d="M8.88157895,2.44894737 C5.33087432,2.44894737 2.4523131,5.32708531 2.45179017,8.87778989 C2.45126724,12.4284945 5.32898058,15.3074798 8.87968505,15.3085263 C12.4303895,15.3095722 15.3097989,12.4322832 15.3113684,8.88157895 C15.3025231,5.33371354 12.4294401,2.45936054 8.88157895,2.44894737 Z M8.88157895,14.3611579 C6.66388805,14.3611579 4.66461882,13.0251009 3.81621101,10.9761116 C2.96780319,8.92712229 3.43737702,6.56881242 5.00592781,5.00107477 C6.5744786,3.43333712 8.93303164,2.96498624 10.9815807,3.81445642 C13.0301298,4.66392659 14.3651497,6.66388835 14.3640007,8.88157895 C14.3587809,11.9068117 11.906814,14.3575075 8.88157895,14.3611579 L8.88157895,14.3611579 Z" id="Shape" fill="#23253E" fill-rule="nonzero"></path>
            <path d="M8.88157895,11.2746316 C8.62284983,11.2746316 8.38961481,11.4305373 8.2906922,11.6696086 C8.19176959,11.9086799 8.24665411,12.1838031 8.42973879,12.3666165 C8.61282347,12.54943 8.88802774,12.6039065 9.12695209,12.5046296 C9.36587643,12.4053526 9.52143593,12.1718867 9.52105334,11.9131579 C9.52052996,11.5603564 9.23438087,11.2746316 8.88157895,11.2746316 L8.88157895,11.2746316 Z" id="Path" fill="#23253E" fill-rule="nonzero"></path>
            <path d="M8.80105263,5.20484211 L8.78684211,5.20484211 C7.95601567,5.20849915 7.20044971,5.68693839 6.84189474,6.43642105 C6.73383702,6.64263743 6.74696154,6.89139189 6.87611926,7.08509255 C7.00527699,7.27879322 7.22986704,7.38654451 7.46177778,7.36607323 C7.69368852,7.34560194 7.8959298,7.20017327 7.98915789,6.98684211 C8.13800812,6.67477878 8.45246737,6.47557216 8.79821053,6.47431579 C9.28682748,6.48110945 9.68653916,6.86549539 9.71242105,7.35347368 C9.72570734,7.75274077 9.47475229,8.11317543 9.09568421,8.23926316 C8.54681572,8.41841419 8.17330179,8.92761276 8.16726316,9.50494737 L8.16726316,10.0184211 C8.16726315,10.2458676 8.28860444,10.4560369 8.48557894,10.5697602 C8.68255344,10.6834835 8.92523603,10.6834835 9.12221053,10.5697602 C9.31918503,10.4560369 9.44052633,10.2458676 9.44052632,10.0184211 L9.44052632,9.51157895 C9.44052632,9.47463158 9.50305263,9.45189474 9.50305263,9.45189474 L9.50305263,9.45189474 C10.4126643,9.14723458 11.0138415,8.28092277 10.9809474,7.32221053 C10.9388457,6.14642368 9.97756666,5.21271721 8.80105263,5.20484211 L8.80105263,5.20484211 Z" id="Path" fill="#23253E" fill-rule="nonzero"></path>
            <path d="M17.7631579,8.88157895 C17.7631579,3.97641834 13.7867396,1.68286437e-15 8.88157895,1.68286437e-15 C3.97641834,1.68286437e-15 -1.68286437e-15,3.97641834 -1.68286437e-15,8.88157895 L-1.68286437e-15,8.88157895 C-1.68286437e-15,13.7867396 3.97641834,17.7631579 8.88157895,17.7631579 C13.7867396,17.7631579 17.7631579,13.7867396 17.7631579,8.88157895 L17.7631579,8.88157895 L17.7631579,8.88157895 Z M15.3113684,8.88157895 C15.3113684,9.04357895 15.2990526,9.20178947 15.2867368,9.36094737 L16.8025263,9.36094737 C16.5554461,13.5543532 13.0827313,16.8284746 8.88205263,16.8284746 C4.68137394,16.8284746 1.20865918,13.5543532 0.961578947,9.36094737 L2.47736842,9.36094737 C2.46505263,9.20178947 2.45273684,9.04357895 2.45273684,8.88157895 C2.45273684,8.71957895 2.46505263,8.56515789 2.47736842,8.40789474 L0.961578947,8.40789474 C1.20865918,4.21448887 4.68137394,0.940367501 8.88205263,0.940367501 C13.0827313,0.940367501 16.5554461,4.21448887 16.8025263,8.40789474 L15.2867368,8.40789474 C15.2990526,8.56231579 15.3113684,8.71863158 15.3113684,8.88157895 Z" id="Shape" fill="#23253E" fill-rule="nonzero"></path>
        </g>
    </g>
</svg>