<?xml version="1.0" encoding="UTF-8"?>
<svg width="200px" height="200px" viewBox="0 0 200 200" version="1.1" xmlns="http://www.w3.org/2000/svg" xmlns:xlink="http://www.w3.org/1999/xlink">
    <title>Components/logo-default</title>
    <g id="Components/logo-default" stroke="none" stroke-width="1" fill="none" fill-rule="evenodd">
        <path d="M100,0 C155.227273,0 200,44.772727 200,100 C200,155.227273 155.227273,200 100,200 C44.772727,200 0,155.227273 0,100 C0,44.772727 44.772727,0 100,0 Z M100,18.181818 C54.772727,18.181818 18.181818,54.772727 18.181818,100 C18.181818,145.227273 54.772727,181.818182 100,181.818182 C145.227273,181.818182 181.818182,145.227273 181.818182,100 C181.818182,54.772727 145.227273,18.181818 100,18.181818 Z M100,130.227273 C106.275963,130.227273 111.363636,135.314946 111.363636,141.590909 C111.363636,147.866872 106.275963,152.954545 100,152.954545 C93.724037,152.954545 88.636364,147.866872 88.636364,141.590909 C88.636364,135.314946 93.724037,130.227273 100,130.227273 Z M100,50 C105,50 109.090909,54.090909 109.090909,59.090909 L109.090909,59.090909 L109.090909,111.363636 C109.090909,116.363636 105,120.454545 100,120.454545 C95,120.454545 90.909091,116.363636 90.909091,111.363636 L90.909091,111.363636 L90.909091,59.090909 C90.909091,54.090909 95,50 100,50 Z" id="Combined-Shape" fill="#898A8E" fill-rule="nonzero"></path>
    </g>
</svg>