<svg width="22" height="22" viewBox="0 0 22 22" fill="none" xmlns="http://www.w3.org/2000/svg">
<path fill-rule="evenodd" clip-rule="evenodd" d="M11.0002 4.69788C11.6465 4.69788 12.1793 5.18445 12.2521 5.8113L12.2606 5.95829L13.5208 5.95829C14.2169 5.95829 14.7812 6.5226 14.7812 7.21871C14.7812 7.8651 14.2947 8.39784 13.6678 8.47065L13.5208 8.47913H11.0009C11.0007 8.47913 11.0004 8.47913 11.0002 8.47913C10.9999 8.47913 10.9996 8.47913 10.9994 8.47913H10.3698C10.0217 8.47913 9.73958 8.76128 9.73958 9.10933C9.73958 9.41872 9.96252 9.67603 10.2565 9.72939L10.3698 9.73954H11.6302C13.3705 9.73954 14.7812 11.1503 14.7812 12.8906C14.7812 14.415 13.6987 15.6866 12.2604 15.9786V16.0417C12.2604 16.7378 11.6961 17.3021 11 17.3021C10.3536 17.3021 9.82087 16.8155 9.74806 16.1887L9.73958 16.0417V16.0416H8.47917C7.78306 16.0416 7.21875 15.4773 7.21875 14.7812C7.21875 14.1348 7.70532 13.6021 8.33218 13.5293L8.47917 13.5208H11.6302C11.9783 13.5208 12.2604 13.2386 12.2604 12.8906C12.2604 12.5812 12.0375 12.3239 11.7435 12.2705L11.6302 12.2604H10.3698C8.62952 12.2604 7.21875 10.8496 7.21875 9.10933C7.21875 7.58483 8.30138 6.31319 9.73975 6.02129V5.95829C9.73975 5.26218 10.3041 4.69788 11.0002 4.69788Z" fill="#1F3B73"/>
<circle cx="11" cy="11" r="10" stroke="#1F3B73" stroke-width="2"/>
</svg>
