<svg width="256" height="39" viewBox="0 0 256 39" fill="none" xmlns="http://www.w3.org/2000/svg">
<path d="M15.5093 9.14895C13.7774 10.1198 12.3626 11.57 11.4348 13.3253C10.3856 15.3464 9.86682 17.6008 9.92721 19.8771C9.88731 22.0358 10.3873 24.1703 11.3818 26.0867C12.3014 27.8508 13.7031 29.3175 15.4237 30.316C17.2434 31.3455 19.3067 31.8662 21.397 31.8236C23.1365 31.8583 24.8722 31.6443 26.5512 31.188C27.9567 30.7741 29.2989 30.1695 30.5402 29.3911V24.6321H20.8754V18.337H38.2084V33.0826C36.0542 34.886 33.5801 36.2681 30.915 37.1571C27.8591 38.2314 24.6401 38.7677 21.401 38.7421C17.245 38.7421 13.6255 37.915 10.5425 36.2608C7.57995 34.7254 5.11748 32.376 3.44466 29.4889C1.79028 26.5561 0.946484 23.2358 0.99995 19.869C0.971237 16.549 1.79922 13.2778 3.40391 10.3713C4.94338 7.54286 7.20742 5.17475 9.96388 3.50982C12.709 1.84391 15.8635 0.974853 19.0745 0.999921C21.2593 0.976112 23.4322 1.32472 25.5 2.03077C27.4064 2.69104 29.1715 3.70422 30.7031 5.01739V1.75778H38.2084V13.7898L32.6059 14.1606C31.4382 12.3246 29.8766 10.7713 28.0343 9.61344C26.0241 8.32975 23.6798 7.66784 21.2951 7.71064C19.2745 7.68102 17.2808 8.17663 15.5093 9.14895Z" fill="#203E73"/>
<path d="M79.365 22.7782V38.0005H45.0046V31.2857H50.9249V8.46848H45.0046V1.74146H65.3039V8.45218H59.4366V31.2694H71.3138V22.7782H79.365Z" fill="#203E73"/>
<path d="M93.8987 36.1752C90.9511 34.59 88.4894 32.2339 86.7765 29.3586C85.0662 26.4909 84.1782 23.2078 84.2095 19.869C84.1892 16.5199 85.0801 13.2283 86.7868 10.3466C88.4936 7.46487 90.952 5.10163 93.8987 3.50985C97.0062 1.82014 100.495 0.955955 104.032 0.999954C107.548 0.955063 111.016 1.81965 114.1 3.50985C117.036 5.11047 119.484 7.47681 121.183 10.3573C122.882 13.2379 123.769 16.5249 123.749 19.869C123.785 23.2063 122.903 26.4892 121.198 29.3586C119.494 32.2271 117.048 34.5822 114.116 36.1752C111.033 37.8668 107.565 38.7315 104.048 38.6851C100.506 38.7339 97.0103 37.8695 93.8987 36.1752ZM109.789 30.149C111.422 29.0849 112.723 27.5825 113.542 25.8137C114.416 23.955 114.859 21.9229 114.838 19.869C114.862 17.7978 114.42 15.7476 113.542 13.8713C112.712 12.1077 111.403 10.6126 109.765 9.55643C108.059 8.45376 106.063 7.88619 104.032 7.92663C101.966 7.87293 99.9324 8.44072 98.1933 9.55643C96.5631 10.6374 95.2631 12.1475 94.4366 13.9202C93.5643 15.7794 93.1228 17.8114 93.1449 19.8649C93.1201 21.9331 93.5616 23.9803 94.4366 25.8545C95.2546 27.6186 96.5575 29.1138 98.1933 30.1653C99.943 31.2524 101.973 31.8034 104.032 31.7503C106.06 31.7992 108.056 31.2417 109.765 30.149H109.789Z" fill="#203E73"/>
<path d="M168.328 34.9324C167.346 36.023 166.195 36.9476 164.918 37.6705C163.476 38.4197 161.864 38.7832 160.24 38.7258C158.668 38.769 157.104 38.4795 155.651 37.8764C154.198 37.2732 152.889 36.37 151.81 35.2258C149.569 32.8843 147.886 29.2281 146.762 24.2572L146.603 23.5686H141V31.3387H146.656V38.0005H126.515V31.2857H132.436V8.46848H126.515V1.74146H148.241C152.609 1.74146 156.115 2.68403 158.761 4.56917C161.407 6.45431 162.727 9.12311 162.722 12.5756C162.722 15.3218 161.973 17.5859 160.476 19.3678C158.98 21.1497 156.857 22.3721 154.108 23.0349L154.373 23.8294C155.215 26.4751 156.175 28.3168 157.254 29.3544C157.707 29.8344 158.251 30.2192 158.855 30.4864C159.459 30.7537 160.11 30.898 160.77 30.9109C161.46 30.9249 162.145 30.7858 162.774 30.5034C163.374 30.2115 163.923 29.828 164.404 29.3666L168.328 34.9324ZM141 17.2979H148.497C149.906 17.3193 151.291 16.9345 152.486 16.1897C153.668 15.4481 154.259 14.2543 154.259 12.596C154.259 11.1169 153.684 10.0575 152.539 9.42599C151.298 8.75963 149.906 8.42425 148.497 8.45218H141V17.2979Z" fill="#203E73"/>
<path d="M186.28 8.45218V31.2694H192.253V38.0005H171.799V31.2857H177.72V8.46848H171.799V1.74146H192.253V8.45218H186.28Z" fill="#203E73"/>
<path d="M231.096 1.74146V12.8649H223.644V8.45218H212.373V17.3305H218.746V23.3567H212.373V31.2857H218.746V38.0005H198.052V31.2857H203.972V8.46848H198.052V1.74146H231.096Z" fill="#8BBBDA"/>
<path d="M249.737 8.45218V31.2694H255.71V38.0005H235.252V31.2857H241.172V8.46848H235.252V1.74146H255.71V8.45218H249.737Z" fill="#8BBBDA"/>
</svg>
