<svg width="255" height="136" viewBox="0 0 255 136" fill="none" xmlns="http://www.w3.org/2000/svg">
<path d="M6.00824 126.436H12.8697V127.41H7.08799V130.755H12.2585V131.721H7.08799V135.795H6.00824V126.436Z" fill="black"/>
<path d="M17.3476 126.436H21.4506C22.4433 126.383 23.4178 126.717 24.1683 127.369C24.407 127.614 24.5947 127.903 24.7206 128.221C24.8465 128.538 24.9081 128.878 24.9017 129.219V129.244C24.9017 130.796 23.8138 131.688 22.3104 131.973L25.244 135.799H23.9198L21.1532 132.161H18.4233V135.799H17.3476V126.436ZM21.3569 131.199C22.7871 131.199 23.8016 130.478 23.8016 129.272V129.244C23.8016 128.095 22.9012 127.398 21.3569 127.398H18.4233V131.199H21.3569Z" fill="black"/>
<path d="M29.5956 126.436H36.4978V127.398H30.6753V130.596H35.8866V131.558H30.6753V134.838H36.5671V135.799H29.5956V126.436Z" fill="black"/>
<path d="M41.1223 126.436H48.0245V127.398H42.2021V130.596H47.4134V131.558H42.2021V134.838H48.0816V135.799H41.1223V126.436Z" fill="black"/>
<path d="M52.6492 126.436H55.9658C58.9687 126.436 61.0386 128.453 61.0386 131.089V131.118C61.0386 133.754 58.9687 135.799 55.9658 135.799H52.6492V126.436ZM53.7289 127.41V134.822H55.9658C58.382 134.822 59.9222 133.216 59.9222 131.155V131.13C59.9222 129.056 58.382 127.422 55.9658 127.422L53.7289 127.41Z" fill="black"/>
<path d="M65.2842 131.142V131.118C65.3918 129.903 65.9495 128.772 66.8479 127.947C67.7464 127.123 68.9206 126.663 70.1402 126.66C71.3598 126.656 72.5367 127.109 73.4399 127.928C74.3432 128.748 74.9075 129.875 75.0222 131.089V131.118C74.9141 132.333 74.3559 133.463 73.4571 134.288C72.5584 135.112 71.384 135.571 70.1644 135.574C68.9448 135.577 67.7681 135.124 66.8652 134.304C65.9623 133.484 65.3984 132.356 65.2842 131.142ZM73.9058 131.142V131.118C73.92 130.615 73.8331 130.114 73.6502 129.645C73.4673 129.176 73.1922 128.749 72.8411 128.388C72.49 128.028 72.0701 127.741 71.6063 127.546C71.1425 127.351 70.6442 127.25 70.141 127.251C69.6403 127.247 69.144 127.344 68.6819 127.537C68.2198 127.73 67.8014 128.014 67.452 128.372C67.1025 128.731 66.8293 129.156 66.6486 129.623C66.4679 130.09 66.3835 130.589 66.4006 131.089V131.118C66.3864 131.621 66.4734 132.122 66.6562 132.591C66.8391 133.059 67.1143 133.487 67.4653 133.847C67.8164 134.208 68.2363 134.494 68.7001 134.69C69.1639 134.885 69.6622 134.985 70.1654 134.985C70.6665 134.989 71.1631 134.891 71.6255 134.698C72.0879 134.506 72.5065 134.221 72.856 133.862C73.2055 133.503 73.4787 133.077 73.6591 132.61C73.8395 132.142 73.9235 131.643 73.9058 131.142Z" fill="black"/>
<path d="M79.6876 126.436H80.7796L84.2592 131.546L87.7389 126.436H88.8268V135.808H87.7511V128.213L84.2715 133.237H84.2185L80.7388 128.233V135.804H79.6876V126.436Z" fill="black"/>
<path d="M113.453 126.436H114.529V135.808H113.453V126.436Z" fill="black"/>
<path d="M119.712 126.436H120.722L126.74 133.941V126.436H127.787V135.808H126.928L120.763 128.127V135.808H119.712V126.436Z" fill="black"/>
<path d="M132.876 126.436H136.193C139.192 126.436 141.266 128.453 141.266 131.089V131.118C141.266 133.754 139.192 135.799 136.193 135.799H132.876V126.436ZM133.956 127.41V134.822H136.193C138.605 134.822 140.149 133.216 140.149 131.155V131.13C140.149 129.056 138.605 127.422 136.193 127.422L133.956 127.41Z" fill="black"/>
<path d="M145.931 126.436H152.833V127.398H147.011V130.596H152.222V131.558H147.011V134.838H152.903V135.799H145.931V126.436Z" fill="black"/>
<path d="M157.462 126.436H161.035C163.191 126.436 164.609 127.557 164.609 129.407V129.431C164.609 131.468 162.889 132.495 160.856 132.495H158.538V135.799H157.462V126.436ZM160.897 131.533C162.482 131.533 163.517 130.719 163.517 129.472V129.443C163.517 128.107 162.494 127.406 160.954 127.406H158.538V131.529L160.897 131.533Z" fill="black"/>
<path d="M168.96 126.436H175.862V127.398H170.04V130.596H175.247V131.558H170.04V134.838H175.932V135.799H168.96V126.436Z" fill="black"/>
<path d="M180.503 126.436H181.514L187.528 133.941V126.436H188.579V135.808H187.719L181.555 128.127V135.808H180.503V126.436Z" fill="black"/>
<path d="M193.652 126.436H196.968C199.967 126.436 202.041 128.453 202.041 131.089V131.118C202.041 133.754 199.967 135.799 196.968 135.799H193.652V126.436ZM194.731 127.41V134.822H196.968C199.38 134.822 200.921 133.216 200.921 131.155V131.13C200.921 129.056 199.38 127.422 196.968 127.422L194.731 127.41Z" fill="black"/>
<path d="M206.707 126.436H213.609V127.398H207.803V130.596H213.014V131.558H207.803V134.838H213.694V135.799H206.707V126.436Z" fill="black"/>
<path d="M218.233 126.436H219.244L225.258 133.941V126.436H226.309V135.808H225.449L219.285 128.127V135.808H218.233V126.436Z" fill="black"/>
<path d="M230.974 131.142V131.118C230.964 130.48 231.082 129.846 231.321 129.254C231.56 128.663 231.915 128.125 232.366 127.673C232.816 127.221 233.353 126.865 233.944 126.624C234.535 126.384 235.169 126.264 235.807 126.273C236.496 126.251 237.182 126.372 237.822 126.628C238.462 126.884 239.043 127.27 239.527 127.76L238.793 128.535C238.404 128.131 237.938 127.809 237.422 127.588C236.906 127.368 236.351 127.253 235.79 127.251C235.293 127.252 234.801 127.353 234.344 127.548C233.886 127.743 233.473 128.028 233.128 128.386C232.783 128.744 232.514 129.168 232.336 129.632C232.159 130.097 232.077 130.592 232.095 131.089V131.118C232.076 131.616 232.158 132.113 232.335 132.579C232.512 133.046 232.781 133.472 233.125 133.832C233.47 134.193 233.883 134.481 234.341 134.679C234.799 134.876 235.292 134.98 235.79 134.984C237.102 134.984 237.958 134.487 238.875 133.632L239.584 134.316C239.1 134.845 238.509 135.264 237.849 135.545C237.19 135.826 236.478 135.963 235.762 135.946C235.129 135.955 234.501 135.838 233.915 135.599C233.329 135.361 232.796 135.007 232.35 134.559C231.903 134.111 231.551 133.577 231.315 132.99C231.079 132.403 230.963 131.775 230.974 131.142Z" fill="black"/>
<path d="M243.854 126.436H250.756V127.398H244.929V130.596H250.141V131.558H244.929V134.838H250.825V135.799H243.854V126.436Z" fill="black"/>
<path d="M216.848 8.83762H133.027L136.226 4.02969C137.049 2.79004 138.166 1.77336 139.478 1.07026C140.79 0.367155 142.255 -0.000519391 143.743 5.50685e-07H222.723L216.848 8.83762Z" fill="black"/>
<path d="M205.936 26.2113H122.115L127.991 17.3696H211.812L205.936 26.2113Z" fill="black"/>
<path d="M195.025 43.581H111.208L117.083 34.7433H200.9L195.025 43.581Z" fill="black"/>
<path d="M127.657 17.3615H81.9449L87.8204 8.52386H133.532L127.657 17.3615Z" fill="black"/>
<path d="M116.749 34.7353H71.0375L76.9089 25.8936H122.621L116.749 34.7353Z" fill="black"/>
<path d="M100.765 52.1049H60.1259L66.0095 43.2673H111.713L108.645 47.8796C107.782 49.179 106.611 50.2447 105.236 50.9819C103.861 51.7191 102.325 52.1049 100.765 52.1049Z" fill="black"/>
<path d="M14.5117 82.9122C12.7808 83.8826 11.3662 85.3311 10.4372 87.0845C9.38834 89.1072 8.86964 91.3628 8.92965 93.6404C8.88975 95.7991 9.38975 97.9336 10.3842 99.85C11.3039 101.614 12.7055 103.081 14.4262 104.079C16.2459 105.109 18.3091 105.63 20.3994 105.587C22.139 105.622 23.8746 105.408 25.5537 104.951C26.9592 104.537 28.3013 103.933 29.5426 103.154V98.3995H19.8779V92.1084H37.2108V106.854C35.0566 108.657 32.5825 110.04 29.9175 110.929C26.8616 112.003 23.6426 112.539 20.4035 112.514C16.2475 112.514 12.6279 111.686 9.5449 110.032C6.5824 108.497 4.11992 106.147 2.4471 103.26C0.792722 100.328 -0.0510749 97.0072 0.0023918 93.6404C-0.0291315 90.315 0.798941 87.0378 2.40635 84.1265C3.94814 81.304 6.21199 78.9417 8.96632 77.2813C11.7126 75.6146 14.8687 74.7455 18.081 74.7714C20.2635 74.7428 22.435 75.0859 24.5024 75.7859C26.4088 76.4462 28.1739 77.4594 29.7056 78.7725V75.5129H37.2108V87.5613L31.6084 87.932C30.4406 86.096 28.8791 84.5428 27.0368 83.3849C25.0257 82.1041 22.6814 81.445 20.2975 81.4902C18.2784 81.4556 16.2848 81.9456 14.5117 82.9122Z" fill="black"/>
<path d="M78.3675 96.5659V111.788H44.0071V105.057H49.9273V82.24H44.0071V75.5129H64.3063V82.2237H58.439V105.041H70.3162V96.5659H78.3675Z" fill="black"/>
<path d="M92.9013 109.947C89.9597 108.359 87.5038 106.003 85.7954 103.13C84.1142 100.246 83.2284 96.9668 83.2284 93.6282C83.2284 90.2897 84.1142 87.0109 85.7954 84.1265C87.498 81.2414 89.9547 78.8749 92.9013 77.2813C96.0136 75.5889 99.5086 74.7246 103.051 74.7714C106.567 74.7265 110.035 75.5911 113.119 77.2813C116.055 78.8819 118.503 81.2483 120.202 84.1288C121.901 87.0093 122.787 90.2963 122.767 93.6405C122.799 96.9793 121.911 100.262 120.201 103.13C118.497 105.998 116.05 108.354 113.119 109.947C110.031 111.641 106.557 112.506 103.035 112.457C99.4975 112.503 96.008 111.638 92.9013 109.947ZM108.792 103.92C110.424 102.855 111.724 101.353 112.545 99.5852C113.398 97.7103 113.84 95.6741 113.84 93.614C113.84 91.5538 113.398 89.5177 112.545 87.6428C111.724 85.8748 110.424 84.3727 108.792 83.3075C107.086 82.2048 105.09 81.6373 103.059 81.6777C100.994 81.624 98.9594 82.1918 97.2203 83.3075C95.5902 84.3885 94.2902 85.8986 93.4636 87.6713C92.6124 89.5469 92.172 91.5828 92.172 93.6425C92.172 95.7022 92.6124 97.7381 93.4636 99.6137C94.2816 101.378 95.5846 102.873 97.2203 103.925C98.9609 105.014 100.982 105.572 103.035 105.53C105.063 105.576 107.059 105.016 108.767 103.92H108.792Z" fill="black"/>
<path d="M167.33 108.704C166.35 109.799 165.198 110.728 163.92 111.454C162.478 112.203 160.867 112.567 159.242 112.51C157.669 112.551 156.105 112.26 154.652 111.654C153.199 111.049 151.891 110.144 150.812 108.997C148.571 106.65 146.889 102.994 145.764 98.0287L145.605 97.3401H140.003V105.122H145.658V111.784H125.518V105.057H131.438V82.24H125.518V75.5129H147.243C151.611 75.5129 155.118 76.4555 157.763 78.3407C160.409 80.2258 161.729 82.8946 161.724 86.3471C161.724 89.0933 160.975 91.3574 159.479 93.1393C157.982 94.9212 155.859 96.1436 153.11 96.8063L153.375 97.6212C154.217 100.264 155.177 102.106 156.256 103.146C156.709 103.626 157.254 104.011 157.857 104.278C158.461 104.546 159.112 104.69 159.772 104.703C160.462 104.717 161.147 104.578 161.777 104.295C162.376 104.003 162.926 103.62 163.407 103.159L167.33 108.704ZM140.003 91.0491H147.5C148.908 91.0704 150.293 90.6856 151.489 89.9408C152.67 89.1992 153.261 88.0054 153.261 86.3471C153.261 84.868 152.687 83.8086 151.542 83.1771C150.298 82.5178 148.906 82.1895 147.5 82.2237H140.003V91.0491Z" fill="black"/>
<path d="M185.283 82.2237V105.041H191.256V111.756H170.802V105.057H176.722V82.24H170.802V75.5129H191.256V82.2237H185.283Z" fill="black"/>
<path d="M230.098 75.5129V86.6364H222.646V82.2237H211.376V91.102H217.748V97.1282H211.376V105.057H217.748V111.772H197.054V105.057H202.974V82.24H197.054V75.5129H230.098Z" fill="black"/>
<path d="M248.739 82.2237V105.041H254.712V111.756H234.254V105.057H240.175V82.24H234.254V75.5129H254.712V82.2237H248.739Z" fill="black"/>
<path d="M101.918 130.287L105.178 130.319L102.55 132.251L103.524 135.359L100.875 133.457L98.2185 135.347L99.2086 132.238L96.5928 130.295L99.8524 130.278L100.895 127.19L101.918 130.287Z" fill="black"/>
</svg>
