<svg width="255" height="136" viewBox="0 0 255 136" fill="none" xmlns="http://www.w3.org/2000/svg">
<path d="M216.848 8.83762H133.027L136.226 4.02969C137.049 2.79004 138.166 1.77336 139.478 1.07026C140.79 0.367155 142.255 -0.000519391 143.743 5.50685e-07H222.723L216.848 8.83762Z" fill="#F05142"/>
<path d="M205.936 26.2113H122.115L127.991 17.3696H211.812L205.936 26.2113Z" fill="#F05142"/>
<path d="M195.025 43.581H111.208L117.083 34.7434H200.9L195.025 43.581Z" fill="#F05142"/>
<path d="M127.657 17.3615H81.9448L87.8203 8.52393H133.532L127.657 17.3615Z" fill="#8BBBDA"/>
<path d="M116.749 34.7352H71.0374L76.9087 25.8936H122.621L116.749 34.7352Z" fill="#8BBBDA"/>
<path d="M100.765 52.1048H60.1259L66.0095 43.2672H111.713L108.645 47.8796C107.782 49.1789 106.611 50.2447 105.236 50.9818C103.861 51.719 102.325 52.1048 100.765 52.1048Z" fill="#F05142"/>
<path d="M6.00818 125.902H12.8697V126.88H7.08792V130.226H12.2585V131.199H7.08792V135.274H6.00818V125.902Z" fill="white"/>
<path d="M17.3475 125.902H21.4506C22.4438 125.85 23.4184 126.186 24.1683 126.84C24.4066 127.083 24.5942 127.372 24.7201 127.689C24.846 128.006 24.9077 128.344 24.9017 128.685V128.714C24.9017 130.266 23.8097 131.159 22.3103 131.444L25.2643 135.274H23.9197L21.1531 131.635H18.4232V135.274H17.3475V125.902ZM21.3569 130.682C22.787 130.682 23.8016 129.957 23.8016 128.755V128.726C23.8016 127.577 22.9052 126.88 21.3569 126.88H18.4232V130.682H21.3569Z" fill="white"/>
<path d="M29.5956 125.902H36.4978V126.868H30.6753V130.063H35.8866V131.028H30.6753V134.288H36.5671V135.274H29.5956V125.902Z" fill="white"/>
<path d="M41.1223 125.902H48.0245V126.868H42.2021V130.063H47.4134V131.028H42.2021V134.288H48.0816V135.274H41.1223V125.902Z" fill="white"/>
<path d="M52.6492 125.902H55.9658C58.9647 125.902 61.0386 127.94 61.0386 130.56V130.584C61.0386 133.22 58.9647 135.27 55.9658 135.27H52.6492V125.902ZM53.7289 126.88V134.292H55.9658C58.382 134.292 59.9222 132.687 59.9222 130.625V130.596C59.9222 128.522 58.382 126.893 55.9658 126.893L53.7289 126.88Z" fill="white"/>
<path d="M65.2842 130.608V130.58C65.3923 129.365 65.9505 128.235 66.8493 127.41C67.7481 126.586 68.9225 126.127 70.1421 126.124C71.3616 126.121 72.5384 126.574 73.4412 127.394C74.3441 128.214 74.908 129.341 75.0222 130.556V130.58C74.9146 131.795 74.3569 132.926 73.4585 133.75C72.5601 134.575 71.3858 135.034 70.1662 135.038C68.9466 135.042 67.7697 134.589 66.8665 133.77C65.9633 132.95 65.3989 131.823 65.2842 130.608ZM73.9058 130.608V130.58C73.92 130.077 73.8331 129.577 73.6501 129.108C73.4672 128.639 73.192 128.212 72.8409 127.852C72.4897 127.492 72.0698 127.206 71.606 127.011C71.1423 126.816 70.6441 126.716 70.141 126.717C69.6403 126.713 69.144 126.81 68.6819 127.003C68.2198 127.196 67.8014 127.48 67.452 127.838C67.1025 128.197 66.8293 128.623 66.6486 129.09C66.4679 129.556 66.3835 130.055 66.4006 130.556V130.58C66.3842 131.084 66.4695 131.587 66.6514 132.057C66.8334 132.528 67.1082 132.957 67.4596 133.319C67.8109 133.681 68.2316 133.968 68.6965 134.164C69.1614 134.36 69.661 134.46 70.1654 134.459C70.6672 134.463 71.1645 134.366 71.6275 134.172C72.0905 133.979 72.5094 133.693 72.859 133.334C73.2086 132.974 73.4816 132.547 73.6616 132.078C73.8415 131.61 73.9246 131.11 73.9058 130.608Z" fill="white"/>
<path d="M79.6876 125.902H80.7796L84.2592 131.016L87.7389 125.902H88.8268V135.274H87.7511V127.679L84.2715 132.695H84.2185L80.7388 127.691V135.274H79.6876V125.902Z" fill="white"/>
<path d="M113.453 125.902H114.529V135.274H113.453V125.902Z" fill="white"/>
<path d="M119.712 125.902H120.722L126.74 133.408V125.902H127.787V135.274H126.928L120.763 127.593V135.274H119.712V125.902Z" fill="white"/>
<path d="M132.876 125.902H136.193C139.192 125.902 141.266 127.94 141.266 130.56V130.584C141.266 133.22 139.192 135.27 136.193 135.27H132.876V125.902ZM133.956 126.88V134.292H136.193C138.605 134.292 140.149 132.687 140.149 130.625V130.596C140.149 128.522 138.605 126.893 136.193 126.893L133.956 126.88Z" fill="white"/>
<path d="M145.931 125.902H152.833V126.868H147.011V130.063H152.222V131.028H147.011V134.288H152.903V135.274H145.931V125.902Z" fill="white"/>
<path d="M157.462 125.902H161.035C163.191 125.902 164.609 127.027 164.609 128.873V128.901C164.609 130.939 162.889 131.965 160.856 131.965H158.538V135.274H157.462V125.902ZM160.897 131C162.482 131 163.517 130.185 163.517 128.942V128.914C163.517 127.577 162.494 126.876 160.954 126.876H158.538V130.996L160.897 131Z" fill="white"/>
<path d="M168.96 125.902H175.862V126.868H170.036V130.063H175.247V131.028H170.036V134.288H175.932V135.274H168.96V125.902Z" fill="white"/>
<path d="M180.503 125.902H181.514L187.528 133.408V125.902H188.579V135.274H187.719L181.555 127.593V135.274H180.503V125.902Z" fill="white"/>
<path d="M193.652 125.902H196.968C199.967 125.902 202.041 127.94 202.041 130.56V130.584C202.041 133.22 199.967 135.27 196.968 135.27H193.652V125.902ZM194.727 126.88V134.292H196.968C199.38 134.292 200.921 132.687 200.921 130.625V130.596C200.921 128.522 199.38 126.893 196.968 126.893L194.727 126.88Z" fill="white"/>
<path d="M206.706 125.902H213.609V126.868H207.802V130.063H213.01V131.028H207.802V134.288H213.694V135.274H206.706V125.902Z" fill="white"/>
<path d="M218.233 125.902H219.244L225.258 133.408V125.902H226.309V135.274H225.449L219.284 127.593V135.274H218.233V125.902Z" fill="white"/>
<path d="M230.974 130.608V130.58C230.964 129.942 231.081 129.309 231.32 128.718C231.559 128.127 231.914 127.59 232.364 127.138C232.815 126.687 233.351 126.331 233.942 126.09C234.532 125.85 235.165 125.731 235.802 125.739C236.492 125.718 237.178 125.838 237.819 126.093C238.46 126.348 239.041 126.733 239.527 127.223L238.793 128.001C238.404 127.597 237.938 127.275 237.422 127.055C236.906 126.834 236.351 126.72 235.79 126.717C235.293 126.718 234.801 126.818 234.343 127.013C233.885 127.208 233.472 127.493 233.127 127.851C232.782 128.209 232.512 128.633 232.335 129.098C232.158 129.563 232.076 130.058 232.095 130.556V130.58C232.076 131.078 232.158 131.575 232.335 132.042C232.512 132.508 232.78 132.934 233.125 133.295C233.47 133.655 233.883 133.943 234.341 134.141C234.799 134.339 235.292 134.443 235.79 134.447C237.102 134.447 237.958 133.954 238.875 133.098L239.584 133.778C239.1 134.307 238.508 134.726 237.849 135.007C237.19 135.288 236.478 135.425 235.762 135.408C235.129 135.418 234.501 135.301 233.915 135.063C233.329 134.825 232.797 134.472 232.35 134.024C231.903 133.576 231.551 133.043 231.315 132.456C231.078 131.869 230.963 131.241 230.974 130.608Z" fill="white"/>
<path d="M243.854 125.902H250.756V126.868H244.929V130.063H250.141V131.028H244.929V134.288H250.825V135.274H243.854V125.902Z" fill="white"/>
<path d="M14.5117 82.0077C12.7815 82.9808 11.3672 84.4304 10.4372 86.1841C9.38829 88.2067 8.86959 90.4623 8.9296 92.74C8.8897 94.8987 9.3897 97.0331 10.3842 98.9495C11.3049 100.713 12.7063 102.179 14.4261 103.179C16.2466 104.206 18.3093 104.727 20.3994 104.686C22.1389 104.721 23.8746 104.507 25.5536 104.051C26.9597 103.642 28.3032 103.043 29.5466 102.27V97.4949H19.8778V91.2079H37.2108V105.937C35.0553 107.739 32.5816 109.121 29.9174 110.012C26.8611 111.084 23.6424 111.62 20.4034 111.597C16.2474 111.597 12.6279 110.768 9.54485 109.111C6.58417 107.583 4.12166 105.24 2.44705 102.36C0.793222 99.4269 -0.0505366 96.1067 0.002341 92.74C-0.0297367 89.4144 0.798371 86.1371 2.4063 83.226C3.94809 80.4035 6.21194 78.0412 8.96627 76.3808C11.7118 74.7124 14.8684 73.8431 18.081 73.8709C20.2658 73.8471 22.4387 74.1957 24.5065 74.9017C26.4136 75.5604 28.179 76.5737 29.7096 77.8884V74.6288H37.2108V86.6812L31.6083 87.0519C30.4406 85.2159 28.879 83.6627 27.0367 82.5048C25.0265 81.2211 22.6822 80.5592 20.2975 80.602C18.28 80.5642 16.287 81.0485 14.5117 82.0077Z" fill="white"/>
<path d="M78.3675 95.6451V110.867H44.0071V104.157H49.9273V81.3395H44.0071V74.6084H64.3063V81.3232H58.439V104.14H70.3162V95.6451H78.3675Z" fill="white"/>
<path d="M92.9013 109.046C89.9594 107.457 87.5036 105.1 85.7953 102.225C84.1141 99.3419 83.2283 96.0637 83.2283 92.7258C83.2283 89.3878 84.1141 86.1097 85.7953 83.226C87.498 80.341 89.9546 77.9745 92.9013 76.3809C96.0128 74.6866 99.5083 73.8222 103.051 73.871C106.567 73.8246 110.036 74.6893 113.119 76.3809C116.055 77.9815 118.503 80.3478 120.202 83.2283C121.901 86.1089 122.787 89.3959 122.767 92.74C122.799 96.0776 121.911 99.3595 120.201 102.225C118.497 105.095 116.05 107.452 113.119 109.046C110.036 110.738 106.567 111.602 103.051 111.556C99.5083 111.605 96.0128 110.741 92.9013 109.046ZM108.792 103.02C110.424 101.955 111.724 100.453 112.545 98.6847C113.398 96.8099 113.84 94.7737 113.84 92.7135C113.84 90.6534 113.398 88.6172 112.545 86.7424C111.724 84.9744 110.424 83.4722 108.792 82.4071C107.047 81.3474 105.044 80.789 103.003 80.7933C100.961 80.7977 98.9606 81.3645 97.2203 82.4315C95.5897 83.5103 94.2895 85.0192 93.4636 86.7912C92.6122 88.6675 92.1718 90.7041 92.1718 92.7645C92.1718 94.8249 92.6122 96.8614 93.4636 98.7377C94.2805 100.501 95.5838 101.996 97.2203 103.044C98.9688 104.135 100.999 104.687 103.059 104.634C105.08 104.674 107.067 104.112 108.767 103.02H108.792Z" fill="white"/>
<path d="M167.33 107.803C166.35 108.898 165.198 109.827 163.92 110.554C162.478 111.303 160.867 111.666 159.242 111.609C157.669 111.651 156.104 111.359 154.651 110.753C153.198 110.147 151.89 109.24 150.812 108.093C148.571 105.751 146.889 102.096 145.764 97.1282L145.605 96.4396H140.003V104.21H145.658V110.867H125.518V104.157H131.438V81.3395H125.518V74.6084H147.243C151.611 74.6084 155.118 75.551 157.763 77.4361C160.409 79.3213 161.729 81.9914 161.724 85.4466C161.724 88.1928 160.975 90.4569 159.479 92.2388C157.982 94.0207 155.859 95.2431 153.11 95.9059L153.375 96.7208C154.217 99.3611 155.177 101.201 156.256 102.242C156.708 102.723 157.253 103.109 157.856 103.377C158.46 103.645 159.112 103.79 159.772 103.802C160.462 103.816 161.147 103.677 161.777 103.395C162.376 103.103 162.926 102.719 163.407 102.258L167.33 107.803ZM140.003 90.1486H147.5C148.908 90.1676 150.292 89.783 151.489 89.0403C152.67 88.2988 153.261 87.1009 153.261 85.4466C153.261 83.9635 152.688 82.9055 151.542 82.2726C150.297 81.6164 148.906 81.2896 147.5 81.3232H140.003V90.1486Z" fill="white"/>
<path d="M185.283 81.3232V104.14H191.256V110.867H170.802V104.157H176.722V81.3395H170.802V74.6084H191.256V81.3232H185.283Z" fill="white"/>
<path d="M230.098 74.6084V85.7359H222.646V81.3232H211.376V90.2016H217.748V96.2278H211.376V104.157H217.748V110.867H197.054V104.157H202.974V81.3395H197.054V74.6084H230.098Z" fill="#8BBBDA"/>
<path d="M248.739 81.3232V104.14H254.712V110.867H234.254V104.157H240.174V81.3395H234.254V74.6084H254.712V81.3232H248.739Z" fill="#8BBBDA"/>
<path d="M101.869 130.193L105.129 130.225L102.501 132.157L103.475 135.27L100.826 133.363L98.1696 135.253L99.1637 132.149L96.5438 130.201L99.8034 130.189L100.847 127.096L101.869 130.193Z" fill="white"/>
</svg>
