<svg width="263" height="117" viewBox="0 0 263 117" fill="none" xmlns="http://www.w3.org/2000/svg">
<g clip-path="url(#clip0_7167_995)">
<path d="M223.9 9.13005H137.35L140.66 4.13005C141.513 2.85514 142.667 1.81089 144.021 1.09031C145.375 0.369734 146.886 -0.00480832 148.42 4.66029e-05H230L223.9 9.13005Z" fill="#F05142"/>
<path d="M212.64 27.0601H126.09L132.16 17.9401H218.7L212.64 27.0601Z" fill="#F05142"/>
<path d="M201.37 45H114.82L120.89 35.87H207.44L201.37 45Z" fill="#F05142"/>
<path d="M131.81 17.93H84.61L90.68 8.80005H137.88L131.81 17.93Z" fill="#8BBBDA"/>
<path d="M120.55 35.86H73.3501L79.4101 26.74H126.61L120.55 35.86Z" fill="#8BBBDA"/>
<path d="M104 53.8H62L68.07 44.67H115.27L112.1 49.44C111.21 50.7747 110.006 51.8704 108.594 52.6306C107.182 53.3909 105.604 53.7925 104 53.8Z" fill="#F05142"/>
<path d="M15 85.6101C13.2165 86.6153 11.7589 88.1112 10.8 89.9201C9.71329 92.0075 9.1764 94.3375 9.24003 96.6901C9.19882 98.9183 9.7144 101.122 10.74 103.1C11.6947 104.921 13.1434 106.435 14.92 107.47C16.7979 108.517 18.9206 109.045 21.07 109C22.865 109.033 24.6558 108.814 26.39 108.35C27.8407 107.918 29.2265 107.292 30.51 106.49V101.6H20.51V95.1101H38.41V110.33C36.1836 112.189 33.6299 113.617 30.88 114.54C27.7251 115.645 24.4028 116.197 21.06 116.17C17.165 116.266 13.3079 115.386 9.84003 113.61C6.78599 112.021 4.24972 109.592 2.53003 106.61C0.823665 103.586 -0.0493898 100.162 3.46359e-05 96.6901C-0.031274 93.2548 0.822833 89.8693 2.48003 86.8601C4.0723 83.9492 6.40846 81.5129 9.25003 79.8001C12.0837 78.0748 15.3426 77.1744 18.66 77.2001C20.9181 77.1772 23.1635 77.539 25.3 78.2701C27.2671 78.9513 29.0887 79.9961 30.67 81.3501V78.0001H38.42V90.4101L32.64 90.7901C31.4296 88.8996 29.8182 87.2985 27.92 86.1001C25.8368 84.7536 23.4001 84.0574 20.92 84.1001C18.8502 84.09 16.8122 84.6099 15 85.6101Z" fill="#203E73"/>
<path d="M80.9201 99.6901V115.41H45.4601V108.48H51.5701V84.9001H45.4601V78.0001H66.4101V84.9001H60.4101V108.48H72.6201V99.6901H80.9201Z" fill="#203E73"/>
<path d="M95.9101 113.53C92.8764 111.902 90.34 109.483 88.5701 106.53C86.8032 103.573 85.8863 100.185 85.9201 96.74C85.8916 93.2811 86.8079 89.8801 88.5701 86.9037C90.3324 83.9273 92.8737 81.4884 95.9201 79.85C99.132 78.0972 102.741 77.2017 106.4 77.25C110.03 77.2041 113.61 78.0999 116.79 79.85C119.836 81.4884 122.378 83.9273 124.14 86.9037C125.902 89.8801 126.819 93.2811 126.79 96.74C126.822 100.183 125.909 103.57 124.15 106.53C122.379 109.476 119.852 111.893 116.83 113.53C113.647 115.272 110.069 116.164 106.44 116.12C102.766 116.176 99.1394 115.284 95.9101 113.53ZM112.31 107.3C113.991 106.2 115.332 104.652 116.18 102.83C117.063 100.893 117.521 98.7889 117.521 96.66C117.521 94.5311 117.063 92.427 116.18 90.49C115.335 88.6611 113.994 87.1056 112.31 86C110.506 84.8899 108.429 84.3021 106.31 84.3021C104.192 84.3021 102.114 84.8899 100.31 86C98.6294 87.114 97.2899 88.6715 96.4401 90.5C95.557 92.4353 95.0999 94.5378 95.0999 96.665C95.0999 98.7923 95.557 100.895 96.4401 102.83C97.2804 104.651 98.6229 106.195 100.31 107.28C102.109 108.396 104.194 108.965 106.31 108.92C108.427 108.994 110.518 108.43 112.31 107.3Z" fill="#203E73"/>
<path d="M172.77 112.24C171.759 113.372 170.57 114.332 169.25 115.08C167.761 115.855 166.097 116.231 164.42 116.17C162.796 116.213 161.181 115.911 159.682 115.286C158.182 114.66 156.832 113.724 155.72 112.54C153.407 110.12 151.667 106.347 150.5 101.22L150.34 100.51H144.56V108.51H150.4V115.39H129.6V108.46H135.71V84.9001H129.6V78.0001H152C156.507 78.0001 160.127 78.9734 162.86 80.9201C164.186 81.8403 165.257 83.0814 165.974 84.5274C166.691 85.9735 167.03 87.5776 166.96 89.1901C167.053 91.7264 166.229 94.2113 164.64 96.1901C162.915 98.1323 160.606 99.4623 158.06 99.9801L158.33 100.8C158.873 102.907 159.901 104.859 161.33 106.5C161.803 107 162.372 107.399 163.002 107.674C163.633 107.949 164.312 108.094 165 108.1C165.712 108.116 166.418 107.976 167.07 107.69C167.691 107.386 168.261 106.988 168.76 106.51L172.77 112.24ZM144.56 94.0001H152.31C153.764 94.0193 155.193 93.6238 156.43 92.8601C157.042 92.4659 157.536 91.9121 157.856 91.2583C158.177 90.6045 158.313 89.8756 158.25 89.1501C158.299 88.4914 158.158 87.8326 157.844 87.2514C157.531 86.6701 157.057 86.1908 156.48 85.8701C155.198 85.1862 153.763 84.842 152.31 84.8701H144.56V94.0001Z" fill="#203E73"/>
<path d="M191.31 84.9001V108.48H197.48V115.41H176.36V108.48H182.47V84.9001H176.36V78.0001H197.48V84.9001H191.31Z" fill="#203E73"/>
<path d="M237.58 78.0001V89.4601H229.89V84.9001H218.25V94.0701H224.83V100.29H218.25V108.48H224.83V115.41H203.46V108.48H209.58V84.9001H203.46V78.0001H237.58Z" fill="#8BBBDA"/>
<path d="M256.83 84.9001V108.48H263V115.41H241.88V108.48H248V84.9001H241.89V78.0001H263V84.9001H256.83Z" fill="#8BBBDA"/>
<path d="M206.12 44.79L206.33 44.53C206.468 44.6716 206.632 44.7837 206.815 44.8593C206.997 44.935 207.193 44.9726 207.39 44.97C207.81 44.97 208.08 44.75 208.08 44.45C208.08 44.16 207.93 44 207.28 43.86C206.63 43.72 206.28 43.48 206.28 42.97C206.29 42.849 206.324 42.7312 206.38 42.6234C206.436 42.5156 206.512 42.4199 206.605 42.3418C206.698 42.2637 206.806 42.2048 206.922 42.1684C207.037 42.1321 207.159 42.119 207.28 42.13C207.674 42.121 208.058 42.2561 208.36 42.51L208.16 42.78C207.915 42.5623 207.598 42.4414 207.27 42.44C206.87 42.44 206.61 42.66 206.61 42.94C206.61 43.23 206.77 43.39 207.45 43.54C208.13 43.69 208.45 43.94 208.45 44.41C208.45 44.94 208.01 45.28 207.4 45.28C206.926 45.2918 206.465 45.1157 206.12 44.79Z" fill="#F05142"/>
<path d="M209.29 42.15H209.64L210.76 43.84L211.89 42.15H212.24V45.24H211.89V42.74L210.77 44.39L209.65 42.74V45.24H209.31L209.29 42.15Z" fill="#F05142"/>
</g>
<defs>
<clipPath id="clip0_7167_995">
<rect width="263" height="116.17" fill="white"/>
</clipPath>
</defs>
</svg>
