<svg width="264" height="116" viewBox="0 0 264 116" fill="none" xmlns="http://www.w3.org/2000/svg">
<path d="M224.299 9.10062H137.983L141.277 4.14961C142.125 2.87307 143.276 1.82613 144.626 1.10211C145.977 0.378081 147.486 -0.000534848 149.018 5.67073e-07H230.349L224.299 9.10062Z" fill="black"/>
<path d="M213.063 26.9913H126.747L132.797 17.8865H219.113L213.063 26.9913Z" fill="black"/>
<path d="M201.826 44.8779H115.515L121.565 35.7773H207.877L201.826 44.8779Z" fill="black"/>
<path d="M132.453 17.8781H85.3811L91.4314 8.77753H138.504L132.453 17.8781Z" fill="black"/>
<path d="M121.221 35.7689H74.149L80.1952 26.6641H127.267L121.221 35.7689Z" fill="black"/>
<path d="M104.761 53.6555H62.9127L68.9714 44.5549H116.035L112.876 49.3045C111.987 50.6425 110.781 51.74 109.365 52.4991C107.949 53.2582 106.368 53.6555 104.761 53.6555Z" fill="black"/>
<path d="M15.9411 85.3797C14.1588 86.3789 12.702 87.8705 11.7454 89.6761C10.6653 91.7589 10.1312 94.0817 10.1929 96.4271C10.1519 98.6501 10.6667 100.848 11.6908 102.821C12.6378 104.638 14.0812 106.148 15.853 107.177C17.7269 108.237 19.8515 108.773 22.004 108.729C23.7954 108.765 25.5827 108.544 27.3117 108.075C28.759 107.648 30.1411 107.026 31.4193 106.224V101.328H21.467V94.8495H39.3158V110.034C37.0974 111.891 34.5497 113.314 31.8053 114.23C28.6585 115.336 25.3437 115.888 22.0082 115.862C17.7285 115.862 14.0013 115.01 10.8265 113.307C7.77584 111.726 5.24009 109.306 3.51748 106.333C1.81387 103.313 0.944964 99.8941 1.00002 96.4271C0.96756 93.0027 1.82028 89.628 3.47552 86.63C5.0632 83.7235 7.39441 81.291 10.2307 79.5811C13.0587 77.8649 16.3087 76.9699 19.6166 76.9965C21.8641 76.9671 24.1002 77.3204 26.2292 78.0413C28.1923 78.7212 30.0099 79.7645 31.5872 81.1168V77.7601H39.3158V90.167L33.5466 90.5488C32.3441 88.6582 30.736 87.0587 28.8389 85.8664C26.768 84.5474 24.354 83.8688 21.8991 83.9153C19.8199 83.8797 17.767 84.3842 15.9411 85.3797Z" fill="black"/>
<path d="M81.6972 99.4397V115.115H46.3143V108.184H52.4108V84.6873H46.3143V77.7601H67.2176V84.6706H61.1757V108.167H73.4064V99.4397H81.6972Z" fill="black"/>
<path d="M96.6635 113.219C93.6344 111.584 91.1054 109.158 89.3461 106.199C87.6149 103.229 86.7028 99.8525 86.7028 96.4146C86.7028 92.9766 87.6149 89.6003 89.3461 86.63C91.0994 83.6591 93.6292 81.2222 96.6635 79.5811C99.8684 77.8384 103.467 76.9484 107.115 76.9965C110.736 76.9503 114.307 77.8406 117.483 79.5811C120.507 81.2294 123.027 83.6662 124.777 86.6324C126.526 89.5986 127.439 92.9835 127.419 96.4271C127.451 99.8653 126.536 103.246 124.775 106.199C123.021 109.153 120.501 111.578 117.483 113.219C114.303 114.963 110.725 115.854 107.098 115.803C103.456 115.851 99.8627 114.961 96.6635 113.219ZM113.027 107.013C114.708 105.916 116.047 104.369 116.891 102.549C117.771 100.618 118.226 98.5213 118.226 96.3999C118.226 94.2784 117.771 92.1816 116.891 90.251C116.047 88.4304 114.708 86.8835 113.027 85.7867C111.271 84.6512 109.215 84.0667 107.124 84.1084C104.997 84.0531 102.902 84.6378 101.111 85.7867C99.4324 86.8998 98.0937 88.4549 97.2426 90.2803C96.366 92.2117 95.9125 94.3082 95.9125 96.4292C95.9125 98.5503 96.366 100.647 97.2426 102.578C98.0849 104.395 99.4266 105.934 101.111 107.017C102.903 108.139 104.984 108.714 107.098 108.67C109.187 108.718 111.243 108.141 113.002 107.013H113.027Z" fill="black"/>
<path d="M173.308 111.939C172.298 113.066 171.112 114.023 169.796 114.771C168.311 115.542 166.651 115.917 164.979 115.858C163.359 115.901 161.748 115.601 160.252 114.977C158.756 114.354 157.408 113.421 156.298 112.241C153.99 109.824 152.257 106.059 151.099 100.946L150.936 100.237H145.167V108.251H150.99V115.111H130.251V108.184H136.347V84.6873H130.251V77.7601H152.622C157.12 77.7601 160.731 78.7308 163.456 80.672C166.18 82.6132 167.54 85.3615 167.534 88.9167C167.534 91.7446 166.764 94.0761 165.222 95.911C163.681 97.746 161.495 99.0047 158.664 99.6872L158.937 100.526C159.804 103.248 160.793 105.145 161.903 106.216C162.37 106.71 162.931 107.106 163.553 107.382C164.174 107.657 164.845 107.805 165.524 107.819C166.235 107.833 166.94 107.69 167.589 107.399C168.206 107.098 168.772 106.704 169.267 106.228L173.308 111.939ZM145.167 93.7586H152.887C154.337 93.7806 155.763 93.3843 156.994 92.6174C158.211 91.8537 158.82 90.6244 158.82 88.9167C158.82 87.3936 158.228 86.3027 157.049 85.6524C155.769 84.9735 154.335 84.6354 152.887 84.6706H145.167V93.7586Z" fill="black"/>
<path d="M191.794 84.6706V108.167H197.945V115.081H176.882V108.184H182.979V84.6873H176.882V77.7601H197.945V84.6706H191.794Z" fill="black"/>
<path d="M237.943 77.7601V89.2146H230.269V84.6706H218.664V93.8131H225.226V100.019H218.664V108.184H225.226V115.098H203.916V108.184H210.012V84.6873H203.916V77.7601H237.943Z" fill="black"/>
<path d="M257.139 84.6706V108.167H263.29V115.081H242.223V108.184H248.32V84.6873H242.223V77.7601H263.29V84.6706H257.139Z" fill="black"/>
</svg>
