<svg width="256" height="136" viewBox="0 0 256 136" fill="none" xmlns="http://www.w3.org/2000/svg">
<path d="M6.39587 125.902H13.2574V126.88H7.47562V130.226H12.6462V131.199H7.47562V135.274H6.39587V125.902Z" fill="white"/>
<path d="M17.7352 125.902H21.8383C22.8315 125.85 23.8061 126.186 24.556 126.84C24.7943 127.083 24.9819 127.372 25.1078 127.689C25.2337 128.006 25.2954 128.344 25.2894 128.685V128.714C25.2894 130.266 24.1974 131.159 22.698 131.444L25.652 135.274H24.3074L21.5408 131.635H18.8109V135.274H17.7352V125.902ZM21.7445 130.682C23.1747 130.682 24.1893 129.957 24.1893 128.755V128.726C24.1893 127.577 23.2929 126.88 21.7445 126.88H18.8109V130.682H21.7445Z" fill="white"/>
<path d="M29.9833 125.902H36.8855V126.868H31.063V130.063H36.2743V131.028H31.063V134.288H36.9548V135.274H29.9833V125.902Z" fill="white"/>
<path d="M41.51 125.902H48.4122V126.868H42.5898V130.063H47.8011V131.028H42.5898V134.288H48.4693V135.274H41.51V125.902Z" fill="white"/>
<path d="M53.0369 125.902H56.3535C59.3524 125.902 61.4263 127.94 61.4263 130.56V130.584C61.4263 133.22 59.3524 135.27 56.3535 135.27H53.0369V125.902ZM54.1166 126.88V134.292H56.3535C58.7697 134.292 60.3099 132.687 60.3099 130.625V130.596C60.3099 128.522 58.7697 126.893 56.3535 126.893L54.1166 126.88Z" fill="white"/>
<path d="M65.6719 130.608V130.58C65.78 129.365 66.3382 128.235 67.237 127.41C68.1358 126.586 69.3102 126.127 70.5298 126.124C71.7493 126.121 72.926 126.574 73.8289 127.394C74.7318 128.214 75.2957 129.341 75.4099 130.556V130.58C75.3023 131.795 74.7446 132.926 73.8462 133.75C72.9478 134.575 71.7735 135.034 70.5539 135.038C69.3343 135.042 68.1574 134.589 67.2542 133.77C66.3509 132.95 65.7866 131.823 65.6719 130.608ZM74.2935 130.608V130.58C74.3077 130.077 74.2208 129.577 74.0378 129.108C73.8549 128.639 73.5797 128.212 73.2285 127.852C72.8774 127.492 72.4575 127.206 71.9937 127.011C71.5299 126.816 71.0317 126.716 70.5287 126.717C70.028 126.713 69.5317 126.81 69.0696 127.003C68.6075 127.196 68.1891 127.48 67.8397 127.838C67.4902 128.197 67.217 128.623 67.0363 129.09C66.8556 129.556 66.7712 130.055 66.7883 130.556V130.58C66.7719 131.084 66.8572 131.587 67.0391 132.057C67.2211 132.528 67.4959 132.957 67.8473 133.319C68.1986 133.681 68.6193 133.968 69.0842 134.164C69.5491 134.36 70.0487 134.46 70.5531 134.459C71.0549 134.463 71.5522 134.366 72.0152 134.172C72.4781 133.979 72.8971 133.693 73.2467 133.334C73.5963 132.974 73.8693 132.547 74.0492 132.078C74.2292 131.61 74.3123 131.11 74.2935 130.608Z" fill="white"/>
<path d="M80.0753 125.902H81.1673L84.6469 131.016L88.1266 125.902H89.2145V135.274H88.1388V127.679L84.6591 132.695H84.6062L81.1265 127.691V135.274H80.0753V125.902Z" fill="white"/>
<path d="M113.841 125.902H114.916V135.274H113.841V125.902Z" fill="white"/>
<path d="M120.099 125.902H121.11L127.128 133.408V125.902H128.175V135.274H127.315L121.15 127.593V135.274H120.099V125.902Z" fill="white"/>
<path d="M133.264 125.902H136.581C139.579 125.902 141.653 127.94 141.653 130.56V130.584C141.653 133.22 139.579 135.27 136.581 135.27H133.264V125.902ZM134.344 126.88V134.292H136.581C138.993 134.292 140.537 132.687 140.537 130.625V130.596C140.537 128.522 138.993 126.893 136.581 126.893L134.344 126.88Z" fill="white"/>
<path d="M146.319 125.902H153.221V126.868H147.398V130.063H152.61V131.028H147.398V134.288H153.29V135.274H146.319V125.902Z" fill="white"/>
<path d="M157.85 125.902H161.423C163.578 125.902 164.996 127.027 164.996 128.873V128.901C164.996 130.939 163.277 131.965 161.244 131.965H158.925V135.274H157.85V125.902ZM161.284 131C162.869 131 163.904 130.185 163.904 128.942V128.914C163.904 127.577 162.882 126.876 161.341 126.876H158.925V130.996L161.284 131Z" fill="white"/>
<path d="M169.348 125.902H176.25V126.868H170.424V130.063H175.635V131.028H170.424V134.288H176.319V135.274H169.348V125.902Z" fill="white"/>
<path d="M180.891 125.902H181.901L187.915 133.408V125.902H188.967V135.274H188.107L181.942 127.593V135.274H180.891V125.902Z" fill="white"/>
<path d="M194.039 125.902H197.356C200.355 125.902 202.429 127.94 202.429 130.56V130.584C202.429 133.22 200.355 135.27 197.356 135.27H194.039V125.902ZM195.115 126.88V134.292H197.356C199.768 134.292 201.308 132.687 201.308 130.625V130.596C201.308 128.522 199.768 126.893 197.356 126.893L195.115 126.88Z" fill="white"/>
<path d="M207.094 125.902H213.996V126.868H208.19V130.063H213.397V131.028H208.19V134.288H214.082V135.274H207.094V125.902Z" fill="white"/>
<path d="M218.621 125.902H219.631L225.645 133.408V125.902H226.697V135.274H225.837L219.672 127.593V135.274H218.621V125.902Z" fill="white"/>
<path d="M231.362 130.608V130.58C231.351 129.942 231.469 129.309 231.708 128.718C231.947 128.127 232.302 127.59 232.752 127.138C233.202 126.687 233.739 126.331 234.329 126.09C234.92 125.85 235.553 125.731 236.19 125.739C236.879 125.718 237.566 125.838 238.207 126.093C238.847 126.348 239.429 126.733 239.914 127.223L239.181 128.001C238.792 127.597 238.325 127.275 237.809 127.055C237.294 126.834 236.739 126.72 236.178 126.717C235.681 126.718 235.188 126.818 234.731 127.013C234.273 127.208 233.859 127.493 233.514 127.851C233.169 128.209 232.9 128.633 232.723 129.098C232.546 129.563 232.464 130.058 232.482 130.556V130.58C232.464 131.078 232.545 131.575 232.722 132.042C232.899 132.508 233.168 132.934 233.513 133.295C233.857 133.655 234.271 133.943 234.729 134.141C235.186 134.339 235.679 134.443 236.178 134.447C237.49 134.447 238.346 133.954 239.262 133.098L239.971 133.778C239.488 134.307 238.896 134.726 238.237 135.007C237.578 135.288 236.866 135.425 236.149 135.408C235.517 135.418 234.889 135.301 234.303 135.063C233.717 134.825 233.184 134.472 232.738 134.024C232.291 133.576 231.939 133.043 231.702 132.456C231.466 131.869 231.35 131.241 231.362 130.608Z" fill="white"/>
<path d="M244.241 125.902H251.144V126.868H245.317V130.063H250.528V131.028H245.317V134.288H251.213V135.274H244.241V125.902Z" fill="white"/>
<path d="M217.236 8.83762H133.415L136.613 4.02969C137.437 2.79004 138.554 1.77336 139.866 1.07026C141.177 0.367155 142.643 -0.000519391 144.131 5.50685e-07H223.111L217.236 8.83762Z" fill="white"/>
<path d="M206.324 26.2113H122.503L128.379 17.3696H212.199L206.324 26.2113Z" fill="white"/>
<path d="M195.413 43.581H111.596L117.471 34.7433H201.288L195.413 43.581Z" fill="white"/>
<path d="M128.044 17.3615H82.3325L88.208 8.52386H133.92L128.044 17.3615Z" fill="white"/>
<path d="M117.137 34.7352H71.425L77.2964 25.8936H123.008L117.137 34.7352Z" fill="white"/>
<path d="M101.153 52.1049H60.5135L66.3971 43.2673H112.101L109.033 47.8796C108.17 49.179 106.998 50.2447 105.623 50.9819C104.249 51.7191 102.713 52.1049 101.153 52.1049Z" fill="white"/>
<path d="M14.8994 82.0077C13.1692 82.9808 11.7549 84.4304 10.8249 86.1841C9.77598 88.2067 9.25729 90.4623 9.31729 92.74C9.27739 94.8987 9.7774 97.0331 10.7719 98.9495C11.6926 100.713 13.094 102.179 14.8138 103.179C16.6343 104.206 18.697 104.727 20.787 104.686C22.5266 104.721 24.2623 104.507 25.9413 104.051C27.3474 103.642 28.6909 103.043 29.9343 102.27V97.4949H20.2655V91.2079H37.5985V105.937C35.443 107.739 32.9693 109.121 30.3051 110.012C27.2488 111.084 24.0301 111.62 20.7911 111.597C16.6351 111.597 13.0156 110.768 9.93254 109.111C6.97187 107.583 4.50936 105.24 2.83474 102.36C1.18092 99.4269 0.337159 96.1067 0.390036 92.74C0.357959 89.4144 1.18607 86.1371 2.794 83.226C4.33579 80.4035 6.59963 78.0412 9.35396 76.3808C12.0995 74.7124 15.2561 73.8431 18.4686 73.8709C20.6535 73.8471 22.8264 74.1957 24.8942 74.9017C26.8013 75.5604 28.5667 76.5737 30.0973 77.8884V74.6288H37.5985V86.6812L31.996 87.0519C30.8283 85.2159 29.2667 83.6627 27.4244 82.5048C25.4142 81.2211 23.0699 80.5592 20.6852 80.602C18.6677 80.5642 16.6747 81.0485 14.8994 82.0077Z" fill="white"/>
<path d="M78.7551 95.6451V110.867H44.3948V104.157H50.315V81.3395H44.3948V74.6084H64.694V81.3232H58.8267V104.14H70.7039V95.6451H78.7551Z" fill="white"/>
<path d="M93.289 109.046C90.3471 107.457 87.8912 105.1 86.183 102.225C84.5018 99.3418 83.616 96.0637 83.616 92.7257C83.616 89.3878 84.5018 86.1096 86.183 83.226C87.8857 80.3409 90.3423 77.9744 93.289 76.3808C96.4005 74.6865 99.896 73.8221 103.439 73.8709C106.955 73.8245 110.424 74.6892 113.507 76.3808C116.443 77.9814 118.891 80.3478 120.59 83.2283C122.288 86.1088 123.175 89.3958 123.155 92.74C123.187 96.0776 122.299 99.3594 120.588 102.225C118.885 105.095 116.438 107.452 113.507 109.046C110.424 110.738 106.955 111.602 103.439 111.556C99.896 111.605 96.4005 110.74 93.289 109.046ZM109.18 103.02C110.812 101.955 112.112 100.453 112.932 98.6847C113.786 96.8098 114.228 94.7736 114.228 92.7135C114.228 90.6533 113.786 88.6172 112.932 86.7423C112.112 84.9743 110.812 83.4722 109.18 82.407C107.435 81.3473 105.432 80.789 103.39 80.7933C101.349 80.7976 99.3483 81.3644 97.608 82.4315C95.9774 83.5102 94.6772 85.0191 93.8513 86.7912C92.9999 88.6675 92.5595 90.704 92.5595 92.7644C92.5595 94.8248 92.9999 96.8614 93.8513 98.7377C94.6682 100.501 95.9715 101.995 97.608 103.044C99.3565 104.135 101.387 104.687 103.447 104.633C105.467 104.674 107.455 104.112 109.155 103.02H109.18Z" fill="white"/>
<path d="M167.718 107.803C166.737 108.898 165.586 109.827 164.308 110.554C162.866 111.303 161.254 111.666 159.63 111.609C158.056 111.651 156.492 111.359 155.039 110.753C153.586 110.147 152.278 109.24 151.2 108.093C148.959 105.751 147.276 102.096 146.152 97.1282L145.993 96.4396H140.39V104.21H146.046V110.867H125.905V104.157H131.826V81.3395H125.905V74.6084H147.631C151.999 74.6084 155.505 75.551 158.151 77.4361C160.797 79.3213 162.117 81.9914 162.112 85.4466C162.112 88.1928 161.363 90.4569 159.866 92.2388C158.37 94.0207 156.247 95.2431 153.498 95.9059L153.763 96.7208C154.605 99.3611 155.565 101.201 156.644 102.242C157.096 102.723 157.64 103.109 158.244 103.377C158.848 103.645 159.499 103.79 160.16 103.802C160.85 103.816 161.535 103.677 162.165 103.395C162.764 103.103 163.313 102.719 163.794 102.258L167.718 107.803ZM140.39 90.1486H147.887C149.296 90.1676 150.68 89.783 151.876 89.0403C153.058 88.2988 153.649 87.1009 153.649 85.4466C153.649 83.9635 153.076 82.9055 151.929 82.2726C150.685 81.6164 149.294 81.2896 147.887 81.3232H140.39V90.1486Z" fill="white"/>
<path d="M185.67 81.3232V104.14H191.644V110.867H171.189V104.157H177.11V81.3395H171.189V74.6084H191.644V81.3232H185.67Z" fill="white"/>
<path d="M230.486 74.6084V85.7359H223.034V81.3232H211.764V90.2016H218.136V96.2278H211.764V104.157H218.136V110.867H197.442V104.157H203.362V81.3395H197.442V74.6084H230.486Z" fill="white"/>
<path d="M249.127 81.3232V104.14H255.1V110.867H234.642V104.157H240.562V81.3395H234.642V74.6084H255.1V81.3232H249.127Z" fill="white"/>
<path d="M102.257 130.193L105.517 130.225L102.888 132.157L103.862 135.27L101.214 133.363L98.5572 135.253L99.5514 132.149L96.9315 130.201L100.191 130.189L101.234 127.096L102.257 130.193Z" fill="white"/>
</svg>
