<svg width="102" height="59" viewBox="0 0 102 59" fill="none" xmlns="http://www.w3.org/2000/svg">
<g opacity="0.9">
<path d="M76.5431 21.9011H41.4883L42.8259 19.7788C43.1703 19.2316 43.6376 18.7828 44.1861 18.4724C44.7347 18.1621 45.3474 17.9998 45.9698 18H79.0002L76.5431 21.9011Z" fill="#F05142"/>
<path d="M71.9789 29.5669H36.9258L39.3813 25.6641H74.436L71.9789 29.5669Z" fill="#F05142"/>
<path d="M67.4164 37.237H32.3633L34.8205 33.3359H69.8735L67.4164 37.237Z" fill="#F05142"/>
<path d="M39.2422 25.6667H20.125L22.5822 21.7656H41.6994L39.2422 25.6667Z" fill="#8BBBDA"/>
<path d="M34.6797 33.3326H15.5625L18.0197 29.4297H37.1352L34.6797 33.3326Z" fill="#8BBBDA"/>
<path d="M27.9957 41.0027H11L13.4572 37.1016H32.5744L31.2913 39.1375C30.9302 39.7111 30.4404 40.1815 29.8654 40.5069C29.2905 40.8324 28.6482 41.0026 27.9957 41.0027V41.0027Z" fill="#F05142"/>
</g>
<path d="M84.1753 21.3318C84.1753 21.5979 84.1029 21.8272 83.9582 22.0197C83.8157 22.2121 83.6099 22.3595 83.3408 22.4618C83.0739 22.5642 82.755 22.6154 82.3841 22.6154C82.2032 22.6154 82.0302 22.6062 81.8651 22.5877C81.7 22.5693 81.5439 22.5427 81.3969 22.5079C81.2522 22.4711 81.1199 22.427 81 22.3759V21.6819C81.2013 21.7617 81.4263 21.8344 81.6751 21.8999C81.9239 21.9634 82.1772 21.9951 82.435 21.9951C82.6453 21.9951 82.8195 21.9705 82.9574 21.9214C83.0976 21.8702 83.2017 21.7986 83.2695 21.7064C83.3374 21.6123 83.3713 21.5027 83.3713 21.3779C83.3713 21.2448 83.3317 21.1322 83.2526 21.0401C83.1734 20.948 83.0535 20.864 82.893 20.7883C82.7347 20.7105 82.5356 20.6276 82.2959 20.5395C82.1331 20.4802 81.977 20.4126 81.8277 20.3369C81.6807 20.2611 81.5496 20.1721 81.4342 20.0697C81.3189 19.9673 81.2273 19.8466 81.1594 19.7074C81.0939 19.5661 81.0611 19.4003 81.0611 19.2099C81.0611 18.956 81.1278 18.739 81.2612 18.5589C81.3969 18.3787 81.5869 18.2405 81.8311 18.1443C82.0777 18.0481 82.3649 18 82.6928 18C82.9529 18 83.1972 18.0246 83.4256 18.0737C83.6563 18.1228 83.8824 18.1924 84.1041 18.2825L83.8462 18.8752C83.6427 18.7994 83.4448 18.739 83.2526 18.694C83.0626 18.649 82.8681 18.6264 82.6691 18.6264C82.4972 18.6264 82.3513 18.65 82.2314 18.6971C82.1116 18.7442 82.02 18.8107 81.9567 18.8967C81.8956 18.9806 81.8651 19.0809 81.8651 19.1976C81.8651 19.3286 81.9001 19.4392 81.9702 19.5292C82.0426 19.6173 82.1534 19.6981 82.3027 19.7718C82.4542 19.8455 82.6487 19.9274 82.8862 20.0175C83.1598 20.1199 83.3917 20.2273 83.5816 20.3399C83.7739 20.4525 83.9209 20.5876 84.0226 20.7453C84.1244 20.9009 84.1753 21.0964 84.1753 21.3318Z" fill="white"/>
<path d="M87.2726 22.554L85.8444 18.8045H85.8138C85.8206 18.8885 85.8285 19.0031 85.8376 19.1485C85.8466 19.2938 85.8545 19.4494 85.8613 19.6152C85.8681 19.7811 85.8715 19.9397 85.8715 20.0912V22.554H85.132V18.0645H86.2752L87.6491 21.6481H87.6695L89.0909 18.0645H90.2308V22.554H89.4539V20.0544C89.4539 19.9172 89.4562 19.7688 89.4607 19.6091C89.4675 19.4494 89.4743 19.2979 89.481 19.1546C89.4901 19.0113 89.4969 18.8967 89.5014 18.8107H89.4743L87.9918 22.554H87.2726Z" fill="white"/>
</svg>
