<svg width="286" height="92" viewBox="0 0 286 92" fill="none" xmlns="http://www.w3.org/2000/svg">
<path d="M275.666 15.5449H128.229L133.855 7.08801C135.304 4.90752 137.269 3.11923 139.576 1.88252C141.883 0.645805 144.46 -0.00091358 147.078 9.68624e-07H286L275.666 15.5449Z" fill="white"/>
<path d="M256.473 46.1043H109.043L119.371 30.5522H266.807L256.473 46.1043Z" fill="white"/>
<path d="M237.28 76.6565H89.8506L100.185 61.1116H247.614L237.28 76.6565Z" fill="white"/>
<path d="M118.783 30.5379H38.3784L48.713 14.993H129.118L118.783 30.5379Z" fill="white"/>
<path d="M99.5977 61.0973H19.1929L29.5275 45.5453H109.925L99.5977 61.0973Z" fill="white"/>
<path d="M71.4821 91.6496H0L10.3346 76.1047H90.7394L85.3428 84.2175C83.8242 86.5031 81.7641 88.3776 79.3458 89.6743C76.9275 90.971 74.2261 91.6495 71.4821 91.6496Z" fill="white"/>
</svg>
