<svg width="264" height="115" viewBox="0 0 264 115" fill="none" xmlns="http://www.w3.org/2000/svg">
<path d="M224.169 9.10062H137.854L141.147 4.14961C141.995 2.87307 143.146 1.82613 144.496 1.10211C145.847 0.378081 147.356 -0.000534848 148.888 5.67073e-07H230.219L224.169 9.10062Z" fill="white"/>
<path d="M212.933 26.9914H126.617L132.667 17.8865H218.983L212.933 26.9914Z" fill="white"/>
<path d="M201.696 44.8779H115.385L121.436 35.7773H207.747L201.696 44.8779Z" fill="white"/>
<path d="M132.324 17.8781H85.2512L91.3015 8.77753H138.374L132.324 17.8781Z" fill="white"/>
<path d="M121.091 35.7689H74.019L80.0651 26.6641H127.137L121.091 35.7689Z" fill="white"/>
<path d="M104.631 53.6555H62.7827L68.8414 44.5549H115.905L112.746 49.3045C111.857 50.6425 110.651 51.74 109.235 52.4991C107.819 53.2582 106.238 53.6555 104.631 53.6555Z" fill="white"/>
<path d="M15.8112 84.4482C14.0295 85.4503 12.5732 86.943 11.6154 88.7489C10.5354 90.8317 10.0012 93.1545 10.063 95.4999C10.0219 97.7228 10.5368 99.9208 11.5609 101.894C12.509 103.71 13.9521 105.22 15.7231 106.249C17.5977 107.308 19.7218 107.844 21.8741 107.802C23.6655 107.838 25.4527 107.617 27.1817 107.147C28.6297 106.727 30.0131 106.11 31.2936 105.314V100.396H21.337V93.9223H39.1858V109.09C36.9662 110.945 34.4189 112.368 31.6754 113.286C28.5281 114.39 25.2136 114.942 21.8783 114.918C17.5986 114.918 13.8714 114.065 10.6966 112.358C7.64779 110.784 5.11199 108.372 3.38755 105.406C1.6845 102.386 0.815635 98.9668 0.870086 95.4999C0.837054 92.0754 1.68981 88.7005 3.34559 85.7028C4.93326 82.7963 7.26448 80.3637 10.1008 78.6539C12.928 76.9358 16.1785 76.0407 19.4867 76.0693C21.7366 76.0448 23.9742 76.4038 26.1034 77.1308C28.0673 77.8091 29.8853 78.8526 31.4614 80.2063V76.8497H39.1858V89.2608L33.4167 89.6426C32.2142 87.7519 30.6061 86.1525 28.709 84.9601C26.639 83.6382 24.2249 82.9566 21.7692 83.0007C19.6917 82.9618 17.6393 83.4605 15.8112 84.4482Z" fill="white"/>
<path d="M81.5672 98.4914V114.167H46.1843V107.256H52.2808V83.7601H46.1843V76.8287H67.0876V83.7433H61.0457V107.24H73.2764V98.4914H81.5672Z" fill="white"/>
<path d="M96.5336 112.291C93.5042 110.655 90.9753 108.228 89.2162 105.268C87.485 102.298 86.5728 98.9225 86.5728 95.4852C86.5728 92.0479 87.485 88.6722 89.2162 85.7028C90.9695 82.7319 93.4993 80.2949 96.5336 78.6539C99.7378 76.9091 103.337 76.019 106.985 76.0693C110.606 76.0215 114.178 76.9119 117.353 78.6539C120.377 80.3021 122.897 82.7389 124.647 85.7051C126.396 88.6714 127.309 92.0562 127.289 95.4999C127.321 98.9368 126.407 102.316 124.645 105.268C122.891 108.223 120.372 110.649 117.353 112.291C114.178 114.033 110.606 114.924 106.985 114.876C103.337 114.926 99.7378 114.036 96.5336 112.291ZM112.897 106.086C114.578 104.989 115.917 103.442 116.761 101.621C117.641 99.6908 118.096 97.594 118.096 95.4726C118.096 93.3511 117.641 91.2544 116.761 89.3237C115.917 87.5031 114.578 85.9563 112.897 84.8594C111.1 83.7682 109.038 83.1932 106.936 83.1976C104.833 83.2021 102.773 83.7858 100.981 84.8846C99.3021 85.9954 97.9632 87.5493 97.1127 89.374C96.236 91.3062 95.7825 93.4033 95.7825 95.525C95.7825 97.6467 96.236 99.7439 97.1127 101.676C97.9539 103.492 99.296 105.031 100.981 106.111C102.782 107.234 104.872 107.803 106.994 107.747C109.075 107.789 111.121 107.211 112.872 106.086H112.897Z" fill="white"/>
<path d="M173.178 111.012C172.168 112.139 170.982 113.096 169.666 113.844C168.181 114.615 166.521 114.99 164.849 114.93C163.228 114.974 161.617 114.673 160.121 114.049C158.625 113.425 157.278 112.491 156.168 111.309C153.86 108.898 152.127 105.135 150.969 100.019L150.806 99.3096H145.037V107.311H150.86V114.167H130.121V107.256H136.217V83.7601H130.121V76.8287H152.492C156.99 76.8287 160.601 77.7993 163.326 79.7405C166.05 81.6818 167.41 84.4314 167.404 87.9894C167.404 90.8174 166.634 93.1488 165.092 94.9838C163.551 96.8187 161.365 98.0774 158.534 98.76L158.807 99.5991C159.674 102.318 160.663 104.213 161.773 105.284C162.24 105.78 162.8 106.177 163.422 106.453C164.044 106.729 164.714 106.878 165.394 106.891C166.105 106.906 166.81 106.762 167.459 106.472C168.076 106.171 168.642 105.776 169.137 105.301L173.178 111.012ZM145.037 92.8313H152.757C154.207 92.8509 155.632 92.4549 156.864 91.6901C158.081 90.9265 158.69 89.6929 158.69 87.9894C158.69 86.4622 158.099 85.3727 156.919 84.7209C155.638 84.0452 154.205 83.7087 152.757 83.7433H145.037V92.8313Z" fill="white"/>
<path d="M191.664 83.7433V107.24H197.815V114.167H176.752V107.256H182.849V83.7601H176.752V76.8287H197.815V83.7433H191.664Z" fill="white"/>
<path d="M237.814 76.8287V88.2873H230.139V83.7433H218.534V92.8859H225.096V99.0914H218.534V107.256H225.096V114.167H203.786V107.256H209.882V83.7601H203.786V76.8287H237.814Z" fill="white"/>
<path d="M257.009 83.7433V107.24H263.16V114.167H242.093V107.256H248.189V83.7601H242.093V76.8287H263.16V83.7433H257.009Z" fill="white"/>
</svg>
