<svg width="256" height="39" viewBox="0 0 256 39" fill="none" xmlns="http://www.w3.org/2000/svg">
<path d="M15.5093 9.14907C13.7774 10.1199 12.3626 11.5701 11.4348 13.3254C10.3856 15.3465 9.86682 17.6009 9.92721 19.8773C9.88731 22.036 10.3873 24.1704 11.3818 26.0868C12.3014 27.8509 13.7031 29.3176 15.4237 30.3162C17.2434 31.3456 19.3067 31.8663 21.397 31.8237C23.1365 31.8584 24.8722 31.6444 26.5512 31.1881C27.9567 30.7742 29.2989 30.1696 30.5402 29.3912V24.6322H20.8754V18.3371H38.2084V33.0828C36.0542 34.8861 33.5801 36.2683 30.915 37.1573C27.8591 38.2315 24.6401 38.7678 21.401 38.7423C17.245 38.7423 13.6255 37.9151 10.5425 36.2609C7.57995 34.7255 5.11748 32.3761 3.44466 29.489C1.79028 26.5562 0.946484 23.2359 0.99995 19.8691C0.971237 16.5492 1.79922 13.2779 3.40391 10.3714C4.94338 7.54298 7.20742 5.17487 9.96388 3.50994C12.709 1.84403 15.8635 0.974975 19.0745 1.00004C21.2593 0.976234 23.4322 1.32484 25.5 2.0309C27.4064 2.69116 29.1715 3.70434 30.7031 5.01751V1.7579H38.2084V13.7899L32.6059 14.1607C31.4382 12.3247 29.8766 10.7714 28.0343 9.61356C26.0241 8.32988 23.6798 7.66797 21.2951 7.71077C19.2745 7.68114 17.2808 8.17675 15.5093 9.14907Z" fill="white"/>
<path d="M79.3653 22.7783V38.0007H45.0049V31.2859H50.9252V8.4686H45.0049V1.74158H65.3041V8.4523H59.4368V31.2696H71.314V22.7783H79.3653Z" fill="white"/>
<path d="M93.899 36.1753C90.9514 34.59 88.4897 32.2339 86.7767 29.3586C85.0665 26.4909 84.1784 23.2079 84.2098 19.8691C84.1894 16.5199 85.0803 13.2283 86.7871 10.3466C88.4938 7.46493 90.9522 5.10169 93.899 3.50991C97.0064 1.8202 100.495 0.956016 104.032 1.00002C107.549 0.955124 111.017 1.81971 114.1 3.50991C117.037 5.11053 119.484 7.47688 121.183 10.3574C122.882 13.2379 123.769 16.5249 123.749 19.8691C123.785 23.2063 122.903 26.4893 121.198 29.3586C119.495 32.2271 117.048 34.5823 114.117 36.1753C111.034 37.8669 107.565 38.7316 104.049 38.6852C100.506 38.734 97.0105 37.8696 93.899 36.1753ZM109.79 30.1491C111.423 29.0849 112.723 27.5825 113.542 25.8138C114.416 23.9551 114.859 21.9229 114.838 19.8691C114.863 17.7978 114.42 15.7477 113.542 13.8714C112.712 12.1077 111.403 10.6127 109.765 9.55649C108.059 8.45382 106.063 7.88625 104.032 7.92669C101.967 7.87299 99.9326 8.44078 98.1935 9.55649C96.5634 10.6375 95.2634 12.1476 94.4368 13.9203C93.5646 15.7795 93.123 17.8115 93.1452 19.865C93.1204 21.9332 93.5618 23.9804 94.4368 25.8545C95.2548 27.6187 96.5578 29.1138 98.1935 30.1654C99.9433 31.2525 101.973 31.8035 104.032 31.7504C106.06 31.7993 108.056 31.2417 109.765 30.1491H109.79Z" fill="white"/>
<path d="M168.328 34.9326C167.346 36.0231 166.194 36.9478 164.917 37.6706C163.475 38.4198 161.864 38.7833 160.24 38.7259C158.667 38.7691 157.104 38.4796 155.651 37.8765C154.198 37.2733 152.889 36.3701 151.81 35.2259C149.569 32.8844 147.886 29.2282 146.761 24.2573L146.602 23.5687H141V31.3388H146.655V38.0007H126.515V31.2859H132.435V8.4686H126.515V1.74158H148.24C152.608 1.74158 156.115 2.68415 158.761 4.56929C161.407 6.45443 162.727 9.12324 162.721 12.5757C162.721 15.3219 161.973 17.586 160.476 19.3679C158.98 21.1498 156.857 22.3722 154.108 23.035L154.373 23.8295C155.215 26.4752 156.175 28.3169 157.253 29.3545C157.707 29.8345 158.251 30.2193 158.855 30.4866C159.459 30.7538 160.109 30.8981 160.77 30.911C161.46 30.925 162.144 30.7859 162.774 30.5036C163.373 30.2117 163.923 29.8281 164.404 29.3668L168.328 34.9326ZM141 17.2981H148.497C149.906 17.3194 151.29 16.9346 152.486 16.1898C153.668 15.4482 154.259 14.2544 154.259 12.5961C154.259 11.117 153.684 10.0577 152.539 9.42611C151.298 8.75975 149.906 8.42438 148.497 8.4523H141V17.2981Z" fill="white"/>
<path d="M186.28 8.4523V31.2696H192.253V38.0007H171.799V31.2859H177.72V8.4686H171.799V1.74158H192.253V8.4523H186.28Z" fill="white"/>
<path d="M231.096 1.74158V12.865H223.644V8.4523H212.374V17.3307H218.746V23.3569H212.374V31.2859H218.746V38.0007H198.052V31.2859H203.972V8.4686H198.052V1.74158H231.096Z" fill="white"/>
<path d="M249.737 8.4523V31.2696H255.71V38.0007H235.252V31.2859H241.172V8.4686H235.252V1.74158H255.71V8.4523H249.737Z" fill="white"/>
</svg>
