<svg width="24" height="24" viewBox="0 0 24 24" fill="none" xmlns="http://www.w3.org/2000/svg">
<path fill-rule="evenodd" clip-rule="evenodd" d="M11.6061 2.08085C11.8157 1.99102 12.0484 1.97604 12.2657 2.03594L12.3939 2.08085L19.3939 5.08085C19.9015 5.29841 20.1367 5.88629 19.9191 6.39392C19.7171 6.86529 19.1958 7.10172 18.7159 6.9589L18.6061 6.91915L12 4.088L5.39392 6.91915C4.92255 7.12116 4.38198 6.93283 4.13298 6.49846L4.08085 6.39392C3.87884 5.92255 4.06717 5.38198 4.50154 5.13298L4.60608 5.08085L11.6061 2.08085ZM22 10C22 9.44772 21.5523 9 21 9H20H4H3L2.88338 9.00673C2.38604 9.06449 2 9.48716 2 10C2 10.5523 2.44772 11 3 11V20L2.88338 20.0067C2.38604 20.0645 2 20.4872 2 21C2 21.5523 2.44772 22 3 22H4H20H21L21.1166 21.9933C21.614 21.9355 22 21.5128 22 21C22 20.4477 21.5523 20 21 20V11L21.1166 10.9933C21.614 10.9355 22 10.5128 22 10ZM5 20V11H19V20H5ZM8.99327 13.8834C8.93551 13.386 8.51284 13 8 13C7.44772 13 7 13.4477 7 14V17L7.00673 17.1166C7.06449 17.614 7.48716 18 8 18C8.55228 18 9 17.5523 9 17V14L8.99327 13.8834ZM12 13C12.5128 13 12.9355 13.386 12.9933 13.8834L13 14V17C13 17.5523 12.5523 18 12 18C11.4872 18 11.0645 17.614 11.0067 17.1166L11 17V14C11 13.4477 11.4477 13 12 13ZM16.9933 13.8834C16.9355 13.386 16.5128 13 16 13C15.4477 13 15 13.4477 15 14V17L15.0067 17.1166C15.0645 17.614 15.4872 18 16 18C16.5523 18 17 17.5523 17 17V14L16.9933 13.8834Z" fill="black"/>
</svg>
