<svg width="16" height="17" viewBox="0 0 16 17" fill="none" xmlns="http://www.w3.org/2000/svg">
<path fill-rule="evenodd" clip-rule="evenodd" d="M6.58963 1.97153C6.92597 1.93206 7.26411 2.02891 7.52856 2.24046C7.76361 2.42851 7.92304 2.69326 7.98037 2.98633L7.99703 3.09746L8.00067 3.16699V7.83365C8.00067 8.17554 8.25803 8.45732 8.58959 8.49583L8.66734 8.50032H13.2007C13.937 8.50032 14.534 9.09727 14.534 9.83365C14.534 9.88433 14.5282 9.93484 14.5168 9.98421C13.7732 13.1916 10.7996 15.3759 7.51661 15.1261C4.23364 14.8763 1.62465 12.2673 1.37489 8.98438C1.12983 5.76336 3.22783 2.84008 6.33633 2.02866L6.51678 1.98421L6.58963 1.97153ZM6.66734 7.83365L6.66667 3.32032L6.65172 3.3244C4.17692 3.98148 2.50891 6.31396 2.70438 8.88323C2.90419 11.5096 4.99138 13.5968 7.61775 13.7966C10.1299 13.9877 12.4157 12.3973 13.1303 10.013L13.18 9.83299L8.66734 9.83365C7.60222 9.83365 6.73156 9.00104 6.67073 7.95117L6.66734 7.83365ZM9.85051 2.18403C9.89821 2.17296 9.94736 2.16708 9.9971 2.16681L10.0784 2.17147L10.1535 2.18459L10.2221 2.20483C12.0614 2.85249 13.5216 4.27152 14.2238 6.0833L14.2962 6.2789C14.4399 6.68706 14.1633 7.1136 13.747 7.16237L13.6673 7.16699H10.6673C9.96443 7.16699 9.38856 6.62307 9.33766 5.93316L9.334 5.83365L9.33383 2.83722L9.338 2.75832C9.34145 2.7304 9.34585 2.70533 9.35161 2.68079L9.37185 2.61224C9.39805 2.53782 9.43612 2.47097 9.48318 2.41307L9.53067 2.35965C9.55071 2.34094 9.56919 2.32472 9.58844 2.3096L9.64848 2.26758L9.70749 2.23475L9.77583 2.20585L9.85051 2.18403ZM10.8157 3.95859L10.6673 3.87032V5.83365H12.63L12.5424 5.68532C12.1477 5.04788 11.6231 4.50121 11.0041 4.08086L10.8157 3.95859Z" fill="#F5F5F5"/>
</svg>
