<svg width="16" height="17" viewBox="0 0 16 17" fill="none" xmlns="http://www.w3.org/2000/svg">
<path fill-rule="evenodd" clip-rule="evenodd" d="M8.00065 1.83398C4.31875 1.83398 1.33398 4.81875 1.33398 8.50065C1.33398 12.1825 4.31875 15.1673 8.00065 15.1673C11.6825 15.1673 14.6673 12.1825 14.6673 8.50065C14.6673 4.81875 11.6825 1.83398 8.00065 1.83398ZM7.33398 3.20858C4.70311 3.53665 2.66732 5.78091 2.66732 8.50065C2.66732 11.4462 5.05513 13.834 8.00065 13.834C10.7204 13.834 12.9647 11.7982 13.2927 9.16732H8.00065C7.65876 9.16732 7.37698 8.90996 7.33847 8.5784L7.33398 8.50065V3.20858ZM13.2927 7.83398H8.66732V3.20858C11.0798 3.50941 12.9919 5.42151 13.2927 7.83398Z" fill="#F5F5F5"/>
</svg>
