<svg width="16" height="17" viewBox="0 0 16 17" fill="none" xmlns="http://www.w3.org/2000/svg">
<path fill-rule="evenodd" clip-rule="evenodd" d="M10.6673 2.5H13.334C14.0704 2.5 14.6673 3.09695 14.6673 3.83333V13.1667C14.6673 13.903 14.0704 14.5 13.334 14.5H12.0007H10.6673H9.33398H6.66732H5.33398H2.66732C1.93094 14.5 1.33398 13.903 1.33398 13.1667V9.16667C1.33398 8.43029 1.93094 7.83333 2.66732 7.83333H5.33398L5.33398 6.5C5.33398 5.76362 5.93094 5.16667 6.66732 5.16667H9.33398L9.33398 3.83333C9.33398 3.09695 9.93094 2.5 10.6673 2.5ZM2.66732 13.1667L5.33398 13.1667V9.16667H2.66732V13.1667ZM6.66732 13.1667L9.33398 13.1667V6.5H6.66732V9.16667V13.1667ZM10.6673 13.1667H12.0007H13.334V3.83333H10.6673V6.5V13.1667Z" fill="#F5F5F5"/>
</svg>
