<svg width="16" height="17" viewBox="0 0 16 17" fill="none" xmlns="http://www.w3.org/2000/svg">
<path fill-rule="evenodd" clip-rule="evenodd" d="M12.6666 3.8335H3.33331C2.22874 3.8335 1.33331 4.72893 1.33331 5.8335V11.1668C1.33331 12.2714 2.22874 13.1668 3.33331 13.1668H12.6666C13.7712 13.1668 14.6666 12.2714 14.6666 11.1668V5.8335C14.6666 4.72893 13.7712 3.8335 12.6666 3.8335ZM3.33331 5.16683H12.6666C13.0348 5.16683 13.3333 5.46531 13.3333 5.8335V11.1668C13.3333 11.535 13.0348 11.8335 12.6666 11.8335H3.33331C2.96512 11.8335 2.66665 11.535 2.66665 11.1668V5.8335C2.66665 5.46531 2.96512 5.16683 3.33331 5.16683ZM7.99998 5.8335C6.52722 5.8335 5.33331 7.0274 5.33331 8.50016C5.33331 9.97292 6.52722 11.1668 7.99998 11.1668C9.47274 11.1668 10.6666 9.97292 10.6666 8.50016C10.6666 7.0274 9.47274 5.8335 7.99998 5.8335ZM7.99998 7.16683C8.73636 7.16683 9.33331 7.76378 9.33331 8.50016C9.33331 9.23654 8.73636 9.8335 7.99998 9.8335C7.2636 9.8335 6.66665 9.23654 6.66665 8.50016C6.66665 7.76378 7.2636 7.16683 7.99998 7.16683ZM12.0066 7.8335C12.3748 7.8335 12.6733 8.13197 12.6733 8.50016C12.6733 8.84205 12.416 9.12383 12.0844 9.16234L12 9.16683C11.6318 9.16683 11.3333 8.86835 11.3333 8.50016C11.3333 8.15827 11.5907 7.87649 11.9222 7.83798L12.0066 7.8335ZM4.67331 8.50016C4.67331 8.13197 4.37484 7.8335 4.00665 7.8335L3.92223 7.83798C3.59067 7.87649 3.33331 8.15827 3.33331 8.50016C3.33331 8.86835 3.63179 9.16683 3.99998 9.16683L4.08439 9.16234C4.41595 9.12383 4.67331 8.84205 4.67331 8.50016Z" fill="white"/>
</svg>
