<svg fill="none" height="24" viewBox="0 0 24 24" width="24" xmlns="http://www.w3.org/2000/svg">
<path d="M11 3.25C11 3.11193 11.1119 3 11.25 3H12.75C12.8881 3 13 3.11193 13 3.25V5H11V3.25Z" fill="black"/>
<path d="M11 19H13V20.75C13 20.8881 12.8881 21 12.75 21H11.25C11.1119 21 11 20.8881 11 20.75V19Z" fill="black"/>
<path clip-rule="evenodd" d="M14.1531 6.89534C13.602 6.62006 12.8533 6.60153 12 6.60153C11.1471 6.60153 10.3982 6.6204 9.84704 6.89585C9.60582 7.0164 9.4151 7.18295 9.27406 7.4367C9.12716 7.70098 9 8.12248 9 8.79999C9 9.47742 9.12713 9.90229 9.27698 10.1717C9.42105 10.4307 9.6182 10.6048 9.87294 10.7326C10.4503 11.0223 11.2531 11.0539 12.1958 11.0539C12.2168 11.0539 12.2382 11.0539 12.2602 11.0539C12.9285 11.0533 14.0849 11.0523 15.0769 11.5556C15.6207 11.8315 16.1214 12.2585 16.4763 12.8946C16.8261 13.5215 17 14.2897 17 15.2014C17 16.1153 16.8233 16.8884 16.4659 17.5209C16.1038 18.162 15.5927 18.5934 15.0361 18.874C13.9924 19.3999 12.7571 19.3999 12.0011 19.3998H11.984C11.9597 19.3998 11.9348 19.3999 11.9094 19.3999C11.1626 19.4005 9.96263 19.4015 8.94991 18.8939C8.39218 18.6143 7.88378 18.1809 7.52539 17.5352C7.20514 16.9581 7.0332 16.2634 7.00437 15.4498C6.99947 15.3118 7.11193 15.1998 7.25 15.1998L8.75 15.1998C8.88807 15.1998 8.99915 15.3119 9.00613 15.4498C9.03317 15.9842 9.14615 16.3341 9.27412 16.5646C9.41522 16.8189 9.60583 16.9855 9.8461 17.1059C10.3949 17.381 11.1396 17.3998 11.984 17.3998C12.8136 17.3998 13.5756 17.3704 14.136 17.0879C14.3853 16.9623 14.5813 16.7909 14.7246 16.5372C14.8727 16.275 15 15.8613 15 15.2014C15 14.5395 14.8739 14.1273 14.7298 13.869C14.5908 13.6199 14.4037 13.4567 14.172 13.3392C13.6456 13.0721 12.9437 13.0539 12.1958 13.0539H12.1775C11.3242 13.054 10.0399 13.054 8.97602 12.5202C8.40628 12.2343 7.89119 11.7948 7.52914 11.1438C7.17286 10.5033 7 9.72179 7 8.79999C7 7.87826 7.17284 7.10034 7.52594 6.46506C7.8849 5.81924 8.39418 5.38608 8.95296 5.10683C9.9673 4.5999 11.1708 4.60088 11.9247 4.60149C11.9503 4.60151 11.9754 4.60153 12 4.60153C12.0251 4.60153 12.0507 4.60151 12.0769 4.60149C12.8305 4.60085 14.0332 4.59983 15.0468 5.10612C15.6057 5.38529 16.1151 5.81844 16.4741 6.46438C16.7948 7.04149 16.9668 7.73636 16.9956 8.54986C17.0005 8.68785 16.8881 8.79984 16.75 8.79984L15.25 8.79984C15.1119 8.79984 15.0009 8.68776 14.9939 8.54986C14.9668 8.01565 14.8538 7.66612 14.7259 7.43594C14.5849 7.18221 14.3943 7.01577 14.1531 6.89534Z" fill="black" fill-rule="evenodd"/>
</svg>
