<svg fill="none" height="24" viewBox="0 0 24 24" width="24" xmlns="http://www.w3.org/2000/svg">
<path d="M19.0156 20H5.01562V8.55425L12.0156 4.17925L19.0156 8.55425V20ZM12.4131 3.93081C12.4128 3.93105 12.4124 3.93129 12.412 3.93153L12.4131 3.93081L12.0156 3.29481L12.4131 3.93081ZM11.6191 3.93141C11.6188 3.93121 11.6184 3.93101 11.6181 3.9308L11.6181 3.93081L11.6191 3.93141Z" stroke="white" stroke-width="2"/>
<path d="M21.8969 9.47184C21.97 9.35471 21.9343 9.2005 21.8172 9.12739L12.2265 3.14075C12.1094 3.06764 11.9552 3.10332 11.882 3.22044L10.9554 4.70497L20.7582 10.824C20.8753 10.8971 21.0295 10.8614 21.1026 10.7443L21.8969 9.47184Z" fill="white"/>
<path d="M2.13238 9.47184C2.05927 9.35471 2.09495 9.2005 2.21207 9.12739L11.8028 3.14075C11.9199 3.06764 12.0741 3.10332 12.1472 3.22044L13.0739 4.70497L3.27111 10.824C3.15398 10.8971 2.99977 10.8614 2.92666 10.7443L2.13238 9.47184Z" fill="white"/>
<path d="M12.5156 11.75C12.5156 11.6119 12.6276 11.5 12.7656 11.5H15.2656C15.4037 11.5 15.5156 11.6119 15.5156 11.75V14.25C15.5156 14.3881 15.4037 14.5 15.2656 14.5H12.7656C12.6276 14.5 12.5156 14.3881 12.5156 14.25V11.75Z" fill="white"/>
</svg>
