<svg width="16" height="17" viewBox="0 0 16 17" fill="none" xmlns="http://www.w3.org/2000/svg">
<path fill-rule="evenodd" clip-rule="evenodd" d="M7.52863 2.02925C7.76895 1.78892 8.14711 1.77044 8.40863 1.97379L8.47144 2.02925L14.4714 8.02925C14.8732 8.43096 14.6185 9.10544 14.0758 9.16333L14 9.16732H13.3334V13.1673C13.3334 14.2324 12.5008 15.1031 11.4509 15.1639L11.3334 15.1673H4.6667C3.60158 15.1673 2.73093 14.3347 2.6701 13.2848L2.6667 13.1673V9.16732H2.00003C1.43192 9.16732 1.13508 8.51031 1.47788 8.08563L1.52863 8.02925L7.52863 2.02925ZM8.00003 3.44398L12.4324 7.87633C12.4123 7.88388 12.3926 7.89237 12.3735 7.90174C12.1523 8.01023 12 8.23766 12 8.50065V13.1673L11.9955 13.2451C11.957 13.5766 11.6753 13.834 11.3334 13.834H4.6667L4.58895 13.8295C4.25739 13.791 4.00003 13.5092 4.00003 13.1673L4.00003 8.50065L3.99555 8.4229C3.99388 8.40856 3.99176 8.39435 3.9892 8.3803C3.95076 8.16949 3.81319 7.99328 3.62655 7.90174C3.60727 7.89229 3.58747 7.88374 3.56721 7.87615L8.00003 3.44398ZM10 8.50065C10 8.13246 9.70156 7.83398 9.33337 7.83398H6.6667C6.29851 7.83398 6.00003 8.13246 6.00003 8.50065V11.1673C6.00003 11.5355 6.29851 11.834 6.6667 11.834H9.33337C9.70156 11.834 10 11.5355 10 11.1673V8.50065ZM8.6667 9.16732V10.5007H7.33337V9.16732H8.6667Z" fill="#F5F5F5"/>
</svg>
