<svg fill="none" height="24" viewBox="0 0 24 24" width="24" xmlns="http://www.w3.org/2000/svg">
<path clip-rule="evenodd" d="M19.7075 4.29327C17.9362 2.52203 15.0645 2.52203 13.2933 4.29327L12.7933 4.79327L12.7101 4.88748C12.4051 5.27977 12.4328 5.847 12.7933 6.20748C13.1838 6.59801 13.817 6.59801 14.2075 6.20748L14.7075 5.70748L14.84 5.58395C15.8361 4.71917 17.3461 4.76035 18.2933 5.70748C19.2835 6.69767 19.2835 8.30308 18.2933 9.29327L14.2933 13.2933L14.1452 13.4329C13.6869 13.8318 13.1051 14.0509 12.5004 14.0509C11.8285 14.0509 11.1849 13.7804 10.7147 13.3005C10.3281 12.906 9.69501 12.8996 9.30052 13.2861C8.90603 13.6726 8.89957 14.3057 9.28609 14.7002C10.1325 15.5641 11.291 16.0509 12.5004 16.0509C13.7098 16.0509 14.8683 15.5641 15.7147 14.7002L19.7075 10.7075L19.8683 10.5383C21.477 8.75784 21.4234 6.00916 19.7075 4.29327ZM14.7147 9.30052C13.8683 8.43667 12.7098 7.94987 11.5004 7.94987C10.291 7.94987 9.13249 8.43667 8.28609 9.30052L4.29327 13.2933L4.13241 13.4625C2.52376 15.2429 2.57739 17.9916 4.29327 19.7075C6.06451 21.4787 8.93625 21.4787 10.7075 19.7075L11.2075 19.2075L11.2907 19.1133C11.5957 18.721 11.568 18.1538 11.2075 17.7933C10.817 17.4027 10.1838 17.4027 9.79327 17.7933L9.29327 18.2933L9.16073 18.4168C8.16465 19.2816 6.65462 19.2404 5.70748 18.2933C4.7173 17.3031 4.7173 15.6977 5.70748 14.7075L9.70748 10.7075L9.85555 10.5679C10.3139 10.1689 10.8957 9.94987 11.5004 9.94987C12.1723 9.94987 12.8159 10.2203 13.2861 10.7002C13.6726 11.0947 14.3057 11.1012 14.7002 10.7147C15.0947 10.3281 15.1012 9.69501 14.7147 9.30052Z" fill="white" fill-rule="evenodd"/>
</svg>
