<svg width="18" height="18" viewBox="0 0 18 18" fill="none" xmlns="http://www.w3.org/2000/svg">
<path fill-rule="evenodd" clip-rule="evenodd" d="M6 0H2C0.89543 0 0 0.89543 0 2V6C0 7.10457 0.89543 8 2 8H6C7.10457 8 8 7.10457 8 6V2C8 0.89543 7.10457 0 6 0ZM2 2H6V6H2V2ZM16 0H12C10.8954 0 10 0.89543 10 2V6C10 7.10457 10.8954 8 12 8H16C17.1046 8 18 7.10457 18 6V2C18 0.89543 17.1046 0 16 0ZM12 2H16V6H12V2ZM2 10H6C7.10457 10 8 10.8954 8 12V16C8 17.1046 7.10457 18 6 18H2C0.89543 18 0 17.1046 0 16V12C0 10.8954 0.89543 10 2 10ZM6 12H2V16H6V12ZM14.9933 10.8834C14.9355 10.386 14.5128 10 14 10C13.4477 10 13 10.4477 13 11V13H11L10.8834 13.0067C10.386 13.0645 10 13.4872 10 14C10 14.5523 10.4477 15 11 15H13V17L13.0067 17.1166C13.0645 17.614 13.4872 18 14 18C14.5523 18 15 17.5523 15 17V15H17L17.1166 14.9933C17.614 14.9355 18 14.5128 18 14C18 13.4477 17.5523 13 17 13H15V11L14.9933 10.8834Z" fill="#A61011"/>
</svg>
