<svg width="16" height="17" viewBox="0 0 16 17" fill="none" xmlns="http://www.w3.org/2000/svg">
<path fill-rule="evenodd" clip-rule="evenodd" d="M5.99488 3.08892C5.95637 2.75736 5.67459 2.5 5.3327 2.5C4.96451 2.5 4.66603 2.79848 4.66603 3.16667V7.16667L4.67051 7.24441C4.70902 7.57597 4.99081 7.83333 5.3327 7.83333C5.70089 7.83333 5.99936 7.53486 5.99936 7.16667V3.16667L5.99488 3.08892ZM11.3282 3.08892C11.2897 2.75736 11.0079 2.5 10.666 2.5C10.2978 2.5 9.99936 2.79848 9.99936 3.16667V7.16667L10.0038 7.24441C10.0424 7.57597 10.3241 7.83333 10.666 7.83333C11.0342 7.83333 11.3327 7.53486 11.3327 7.16667V3.16667L11.3282 3.08892ZM7.99936 2.5C8.34125 2.5 8.62303 2.75736 8.66154 3.08892L8.66603 3.16667V5.16667C8.66603 5.53486 8.36755 5.83333 7.99936 5.83333C7.65747 5.83333 7.37569 5.57597 7.33718 5.24441L7.3327 5.16667V3.16667C7.3327 2.79848 7.63117 2.5 7.99936 2.5ZM6.5547 9.23133L4.88976 9.50907L4.812 9.52659C4.33534 9.66318 4.1637 10.2738 4.52796 10.6381L5.62536 11.736L5.3394 13.7391L5.33286 13.8108C5.31348 14.3063 5.83837 14.6592 6.29751 14.4296L7.99936 13.5787L9.70122 14.4296L9.76719 14.4585C10.2312 14.6336 10.7319 14.2472 10.6593 13.7391L10.3727 11.736L11.4708 10.6381L11.5239 10.5786C11.8323 10.1904 11.6171 9.59376 11.109 9.50907L9.44336 9.23133L8.59565 7.53519C8.34997 7.04383 7.64876 7.04383 7.40308 7.53519L6.5547 9.23133ZM7.99936 9.324L8.40308 10.1315L8.44275 10.2003C8.54415 10.3541 8.70567 10.4602 8.88976 10.4909L9.61136 10.6107L9.19462 11.0286L9.1427 11.087C9.03034 11.2293 8.9801 11.4125 9.00606 11.5943L9.15936 12.668L8.2975 12.237L8.21523 12.2026C8.04738 12.1451 7.86209 12.1566 7.70122 12.237L6.8387 12.668L6.99266 11.5943L6.99917 11.5164C7.00365 11.3351 6.93393 11.1584 6.8041 11.0286L6.3867 10.6107L7.10896 10.4909C7.31935 10.4559 7.50026 10.3222 7.59565 10.1315L7.99936 9.324Z" fill="#F5F5F5"/>
</svg>
