<svg fill="none" height="25" viewBox="0 0 24 25" width="24" xmlns="http://www.w3.org/2000/svg">
<path clip-rule="evenodd" d="M19 4.02686H5C3.34315 4.02686 2 5.37 2 7.02686V17.0269C2 18.6837 3.34315 20.0269 5 20.0269H19C20.6569 20.0269 22 18.6837 22 17.0269V7.02686C22 5.37 20.6569 4.02686 19 4.02686ZM5 6.02686H19C19.5523 6.02686 20 6.47457 20 7.02686V17.0269C20 17.5791 19.5523 18.0269 19 18.0269H5C4.44772 18.0269 4 17.5791 4 17.0269V7.02686C4 6.47457 4.44772 6.02686 5 6.02686Z" fill="black" fill-rule="evenodd"/>
</svg>
