<svg width="20" height="19" viewBox="0 0 20 19" fill="none" xmlns="http://www.w3.org/2000/svg">
<path fill-rule="evenodd" clip-rule="evenodd" d="M14 0.990234H18C19.1046 0.990234 20 1.88566 20 2.99023V16.9902C20 18.0948 19.1046 18.9902 18 18.9902H16H14H12H8H6H2C0.89543 18.9902 0 18.0948 0 16.9902V10.9902C0 9.88566 0.89543 8.99023 2 8.99023H6V6.99023C6 5.88566 6.89543 4.99023 8 4.99023H12V2.99023C12 1.88566 12.8954 0.990234 14 0.990234ZM2 16.9902H6V10.9902H2V16.9902ZM8 16.9902H12V6.99023H8V10.9902V16.9902ZM14 16.9902H16H18V2.99023H14V6.99023V16.9902Z" fill="#36495A"/>
</svg>
