<svg fill="none" height="24" viewBox="0 0 24 24" width="24" xmlns="http://www.w3.org/2000/svg">
<path d="M12 2L20 5.63636V11.0909C20 16.1364 16.5867 20.8545 12 22C7.41328 20.8545 4 16.1361 4 11.0909V5.63636L12 2ZM12 5.63636C11.2926 5.63636 10.6145 5.9237 10.1143 6.43506C9.61428 6.94663 9.33333 7.64021 9.33333 8.36364C9.33333 9.08706 9.61428 9.78062 10.1143 10.2922C10.6145 10.8036 11.2926 11.0909 12 11.0909C12.7074 11.0909 13.3855 10.8036 13.8857 10.2922C14.3857 9.78064 14.6667 9.08706 14.6667 8.36364C14.6667 7.64021 14.3857 6.94665 13.8857 6.43506C13.3855 5.9237 12.7074 5.63636 12 5.63636ZM7.4401 16.5455C8.51708 18.2315 10.1264 19.4892 12 20.1092C13.8736 19.4892 15.4829 18.2315 16.5599 16.5455C16.8621 16.0909 17.1198 15.6364 17.3333 15.1546C17.3333 13.6546 14.9244 12.4274 12 12.4274C9.07561 12.4274 6.66667 13.6275 6.66667 15.1546C6.87996 15.6364 7.1377 16.0909 7.4401 16.5455Z" fill="white"/>
</svg>
