<svg fill="none" height="17" viewBox="0 0 16 17" width="16" xmlns="http://www.w3.org/2000/svg">
    <path clip-rule="evenodd"
        d="M6 2.5H3.33333C2.59695 2.5 2 3.09695 2 3.83333V6.5C2 7.23638 2.59695 7.83333 3.33333 7.83333H6C6.73638 7.83333 7.33333 7.23638 7.33333 6.5V3.83333C7.33333 3.09695 6.73638 2.5 6 2.5ZM3.33333 3.83333H6V6.5H3.33333V3.83333ZM12.6667 2.5H10C9.26362 2.5 8.66667 3.09695 8.66667 3.83333V6.5C8.66667 7.23638 9.26362 7.83333 10 7.83333H12.6667C13.403 7.83333 14 7.23638 14 6.5V3.83333C14 3.09695 13.403 2.5 12.6667 2.5ZM10 3.83333H12.6667V6.5H10V3.83333ZM3.33333 9.16667H6C6.73638 9.16667 7.33333 9.76362 7.33333 10.5V13.1667C7.33333 13.903 6.73638 14.5 6 14.5H3.33333C2.59695 14.5 2 13.903 2 13.1667V10.5C2 9.76362 2.59695 9.16667 3.33333 9.16667ZM6 10.5H3.33333V13.1667H6V10.5ZM11.9955 9.75559C11.957 9.42403 11.6752 9.16667 11.3333 9.16667C10.9651 9.16667 10.6667 9.46514 10.6667 9.83333V11.1667H9.33333L9.25559 11.1712C8.92403 11.2097 8.66667 11.4914 8.66667 11.8333C8.66667 12.2015 8.96514 12.5 9.33333 12.5H10.6667V13.8333L10.6712 13.9111C10.7097 14.2426 10.9914 14.5 11.3333 14.5C11.7015 14.5 12 14.2015 12 13.8333V12.5H13.3333L13.4111 12.4955C13.7426 12.457 14 12.1752 14 11.8333C14 11.4651 13.7015 11.1667 13.3333 11.1667H12V9.83333L11.9955 9.75559Z"
        fill="#F5F5F5" fill-rule="evenodd" />
</svg>
