<?xml version="1.0" standalone="no"?>
<!DOCTYPE svg PUBLIC "-//W3C//DTD SVG 20010904//EN"
 "http://www.w3.org/TR/2001/REC-SVG-20010904/DTD/svg10.dtd">
<svg version="1.0" xmlns="http://www.w3.org/2000/svg"
 width="2288.000000pt" height="2288.000000pt" viewBox="0 0 2288.000000 2288.000000"
 preserveAspectRatio="xMidYMid meet">
<metadata>
Created by potrace 1.14, written by Peter Selinger 2001-2017
</metadata>
<g transform="translate(0.000000,2288.000000) scale(0.100000,-0.100000)"
fill="#000000" stroke="none">
<path d="M11590 15109 c-25 -5 -70 -14 -100 -20 -53 -11 -154 -41 -195 -59
-11 -5 -42 -19 -70 -31 -27 -12 -52 -24 -55 -28 -3 -3 -26 -17 -52 -29 -25
-13 -54 -31 -65 -40 -10 -10 -36 -29 -58 -44 -56 -38 -172 -152 -226 -223 -26
-33 -91 -127 -145 -210 -55 -82 -106 -160 -114 -172 -8 -12 -41 -61 -74 -110
-72 -108 -138 -206 -143 -213 -6 -6 -113 -17 -119 -11 -4 5 -77 5 -99 1 -5 -1
-14 -1 -20 0 -13 2 -87 2 -100 0 -5 -1 -14 -1 -20 0 -13 2 -87 2 -100 0 -5 -1
-14 -1 -20 0 -13 2 -87 2 -100 0 -5 -1 -14 -1 -20 0 -13 2 -87 2 -100 0 -5 -1
-14 -1 -20 0 -13 2 -87 2 -100 0 -5 -1 -14 -1 -20 0 -13 2 -87 2 -100 0 -5 -1
-14 -1 -20 0 -13 2 -87 2 -100 0 -5 -1 -14 -1 -20 0 -24 5 -165 1 -175 -5 -5
-3 -10 -3 -10 2 0 4 -272 8 -605 8 -333 0 -605 -4 -605 -8 0 -5 -5 -5 -11 -1
-10 6 -148 8 -175 3 -5 -1 -13 0 -19 1 -13 2 -87 2 -100 0 -5 -1 -14 -1 -20 0
-13 2 -87 2 -100 0 -5 -1 -14 -1 -20 0 -13 2 -87 2 -100 0 -5 -1 -14 -1 -20 0
-13 2 -87 2 -100 0 -5 -1 -14 -1 -20 0 -13 2 -87 2 -100 0 -5 -1 -14 -1 -20 0
-13 2 -87 2 -100 0 -5 -1 -14 -1 -20 0 -13 2 -87 2 -100 0 -5 -1 -14 -1 -20 0
-13 2 -87 2 -100 0 -5 -1 -14 -1 -20 0 -24 5 -165 1 -175 -5 -5 -3 -10 -3 -10
2 0 4 -272 8 -605 8 -333 0 -605 -4 -605 -8 0 -5 -5 -5 -11 -1 -10 6 -148 8
-175 3 -5 -1 -13 0 -19 1 -13 2 -87 2 -100 0 -5 -1 -14 -1 -20 0 -13 2 -87 2
-100 0 -5 -1 -14 -1 -20 0 -13 2 -87 2 -100 0 -5 -1 -14 -1 -20 0 -13 2 -87 2
-100 0 -5 -1 -14 -1 -20 0 -13 2 -87 2 -100 0 -5 -1 -14 -1 -20 0 -13 2 -87 2
-100 0 -5 -1 -14 -1 -20 0 -13 2 -87 2 -100 0 -5 -1 -14 -1 -20 0 -13 2 -87 2
-100 0 -5 -1 -14 -1 -20 0 -13 2 -87 2 -100 0 -5 -1 -12 -2 -15 0 -3 1 -22 2
-43 3 l-38 2 -282 -424 c-155 -234 -284 -430 -286 -435 -2 -6 -10 -15 -17 -19
-8 -4 -14 -12 -14 -17 0 -5 -38 -65 -85 -135 -47 -69 -85 -130 -85 -135 0 -4
-4 -10 -8 -12 -4 -1 -17 -19 -29 -38 l-22 -35 3217 1 c3172 0 3216 0 3226 20
6 10 13 21 16 24 14 14 150 222 150 230 0 4 3 10 8 12 10 5 72 97 72 108 0 6
3 10 8 10 4 0 21 23 37 51 17 28 39 63 51 77 11 15 35 52 54 82 19 30 40 61
47 68 7 7 13 17 13 22 0 5 6 15 13 22 6 7 50 72 97 143 47 72 88 132 91 135 3
3 8 10 10 15 2 6 30 48 62 95 l57 86 5863 -1 c3224 0 5869 1 5878 3 9 2 50 54
90 115 40 62 77 114 81 115 4 2 8 7 8 12 0 7 116 188 138 215 20 25 168 251
174 267 4 10 12 18 18 18 5 0 10 7 10 15 0 8 5 15 11 15 5 0 7 5 4 10 -3 6 1
13 9 16 9 3 16 10 16 16 0 12 81 132 92 136 4 2 8 8 8 14 0 6 11 26 25 44 14
18 25 36 25 39 0 4 13 24 28 44 15 20 44 62 65 94 l37 57 -5622 -1 c-3247 -1
-5642 -5 -5668 -10z"/>
<path d="M9533 12651 c-13 -13 -23 -30 -23 -37 0 -8 -4 -14 -10 -14 -5 0 -10
-6 -10 -13 0 -7 -11 -24 -24 -38 -13 -14 -26 -35 -30 -46 -4 -11 -15 -28 -26
-38 -11 -10 -20 -22 -20 -27 0 -5 -5 -14 -10 -21 -6 -7 -42 -59 -80 -117 -76
-115 -88 -132 -110 -164 -9 -11 -22 -33 -29 -48 -8 -16 -18 -28 -23 -28 -4 0
-8 -5 -8 -11 0 -6 -11 -25 -25 -43 -14 -18 -25 -38 -25 -44 0 -6 -4 -12 -8
-14 -5 -1 -57 -77 -117 -168 -59 -91 -112 -166 -116 -168 -5 -2 -9 -8 -9 -14
0 -11 -58 -99 -75 -113 -8 -7 -1090 -10 -3203 -10 l-3190 1 -113 -171 c-62
-93 -116 -171 -121 -173 -4 -2 -8 -7 -8 -12 0 -12 -161 -254 -172 -258 -4 -2
-8 -8 -8 -13 0 -9 -48 -88 -60 -99 -12 -11 -165 -246 -168 -257 -2 -7 -8 -13
-13 -13 -5 0 -9 -6 -9 -12 0 -7 -11 -26 -25 -42 -13 -16 -27 -37 -30 -47 -4
-11 -11 -19 -16 -19 -5 0 -9 -4 -9 -10 0 -5 -16 -32 -35 -59 -19 -26 -35 -51
-35 -54 0 -3 1446 -5 3214 -5 l3215 0 18 26 c10 15 20 32 23 37 3 6 47 72 98
148 50 75 92 141 92 146 0 5 4 11 8 13 5 2 48 64 97 138 49 74 92 137 95 140
10 9 31 45 36 63 4 9 10 17 14 17 5 0 12 9 15 20 3 11 12 26 18 33 23 25 57
76 57 87 0 5 4 10 9 10 5 0 12 8 16 19 3 10 17 31 30 47 14 16 25 35 25 42 0
6 3 12 8 12 4 0 18 20 32 45 14 25 28 45 31 45 4 0 12 14 19 30 7 17 16 30 21
30 5 0 9 5 9 11 0 6 7 17 15 26 14 13 665 15 5889 15 l5874 0 74 111 c40 62
76 114 80 117 4 3 13 17 20 30 21 40 232 355 241 358 4 2 7 7 7 12 0 4 43 71
95 149 52 79 95 147 95 152 0 5 4 9 9 9 5 0 12 8 15 18 4 10 14 27 24 38 10
10 30 40 45 66 15 26 34 53 42 62 9 8 15 17 13 18 -1 2 12 24 30 51 18 26 29
48 25 48 -4 1 -2656 2 -5893 3 l-5885 1 -22 -24z"/>
<path d="M8027 10227 c-20 -7 -87 -95 -87 -116 0 -5 -3 -11 -7 -13 -11 -4
-213 -306 -213 -317 0 -5 -3 -11 -7 -13 -12 -5 -53 -66 -53 -78 0 -5 -4 -10
-8 -10 -5 0 -15 -12 -23 -27 -8 -15 -20 -35 -26 -43 -7 -8 -46 -67 -87 -130
-41 -63 -79 -119 -83 -125 -5 -5 -23 -32 -40 -60 -18 -27 -36 -54 -40 -60 -5
-5 -35 -50 -67 -100 -33 -49 -64 -93 -70 -97 -5 -4 -1445 -7 -3199 -7 -1754 0
-3190 -1 -3192 -3 -16 -19 -195 -292 -195 -298 0 -5 -3 -10 -7 -12 -5 -1 -51
-68 -103 -148 -52 -80 -99 -149 -103 -155 -15 -19 -197 -296 -197 -300 0 -3
-9 -15 -20 -27 -10 -13 -19 -27 -19 -32 0 -5 -3 -12 -9 -15 -5 -3 -45 -61 -90
-128 -79 -120 -80 -123 -54 -124 114 -2 5812 2 5827 5 11 2 43 6 70 11 76 12
84 13 144 30 86 24 195 67 203 79 4 6 8 7 8 3 0 -9 81 34 167 89 148 94 288
236 398 404 27 41 53 80 57 85 5 6 74 109 154 230 80 121 152 230 161 241 l16
21 5874 1 c3231 0 5875 1 5877 3 23 29 156 233 156 240 0 5 5 9 10 9 6 0 10 6
10 14 0 8 3 16 8 18 4 2 32 41 62 88 30 47 57 87 60 90 3 3 21 30 40 60 19 30
39 60 45 66 5 6 19 27 30 47 11 20 23 37 27 37 5 0 8 4 8 9 0 9 86 140 110
168 5 7 10 17 10 23 0 5 5 10 10 10 6 0 10 4 10 10 0 10 76 125 98 148 6 7 12
18 12 23 0 6 6 17 13 24 22 25 32 40 46 68 8 15 18 27 23 27 4 0 8 5 8 12 0 6
7 20 17 30 16 17 -170 18 -5865 20 -3235 2 -5892 0 -5905 -5z"/>
</g>
</svg>
