<svg width="64" height="64" viewBox="0 0 64 64" fill="none" xmlns="http://www.w3.org/2000/svg">
<path fill-rule="evenodd" clip-rule="evenodd" d="M5.33594 32.0065C5.33594 17.2789 17.275 5.33984 32.0026 5.33984C46.7302 5.33984 58.6693 17.2789 58.6693 32.0065C58.6693 46.7341 46.7302 58.6732 32.0026 58.6732C17.275 58.6732 5.33594 46.7341 5.33594 32.0065ZM53.3447 32.0153C53.3447 20.2332 43.7935 10.682 32.0114 10.682C20.2293 10.682 10.6781 20.2332 10.6781 32.0153C10.6781 43.7974 20.2293 53.3486 32.0114 53.3486C43.7935 53.3486 53.3447 43.7974 53.3447 32.0153ZM32.0116 18.6646C33.3791 18.6646 34.5063 19.694 34.6603 21.0203L34.6783 21.3313V31.9979C34.6783 33.4707 33.4843 34.6646 32.0116 34.6646C30.644 34.6646 29.5169 33.6351 29.3629 32.3089L29.3449 31.9979V21.3313C29.3449 19.8585 30.5388 18.6646 32.0116 18.6646ZM34.7049 42.6675C34.7049 41.1948 33.511 40.0009 32.0382 40.0009L31.7006 40.0188C30.3744 40.1729 29.3449 41.3 29.3449 42.6675C29.3449 44.1403 30.5388 45.3342 32.0116 45.3342L32.3492 45.3163C33.6755 45.1622 34.7049 44.0351 34.7049 42.6675Z" fill="#A61011"/>
</svg>
