<svg width="24" height="24" viewBox="0 0 24 24" fill="none" xmlns="http://www.w3.org/2000/svg">
<path fill-rule="evenodd" clip-rule="evenodd" d="M4.29897 12.717C3.90134 12.3274 3.90201 11.6898 4.29105 11.301V11.2911L10.2867 5.29957C10.6764 4.90014 11.3059 4.90014 11.7056 5.29957C12.0953 5.68902 12.0953 6.31813 11.7056 6.71756L7.40875 11.0115H19.0007C19.5503 11.0115 20 11.4509 20 12.0101C20 12.5593 19.5503 13.0086 19.0007 13.0086H7.42872L11.7145 17.2914C12.1042 17.6709 12.1042 18.31 11.7145 18.6994H11.7045C11.5146 18.8792 11.2548 18.989 10.995 18.989L11.006 19C10.7362 19 10.4764 18.8902 10.2965 18.7104L4.30088 12.7189C4.30024 12.7183 4.29961 12.7176 4.29897 12.717Z" fill="black"/>
</svg>
