<svg width="22" height="22" viewBox="0 0 22 22" fill="none" xmlns="http://www.w3.org/2000/svg">
<circle cx="11" cy="11" r="11" fill="#041F37"/>
<rect width="16" height="16" transform="translate(3 3)" fill="#041F37"/>
<path d="M10.8047 6.52876C11.065 6.78911 11.065 7.21122 10.8047 7.47157L7.94277 10.3335H15.6666C16.0348 10.3335 16.3333 10.632 16.3333 11.0002C16.3333 11.3684 16.0348 11.6668 15.6666 11.6668H7.94277L10.8047 14.5288C11.065 14.7891 11.065 15.2112 10.8047 15.4716C10.5443 15.7319 10.1222 15.7319 9.86189 15.4716L5.86189 11.4716C5.73686 11.3465 5.66663 11.177 5.66663 11.0002C5.66663 10.8234 5.73686 10.6538 5.86189 10.5288L9.86189 6.52876C10.1222 6.26841 10.5443 6.26841 10.8047 6.52876Z" fill="white"/>
</svg>
