<svg width="48" height="16" viewBox="0 0 48 16" fill="none" xmlns="http://www.w3.org/2000/svg">
<path d="M45.4097 2.71603H21.4277L22.3429 1.34044C22.5784 0.985758 22.8981 0.694875 23.2734 0.493711C23.6487 0.292547 24.0679 0.187351 24.4937 0.1875H47.0907L45.4097 2.71603Z" fill="#F05142"/>
<path d="M42.2875 7.68595H18.3066L19.9865 5.15625H43.9685L42.2875 7.68595Z" fill="#F05142"/>
<path d="M39.1664 12.6574H15.1855L16.8666 10.1289H40.8474L39.1664 12.6574Z" fill="#F05142"/>
<path d="M19.8911 5.15353H6.8125L8.49352 2.625H21.5722L19.8911 5.15353Z" fill="#8BBBDA"/>
<path d="M16.7701 10.1274H3.69141L5.37243 7.59766H18.4499L16.7701 10.1274Z" fill="#8BBBDA"/>
<path d="M12.1976 15.0949H0.570312L2.25134 12.5664H15.33L14.4522 13.886C14.2052 14.2578 13.8701 14.5627 13.4767 14.7736C13.0833 14.9846 12.6439 15.0949 12.1976 15.0949V15.0949Z" fill="#F05142"/>
</svg>
