<svg width="64" height="64" viewBox="0 0 64 64" fill="none" xmlns="http://www.w3.org/2000/svg">
<path fill-rule="evenodd" clip-rule="evenodd" d="M30.9694 5.53983C31.5284 5.30026 32.1489 5.26033 32.7284 5.42005L33.0703 5.53983L51.737 13.5398C53.0907 14.12 53.7177 15.6877 53.1376 17.0413C52.5989 18.2983 51.2087 18.9288 49.929 18.548L49.6361 18.4419L33.5955 11.5675C32.5894 11.1363 31.4504 11.1363 30.4442 11.5675L14.4037 18.4419C13.1467 18.9806 11.7052 18.4784 11.0412 17.3201L10.9022 17.0413C10.3635 15.7843 10.8657 14.3428 12.024 13.6788L12.3028 13.5398L30.9694 5.53983ZM58.6771 26.6561C58.6771 25.1834 57.4832 23.9894 56.0104 23.9894H53.3219H10.6493H8.01042L7.69943 24.0074C6.37319 24.1614 5.34375 25.2886 5.34375 26.6561C5.34375 26.724 5.34629 26.7913 5.35127 26.8579C5.51492 29.045 7.98263 31.0888 7.98263 33.282V53.0408C7.98263 53.2 7.85841 53.3316 7.69943 53.3408C6.37319 53.4948 5.34375 54.6219 5.34375 55.9895C5.34375 57.4622 6.53766 58.6562 8.01042 58.6562H56.0104L56.3214 58.6382C57.6476 58.4842 58.6771 57.3571 58.6771 55.9895C58.6771 54.5167 57.4832 53.3228 56.0104 53.3228C55.9983 53.3228 55.9885 53.313 55.9885 53.3009V29.3447C55.9885 29.3326 55.9983 29.3228 56.0104 29.3228L56.3214 29.3048C57.6476 29.1508 58.6771 28.0237 58.6771 26.6561ZM46.6552 29.3228C48.8643 29.3228 50.6552 31.1136 50.6552 33.3228V49.3228C50.6552 51.532 48.8643 53.3228 46.6552 53.3228H17.316C15.1068 53.3228 13.316 51.532 13.316 49.3228V33.3228C13.316 31.1136 15.1068 29.3228 17.316 29.3228H46.6552ZM23.9823 37.0133C23.8282 35.687 22.7011 34.6576 21.3335 34.6576C19.8608 34.6576 18.6669 35.8515 18.6669 37.3243V45.3243L18.6848 45.6352C18.8388 46.9615 19.966 47.9909 21.3335 47.9909C22.8063 47.9909 24.0002 46.797 24.0002 45.3243V37.3243L23.9823 37.0133ZM32.0178 34.6576C33.3853 34.6576 34.5125 35.687 34.6665 37.0133L34.6844 37.3243V45.3243C34.6844 46.797 33.4905 47.9909 32.0178 47.9909C30.6502 47.9909 29.5231 46.9615 29.369 45.6352L29.3511 45.3243V37.3243C29.3511 35.8515 30.545 34.6576 32.0178 34.6576ZM45.3507 37.0133C45.1967 35.687 44.0696 34.6576 42.702 34.6576C41.2292 34.6576 40.0353 35.8515 40.0353 37.3243V45.3243L40.0533 45.6352C40.2073 46.9615 41.3344 47.9909 42.702 47.9909C44.1748 47.9909 45.3687 46.797 45.3687 45.3243V37.3243L45.3507 37.0133Z" fill="#1F3B73"/>
</svg>
