<svg width="24" height="24" viewBox="0 0 24 24" fill="none" xmlns="http://www.w3.org/2000/svg">
<path fill-rule="evenodd" clip-rule="evenodd" d="M14.5952 9.92622C14.4823 9.87673 14.3798 9.80759 14.295 9.72295C14.0531 9.48739 13.9574 9.16052 14.0059 8.85277V5.01835C14.0059 4.45895 14.446 4.01942 15.0062 4.01942C15.5564 4.01942 16.0066 4.45895 16.0066 5.01835V6.57538L19.2869 3.2998C19.677 2.90023 20.3072 2.90023 20.7074 3.29881C21.0975 3.68839 21.0975 4.31772 20.7074 4.71729L17.4048 8.01515H19.0077C19.5579 8.01515 20.0081 8.45468 20.0081 9.01409C20.0081 9.5635 19.5579 10.013 19.0077 10.013H15.0062C14.859 10.013 14.7201 9.98197 14.5952 9.92622ZM18.0068 22V21.999L18.0063 21.999L17.9968 21.98C19.6474 21.98 20.9979 20.6315 20.9979 18.9832V14.9875C20.9979 14.5779 20.7478 14.2083 20.3676 14.0585L15.3658 12.0606C14.9056 11.8708 14.3854 12.0506 14.1353 12.4802L13.135 14.1484C11.7845 13.3293 10.6441 12.1905 9.83376 10.8519L11.5044 9.85297C11.9245 9.59325 12.1046 9.0738 11.9245 8.62428L9.9238 3.62962C9.76374 3.24003 9.3936 2.9903 8.99345 3.00029H4.99198C4.97198 3.00029 4.95197 3.00029 4.93196 3.01028C3.28136 3.04025 1.96087 4.40879 2.00089 6.06701V6.076C2.52107 14.6667 9.39333 21.4993 18.0063 21.999L18.0068 22ZM5.00199 5.01813C4.44178 5.01813 4.00162 5.45766 4.00162 6.01707L4.00062 6.01607C4.4908 13.548 10.513 19.5416 18.0658 20.0011C18.586 19.9612 19.0061 19.5216 19.0061 19.0022V15.6857L15.4248 14.2573L14.3644 16.0054C14.0943 16.4449 13.5241 16.6148 13.064 16.395H13.063C10.6821 15.2262 8.76137 13.3183 7.60094 10.9508C7.37086 10.4713 7.54092 9.91191 8.00109 9.65219L9.76174 8.59332L8.32121 5.01714H4.99198L5.00199 5.01813Z" fill="#1F3B73"/>
</svg>
