<svg fill="none" height="24" viewBox="0 0 24 24" width="24" xmlns="http://www.w3.org/2000/svg">
    <path clip-rule="evenodd"
        d="M22 9C22 5.13401 18.866 2 15 2C14.4477 2 14 2.44772 14 3C14 3.55228 14.4477 4 15 4C17.7614 4 20 6.23858 20 9C20 9.55228 20.4477 10 21 10C21.5523 10 22 9.55228 22 9ZM9.87662 3.51875C9.70266 3.20165 9.36801 3 9 3H5L4.82373 3.00509C3.24892 3.09634 2 4.40232 2 6C2.52306 14.6375 9.36247 21.4769 17.9393 21.9982C19.6569 22 21 20.6569 21 19V15L20.9926 14.8787C20.9489 14.5197 20.7131 14.2082 20.3714 14.0715L15.3714 12.0715L15.2563 12.0333C14.8308 11.9202 14.374 12.0997 14.1425 12.4855L13.138 14.158L13.0363 14.0963C11.7712 13.2995 10.7005 12.2288 9.90374 10.9637L9.841 10.861L11.5145 9.85749L11.6145 9.78897C11.9621 9.51864 12.0956 9.04635 11.9285 8.62861L9.92848 3.62861L9.87662 3.51875ZM5 5H8.323L9.755 8.58L7.9855 9.64251L7.88754 9.7094C7.516 9.99665 7.39065 10.5115 7.60314 10.9423C8.77146 13.3113 10.6887 15.2285 13.0577 16.3969L13.167 16.443C13.6096 16.5998 14.1103 16.4264 14.3575 16.0145L15.419 14.244L19 15.677V19L18.9933 19.1166C18.9355 19.614 18.5128 20 18 20C10.4928 19.5419 4.45806 13.5072 3.99816 5.93934C4 5.44772 4.44772 5 5 5ZM15 6C16.6569 6 18 7.34315 18 9C18 9.55228 17.5523 10 17 10C16.4872 10 16.0645 9.61396 16.0067 9.11662L16 9C16 8.48716 15.614 8.06449 15.1166 8.00673L15 8C14.4477 8 14 7.55228 14 7C14 6.44772 14.4477 6 15 6Z"
        fill="#1F3B73" fill-rule="evenodd" />
</svg>
