<svg width="24" height="24" viewBox="0 0 24 24" fill="none" xmlns="http://www.w3.org/2000/svg">
<path fill-rule="evenodd" clip-rule="evenodd" d="M15 3C16.0544 3 16.9182 3.81588 16.9945 4.85074L17 5C17 5.51284 17.386 5.93551 17.8834 5.99327L18 6H19C20.5977 6 21.9037 7.24892 21.9949 8.82373L22 9V18C22 19.5977 20.7511 20.9037 19.1763 20.9949L19 21H5C3.40232 21 2.09634 19.7511 2.00509 18.1763L2 18V9C2 7.40232 3.24892 6.09634 4.82373 6.00509L5 6H6C6.55228 6 7 5.55228 7 5C7 3.94564 7.81588 3.08183 8.85074 3.00549L9 3H15ZM15 5H9L8.99491 5.17627C8.90704 6.69275 7.69275 7.90704 6.17627 7.99491L6 8H5C4.48716 8 4.06449 8.38604 4.00673 8.88338L4 9V18C4 18.5128 4.38604 18.9355 4.88338 18.9933L5 19H19C19.5128 19 19.9355 18.614 19.9933 18.1166L20 18V9C20 8.48716 19.614 8.06449 19.1166 8.00673L19 8H18C16.3431 8 15 6.65685 15 5ZM13 9.12675C13.5347 9.26483 13.8563 9.81025 13.7182 10.345C13.59 10.8416 13.1106 11.1543 12.6146 11.0859L12.5 11.0632C11.901 10.9086 11.2642 11.0398 10.7752 11.4187C10.5575 11.5873 10.3799 11.7966 10.25 12.0315C10.6448 12.1331 10.9452 12.4698 10.9933 12.8834L11 13C11 13.5128 10.614 13.9355 10.1166 13.9933L10 14H9.00009C9.00003 14 8.99997 14 8.99991 14H8C7.48716 14 7.06449 13.614 7.00673 13.1166L7 13V11C7 10.4477 7.44772 10 8 10C8.37345 10 8.69909 10.2047 8.87082 10.508C9.06777 10.2607 9.29527 10.0352 9.55037 9.83757C10.5284 9.07989 11.8021 8.81745 13 9.12675ZM14.9998 12H15.0002H16C16.5128 12 16.9355 12.386 16.9933 12.8834L17 13V15C17 15.5523 16.5523 16 16 16C15.6266 16 15.301 15.7954 15.1293 15.4921C14.9316 15.7404 14.7032 15.9666 14.4471 16.1647C13.4674 16.9224 12.192 17.1835 10.9933 16.8718C10.4588 16.7328 10.1382 16.1868 10.2772 15.6523C10.4062 15.156 10.8862 14.8441 11.3821 14.9133L11.4967 14.9362C12.096 15.092 12.7337 14.9615 13.2235 14.5826C13.4419 14.4137 13.6199 14.204 13.7502 13.9685C13.3553 13.867 13.0548 13.5303 13.0067 13.1166L13 13C13 12.4872 13.386 12.0645 13.8834 12.0067L14 12H14.9998Z" fill="#36495A"/>
</svg>
