<svg width="25" height="24" viewBox="0 0 25 24" fill="none" xmlns="http://www.w3.org/2000/svg">
<path fill-rule="evenodd" clip-rule="evenodd" d="M15.5 3C16.5544 3 17.4182 3.81588 17.4945 4.85074L17.5 5C17.5 5.51284 17.886 5.93551 18.3834 5.99327L18.5 6H19.5C21.0977 6 22.4037 7.24892 22.4949 8.82373L22.5 9V18C22.5 19.5977 21.2511 20.9037 19.6763 20.9949L19.5 21H5.5C3.90232 21 2.59634 19.7511 2.50509 18.1763L2.5 18V9C2.5 7.40232 3.74892 6.09634 5.32373 6.00509L5.5 6H6.5C7.05228 6 7.5 5.55228 7.5 5C7.5 3.94564 8.31588 3.08183 9.35074 3.00549L9.5 3H15.5ZM15.5 5H9.5L9.49491 5.17627C9.40704 6.69275 8.19275 7.90704 6.67627 7.99491L6.5 8H5.5C4.98716 8 4.56449 8.38604 4.50673 8.88338L4.5 9V18C4.5 18.5128 4.88604 18.9355 5.38338 18.9933L5.5 19H19.5C20.0128 19 20.4355 18.614 20.4933 18.1166L20.5 18V9C20.5 8.48716 20.114 8.06449 19.6166 8.00673L19.5 8H18.5C16.8431 8 15.5 6.65685 15.5 5ZM12.5 9C10.2909 9 8.5 10.7909 8.5 13C8.5 15.2091 10.2909 17 12.5 17C14.7091 17 16.5 15.2091 16.5 13C16.5 10.7909 14.7091 9 12.5 9ZM12.5 11C13.6046 11 14.5 11.8954 14.5 13C14.5 14.1046 13.6046 15 12.5 15C11.3954 15 10.5 14.1046 10.5 13C10.5 11.8954 11.3954 11 12.5 11Z" fill="#1F3B73"/>
</svg>
