<svg width="20" height="15" viewBox="0 0 20 15" fill="none" xmlns="http://www.w3.org/2000/svg">
<path fill-rule="evenodd" clip-rule="evenodd" d="M12 0C12.2604 0 12.5087 0.101454 12.6938 0.279824L12.7809 0.375305L16.48 5H17C18.5977 5 19.9037 6.24892 19.9949 7.82373L20 8V12C20 12.5128 19.614 12.9355 19.1166 12.9933L19 13H17.8293C17.4175 14.1652 16.3062 15 15 15C13.6938 15 12.5825 14.1652 12.1707 13H7.82929C7.41746 14.1652 6.30622 15 5 15C3.69378 15 2.58254 14.1652 2.17071 13H1C0.487164 13 0.0644928 12.614 0.00672773 12.1166L0 12V5.998L0.00672773 5.88338L0.0159229 5.82129L0.0417672 5.71309L0.0715233 5.62861L2.07152 0.628609C2.2082 0.286917 2.51971 0.0510973 2.87874 0.00735028L3 0H12ZM4 12C4 12.5523 4.44772 13 5 13C5.55228 13 6 12.5523 6 12C6 11.4477 5.55228 11 5 11C4.44772 11 4 11.4477 4 12ZM7.82929 11C7.41746 9.83481 6.30622 9 5 9C3.69378 9 2.58254 9.83481 2.17071 11H2V7H17L17.1166 7.00673C17.614 7.06449 18 7.48716 18 8V11H17.8293C17.4175 9.83481 16.3062 9 15 9C13.6938 9 12.5825 9.83481 12.1707 11H7.82929ZM14 12C14 12.5523 14.4477 13 15 13C15.5523 13 16 12.5523 16 12C16 11.4477 15.5523 11 15 11C14.4477 11 14 11.4477 14 12ZM3.676 2H9V5H2.476L3.676 2ZM11.52 2H11V5H13.92L11.52 2Z" fill="#36495A"/>
</svg>
