<svg width="24" height="26" viewBox="0 0 24 26" fill="none" xmlns="http://www.w3.org/2000/svg">
<path d="M0 4.93164C0 2.7225 1.79086 0.931641 4 0.931641H20C22.2091 0.931641 24 2.7225 24 4.93164V21.3168C24 23.5259 22.2091 25.3168 20 25.3168H4C1.79086 25.3168 0 23.5259 0 21.3168V4.93164Z" fill="white"/>
<path fill-rule="evenodd" clip-rule="evenodd" d="M14.1385 6.96022C14.2406 6.86506 14.4009 6.87203 14.4945 6.9757L15.511 8.10238C15.6024 8.20374 15.5956 8.35974 15.4957 8.45278L10.4799 13.1244L15.4957 17.7959C15.5956 17.889 15.6024 18.045 15.511 18.1463L14.4945 19.273C14.4009 19.3767 14.2406 19.3837 14.1385 19.2885L7.71658 13.3073C7.61044 13.2084 7.61044 13.0403 7.71659 12.9414L14.1385 6.96022Z" fill="#36495A"/>
</svg>
