<svg width="24" height="24" viewBox="0 0 24 24" fill="none" xmlns="http://www.w3.org/2000/svg">
<path fill-rule="evenodd" clip-rule="evenodd" d="M19 5H5C3.34315 5 2 6.34315 2 8V16C2 17.6569 3.34315 19 5 19H19C20.6569 19 22 17.6569 22 16V8C22 6.34315 20.6569 5 19 5ZM5 7H19C19.5523 7 20 7.44772 20 8V16C20 16.5523 19.5523 17 19 17H5C4.44772 17 4 16.5523 4 16V8C4 7.44772 4.44772 7 5 7ZM12 8C9.79086 8 8 9.79086 8 12C8 14.2091 9.79086 16 12 16C14.2091 16 16 14.2091 16 12C16 9.79086 14.2091 8 12 8ZM12 10C13.1046 10 14 10.8954 14 12C14 13.1046 13.1046 14 12 14C10.8954 14 10 13.1046 10 12C10 10.8954 10.8954 10 12 10ZM18.01 11C18.5623 11 19.01 11.4477 19.01 12C19.01 12.5128 18.624 12.9355 18.1266 12.9933L18 13C17.4477 13 17 12.5523 17 12C17 11.4872 17.386 11.0645 17.8834 11.0067L18.01 11ZM7.01 12C7.01 11.4477 6.56228 11 6.01 11L5.88338 11.0067C5.38604 11.0645 5 11.4872 5 12C5 12.5523 5.44772 13 6 13L6.12662 12.9933C6.62396 12.9355 7.01 12.5128 7.01 12Z" fill="black"/>
</svg>
