<svg width="24" height="24" viewBox="0 0 24 24" fill="none" xmlns="http://www.w3.org/2000/svg">
<path fill-rule="evenodd" clip-rule="evenodd" d="M12 2C6.47715 2 2 6.47715 2 12C2 17.5228 6.47715 22 12 22C17.5228 22 22 17.5228 22 12C22 6.47715 17.5228 2 12 2ZM11 4.06189C7.05369 4.55399 4 7.92038 4 12C4 16.4183 7.58172 20 12 20C16.0796 20 19.446 16.9463 19.9381 13H12C11.4872 13 11.0645 12.614 11.0067 12.1166L11 12V4.06189ZM19.9381 11H13V4.06189C16.6187 4.51314 19.4869 7.38128 19.9381 11Z" fill="black"/>
</svg>
