<svg width="32" height="32" viewBox="0 0 32 32" fill="none" xmlns="http://www.w3.org/2000/svg">
<path d="M11.4467 0C10.8225 0 10.317 0.505782 10.317 1.12939V9.05047H31.2347L21.7088 0.000756811L11.4467 0ZM32 11.4468C32.0004 11.2983 31.9714 11.1513 31.9147 11.0141C31.858 10.8769 31.7748 10.7523 31.6698 10.6474C31.5648 10.5425 31.4401 10.4594 31.3029 10.4029C31.1657 10.3464 31.0186 10.3176 30.8702 10.3181H22.9535V31.2424L31.9963 21.7095L32 11.4468ZM20.555 32C21.1777 32 21.6833 31.4935 21.6833 30.8685V22.9503H0.764867L10.2922 31.9985L20.555 31.9997V32ZM0.000293059 20.5547C0.000293059 21.1791 0.505872 21.6878 1.13152 21.6878H9.04669V0.761934L0.00174947 10.2919L0 20.5547" fill="white"/>
</svg>
