<svg width="140" height="140" viewBox="0 0 140 140" fill="none" xmlns="http://www.w3.org/2000/svg">
<path fill-rule="evenodd" clip-rule="evenodd" d="M11.668 69.9994C11.668 102.216 37.7847 128.333 70.0013 128.333C102.218 128.333 128.335 102.216 128.335 69.9994C128.335 37.7827 102.218 11.666 70.0013 11.666C37.7847 11.666 11.668 37.7827 11.668 69.9994ZM116.668 69.9993C116.668 95.7726 95.7746 116.666 70.0013 116.666C44.228 116.666 23.3346 95.7726 23.3346 69.9993C23.3346 44.2261 44.228 23.3327 70.0013 23.3327C95.7746 23.3327 116.668 44.2261 116.668 69.9993Z" fill="#36495A"/>
<path fill-rule="evenodd" clip-rule="evenodd" d="M105.76 55.5544C105.856 55.6536 105.854 55.8119 105.755 55.9079L61.4855 98.7618C61.3897 98.8545 61.238 98.8557 61.1407 98.7646L38.6668 77.7089C38.5661 77.6145 38.5609 77.4563 38.6553 77.3556L46.29 69.2066C46.3844 69.1058 46.5426 69.1007 46.6434 69.1951L61.1829 82.8171L97.6401 47.5254C97.7393 47.4294 97.8975 47.432 97.9936 47.5312L105.76 55.5544Z" fill="#36495A"/>
</svg>
