<svg width="144" height="144" viewBox="0 0 144 144" fill="none" xmlns="http://www.w3.org/2000/svg">
<path fill-rule="evenodd" clip-rule="evenodd" d="M72 12C38.8629 12 12 38.8629 12 72C12 105.137 38.8629 132 72 132C105.137 132 132 105.137 132 72C132 38.8629 105.137 12 72 12ZM72 24C98.5097 24 120 45.4903 120 72C120 98.5097 98.5097 120 72 120C45.4903 120 24 98.5097 24 72C24 45.4903 45.4903 24 72 24ZM64.2426 55.7574L63.6774 55.2582L63.0684 54.8423C60.765 53.4697 57.74 53.7747 55.7574 55.7574C53.4142 58.1005 53.4142 61.8995 55.7574 64.2426L63.51 72L55.7574 79.7574L55.2582 80.3226C53.4281 82.6764 53.5945 86.0797 55.7574 88.2426C58.1005 90.5858 61.8995 90.5858 64.2426 88.2426L72 80.49L79.7574 88.2426L80.3226 88.7418C82.6764 90.5719 86.0797 90.4055 88.2426 88.2426C90.5858 85.8995 90.5858 82.1005 88.2426 79.7574L80.49 72L88.2426 64.2426L88.7418 63.6774C90.5719 61.3237 90.4055 57.9203 88.2426 55.7574C85.8995 53.4142 82.1005 53.4142 79.7574 55.7574L72 63.51L64.2426 55.7574Z" fill="#F25041"/>
</svg>
