<svg width="23" height="25" viewBox="0 0 23 25" fill="none" xmlns="http://www.w3.org/2000/svg">
<path fill-rule="evenodd" clip-rule="evenodd" d="M12.4583 2.08398H10.5417C9.28988 2.08398 8.22495 2.95358 7.83027 4.16732H6.70834L6.53942 4.17262C5.03022 4.26767 3.83334 5.62807 3.83334 7.29232V19.7923L3.83822 19.9759C3.92567 21.6164 5.17723 22.9173 6.70834 22.9173H16.2917L16.4606 22.912C17.9698 22.817 19.1667 21.4566 19.1667 19.7923V7.29232L19.1618 7.1087C19.0744 5.46828 17.8228 4.16732 16.2917 4.16732H15.1698C14.7751 2.95358 13.7101 2.08398 12.4583 2.08398ZM15.1698 6.25065H16.2917L16.4034 6.25766C16.8801 6.31783 17.25 6.75811 17.25 7.29232V19.7923L17.2436 19.9138C17.1882 20.4319 16.7831 20.834 16.2917 20.834H6.70834L6.59658 20.827C6.11997 20.7668 5.75001 20.3265 5.75001 19.7923V7.29232L5.75646 7.17084C5.81182 6.65278 6.21688 6.25065 6.70834 6.25065H7.83027C8.22495 7.46439 9.28988 8.33398 10.5417 8.33398H12.4583C13.7101 8.33398 14.7751 7.46439 15.1698 6.25065ZM9.58334 5.20898C9.58334 5.78428 10.0124 6.25065 10.5417 6.25065H12.4583C12.9876 6.25065 13.4167 5.78428 13.4167 5.20898C13.4167 4.63369 12.9876 4.16732 12.4583 4.16732H10.5417C10.0124 4.16732 9.58334 4.63369 9.58334 5.20898ZM8.63459 11.459C9.16387 11.459 9.59293 11.9254 9.59293 12.5007C9.59293 13.0349 9.22297 13.4751 8.74636 13.5353L8.62501 13.5423C8.09574 13.5423 7.66668 13.0759 7.66668 12.5007C7.66668 11.9664 8.03663 11.5262 8.51325 11.466L8.63459 11.459ZM15.3333 12.5007C15.3333 11.9254 14.9043 11.459 14.375 11.459H12.4583L12.3466 11.466C11.87 11.5262 11.5 11.9664 11.5 12.5007C11.5 13.0759 11.9291 13.5423 12.4583 13.5423H14.375L14.4868 13.5353C14.9634 13.4751 15.3333 13.0349 15.3333 12.5007ZM8.63459 15.6257C9.16387 15.6257 9.59293 16.092 9.59293 16.6673C9.59293 17.2015 9.22297 17.6418 8.74636 17.702L8.62501 17.709C8.09574 17.709 7.66668 17.2426 7.66668 16.6673C7.66668 16.1331 8.03663 15.6928 8.51325 15.6327L8.63459 15.6257ZM15.3333 16.6673C15.3333 16.092 14.9043 15.6257 14.375 15.6257H12.4583L12.3466 15.6327C11.87 15.6928 11.5 16.1331 11.5 16.6673C11.5 17.2426 11.9291 17.709 12.4583 17.709H14.375L14.4868 17.702C14.9634 17.6418 15.3333 17.2015 15.3333 16.6673Z" fill="#F25041"/>
</svg>
