<svg width="32" height="32" viewBox="0 0 32 32" fill="none" xmlns="http://www.w3.org/2000/svg">
<rect width="32" height="32" rx="16" fill="white"/>
<path fill-rule="evenodd" clip-rule="evenodd" d="M10.6129 9.2097C10.2206 8.90468 9.65338 8.93241 9.29289 9.29289C8.90237 9.68342 8.90237 10.3166 9.29289 10.7071L14.5858 16L9.29289 21.2929L9.2097 21.3871C8.90468 21.7794 8.93241 22.3466 9.29289 22.7071C9.68342 23.0976 10.3166 23.0976 10.7071 22.7071L16 17.4142L21.2929 22.7071L21.3871 22.7903C21.7794 23.0953 22.3466 23.0676 22.7071 22.7071C23.0976 22.3166 23.0976 21.6834 22.7071 21.2929L17.4142 16L22.7071 10.7071L22.7903 10.6129C23.0953 10.2206 23.0676 9.65338 22.7071 9.29289C22.3166 8.90237 21.6834 8.90237 21.2929 9.29289L16 14.5858L10.7071 9.29289L10.6129 9.2097Z" fill="#1F3B73"/>
</svg>
