<svg width="24" height="24" viewBox="0 0 24 24" fill="none" xmlns="http://www.w3.org/2000/svg">
<path fill-rule="evenodd" clip-rule="evenodd" d="M2 12C2 6.47715 6.47715 2 12 2C17.5228 2 22 6.47715 22 12C22 17.5228 17.5228 22 12 22C6.47715 22 2 17.5228 2 12ZM20 12C20 7.58172 16.4183 4 12 4C7.58172 4 4 7.58172 4 12C4 16.4183 7.58172 20 12 20C16.4183 20 20 16.4183 20 12ZM13.1611 7.00031C14.1949 7.03245 15.1452 7.59658 15.6664 8.50057C15.9422 8.97904 15.7779 9.59052 15.2994 9.86635C14.8551 10.1225 14.2962 9.99913 13.9977 9.59711L13.9336 9.49943C13.7696 9.21485 13.4779 9.03131 13.1321 9.00316L13 9H12H11C10.4477 9 10 9.44772 10 10C10 10.5128 10.386 10.9355 10.8834 10.9933L11 11H13C14.6569 11 16 12.3431 16 14C16 15.5977 14.7511 16.9037 13.1763 16.9949L13 17V18C13 18.5523 12.5523 19 12 19C11.4872 19 11.0645 18.614 11.0067 18.1166L11 18V17.0004C9.90464 17.025 8.88174 16.4502 8.33365 15.4994C8.05782 15.021 8.22209 14.4095 8.70057 14.1336C9.14486 13.8775 9.70385 14.0009 10.0023 14.4029L10.0664 14.5006C10.2304 14.7852 10.5221 14.9687 10.8679 14.9968L11 15H12H13C13.5523 15 14 14.5523 14 14C14 13.4872 13.614 13.0645 13.1166 13.0067L13 13H11C9.34315 13 8 11.6569 8 10C8 8.40232 9.24892 7.09634 10.8237 7.00509L11 7V6C11 5.44772 11.4477 5 12 5C12.5128 5 12.9355 5.38604 12.9933 5.88338L13 6V7.00029L13.1611 7.00031Z" fill="black"/>
</svg>
