<svg width="24" height="24" viewBox="0 0 24 24" fill="none" xmlns="http://www.w3.org/2000/svg">
<path fill-rule="evenodd" clip-rule="evenodd" d="M11.2929 2.29289C11.6534 1.93241 12.2207 1.90468 12.613 2.2097L12.7072 2.29289L21.7072 11.2929C22.3097 11.8955 21.9277 12.9072 21.1137 12.994L21.0001 13H20.0001V19C20.0001 20.5977 18.7511 21.9037 17.1763 21.9949L17.0001 22H15.0001H9.00005H7.00005C5.40237 22 4.09639 20.7511 4.00514 19.1763L4.00005 19V13H3.00005C2.14788 13 1.70262 12.0145 2.21683 11.3775L2.29294 11.2929L11.2929 2.29289ZM10.0001 20H14.0001V15C14.0001 14.4872 13.614 14.0645 13.1167 14.0067L13.0001 14H11.0001C10.4872 14 10.0645 14.386 10.0068 14.8834L10.0001 15V20ZM16.0001 20V15L15.995 14.8237C15.9037 13.2489 14.5977 12 13.0001 12H11.0001L10.8238 12.0051C9.24897 12.0963 8.00005 13.4023 8.00005 15V20H7.00005L6.88343 19.9933C6.38609 19.9355 6.00005 19.5128 6.00005 19V12L5.99332 11.8834C5.95333 11.5391 5.73845 11.2481 5.43983 11.1016C5.41091 11.0875 5.38121 11.0746 5.35081 11.0632L12.0001 4.415L18.6486 11.0635C18.6184 11.0748 18.589 11.0876 18.5603 11.1016L18.5603 11.1016C18.2285 11.2644 18.0001 11.6055 18.0001 12V19L17.9933 19.1166C17.9356 19.614 17.5129 20 17.0001 20H16.0001Z" fill="#1F3B73"/>
</svg>
