<svg width="24" height="24" viewBox="0 0 24 24" fill="none" xmlns="http://www.w3.org/2000/svg">
<path fill-rule="evenodd" clip-rule="evenodd" d="M18 4H6C3.79086 4 2 5.79086 2 8V10V16C2 18.2091 3.79086 20 6 20H18C20.2091 20 22 18.2091 22 16V10V8C22 5.79086 20.2091 4 18 4ZM20 9V8C20 6.89543 19.1046 6 18 6H6C4.89543 6 4 6.89543 4 8V9H20ZM4 11H20V16C20 17.1046 19.1046 18 18 18H6C4.89543 18 4 17.1046 4 16V11ZM7.01 14C7.56228 14 8.01 14.4477 8.01 15C8.01 15.5128 7.62396 15.9355 7.12662 15.9933L7 16C6.44772 16 6 15.5523 6 15C6 14.4872 6.38604 14.0645 6.88338 14.0067L7.01 14ZM14 15C14 14.4477 13.5523 14 13 14H11L10.8834 14.0067C10.386 14.0645 10 14.4872 10 15C10 15.5523 10.4477 16 11 16H13L13.1166 15.9933C13.614 15.9355 14 15.5128 14 15Z" fill="#212C37"/>
</svg>
