<svg width="21" height="20" viewBox="0 0 21 20" fill="none" xmlns="http://www.w3.org/2000/svg">
<path fill-rule="evenodd" clip-rule="evenodd" d="M9.99327 0.883379C9.93551 0.38604 9.51284 0 9 0C8.44771 0 8 0.447715 8 1V2V3L8.00673 3.11662C8.06449 3.61396 8.48716 4 9 4C9.55229 4 10 3.55228 10 3L10.1166 3.00673C10.614 3.06449 11 3.48716 11 4V7.5L10.9951 7.71184C10.8845 10.0988 8.91427 12 6.5 12C4.01472 12 2 9.98528 2 7.5V4L2.00673 3.88338C2.06449 3.38604 2.48716 3 3 3L3.00673 3.11662C3.06449 3.61396 3.48716 4 4 4C4.55228 4 5 3.55228 5 3V2V1L4.99327 0.883379C4.93551 0.38604 4.51284 0 4 0C3.44772 0 3 0.447715 3 1L2.82373 1.00509C1.24892 1.09634 0 2.40232 0 4V7.5L0.00410301 7.73313C0.109431 10.7209 2.23124 13.1955 5.0502 13.8377C5.31155 16.0087 6.57847 17.9528 8.5 19.0622C10.6658 20.3126 13.3342 20.3126 15.5 19.0622C17.6658 17.8117 19 15.5009 19 13V10.8293C20.1652 10.4175 21 9.30622 21 8C21 6.34315 19.6569 5 18 5C16.3431 5 15 6.34315 15 8C15 9.30622 15.8348 10.4175 17 10.8293V13L16.9946 13.2322C16.916 14.9284 15.9797 16.4758 14.5 17.3301C12.953 18.2233 11.047 18.2233 9.5 17.3301C8.23905 16.6021 7.37275 15.3709 7.09549 13.9731C10.4062 13.6724 13 10.8891 13 7.5V4L12.9949 3.82373C12.9037 2.24892 11.5977 1 10 1L9.99327 0.883379ZM18 9C18.5523 9 19 8.55228 19 8C19 7.44772 18.5523 7 18 7C17.4477 7 17 7.44772 17 8C17 8.55228 17.4477 9 18 9Z" fill="#36495A"/>
</svg>
