<svg width="17" height="16" viewBox="0 0 17 16" fill="none" xmlns="http://www.w3.org/2000/svg">
<path fill-rule="evenodd" clip-rule="evenodd" d="M7.16663 3.33333C7.16663 2.59695 7.76358 2 8.49996 2C9.23634 2 9.83329 2.59695 9.83329 3.33333C9.83329 4.06971 9.23634 4.66667 8.49996 4.66667C7.76358 4.66667 7.16663 4.06971 7.16663 3.33333ZM8.49996 6.66667C7.76358 6.66667 7.16663 7.26362 7.16663 8C7.16663 8.73638 7.76358 9.33333 8.49996 9.33333C9.23634 9.33333 9.83329 8.73638 9.83329 8C9.83329 7.26362 9.23634 6.66667 8.49996 6.66667ZM8.49996 11.3333C7.76358 11.3333 7.16663 11.9303 7.16663 12.6667C7.16663 13.403 7.76358 14 8.49996 14C9.23634 14 9.83329 13.403 9.83329 12.6667C9.83329 11.9303 9.23634 11.3333 8.49996 11.3333Z" fill="black"/>
</svg>
