<svg width="24" height="24" viewBox="0 0 24 24" fill="none" xmlns="http://www.w3.org/2000/svg">
<path fill-rule="evenodd" clip-rule="evenodd" d="M21.2071 2.79312C19.9882 1.57417 18.0118 1.57417 16.7929 2.79312L15.2932 4.29284C15.2931 4.29294 15.293 4.29303 15.2929 4.29312C15.2928 4.29321 15.2927 4.2933 15.2926 4.2934L8.29289 11.2931L8.20608 11.3922C8.07316 11.5657 8 11.7792 8 12.0002V15.0002L8.00673 15.1168C8.06449 15.6142 8.48716 16.0002 9 16.0002H12L12.1314 15.9916C12.3481 15.9628 12.5508 15.8636 12.7071 15.7073L19.7071 8.70733L21.2071 7.20733L21.3423 7.06341C22.4243 5.83748 22.3792 3.96519 21.2071 2.79312ZM18.9999 6.58593L19.7929 5.79312C20.1995 5.3865 20.2286 4.74527 19.88 4.30514L19.7929 4.20733C19.3863 3.80071 18.745 3.77166 18.3049 4.1202L18.2071 4.20733L17.4142 5.00022L18.9999 6.58593ZM16 6.41441L17.5855 7.99999L11.585 13.9992H10V12.4142L16 6.41441ZM9 6.00023C9.55228 6.00023 10 6.44794 10 7.00023C10 7.51306 9.61396 7.93573 9.11662 7.9935L9 8.00023H6C5.48716 8.00023 5.06449 8.38627 5.00673 8.88361L5 9.00023V18.0002C5 18.5131 5.38604 18.9357 5.88338 18.9935L6 19.0002H15C15.5128 19.0002 15.9355 18.6142 15.9933 18.1168L16 18.0002V15.0002C16 14.4479 16.4477 14.0002 17 14.0002C17.5128 14.0002 17.9355 14.3863 17.9933 14.8836L18 15.0002V18.0002C18 19.5979 16.7511 20.9039 15.1763 20.9951L15 21.0002H6C4.40232 21.0002 3.09634 19.7513 3.00509 18.1765L3 18.0002V9.00023C3 7.40255 4.24892 6.09657 5.82373 6.00532L6 6.00023H9Z" fill="#36495A"/>
</svg>
