<svg width="158" height="159" viewBox="0 0 158 159" fill="none" xmlns="http://www.w3.org/2000/svg">
<path d="M92.8621 0C77.2076 0 63.1472 9.25675 56.8489 23.3477C38.2517 18.4374 23.8817 30.8137 22.5412 45.6494C9.03399 46.4213 0.364718 54.745 0.0749136 66.465C-0.15125 75.5572 6.48742 87.4442 22.3766 87.4442H28.9304V117.453H19.8999L36.9716 137.608L54.0975 117.453H45.067V87.4442H70.8372V138.435H61.8067L78.9326 158.591L96.0043 138.435H86.9738V87.4442H112.799V110.458H103.769L120.841 130.613L137.966 110.458H128.936V87.4442H129.047C148.272 87.4442 157.294 76.2563 157.294 62.4999C157.294 49.8398 147.511 39.3637 132.293 37.7781C131.408 16.8039 114.061 0.00283221 92.8657 0.00283221" fill="#F25041"/>
</svg>
