<svg width="103" height="187" viewBox="0 0 103 187" fill="none" xmlns="http://www.w3.org/2000/svg">
<path d="M31.7598 31.4658C24.0619 31.4658 17.8506 37.6121 17.8506 45.173C17.8506 52.7601 24.0619 58.8936 31.7598 58.8936C39.4108 58.8936 45.6276 52.7588 45.6276 45.173C45.6257 37.6121 39.4108 31.4658 31.7598 31.4658Z" fill="#F25041"/>
<path d="M102.234 58.5855C101.713 55.6247 99.2878 53.9441 99.1406 53.8358L17.4873 0L9.90145 10.9891C8.48857 13.1553 9.10495 16.0358 11.2717 17.4457C13.427 18.8719 16.302 18.2927 17.7149 16.1277L22.1543 9.77756L88.4736 53.5366L34.1393 63.3166C30.2926 63.9634 27.5069 67.8103 28.3649 71.5767L40.19 117.287L1.94531 174.65C-0.340777 178.566 1.04415 183.583 4.99981 185.828C8.99454 188.102 14.0527 186.718 16.3541 182.804C16.3541 182.804 56.2406 122.819 56.3886 122.441C56.3886 122.441 58.4465 130.765 58.4465 130.806L52.4608 175.806C51.7094 180.287 54.7488 184.47 59.2685 185.224C63.7883 185.975 68.0804 182.976 68.832 178.524L75.0233 132.234C75.2119 131.049 74.9691 128.454 74.7002 127.31L61.0581 73.1099L96.5457 66.7191C100.337 66.0486 102.905 62.3904 102.233 58.5832L102.234 58.5855Z" fill="#F25041"/>
</svg>
