<svg width="213" height="148" viewBox="0 0 213 148" fill="none" xmlns="http://www.w3.org/2000/svg">
<path d="M110.996 102.138C113.047 94.5551 112.912 85.459 120.98 76.6299C129.05 67.8039 131.071 68.2709 136.097 65.8793C140.412 63.8255 140.492 62.7911 144.166 58.4991C146.695 55.5416 145.054 53.0494 145.054 53.0494C145.054 53.0494 144.548 52.003 145.827 52.0826C156.202 52.7522 156.589 59.0727 156.589 59.0727L155.873 59.9704C155.873 59.9704 152.065 60.119 151 63.5299C150.262 65.8989 148.404 71.3874 149.223 75.7998C149.778 78.7663 150.593 85.7999 149.741 91.069C149.17 94.5639 149.358 95.798 147.101 103.448C145.801 107.86 144.59 110.94 145.77 113.885C147.098 117.186 148.856 117.854 152.209 118.356C157.292 119.114 177.775 113.068 184.408 113.754C191.043 114.445 195.675 122.213 195.675 122.213L193.363 123.339C193.363 123.339 193.154 120.831 179.916 120.831C176.103 120.831 166.702 122.588 163.13 123.969L157.269 126.304C157.269 126.304 153.066 128.796 157.732 129.794C162.398 130.792 164.983 126.722 176.266 127.688C187.548 128.654 194.223 133.991 201.882 135.714C209.542 137.44 212.208 135.714 212.208 135.714V137.3C212.208 137.3 208.928 141.851 203.933 142.193C198.941 142.541 194.633 137.368 184.511 137.16C174.39 136.956 161.187 141.23 153.53 141.022C145.866 140.815 145.324 140.744 140.464 136.956C135.609 133.163 135.68 123.993 135.68 123.993L134.311 122.615C134.311 122.615 135.98 133.36 119.107 144.543C119.107 144.543 114.671 148.125 107.09 147.437C97.7067 146.583 94.2747 140.513 83.898 139.204C83.898 139.204 76.725 137.715 68.8598 142.333C60.9962 146.953 60.1076 147.917 54.0887 147.468C48.0687 147.021 47.6602 145.161 47.6602 145.161V144.313C47.6602 144.313 49.0954 145.023 52.9957 141.642C56.8931 138.266 59.2859 127.924 68.178 123.51C77.0716 119.098 79.406 118.974 84.4245 119.267C93.0971 119.77 96.4915 121.51 101.689 118.752C106.889 115.997 108.664 111.237 109.758 107.032C110.857 102.83 110.995 102.138 110.995 102.138H110.996Z" fill="#F25041"/>
<path d="M46.8443 13.155C46.8443 13.155 32.6482 34.548 27.9975 36.0388C23.3468 37.5296 22.6531 36.8885 14.9321 34.1067C7.20526 31.3263 9.70451 30.7424 3.8947 32.4883C-1.91358 34.2313 0.414767 37.7459 0.698513 41.4162C0.977746 45.0853 6.14206 62.803 9.71665 70.7642C13.2912 78.727 18.1433 89.7056 22.4623 91.4293C26.7844 93.1572 25.6195 93.414 31.2626 91.2672C36.9075 89.1189 63.0307 75.4769 75.5789 70.1728C88.1263 64.8703 116.263 57.4798 131.951 50.6173C147.639 43.7537 163.052 32.7386 166.428 28.2351C169.804 23.7327 171.852 19.079 168.804 11.3652C165.757 3.65339 162.957 1.51848 157.01 0.952372C151.073 0.381882 123.606 14.3556 115.092 13.213C106.584 12.0751 80.2567 4.2491 80.2567 4.2491C80.2567 4.2491 61.617 -1.37471 57.0517 0.317467C52.4817 2.01087 46.8433 13.1546 46.8433 13.1546L46.8443 13.155Z" fill="#F25041"/>
</svg>
