<svg width="116" height="116" viewBox="0 0 116 116" fill="none" xmlns="http://www.w3.org/2000/svg">
<path fill-rule="evenodd" clip-rule="evenodd" d="M9.66675 58.0013C9.66675 84.6951 31.3063 106.335 58.0001 106.335C84.6938 106.335 106.333 84.6951 106.333 58.0013C106.333 31.3075 84.6938 9.66797 58.0001 9.66797C31.3063 9.66797 9.66675 31.3075 9.66675 58.0013ZM96.6667 58.0013C96.6667 79.3563 79.3551 96.668 58.0001 96.668C36.6451 96.668 19.3334 79.3563 19.3334 58.0013C19.3334 36.6463 36.6451 19.3346 58.0001 19.3346C79.3551 19.3346 96.6667 36.6463 96.6667 58.0013ZM53.1667 30.6455C53.1667 30.5074 53.2787 30.3955 53.4167 30.3955H62.5834C62.7215 30.3955 62.8334 30.5074 62.8334 30.6455V68.8122C62.8334 68.9502 62.7215 69.0622 62.5834 69.0622H53.4167C53.2787 69.0622 53.1667 68.9502 53.1667 68.8122V30.6455ZM53.4167 75.7227C53.2787 75.7227 53.1667 75.8347 53.1667 75.9727V85.1394C53.1667 85.2775 53.2787 85.3894 53.4167 85.3894H62.5834C62.7215 85.3894 62.8334 85.2775 62.8334 85.1394V75.9727C62.8334 75.8347 62.7215 75.7227 62.5834 75.7227H53.4167Z" fill="white"/>
</svg>
