<svg width="133" height="174" viewBox="0 0 133 174" fill="none" xmlns="http://www.w3.org/2000/svg">
<path d="M132.606 40.4779L113.191 0L111.176 6.22704C109.894 6.22704 108.795 6.22704 107.514 6.40974L106.598 2.0146C106.415 1.09855 105.682 0.549176 104.765 0.731876L101.652 1.28125C100.736 1.46395 100.187 2.1973 100.369 3.11335L101.101 7.87513C99.4532 8.42451 97.8051 8.97388 96.3395 9.70723L94.142 5.67776C93.7754 4.94568 92.8593 4.57901 92.1273 4.94568L89.3804 6.41111C88.6483 6.77779 88.2816 7.69384 88.6483 8.42591L91.0298 12.822C89.747 13.7381 88.4656 14.8368 87.3669 15.9355L83.8866 12.0886C83.3372 11.5392 82.2385 11.3565 81.6891 11.9059L79.3077 13.9207C78.7583 14.4701 78.5756 15.5688 79.125 16.1182L83.1544 20.5143C82.2384 21.797 81.5063 23.0784 80.773 24.3613L75.2779 21.4305C74.5459 21.0638 73.6298 21.4304 73.2631 22.1625L71.7977 24.9094C71.431 25.6414 71.7977 26.5575 72.5298 26.9242L78.574 30.0377C78.0246 31.5031 77.8419 33.1512 77.4752 34.7995L71.7977 33.8847C70.8816 33.702 70.1495 34.2514 69.9656 35.1674L69.4162 38.2809C69.2335 39.197 69.7829 39.9291 70.6989 40.113L77.4754 41.3958V45.2427H71.2484C70.3323 45.2427 69.6003 45.9748 69.6003 46.8909V50.0044C69.6003 50.9204 70.3323 51.6525 71.2484 51.6525L77.2926 51.6512V57.6945H30.5874C13.7368 57.6945 0 71.4313 0 88.2818V109.162C0 110.81 1.28273 112.275 3.11352 112.275H6.59384C7.32592 112.275 8.05927 111.726 8.05927 110.993L10.4407 94.5091C10.6234 93.2263 12.4555 93.2263 12.6382 94.5091L14.1036 112.275V146.526H3.11352C2.19747 146.526 1.46539 147.258 1.46539 148.174V150.555C1.46539 151.471 2.19747 152.204 3.11352 152.204H109.162C110.078 152.204 110.81 151.471 110.81 150.555V148.174C110.81 147.258 110.078 146.526 109.162 146.526H98.1718L103.667 107.513L111.726 62.0901C111.726 61.7234 111.543 61.358 111.543 60.9914L102.386 44.1408L124.548 47.9878L132.606 40.4779ZM28.2057 146.709L32.9675 112.459H84.2517V146.709H28.2057Z" fill="#F25041"/>
<path d="M19.5968 165.758C19.5968 170.31 15.9072 174 11.3551 174C6.80293 174 3.11328 170.31 3.11328 165.758C3.11328 161.206 6.80293 157.516 11.3551 157.516C15.9072 157.516 19.5968 161.206 19.5968 165.758Z" fill="#F25041"/>
<path d="M110.076 165.758C110.076 170.31 106.387 174 101.835 174C97.2824 174 93.5928 170.31 93.5928 165.758C93.5928 161.206 97.2824 157.516 101.835 157.516C106.387 157.516 110.076 161.206 110.076 165.758Z" fill="#F25041"/>
</svg>
