<svg width="115" height="137" viewBox="0 0 115 137" fill="none" xmlns="http://www.w3.org/2000/svg">
<path d="M94.4846 25.0106C97.8004 25.0106 100.981 23.6937 103.327 21.3483C105.672 19.0029 106.989 15.8226 106.989 12.5054C106.989 9.1896 105.672 6.00907 103.327 3.66353C100.981 1.31806 97.8008 0 94.4846 0C91.1674 0 87.9869 1.31813 85.6417 3.66353C83.2965 6.00894 81.9795 9.18927 81.9795 12.5054C81.9847 15.8213 83.3028 18.9992 85.647 21.3434C87.9912 23.6876 91.1688 25.0056 94.4849 25.0109L94.4846 25.0106ZM94.4846 7.39158V7.39287C95.835 7.39287 97.1312 7.92917 98.0863 8.88416C99.0426 9.84043 99.5788 11.1353 99.5788 12.4871C99.5788 13.8389 99.0426 15.1337 98.0863 16.0901C97.1313 17.0451 95.8351 17.5814 94.4846 17.5814C93.1329 17.5814 91.8367 17.0451 90.8816 16.0901C89.9266 15.1339 89.389 13.839 89.389 12.4871C89.3748 11.1251 89.9047 9.81215 90.8609 8.84148C91.8172 7.87098 93.1211 7.32307 94.4844 7.31787L94.4846 7.39158Z" fill="#F25041"/>
<path d="M110.658 79.1998H106.953V40.6656C106.953 36.1941 104.568 32.0628 100.696 29.8271C96.8245 27.5928 92.0534 27.5928 88.1818 29.8271C84.3101 32.0628 81.9246 36.1941 81.9246 40.6656V65.1567C81.9246 66.723 80.6556 67.992 79.0893 67.992C77.5244 67.992 76.2554 66.723 76.2554 65.1567V57.6163C76.2554 53.6954 74.1632 50.0718 70.767 48.1104C67.3708 46.15 63.1865 46.15 59.7903 48.1104C56.3941 50.0721 54.3019 53.6957 54.3019 57.6163V79.1998H20.1378C14.4116 79.1727 8.96726 81.6797 5.26502 86.0475C1.56146 90.4154 -0.01921 96.1972 0.944808 101.842C1.90886 107.485 5.3206 112.414 10.2634 115.305C15.2063 118.195 21.174 118.752 26.5667 116.826C30.5184 121.997 35.4549 126.335 41.0905 129.591H31.0871C29.0401 129.591 27.3822 131.249 27.3822 133.296C27.3822 135.342 29.0402 137 31.0871 137H99.6336C101.681 137 103.339 135.342 103.339 133.296C103.339 131.249 101.681 129.591 99.6336 129.591H89.6302C101.035 123.07 109.354 112.255 112.732 99.5596V99.4303C113.809 95.3675 114.357 91.1829 114.362 86.9805V82.9047C114.362 81.9226 113.972 80.9793 113.276 80.2853C112.582 79.59 111.639 79.1998 110.657 79.1998L110.658 79.1998ZM35.3298 86.6096H106.953V86.9805C106.95 89.6542 106.689 92.3226 106.175 94.946H24.6602C24.1562 92.377 23.8952 89.7654 23.8823 87.1472V86.9986V86.6096L35.3298 86.6096ZM61.7659 57.6159C61.7659 55.6465 63.3631 54.0507 65.3325 54.0507C67.3019 54.0507 68.8991 55.6466 68.8991 57.6159V65.1564C68.8991 68.8173 70.8517 72.1993 74.0215 74.0291C77.1902 75.8589 81.0955 75.8589 84.2655 74.0291C87.4354 72.1992 89.3879 68.8173 89.3879 65.1564V40.6652C89.3879 38.8418 90.361 37.1568 91.9402 36.2458C93.5193 35.3334 95.4654 35.3334 97.0448 36.2458C98.6239 37.1568 99.5957 38.842 99.5957 40.6652V79.1995H61.7661L61.7659 57.6159ZM26.8078 102.413H103.989C99.8651 112.77 91.751 121.036 81.471 125.349C71.191 129.663 59.6082 129.663 49.3269 125.349C39.0469 121.036 30.9325 112.77 26.8091 102.413H26.8078ZM20.1384 110.527C16.3121 110.522 12.718 108.688 10.4694 105.592C8.22086 102.495 7.58896 98.5113 8.76752 94.8709C9.94736 91.2305 12.7969 88.3732 16.4333 87.1846C16.4463 91.3109 16.9813 95.4191 18.0267 99.4108V99.615C19.0412 103.344 20.4963 106.938 22.3622 110.323C21.6295 110.466 20.8851 110.541 20.1381 110.545L20.1384 110.527Z" fill="#F25041"/>
</svg>
