<svg width="24" height="24" viewBox="0 0 24 24" fill="none" xmlns="http://www.w3.org/2000/svg">
<path fill-rule="evenodd" clip-rule="evenodd" d="M2.29289 2.29289C2.65338 1.93241 3.22061 1.90468 3.6129 2.2097L3.70711 2.29289L17.9832 16.569C18.0385 16.6134 18.0897 16.6643 18.1356 16.7214L21.7071 20.2929C22.0976 20.6834 22.0976 21.3166 21.7071 21.7071C21.3466 22.0676 20.7794 22.0953 20.3871 21.7903L20.2929 21.7071L17.206 18.6203C15.6021 19.5382 13.8623 20 12 20C7.6044 20 3.96348 17.4514 1.13177 12.4962C0.956057 12.1887 0.956079 11.8112 1.13182 11.5037C2.32272 9.42032 3.65271 7.76402 5.12709 6.5413L2.29289 3.70711C1.90237 3.31658 1.90237 2.68342 2.29289 2.29289ZM6.54861 7.96282C5.40937 8.87487 4.34586 10.11 3.3617 11.6732L3.161 12L3.27859 12.1941C5.63002 15.9935 8.42551 17.8901 11.709 17.9954L12 18C13.326 18 14.5644 17.7155 15.7281 17.1423L13.2945 14.7087C12.1784 15.2434 10.8001 15.048 9.87564 14.1229C8.95169 13.1982 8.75698 11.8209 9.29127 10.7055L6.54861 7.96282ZM11.2356 12.6498L11.3502 12.7644C11.3297 12.7469 11.3097 12.7285 11.2904 12.7091C11.2712 12.6899 11.2529 12.6701 11.2356 12.6498ZM12 3.99994C16.3956 3.99994 20.0365 6.54859 22.8682 11.5038C23.0439 11.8113 23.0439 12.1888 22.8682 12.4963C22.0533 13.9217 21.1753 15.1455 20.2314 16.1668C19.8565 16.5723 19.2238 16.5972 18.8182 16.2224C18.4127 15.8475 18.3878 15.2148 18.7626 14.8092C19.413 14.1056 20.0355 13.283 20.6296 12.3407L20.839 12L20.7214 11.8059C18.37 8.00649 15.5743 6.10986 12.2878 6.00458L11.9965 5.99993C11.1988 5.99716 10.4048 6.10708 9.63803 6.32643C9.10705 6.47833 8.55346 6.17102 8.40157 5.64003C8.24967 5.10905 8.55698 4.55546 9.08797 4.40357C10.0359 4.1324 11.0174 3.99652 12 3.99994Z" fill="black"/>
</svg>
