<svg width="24" height="24" viewBox="0 0 24 24" fill="none" xmlns="http://www.w3.org/2000/svg">
<path fill-rule="evenodd" clip-rule="evenodd" d="M12 4C16.3956 4 20.0365 6.54862 22.8682 11.5038C23.0438 11.8111 23.0439 12.1883 22.8685 12.4956C22.4324 13.2598 21.9742 13.9701 21.496 14.6236C21.1698 15.0693 20.5441 15.1661 20.0984 14.84C19.6527 14.5138 19.5559 13.8881 19.882 13.4424C20.1417 13.0876 20.3958 12.7129 20.6438 12.3186L20.838 11.999L20.7214 11.8059C18.37 8.00652 15.5745 6.10992 12.291 6.00464L12 6C8.59033 6 5.69918 7.89478 3.27859 11.8059L3.161 12L3.27859 12.1941C5.63002 15.9935 8.42551 17.8901 11.709 17.9954L12 18C12.5523 18 13 18.4477 13 19C13 19.5523 12.5523 20 12 20C7.6044 20 3.96348 17.4514 1.13177 12.4962C0.956077 12.1887 0.956077 11.8113 1.13177 11.5038C3.96348 6.54862 7.6044 4 12 4ZM9 12C9 10.3431 10.3431 9 12 9C13.6569 9 15 10.3431 15 12C15 13.6569 13.6569 15 12 15C10.3431 15 9 13.6569 9 12ZM13 12C13 11.4477 12.5523 11 12 11C11.4477 11 11 11.4477 11 12C11 12.5523 11.4477 13 12 13C12.5523 13 13 12.5523 13 12ZM21.7071 16.2929C21.3166 15.9024 20.6834 15.9024 20.2929 16.2929L17 19.585L15.7071 18.2929L15.6129 18.2097C15.2206 17.9047 14.6534 17.9324 14.2929 18.2929C13.9024 18.6834 13.9024 19.3166 14.2929 19.7071L16.2929 21.7071L16.3871 21.7903C16.7794 22.0953 17.3466 22.0676 17.7071 21.7071L21.7071 17.7071L21.7903 17.6129C22.0953 17.2206 22.0676 16.6534 21.7071 16.2929Z" fill="#36495A"/>
</svg>
