<svg width="18" height="18" viewBox="0 0 18 18" fill="none" xmlns="http://www.w3.org/2000/svg">
<path fill-rule="evenodd" clip-rule="evenodd" d="M15 0H13H5H3C1.34315 0 0 1.34315 0 3V5V9V13V15C0 16.6569 1.34315 18 3 18H5H13H15C16.6569 18 18 16.6569 18 15V13V9V5V3C18 1.34315 16.6569 0 15 0ZM16 12V10H14V12H16ZM14 14H16V15C16 15.5523 15.5523 16 15 16H14V14ZM12 13V10H6V13V16H12V13ZM16 3V4H14V2H15C15.5523 2 16 2.44772 16 3ZM16 8V6H14V8H16ZM12 2V5V8H6V5V2H12ZM4 8V6H2V8H4ZM4 10V12H2V10H4ZM2 15V14H4V16H3C2.44772 16 2 15.5523 2 15ZM2 4V3C2 2.44772 2.44772 2 3 2H4V4H2Z" fill="#36495A"/>
</svg>
