<svg width="23" height="23" viewBox="0 0 23 23" fill="none" xmlns="http://www.w3.org/2000/svg">
<mask id="path-1-inside-1_19754_150601" fill="white">
<path d="M19.8034 9.26134C19.8034 14.8189 12.8473 21.7126 11.6689 22.8405C11.5727 22.9327 11.4305 22.931 11.3368 22.8362C10.1734 21.6593 3.19727 14.3878 3.19727 9.26134C3.19727 4.67567 6.91469 0.958252 11.5004 0.958252C16.086 0.958252 19.8034 4.67567 19.8034 9.26134Z"/>
</mask>
<path d="M11.6689 22.8405L13.0519 24.2853L11.6689 22.8405ZM11.3368 22.8362L9.91436 24.2422L11.3368 22.8362ZM17.8034 9.26134C17.8034 11.3442 16.4296 14 14.5682 16.5254C12.7792 18.9524 10.8378 20.8676 10.286 21.3957L13.0519 24.2853C13.6785 23.6855 15.8043 21.5899 17.788 18.8987C19.6992 16.3059 21.8034 12.7361 21.8034 9.26134H17.8034ZM12.7592 21.4303C12.2084 20.873 10.2535 18.8432 8.44991 16.3558C7.54812 15.1121 6.71469 13.7955 6.11339 12.5244C5.50105 11.2299 5.19727 10.1233 5.19727 9.26134H1.19727C1.19727 10.9626 1.7655 12.6873 2.49755 14.2348C3.24063 15.8057 4.22396 17.3418 5.21162 18.7039C7.18695 21.4281 9.30181 23.6225 9.91436 24.2422L12.7592 21.4303ZM5.19727 9.26134C5.19727 5.78024 8.01925 2.95825 11.5004 2.95825V-1.04175C5.81012 -1.04175 1.19727 3.5711 1.19727 9.26134H5.19727ZM11.5004 2.95825C14.9815 2.95825 17.8034 5.78024 17.8034 9.26134H21.8034C21.8034 3.5711 17.1906 -1.04175 11.5004 -1.04175V2.95825ZM10.286 21.3957C10.9753 20.736 12.0819 20.7451 12.7592 21.4303L9.91436 24.2422C10.779 25.1169 12.1701 25.1294 13.0519 24.2853L10.286 21.3957Z" fill="black" mask="url(#path-1-inside-1_19754_150601)"/>
<path d="M13.4167 5.75C13.9459 5.75 14.375 6.17906 14.375 6.70833C14.375 7.1998 14.005 7.60486 13.5284 7.66022L13.4167 7.66667H11.0208C10.7562 7.66667 10.5417 7.8812 10.5417 8.14583C10.5417 8.38107 10.7112 8.57671 10.9347 8.61728L11.0208 8.625H11.9792C13.3023 8.625 14.375 9.69765 14.375 11.0208C14.375 12.2911 13.3864 13.3305 12.1367 13.4116L11.9792 13.4167H9.58333C9.05406 13.4167 8.625 12.9876 8.625 12.4583C8.625 11.9669 8.99496 11.5618 9.47157 11.5064L9.58333 11.5H11.9792C12.2438 11.5 12.4583 11.2855 12.4583 11.0208C12.4583 10.7856 12.2888 10.59 12.0653 10.5494L11.9792 10.5417H11.0208C9.69765 10.5417 8.625 9.46902 8.625 8.14583C8.625 6.87558 9.61356 5.83621 10.8633 5.7551L11.0208 5.75H13.4167Z" fill="black"/>
<path fill-rule="evenodd" clip-rule="evenodd" d="M12.4522 5.63832C12.3969 5.1617 11.9918 4.79175 11.5003 4.79175C10.9711 4.79175 10.542 5.22081 10.542 5.75008V6.70841L10.5484 6.82018C10.6038 7.29679 11.0089 7.66675 11.5003 7.66675C12.0296 7.66675 12.4587 7.23769 12.4587 6.70841V5.75008L12.4522 5.63832ZM12.4522 12.3467C12.3969 11.87 11.9918 11.5001 11.5003 11.5001C10.9711 11.5001 10.542 11.9291 10.542 12.4584V13.4167L10.5484 13.5285C10.6038 14.0051 11.0089 14.3751 11.5003 14.3751C12.0296 14.3751 12.4587 13.946 12.4587 13.4167V12.4584L12.4522 12.3467Z" fill="black"/>
</svg>
