<svg width="20" height="21" viewBox="0 0 20 21" fill="none" xmlns="http://www.w3.org/2000/svg">
<path fill-rule="evenodd" clip-rule="evenodd" d="M9.11081 0.542416L0.610814 17.0594C0.355735 17.5551 0.555186 18.1636 1.05417 18.4121C3.78967 19.7745 6.85953 20.5 9.99998 20.5C13.1014 20.5045 16.1632 19.7902 18.9438 18.4131C19.4441 18.1653 19.6446 17.5559 19.3891 17.0594L10.8891 0.542416C10.517 -0.180805 9.483 -0.180805 9.11081 0.542416ZM16.2426 15.3167L17.132 17.045L16.7082 17.2213C14.5782 18.0677 12.3024 18.5033 10.0014 18.5L9.50245 18.4933C7.34365 18.4347 5.23225 17.9969 3.27493 17.2164L2.86598 17.047L3.826 15.1816C5.83297 16.0529 8.00134 16.5031 10.1964 16.5C12.2712 16.5028 14.3254 16.0996 16.2426 15.3167ZM15.3235 13.5305L9.99998 3.185L4.74347 13.3989C6.46468 14.1269 8.31837 14.5027 10.1963 14.5C11.9542 14.5023 13.6935 14.1723 15.3235 13.5305ZM11 8C11.5128 8 11.9355 8.38604 11.9933 8.88338L12 9.01C12 9.56228 11.5523 10.01 11 10.01C10.4871 10.01 10.0645 9.62396 10.0067 9.12662L9.99998 9C9.99998 8.44771 10.4477 8 11 8ZM9.99325 11.8734C9.93549 11.376 9.51282 10.99 8.99998 10.99C8.4477 10.99 7.99998 11.4377 7.99998 11.99L8.00671 12.1166C8.06447 12.614 8.48714 13 8.99998 13C9.55227 13 9.99998 12.5523 9.99998 12L9.99325 11.8734Z" fill="#36495A"/>
</svg>
