<svg width="24" height="24" viewBox="0 0 24 24" fill="none" xmlns="http://www.w3.org/2000/svg">
    <path fill-rule="evenodd" clip-rule="evenodd"
        d="M17 22.0002V21.9992C18.65 21.9992 20 20.6492 20 18.9992V8V7.99916C20 7.98752 19.9998 7.9759 19.9994 7.9643C19.9954 7.84953 19.9726 7.74018 19.9338 7.63911C19.8837 7.50652 19.807 7.38621 19.71 7.28916L14.71 2.28916C14.52 2.09916 14.26 1.98916 14 1.99916V2L13.9813 2.00016H7C5.34 2.00016 4 3.34016 4 5.00016V19.0002C4 20.6502 5.34 22.0002 7 22.0002H17ZM13 4.00016H7C6.44 4.00016 6 4.44016 6 5.00016V19.0002C6 19.5502 6.44 20.0002 7 20.0002H17C17.55 20.0002 18 19.5502 18 19.0002V9H15C13.89 9 13 8.1 13 7V4.00016ZM15 5.41016V7H16.5898L15 5.41016ZM13 19H12C11.44 19 11 18.55 11 18V15C10.44 15 10 14.55 10 14C10 13.44 10.44 13 11 13H12C12.55 13 13 13.44 13 14V17C13.55 17 14 17.44 14 18C14 18.55 13.55 19 13 19ZM11 11C11 11.55 11.44 12 12 12C12.55 12 13 11.55 13 11C13 10.44 12.55 10 12 10C11.44 10 11 10.44 11 11Z"
        fill="#F25041" />
</svg>
