<svg width="96" height="96" viewBox="0 0 96 96" fill="none" xmlns="http://www.w3.org/2000/svg">
<path fill-rule="evenodd" clip-rule="evenodd" d="M48 12C67.5272 12 83.4232 27.5473 83.9846 46.9386L84 48V60V68C84 73.4486 80.3686 78.0491 75.3941 79.5133C72.6858 87.1235 61.2411 92 48 92C45.7909 92 44 90.2091 44 88C44 85.7909 45.7909 84 48 84C56.5925 84 63.6559 81.5061 66.5669 78.7025C62.6698 76.7202 60 72.6719 60 68V60C60 53.3726 65.3726 48 72 48C73.4025 48 74.7489 48.2406 76 48.6828V48C76 32.536 63.464 20 48 20C32.8582 20 20.5236 32.0191 20.0162 47.0374L20 48V48.6828C21.2511 48.2406 22.5975 48 24 48C30.6274 48 36 53.3726 36 60V68C36 74.6274 30.6274 80 24 80C17.3726 80 12 74.6274 12 68V60V48C12 28.1177 28.1177 12 48 12ZM72 72C74.2091 72 76 70.2091 76 68V60C76 57.7909 74.2091 56 72 56C69.7909 56 68 57.7909 68 60V68C68 70.2091 69.7909 72 72 72ZM20 68V60C20 57.7909 21.7909 56 24 56C26.2091 56 28 57.7909 28 60V68C28 70.2091 26.2091 72 24 72C21.7909 72 20 70.2091 20 68Z" fill="#36495A"/>
</svg>
