<svg width="24" height="25" viewBox="0 0 24 25" fill="none" xmlns="http://www.w3.org/2000/svg">
<path fill-rule="evenodd" clip-rule="evenodd" d="M11.2929 2.41985C11.6534 2.05936 12.2207 2.03163 12.613 2.33666L12.7072 2.41985L21.7072 11.4198C22.3097 12.0224 21.9277 13.0341 21.1137 13.121L21.0001 13.127H20.0001V19.127C20.0001 20.7246 18.7511 22.0306 17.1763 22.1219L17.0001 22.127H7.00005C5.40237 22.127 4.09639 20.878 4.00514 19.3032L4.00005 19.127V13.127H3.00005C2.14788 13.127 1.70262 12.1414 2.21683 11.5044L2.29294 11.4198L11.2929 2.41985ZM18.5603 11.2286C18.2285 11.3913 18.0001 11.7325 18.0001 12.127V19.127L17.9933 19.2436C17.9356 19.7409 17.5129 20.127 17.0001 20.127H7.00005L6.88343 20.1202C6.38609 20.0625 6.00005 19.6398 6.00005 19.127V12.127L5.99332 12.0103C5.95333 11.666 5.73845 11.3751 5.43983 11.2286C5.41091 11.2144 5.38121 11.2016 5.35081 11.1902L12.0001 4.54195L18.6486 11.1905C18.6184 11.2018 18.589 11.2145 18.5603 11.2286L18.5603 11.2286ZM14.0001 11.127H10.0001C9.44777 11.127 9.00005 11.5747 9.00005 12.127V16.127C9.00005 16.6792 9.44777 17.127 10.0001 17.127H14.0001C14.5523 17.127 15.0001 16.6792 15.0001 16.127V12.127C15.0001 11.5747 14.5523 11.127 14.0001 11.127ZM13.0001 13.127V15.127H11.0001V13.127H13.0001Z" fill="#1F3B73"/>
</svg>
