<svg width="64" height="64" viewBox="0 0 64 64" fill="none" xmlns="http://www.w3.org/2000/svg">
<path fill-rule="evenodd" clip-rule="evenodd" d="M30.1301 6.10527C31.0914 5.14398 32.6041 5.07003 33.6502 5.88343L33.9014 6.10527L57.9014 30.1053C59.5083 31.7121 58.4895 34.41 56.3188 34.6416L56.0158 34.6576C54.5449 34.6576 53.3525 35.8499 53.3525 37.3208V50.6649C53.3525 54.9254 50.0221 58.408 45.8226 58.6513L45.3525 58.6649H18.6859C14.4254 58.6649 10.9428 55.3344 10.6994 51.135L10.6859 50.6649V37.3277C10.6859 35.853 9.49042 34.6576 8.01576 34.6576C5.74331 34.6576 4.55594 32.0295 5.92716 30.3308L6.13014 30.1053L30.1301 6.10527ZM48.0158 31.9909C48.0158 32.0367 48.0169 32.0822 48.0192 32.1275V50.6649L48.0013 50.9759C47.8472 52.3021 46.7201 53.3316 45.3525 53.3316H18.6859L18.3749 53.3136C17.0486 53.1596 16.0192 52.0325 16.0192 50.6649V31.9982L16.0013 31.6872C15.9675 31.3965 15.8869 31.1199 15.7673 30.8654C15.5097 30.3129 15.0684 29.8633 14.5218 29.5953C14.4076 29.5474 14.3784 29.3989 14.466 29.3113L29.1873 14.5922C30.7495 13.0303 33.282 13.0304 34.844 14.5924L49.5646 29.3131C49.6515 29.4 49.6229 29.5473 49.5097 29.5953C48.6249 30.0292 48.0158 30.9389 48.0158 31.9909ZM37.3418 29.331H26.6752C25.2024 29.331 24.0085 30.5249 24.0085 31.9976V42.6643C24.0085 44.137 25.2024 45.331 26.6752 45.331H37.3418C38.8146 45.331 40.0085 44.137 40.0085 42.6643V31.9976C40.0085 30.5249 38.8146 29.331 37.3418 29.331ZM32.0173 34.657C33.4901 34.657 34.684 35.8509 34.684 37.3236C34.684 38.7964 33.4901 39.9903 32.0173 39.9903C30.5445 39.9903 29.3506 38.7964 29.3506 37.3236C29.3506 35.8509 30.5445 34.657 32.0173 34.657Z" fill="#1F3B73"/>
</svg>
