<svg width="15" height="19" viewBox="0 0 15 19" fill="none" xmlns="http://www.w3.org/2000/svg">
<path fill-rule="evenodd" clip-rule="evenodd" d="M10.4348 0C12.1019 0 13.4647 1.30322 13.5599 2.9465L13.5652 3.13043V8.34783V16.6957C14.1415 16.6957 14.6087 17.1628 14.6087 17.7391C14.6087 18.2743 14.2059 18.7153 13.6869 18.7756L13.5652 18.7826L12.5217 18.7826H2.08696L1.04348 18.7826C0.467181 18.7826 0 18.3154 0 17.7391C0 17.204 0.402825 16.7629 0.921787 16.7027L1.04348 16.6957L1.04348 8.34827C1.04348 8.34812 1.04348 8.34797 1.04348 8.34783C1.04348 8.34768 1.04348 8.34753 1.04348 8.34738L1.04348 3.13043C1.04348 1.46329 2.3467 0.100528 3.98998 0.00531411L4.17391 0H10.4348ZM3.13043 9.3913V16.6957H11.4783V9.3913H3.13043ZM11.4783 7.30435H3.13043V3.13043L3.13745 3.00874C3.19773 2.48978 3.63878 2.08696 4.17391 2.08696H10.4348L10.5565 2.09398C11.0754 2.15425 11.4783 2.5953 11.4783 3.13043V7.30435Z" fill="#1F3B73"/>
</svg>
