<svg width="26" height="24" viewBox="0 0 26 24" fill="none" xmlns="http://www.w3.org/2000/svg">
<path d="M24.5682 13.31L23.0082 14.2231C23.1616 13.4435 23.2616 12.6428 23.2616 11.8421C23.2616 5.31003 18.2216 0 12.0214 0C5.82125 0 0.78125 5.30991 0.78125 11.8421C0.78125 18.3743 5.82125 23.6842 12.0214 23.6842V21.0503C7.20144 21.0503 3.2815 16.9204 3.2815 11.8424C3.2815 6.76427 7.20144 2.6344 12.0214 2.6344C16.8414 2.6344 20.7613 6.76427 20.7613 11.8424C20.7613 12.6009 20.668 13.3525 20.4946 14.0759L19.2613 11.744L17.0813 13.0223L20.1813 18.8941L25.7812 15.6141L24.5682 13.31Z" fill="#F25041"/>
</svg>
