<svg width="32" height="32" viewBox="0 0 32 32" fill="none" xmlns="http://www.w3.org/2000/svg">
<circle cx="16" cy="16" r="16" fill="#F25041"/>
<path fill-rule="evenodd" clip-rule="evenodd" d="M12.9933 7.88338C12.9355 7.38604 12.5129 7 12 7C11.4477 7 11 7.44772 11 8V14L11.0067 14.1166C11.0645 14.614 11.4872 15 12 15C12.5523 15 13 14.5523 13 14V8L12.9933 7.88338ZM20.9933 7.88338C20.9355 7.38604 20.5129 7 20 7C19.4477 7 19 7.44772 19 8V14L19.0067 14.1166C19.0645 14.614 19.4872 15 20 15C20.5523 15 21 14.5523 21 14V8L20.9933 7.88338ZM16 7C16.5129 7 16.9355 7.38604 16.9933 7.88338L17 8V11C17 11.5523 16.5523 12 16 12C15.4872 12 15.0645 11.614 15.0067 11.1166L15 11V8C15 7.44772 15.4477 7 16 7ZM13.833 17.097L11.3356 17.5136L11.219 17.5399C10.504 17.7448 10.2465 18.6607 10.7929 19.2071L12.439 20.854L12.0101 23.8586L12.0003 23.9662C11.9712 24.7095 12.7585 25.2388 13.4472 24.8944L16 23.618L18.5528 24.8944L18.6518 24.9377C19.3478 25.2004 20.0989 24.6208 19.99 23.8586L19.56 20.854L21.2071 19.2071L21.2868 19.1179C21.7495 18.5356 21.4266 17.6406 20.6644 17.5136L18.166 17.097L16.8944 14.5528C16.5259 13.8157 15.4741 13.8157 15.1056 14.5528L13.833 17.097ZM16 17.236L16.6056 18.4472L16.6651 18.5504C16.8172 18.7812 17.0595 18.9404 17.3356 18.9864L18.418 19.166L17.7929 19.7929L17.715 19.8805C17.5465 20.094 17.4711 20.3688 17.5101 20.6414L17.74 22.252L16.4472 21.6056L16.3238 21.5539C16.072 21.4677 15.7941 21.4849 15.5528 21.6056L14.259 22.252L14.49 20.6414L14.4997 20.5246C14.5064 20.2527 14.4019 19.9876 14.2071 19.7929L13.581 19.166L14.6644 18.9864C14.98 18.9338 15.2514 18.7334 15.3944 18.4472L16 17.236Z" fill="white"/>
</svg>
