<svg width="24" height="24" viewBox="0 0 24 24" fill="none" xmlns="http://www.w3.org/2000/svg">
<path fill-rule="evenodd" clip-rule="evenodd" d="M15 3C16.0544 3 16.9182 3.81588 16.9945 4.85074L17 5C17 5.51284 17.386 5.93551 17.8834 5.99327L18 6H19C20.5977 6 21.9037 7.24892 21.9949 8.82373L22 9V18C22 19.5977 20.7511 20.9037 19.1763 20.9949L19 21H5C3.40232 21 2.09634 19.7511 2.00509 18.1763L2 18V9C2 7.40232 3.24892 6.09634 4.82373 6.00509L5 6H6C6.55228 6 7 5.55228 7 5C7 3.94564 7.81588 3.08183 8.85074 3.00549L9 3H15ZM15 5H9L8.99491 5.17627C8.90704 6.69275 7.69275 7.90704 6.17627 7.99491L6 8H5C4.48716 8 4.06449 8.38604 4.00673 8.88338L4 9V18C4 18.5128 4.38604 18.9355 4.88338 18.9933L5 19H19C19.5128 19 19.9355 18.614 19.9933 18.1166L20 18V9C20 8.48716 19.614 8.06449 19.1166 8.00673L19 8H18C16.3431 8 15 6.65685 15 5ZM12 9C9.79086 9 8 10.7909 8 13C8 15.2091 9.79086 17 12 17C14.2091 17 16 15.2091 16 13C16 10.7909 14.2091 9 12 9ZM12 11C13.1046 11 14 11.8954 14 13C14 14.1046 13.1046 15 12 15C10.8954 15 10 14.1046 10 13C10 11.8954 10.8954 11 12 11Z" fill="#212C37"/>
</svg>
