<svg width="32" height="32" viewBox="0 0 32 32" fill="none" xmlns="http://www.w3.org/2000/svg">
<circle cx="16" cy="16" r="16" fill="#F25041"/>
<path fill-rule="evenodd" clip-rule="evenodd" d="M23 9H9C7.34315 9 6 10.3431 6 12V20C6 21.6569 7.34315 23 9 23H23C24.6569 23 26 21.6569 26 20V12C26 10.3431 24.6569 9 23 9ZM9 11H23C23.5523 11 24 11.4477 24 12V20C24 20.5523 23.5523 21 23 21H9C8.44772 21 8 20.5523 8 20V12C8 11.4477 8.44772 11 9 11ZM16 12C13.7909 12 12 13.7909 12 16C12 18.2091 13.7909 20 16 20C18.2091 20 20 18.2091 20 16C20 13.7909 18.2091 12 16 12ZM16 14C17.1046 14 18 14.8954 18 16C18 17.1046 17.1046 18 16 18C14.8954 18 14 17.1046 14 16C14 14.8954 14.8954 14 16 14ZM22.01 15C22.5623 15 23.01 15.4477 23.01 16C23.01 16.5128 22.624 16.9355 22.1266 16.9933L22 17C21.4477 17 21 16.5523 21 16C21 15.4872 21.386 15.0645 21.8834 15.0067L22.01 15ZM11.01 16C11.01 15.4477 10.5623 15 10.01 15L9.88338 15.0067C9.38604 15.0645 9 15.4872 9 16C9 16.5523 9.44772 17 10 17L10.1266 16.9933C10.624 16.9355 11.01 16.5128 11.01 16Z" fill="white"/>
</svg>
