<svg width="32" height="32" viewBox="0 0 32 32" fill="none" xmlns="http://www.w3.org/2000/svg">
<circle cx="16" cy="16" r="16" fill="#F25041"/>
<path fill-rule="evenodd" clip-rule="evenodd" d="M16 6C10.4772 6 6 10.4772 6 16C6 21.5228 10.4772 26 16 26C21.5228 26 26 21.5228 26 16C26 10.4772 21.5228 6 16 6ZM15 8.06189C11.0537 8.55399 8 11.9204 8 16C8 20.4183 11.5817 24 16 24C20.0796 24 23.446 20.9463 23.9381 17H16C15.4872 17 15.0645 16.614 15.0067 16.1166L15 16V8.06189ZM23.9381 15H17V8.06189C20.6187 8.51314 23.4869 11.3813 23.9381 15Z" fill="white"/>
</svg>
