<svg width="26" height="26" viewBox="0 0 26 26" fill="none" xmlns="http://www.w3.org/2000/svg">
<path fill-rule="evenodd" clip-rule="evenodd" d="M14.0754 3.12375C14.0128 2.58496 13.5549 2.16675 12.9993 2.16675C12.401 2.16675 11.916 2.65178 11.916 3.25009V6.50009L11.9233 6.62643C11.9859 7.16521 12.4438 7.58342 12.9993 7.58342C13.5977 7.58342 14.0827 7.09839 14.0827 6.50009V3.25009L14.0754 3.12375ZM7.58268 13.0001C7.58268 12.4018 7.09766 11.9167 6.49935 11.9167H3.24935L3.12301 11.924C2.58422 11.9866 2.16602 12.4445 2.16602 13.0001C2.16602 13.5984 2.65104 14.0834 3.24935 14.0834H6.49935L6.62569 14.0761C7.16447 14.0135 7.58268 13.5557 7.58268 13.0001ZM5.29998 5.30075C5.69051 4.91022 6.30501 4.88018 6.72999 5.21062L6.83205 5.30075L9.21538 7.68408C9.63845 8.10715 9.63845 8.79308 9.21538 9.21614C8.82486 9.60667 8.21036 9.63671 7.78537 9.30626L7.68332 9.21614L5.29998 6.83281C4.87691 6.40974 4.87691 5.72381 5.29998 5.30075ZM20.6987 5.30075C20.2756 4.87768 19.5897 4.87768 19.1667 5.30075L16.7833 7.68408L16.6932 7.78614C16.3628 8.21112 16.3928 8.82562 16.7833 9.21614C17.2064 9.63921 17.8923 9.63921 18.3154 9.21614L20.6987 6.83281L20.7888 6.73075C21.1193 6.30577 21.0892 5.69127 20.6987 5.30075ZM7.68332 16.784C8.10638 16.361 8.79231 16.361 9.21538 16.784C9.60591 17.1746 9.63595 17.7891 9.3055 18.2141L9.21538 18.3161L6.83205 20.6994C6.40898 21.1225 5.72305 21.1225 5.29998 20.6994C4.90946 20.3089 4.87942 19.6944 5.20986 19.2694L5.29998 19.1674L7.68332 16.784ZM12.9753 11.9167H13.0234L13.1436 11.9262L13.2198 11.9393L13.3419 11.9724L23.0919 15.2224C23.9639 15.513 24.0867 16.6696 23.3507 17.152L23.2338 17.2191L19.2231 19.2239L17.2183 23.2346C16.8072 24.0567 15.6449 24.0147 15.2715 23.2179L15.2216 23.0927L11.9626 13.3121L11.9386 13.2205L11.9202 13.098L11.916 13.0241V12.9761L11.9254 12.8559L11.9386 12.7797L11.9831 12.6246L12.0304 12.5156L12.0892 12.4124L12.1591 12.316L12.2396 12.2275L12.3301 12.1478L12.4302 12.0781L12.5392 12.0192L12.6239 11.9839L12.7376 11.9487L12.8551 11.9262L12.9015 11.921L12.9753 11.9167ZM14.7121 14.7128L16.4498 19.9258L17.4471 17.9323C17.5309 17.7645 17.6565 17.6222 17.8107 17.5183L17.9315 17.4478L19.9251 16.4505L14.7121 14.7128Z" fill="#1F3B73"/>
</svg>
