<svg width="24" height="24" viewBox="0 0 24 24" fill="none" xmlns="http://www.w3.org/2000/svg">
<path fill-rule="evenodd" clip-rule="evenodd" d="M18.1763 16.9949C19.7511 16.9037 21 15.5977 21 14L21 6L20.9949 5.82373C20.9037 4.24892 19.5977 3 18 3L10 3L9.82373 3.00509C8.24892 3.09634 7 4.40232 7 6L7 7L6 7C4.34315 7 3 8.34315 3 10L3 18C3 19.6569 4.34314 21 6 21L14 21C15.6569 21 17 19.6569 17 18L17 17L18 17L18.1763 16.9949ZM17 15L18 15C18.5128 15 18.9355 14.614 18.9933 14.1166L19 14L19 6C19 5.48716 18.614 5.06449 18.1166 5.00673L18 5L10 5C9.48716 5 9.06449 5.38604 9.00673 5.88338L9 6L9 7L14 7C15.6569 7 17 8.34315 17 10L17 15ZM8 9L6 9C5.44771 9 5 9.44771 5 10L5 18C5 18.5523 5.44771 19 6 19L14 19C14.5523 19 15 18.5523 15 18L15 16L15 10C15 9.44772 14.5523 9 14 9L8 9Z" fill="#1F3B73"/>
</svg>
