<svg width="32" height="32" viewBox="0 0 32 32" fill="none" xmlns="http://www.w3.org/2000/svg">
<circle cx="16" cy="16" r="16" fill="#F25041"/>
<path fill-rule="evenodd" clip-rule="evenodd" d="M6 16C6 10.4772 10.4772 6 16 6C21.5228 6 26 10.4772 26 16C26 21.5228 21.5228 26 16 26C10.4772 26 6 21.5228 6 16ZM24 16C24 11.5817 20.4183 8 16 8C11.5817 8 8 11.5817 8 16C8 20.4183 11.5817 24 16 24C20.4183 24 24 20.4183 24 16ZM17.1611 11.0003C18.1949 11.0325 19.1452 11.5966 19.6664 12.5006C19.9422 12.979 19.7779 13.5905 19.2994 13.8664C18.8551 14.1225 18.2962 13.9991 17.9977 13.5971L17.9336 13.4994C17.7696 13.2148 17.4779 13.0313 17.1321 13.0032L17 13H16H15C14.4477 13 14 13.4477 14 14C14 14.5128 14.386 14.9355 14.8834 14.9933L15 15H17C18.6569 15 20 16.3431 20 18C20 19.5977 18.7511 20.9037 17.1763 20.9949L17 21V22C17 22.5523 16.5523 23 16 23C15.4872 23 15.0645 22.614 15.0067 22.1166L15 22V21.0004C13.9046 21.025 12.8817 20.4502 12.3336 19.4994C12.0578 19.021 12.2221 18.4095 12.7006 18.1336C13.1449 17.8775 13.7038 18.0009 14.0023 18.4029L14.0664 18.5006C14.2304 18.7852 14.5221 18.9687 14.8679 18.9968L15 19H16H17C17.5523 19 18 18.5523 18 18C18 17.4872 17.614 17.0645 17.1166 17.0067L17 17H15C13.3431 17 12 15.6569 12 14C12 12.4023 13.2489 11.0963 14.8237 11.0051L15 11V10C15 9.44772 15.4477 9 16 9C16.5128 9 16.9355 9.38604 16.9933 9.88338L17 10V11.0003L17.1611 11.0003Z" fill="white"/>
</svg>
