<svg width="24" height="25" viewBox="0 0 24 25" fill="none" xmlns="http://www.w3.org/2000/svg">
<path fill-rule="evenodd" clip-rule="evenodd" d="M11 12.0809L8.70936 9.79023C8.30936 9.39023 7.67936 9.39023 7.28936 9.79023C6.89036 10.1802 6.89036 10.8102 7.29036 11.2102L11.2567 15.1766C11.2674 15.188 11.2783 15.1991 11.2895 15.2101C11.3847 15.3052 11.5022 15.3808 11.6317 15.431C11.7135 15.4631 11.8009 15.4848 11.8923 15.4944C11.928 15.4983 11.9641 15.5002 12.0004 15.5002L12.0001 15.5C12.3255 15.5 12.6158 15.3425 12.7987 15.1L16.6995 11.1991C17.0895 10.7991 17.0895 10.1691 16.6995 9.77911C16.2995 9.38011 15.6695 9.38011 15.2795 9.78011L13 12.0596V4.5C13 3.94 12.55 3.5 12 3.5C11.44 3.5 11 3.94 11 4.5V12.0809ZM3 20.5C3 21.05 3.44 21.5 4 21.5H20C20.55 21.5 21 21.05 21 20.5C21 19.94 20.55 19.5 20 19.5H4C3.44 19.5 3 19.94 3 20.5Z" fill="#212C37"/>
</svg>
