<svg width="24" height="24" viewBox="0 0 24 24" fill="none" xmlns="http://www.w3.org/2000/svg">
<path fill-rule="evenodd" clip-rule="evenodd" d="M11 7H4.25195C4.11388 7 4.00195 7.11193 4.00195 7.25V20.75C4.00195 20.8881 4.11388 21 4.25195 21H17.752C17.89 21 18.002 20.8881 18.002 20.75V12.6059H16.002V19H6.00195V9H11V7Z" fill="black"/>
<path d="M19.3105 3.80959C19.4082 3.71196 19.5665 3.71196 19.6641 3.80959L20.7248 4.87022C20.8224 4.96785 20.8224 5.12614 20.7248 5.22378L11.7826 14.1664C11.7357 14.2132 11.6721 14.2396 11.6058 14.2396L10.2951 14.2396L10.2951 12.9289C10.2951 12.8626 10.3214 12.7991 10.3683 12.7522L19.3105 3.80959Z" fill="black"/>
</svg>
