<svg width="32" height="32" viewBox="0 0 32 32" fill="none" xmlns="http://www.w3.org/2000/svg">
<circle cx="16" cy="16" r="16" fill="#F25041"/>
<path fill-rule="evenodd" clip-rule="evenodd" d="M15.2929 5.29289C15.6534 4.93241 16.2207 4.90468 16.613 5.2097L16.7072 5.29289L25.7072 14.2929C26.3097 14.8955 25.9277 15.9072 25.1137 15.994L25.0001 16H24.0001V22C24.0001 23.5977 22.7511 24.9037 21.1763 24.9949L21.0001 25H11.0001C9.40237 25 8.09639 23.7511 8.00514 22.1763L8.00005 22V16H7.00005C6.14788 16 5.70262 15.0145 6.21683 14.3775L6.29294 14.2929L15.2929 5.29289ZM22.5603 14.1016C22.2285 14.2644 22.0001 14.6055 22.0001 15V22L21.9933 22.1166C21.9356 22.614 21.5129 23 21.0001 23H11.0001L10.8834 22.9933C10.3861 22.9355 10.0001 22.5128 10.0001 22V15L9.99332 14.8834C9.95333 14.5391 9.73845 14.2481 9.43983 14.1016C9.41091 14.0875 9.38121 14.0746 9.35081 14.0632L16.0001 7.415L22.6486 14.0635C22.6184 14.0748 22.589 14.0876 22.5603 14.1016L22.5603 14.1016ZM18.0001 14H14.0001C13.4478 14 13.0001 14.4477 13.0001 15V19C13.0001 19.5523 13.4478 20 14.0001 20H18.0001C18.5523 20 19.0001 19.5523 19.0001 19V15C19.0001 14.4477 18.5523 14 18.0001 14ZM17.0001 16V18H15.0001V16H17.0001Z" fill="white"/>
</svg>
