<svg width="25" height="24" viewBox="0 0 25 24" fill="none" xmlns="http://www.w3.org/2000/svg">
<path d="M11.7189 1.5402V0.752187C11.7189 0.322286 12.091 0 12.5001 0C12.9466 0 13.2813 0.322432 13.2813 0.752187V1.5402C16.4061 1.71933 19.2334 3.00892 21.3543 5.05064C23.5863 7.23567 25 10.2449 25 13.5402C25 13.9701 24.6651 14.2924 24.2188 14.2924C24.0328 14.2924 23.8468 14.2208 23.6979 14.1133C21.7263 12.358 18.899 12.2507 16.9642 14.0775C16.6665 14.3641 16.183 14.3641 15.8854 14.1133C15.4017 13.6476 14.8438 13.3253 14.2857 13.1103C13.9508 12.967 13.6161 12.8596 13.2813 12.8237V21.0626C13.2813 22.7104 11.9048 24 10.2307 24C8.55661 24 7.18012 22.7104 7.18012 21.0626C7.18012 20.6685 7.51498 20.3104 7.9613 20.3104C8.40777 20.3104 8.74247 20.6687 8.74247 21.0626C8.74247 21.8506 9.41202 22.4955 10.2306 22.4955C11.049 22.4955 11.7187 21.8508 11.7187 21.0626V12.8237C11.3838 12.8596 11.0491 12.967 10.7143 13.1103C10.1562 13.3253 9.6355 13.6477 9.11461 14.1133C8.81696 14.3641 8.33344 14.3641 8.03581 14.0775C6.0642 12.2507 3.27425 12.358 1.30206 14.1133C0.781175 14.579 0 14.1491 0 13.5044C0 10.2089 1.41369 7.19969 3.68293 5.05082C5.76617 3.00906 8.59395 1.71935 11.7189 1.5402Z" fill="#F25041"/>
</svg>
