<svg width="24" height="24" viewBox="0 0 24 24" fill="none" xmlns="http://www.w3.org/2000/svg">
<path fill-rule="evenodd" clip-rule="evenodd" d="M20.892 2.00546L20.9979 1.99951L21.1276 2.00778L21.218 2.02358L21.3402 2.05923L21.4476 2.10516L21.5469 2.16194L21.6376 2.22861L21.7193 2.30419L21.7717 2.36273L21.8539 2.47829L21.9058 2.57487C21.9524 2.67416 21.9828 2.78107 21.9949 2.89127L22.0008 2.99715C22.001 3.07176 21.9928 3.14555 21.9768 3.21723L21.9411 3.33943L15.4096 21.4164C15.1572 21.9674 14.6067 22.3207 14.0006 22.3207C13.445 22.3207 12.9361 22.0238 12.672 21.5735L12.6061 21.447L9.25456 14.7448L2.58396 11.4089C2.07888 11.1774 1.73994 10.6956 1.68696 10.15L1.67969 9.99978C1.67969 9.44031 1.9807 8.92821 2.52091 8.62939L2.66091 8.55923L20.6773 2.05343L20.7831 2.02358L20.892 2.00546ZM19.3366 4.66278L4.36856 10.0648L10.4478 13.1054C10.6026 13.1828 10.734 13.2987 10.8299 13.441L10.895 13.5526L13.9326 19.6278L19.3366 4.66278Z" fill="#212C37"/>
</svg>
