<svg width="25" height="24" viewBox="0 0 25 24" fill="none" xmlns="http://www.w3.org/2000/svg">
<path d="M23.0641 12.0299L25 9.77438L14.4358 0.715095C13.8972 0.25373 13.2111 0 12.5017 0C11.7923 0 11.1065 0.25375 10.5676 0.715095L8.04102 2.87418V1.01628H5.06831V5.42675L0 9.77445L1.93594 12.0299L2.0956 11.8926V20.3388H0.609407V23.3115H24.3906V20.3388H22.9044V11.8926L23.0641 12.0299ZM11.0135 20.338V15.8791H13.9863L13.986 20.338H11.0135ZM19.9315 20.338H16.9588V12.9064H8.04082V20.338H5.06811V9.34322L12.4997 2.97431L19.9314 9.34322L19.9315 20.338Z" fill="#F25041"/>
</svg>
