<svg width="24" height="25" viewBox="0 0 24 25" fill="none" xmlns="http://www.w3.org/2000/svg">
<path fill-rule="evenodd" clip-rule="evenodd" d="M13.4351 6.53593C10.8371 6.05756 8.45513 7.58609 7.97989 9.71978C7.87803 10.1771 7.47212 10.5025 7.00335 10.5025C4.91317 10.5025 3.30168 12.1054 3.30168 14.0025C3.30168 15.8883 4.92183 17.5025 7.01335 17.5025C7.56589 17.5025 8.01381 17.9502 8.01381 18.5025C8.01381 19.0548 7.56589 19.5025 7.01335 19.5025C3.90254 19.5025 1.30078 17.0767 1.30078 14.0025C1.30078 11.1749 3.47986 8.90743 6.24198 8.55122C7.30586 5.65086 10.5748 3.97623 13.7963 4.56878C16.8638 5.12593 19.1299 7.61088 19.115 10.5039C21.5431 10.5654 23.5008 12.5474 23.5008 15.0025C23.5008 17.4848 21.4822 19.5025 18.9988 19.5025H17.9983C17.4458 19.5025 16.9979 19.0548 16.9979 18.5025C16.9979 17.9502 17.4458 17.5025 17.9983 17.5025H18.9988C20.3771 17.5025 21.4999 16.3802 21.4999 15.0025C21.4999 13.6166 20.379 12.5025 18.9988 12.5025H17.9983C17.6942 12.5025 17.4065 12.3642 17.2167 12.1267C17.0269 11.8892 16.9554 11.5783 17.0225 11.2818C17.4959 9.19057 16.0081 7.00276 13.4377 6.5364L13.4351 6.53593Z" fill="#212C37"/>
<path fill-rule="evenodd" clip-rule="evenodd" d="M11.3082 11.7954C11.6989 11.4048 12.3323 11.4048 12.723 11.7954L15.7244 14.7954C16.1151 15.1859 16.1151 15.8191 15.7244 16.2096C15.3337 16.6001 14.7002 16.6001 14.3095 16.2096L12.0156 13.9167L9.72168 16.2096C9.33098 16.6001 8.69753 16.6001 8.30683 16.2096C7.91613 15.8191 7.91613 15.1859 8.30683 14.7954L11.3082 11.7954Z" fill="#212C37"/>
<path fill-rule="evenodd" clip-rule="evenodd" d="M12.0156 11.5025C12.5681 11.5025 13.0161 11.9502 13.0161 12.5025V21.5025C13.0161 22.0548 12.5681 22.5025 12.0156 22.5025C11.4631 22.5025 11.0152 22.0548 11.0152 21.5025V12.5025C11.0152 11.9502 11.4631 11.5025 12.0156 11.5025Z" fill="#212C37"/>
</svg>
