<svg width="14" height="21" viewBox="0 0 14 21" fill="none" xmlns="http://www.w3.org/2000/svg">
<path fill-rule="evenodd" clip-rule="evenodd" d="M11.163 1.37748C8.68992 -0.452104 5.31223 -0.452701 2.83854 1.376C0.364853 3.20471 -0.625035 6.43409 0.398931 9.33492C0.419556 9.39335 0.445056 9.44866 0.474815 9.50056L6.11065 20.4575C6.48275 21.1809 7.51697 21.1809 7.88913 20.4575L13.5385 9.47635C13.5486 9.45739 13.5582 9.43799 13.5672 9.41817C13.5845 9.3804 13.5992 9.3423 13.6114 9.30401C14.6172 6.41214 13.6266 3.20007 11.163 1.37748ZM11.8992 8.00379C12.2841 6.12001 11.5522 4.15325 9.97348 2.98531C8.20702 1.67846 5.79438 1.67804 4.02746 2.98426C2.44882 4.15129 1.7162 6.11694 2.09961 8.00032L11.8992 8.00379ZM2.98091 10.0001L11.0179 10.0021L6.99991 17.8131L2.98091 10.0001Z" fill="#36495A"/>
</svg>
