<svg width="24" height="24" viewBox="0 0 24 24" fill="none" xmlns="http://www.w3.org/2000/svg">
<path fill-rule="evenodd" clip-rule="evenodd" d="M3 22C2.48716 22 2.06449 21.614 2.00673 21.1166L2 21V14C2 13.779 2.07316 13.5655 2.20608 13.392L2.29289 13.2929L7.29289 8.29289C7.47314 8.11265 7.70506 8.0156 7.94097 8.00173L8 8.001V4C8 2.94564 8.81588 2.08183 9.85074 2.00549L10 2H20C21.0544 2 21.9182 2.81588 21.9945 3.85074L22 4V21C22 21.5128 21.614 21.9355 21.1166 21.9933L21 22H3ZM20 4H10V9.585L13.7071 13.2929C13.8634 13.4492 13.9626 13.6519 13.9913 13.8686L14 14V20H20V4ZM4 14.414L8 10.415L12 14.415V20H9V17L8.99327 16.8834C8.93551 16.386 8.51284 16 8 16C7.44772 16 7 16.4477 7 17V20H4V14.414ZM13 6C13.5128 6 13.9355 6.38604 13.9933 6.88338L14 7.01C14 7.56228 13.5523 8.01 13 8.01C12.4872 8.01 12.0645 7.62396 12.0067 7.12662L12 7C12 6.44772 12.4477 6 13 6ZM17.9933 6.88338C17.9355 6.38604 17.5128 6 17 6C16.4477 6 16 6.44772 16 7L16.0067 7.12662C16.0645 7.62396 16.4872 8.01 17 8.01C17.5523 8.01 18 7.56228 18 7.01L17.9933 6.88338ZM17 10C17.5128 10 17.9355 10.386 17.9933 10.8834L18 11.01C18 11.5623 17.5523 12.01 17 12.01C16.4872 12.01 16.0645 11.624 16.0067 11.1266L16 11C16 10.4477 16.4477 10 17 10ZM17.9933 14.8834C17.9355 14.386 17.5128 14 17 14C16.4477 14 16 14.4477 16 15L16.0067 15.1266C16.0645 15.624 16.4872 16.01 17 16.01C17.5523 16.01 18 15.5623 18 15.01L17.9933 14.8834Z" fill="#212C37"/>
</svg>
