<svg width="24" height="24" viewBox="0 0 24 24" fill="none" xmlns="http://www.w3.org/2000/svg">
<path fill-rule="evenodd" clip-rule="evenodd" d="M2 12C2 6.47715 6.47715 2 12 2C17.5228 2 22 6.47715 22 12C22 17.5228 17.5228 22 12 22C6.47715 22 2 17.5228 2 12ZM20 12C20 7.58172 16.4183 4 12 4C7.58172 4 4 7.58172 4 12C4 16.4183 7.58172 20 12 20C16.4183 20 20 16.4183 20 12ZM12.01 7C12.5623 7 13.01 7.44772 13.01 8C13.01 8.51284 12.624 8.93551 12.1266 8.99327L12 9C11.4477 9 11 8.55228 11 8C11 7.48716 11.386 7.06449 11.8834 7.00673L12.01 7ZM12.9933 11.8834C12.9355 11.386 12.5128 11 12 11H11L10.8834 11.0067C10.386 11.0645 10 11.4872 10 12C10 12.5523 10.4477 13 11 13V16L11.0067 16.1166C11.0645 16.614 11.4872 17 12 17H13L13.1166 16.9933C13.614 16.9355 14 16.5128 14 16L13.9933 15.8834C13.94 15.4243 13.5757 15.06 13.1166 15.0067L13 15V12L12.9933 11.8834Z" fill="black"/>
</svg>
