<svg width="24" height="24" viewBox="0 0 24 24" fill="none" xmlns="http://www.w3.org/2000/svg">
    <path fill-rule="evenodd" clip-rule="evenodd"
        d="M11.8848 2.00667L11.9988 2L12.1168 2.00667L12.1755 2.01524L12.237 2.02821L12.3482 2.06198C12.4233 2.08979 12.496 2.12702 12.5644 2.17377L12.6688 2.25601L12.9235 2.47401C14.9406 4.14968 17.4907 5.04971 20.1128 5.01139L20.4551 5.00105C20.9153 4.98 21.3303 5.27602 21.4602 5.71798C22.4531 9.0953 22.0338 12.7309 20.2983 15.7936C18.5628 18.8562 15.6594 21.0841 12.2519 21.968C12.0873 22.0107 11.9144 22.0107 11.7498 21.968C8.3423 21.0841 5.43893 18.8562 3.70341 15.7936C1.9679 12.7309 1.54862 9.0953 2.54143 5.71798C2.67135 5.27602 3.08638 4.98 3.54655 5.00105C6.28822 5.12651 8.97337 4.22253 11.0782 2.47401L11.3408 2.2486L11.4373 2.17377C11.5057 2.12702 11.5783 2.08979 11.6535 2.06198L11.7658 2.02801C11.8066 2.01809 11.8456 2.01122 11.8848 2.00667ZM12.0008 4.29501L11.8244 4.43131C9.71242 6.00745 7.17004 6.90476 4.53664 7.00345L4.27284 7.00901L4.2093 7.31905C3.74353 9.75509 4.11399 12.2858 5.27259 14.4943L5.44346 14.8075C6.85758 17.303 9.18805 19.1436 11.9333 19.9443L12.0008 19.963L12.0683 19.9443C14.708 19.1744 16.9642 17.4431 18.391 15.0925L18.5582 14.8075C19.8505 12.527 20.2803 9.8711 19.7924 7.31905L19.7278 7.00901L19.465 7.00345C16.8316 6.90476 14.2893 6.00745 12.1773 4.43131L12.0008 4.29501ZM15.7079 9.2929C15.3174 8.90238 14.6843 8.90238 14.2937 9.2929L11.0008 12.585L9.70795 11.2929L9.61374 11.2097C9.22145 10.9047 8.65422 10.9324 8.29373 11.2929C7.90321 11.6834 7.90321 12.3166 8.29373 12.7071L10.2937 14.7071L10.3879 14.7903C10.7802 15.0953 11.3475 15.0676 11.7079 14.7071L15.7079 10.7071L15.7911 10.6129C16.0962 10.2206 16.0684 9.65339 15.7079 9.2929Z"
        fill="#DA483B" />
</svg>
