<svg width="20" height="20" viewBox="0 0 20 20" fill="none" xmlns="http://www.w3.org/2000/svg">
<path fill-rule="evenodd" clip-rule="evenodd" d="M17.7075 2.29278C15.9362 0.521546 13.0645 0.521547 11.2933 2.29278L10.7933 2.79278L10.7101 2.88699C10.4051 3.27928 10.4328 3.84651 10.7933 4.207C11.1838 4.59752 11.817 4.59752 12.2075 4.207L12.7075 3.707L12.84 3.58346C13.8361 2.71868 15.3461 2.75986 16.2933 3.707C17.2835 4.69718 17.2835 6.3026 16.2933 7.29278L12.2933 11.2928L12.1452 11.4324C11.6869 11.8313 11.1051 12.0504 10.5004 12.0504C9.82849 12.0504 9.18489 11.78 8.71466 11.3C8.32814 10.9055 7.69501 10.8991 7.30052 11.2856C6.90603 11.6721 6.89957 12.3053 7.28609 12.6997C8.13249 13.5636 9.29098 14.0504 10.5004 14.0504C11.7098 14.0504 12.8683 13.5636 13.7147 12.6997L17.7075 8.707L17.8683 8.53779C19.477 6.75735 19.4234 4.00867 17.7075 2.29278ZM12.7147 7.30003C11.8683 6.43618 10.7098 5.94938 9.50038 5.94938C8.29098 5.94938 7.13249 6.43618 6.28609 7.30003L2.29327 11.2928L2.13241 11.462C0.523764 13.2424 0.577386 15.9911 2.29327 17.707C4.06451 19.4782 6.93625 19.4782 8.70748 17.707L9.20748 17.207L9.29067 17.1128C9.5957 16.7205 9.56797 16.1533 9.20748 15.7928C8.81696 15.4023 8.1838 15.4023 7.79327 15.7928L7.29327 16.2928L7.16073 16.4163C6.16465 17.2811 4.65462 17.2399 3.70748 16.2928C2.7173 15.3026 2.7173 13.6972 3.70748 12.707L7.70748 8.707L7.85555 8.5674C8.31389 8.16844 8.89568 7.94938 9.50038 7.94938C10.1723 7.94938 10.8159 8.21982 11.2861 8.69974C11.6726 9.09423 12.3057 9.10069 12.7002 8.71418C13.0947 8.32766 13.1012 7.69452 12.7147 7.30003Z" fill="#1F3B73"/>
</svg>
