<svg width="24" height="24" viewBox="0 0 24 24" fill="none" xmlns="http://www.w3.org/2000/svg">
<path fill-rule="evenodd" clip-rule="evenodd" d="M2.29289 2.29289C2.65338 1.93241 3.22061 1.90468 3.6129 2.2097L3.70711 2.29289L21.7071 20.2929C22.0976 20.6834 22.0976 21.3166 21.7071 21.7071C21.3466 22.0676 20.7794 22.0953 20.3871 21.7903L20.2929 21.7071L18.5484 19.9627C18.4444 19.977 18.3398 19.9872 18.2349 19.9933L18 20H6C3.8578 20 2.10892 18.316 2.0049 16.1996L2 16V11V8C2 6.76166 2.56745 5.63413 3.47926 4.89347L2.29289 3.70711C1.90237 3.31658 1.90237 2.68342 2.29289 2.29289ZM4 16V12H10.5858L12.5858 14H11L10.8834 14.0067C10.386 14.0645 10 14.4872 10 15C10 15.5523 10.4477 16 11 16H13L13.1166 15.9933C13.4942 15.9494 13.8077 15.6952 13.9367 15.3509L16.5858 18H6L5.85074 17.9945C4.81588 17.9182 4 17.0544 4 16ZM4 10H8.58579L4.90882 6.32304C4.39947 6.65492 4.05807 7.20927 4.00673 7.83527L4 8V10ZM18 4C20.1422 4 21.8911 5.68397 21.9951 7.80036L22 8V11V15.999C22.0004 16.3919 21.9429 16.7828 21.8293 17.159C21.6697 17.6877 21.1117 17.9869 20.583 17.8273C20.0921 17.6791 19.799 17.1874 19.8874 16.6946L19.9147 16.581C19.9525 16.4556 19.9779 16.327 19.9906 16.1966L20 16V12H15C14.4477 12 14 11.5523 14 11C14 10.4872 14.386 10.0645 14.8834 10.0067L15 10H20V8C20 6.94564 19.1841 6.08183 18.1493 6.00549L18 6H9C8.44772 6 8 5.55228 8 5C8 4.48716 8.38604 4.06449 8.88338 4.00673L9 4H18ZM7.01 14C7.56228 14 8.01 14.4477 8.01 15C8.01 15.5128 7.62396 15.9355 7.12662 15.9933L7 16C6.44772 16 6 15.5523 6 15C6 14.4872 6.38604 14.0645 6.88338 14.0067L7.01 14Z" fill="#36495A"/>
</svg>
