<svg width="24" height="24" viewBox="0 0 24 24" fill="none" xmlns="http://www.w3.org/2000/svg">
<path fill-rule="evenodd" clip-rule="evenodd" d="M5 19H12C12.55 19 13 18.55 13 18C13 17.44 12.55 17 12 17H5C4.44 17 4 16.55 4 16V7.86342L11.4496 12.8298C11.6096 12.9298 11.7996 12.9898 11.9996 12.9998L11.9696 12.9798C12.1596 12.9698 12.3496 12.9098 12.5196 12.8098L20 7.82289V13.5C20 14.05 20.44 14.5 21 14.5C21.55 14.5 22 14.05 22 13.5V6.25328C22.084 6.00968 22.0723 5.73925 21.9586 5.5006C21.72 4.07931 20.4808 3 19 3H5C3.34 3 2 4.34 2 6V16C2 17.65 3.34 19 5 19ZM19.8842 5.52987C19.716 5.2124 19.3821 5 19 5H5C4.60711 5 4.27329 5.21658 4.10904 5.53923L11.9896 10.7898L19.8842 5.52987ZM18.5661 19H15C14.44 19 14 18.55 14 18C14 17.44 14.44 17 15 17H18.5861L17.2805 15.7V15.699C16.8805 15.299 16.8805 14.669 17.2805 14.279C17.6705 13.879 18.3005 13.879 18.7005 14.279L21.7005 17.279C21.7966 17.3727 21.869 17.4821 21.9178 17.5997C21.9706 17.7218 22 17.857 22 18C22 18.3528 21.8148 18.6645 21.5369 18.8426L18.6905 21.689C18.5005 21.869 18.2405 21.979 17.9805 21.979L18.0005 22C17.7305 22 17.4705 21.89 17.2905 21.71C16.8905 21.32 16.8905 20.68 17.2805 20.29V20.28L18.5661 19Z" fill="#1F3B73"/>
</svg>
