<svg width="24" height="24" viewBox="0 0 24 24" fill="none" xmlns="http://www.w3.org/2000/svg">
<path fill-rule="evenodd" clip-rule="evenodd" d="M8.99329 3.88338C8.93553 3.38604 8.51286 3 8.00002 3C7.44774 3 7.00002 3.44772 7.00002 4V10L7.00675 10.1166C7.06451 10.614 7.48719 11 8.00002 11C8.55231 11 9.00002 10.5523 9.00002 10V4L8.99329 3.88338ZM16.9933 3.88338C16.9355 3.38604 16.5129 3 16 3C15.4477 3 15 3.44772 15 4V10L15.0067 10.1166C15.0645 10.614 15.4872 11 16 11C16.5523 11 17 10.5523 17 10V4L16.9933 3.88338ZM12 3C12.5129 3 12.9355 3.38604 12.9933 3.88338L13 4V7C13 7.55228 12.5523 8 12 8C11.4872 8 11.0645 7.61396 11.0067 7.11662L11 7V4C11 3.44772 11.4477 3 12 3ZM9.83302 13.097L7.33562 13.5136L7.21898 13.5399C6.50399 13.7448 6.24653 14.6607 6.79291 15.2071L8.43902 16.854L8.01007 19.8586L8.00027 19.9662C7.9712 20.7095 8.75853 21.2388 9.44724 20.8944L12 19.618L14.5528 20.8944L14.6518 20.9377C15.3478 21.2004 16.0989 20.6208 15.99 19.8586L15.56 16.854L17.2071 15.2071L17.2868 15.1179C17.7495 14.5356 17.4266 13.6406 16.6644 13.5136L14.166 13.097L12.8944 10.5528C12.5259 9.81574 11.4741 9.81574 11.1056 10.5528L9.83302 13.097ZM12 13.236L12.6056 14.4472L12.6651 14.5504C12.8172 14.7812 13.0595 14.9404 13.3356 14.9864L14.418 15.166L13.7929 15.7929L13.715 15.8805C13.5465 16.094 13.4711 16.3688 13.5101 16.6414L13.74 18.252L12.4472 17.6056L12.3238 17.5539C12.072 17.4677 11.7941 17.4849 11.5528 17.6056L10.259 18.252L10.49 16.6414L10.4997 16.5246C10.5064 16.2527 10.4019 15.9876 10.2071 15.7929L9.58102 15.166L10.6644 14.9864C10.98 14.9338 11.2514 14.7334 11.3944 14.4472L12 13.236Z" fill="black"/>
</svg>
