<svg width="26" height="26" viewBox="0 0 26 26" fill="none" xmlns="http://www.w3.org/2000/svg">
<path fill-rule="evenodd" clip-rule="evenodd" d="M20.5833 4.33333H5.41666C3.62841 4.33333 2.17748 5.7776 2.16672 7.56332C2.16652 7.57473 2.1665 7.58613 2.16666 7.59752V18.4167C2.16666 20.2116 3.62173 21.6667 5.41666 21.6667H20.5833C22.3783 21.6667 23.8333 20.2116 23.8333 18.4167V7.59853C23.8335 7.58639 23.8335 7.57424 23.8333 7.56209C23.8218 5.77694 22.3712 4.33333 20.5833 4.33333ZM21.5452 7.08444C21.3647 6.73718 21.0017 6.49999 20.5833 6.49999H5.41667C4.99827 6.49999 4.63527 6.73718 4.45479 7.08444L13 12.7801L21.5452 7.08444ZM4.33333 9.60755V18.4167C4.33333 19.015 4.81836 19.5 5.41667 19.5H20.5833C21.1816 19.5 21.6667 19.015 21.6667 18.4167V9.60755L13.6009 14.9847C13.2775 15.2004 12.867 15.2243 12.5241 15.0566L12.3991 14.9847L4.33333 9.60755Z" fill="#8BBBDA"/>
</svg>
