<svg width="24" height="24" viewBox="0 0 24 24" fill="none" xmlns="http://www.w3.org/2000/svg">
<path fill-rule="evenodd" clip-rule="evenodd" d="M15.8316 5.4446C15.6477 5.16909 15.3367 5 15 5H13L12.8834 5.00673C12.386 5.06449 12 5.48716 12 6L12.0067 6.11662C12.0645 6.61396 12.4872 7 13 7H14.381L15.3813 9H6L5.88338 9.00673C5.38604 9.06449 5 9.48716 5 10L5.00673 10.1166C5.06449 10.614 5.48716 11 6 11H9.084L7.33411 12.7513C6.67722 12.2785 5.87113 12 5 12C2.79086 12 1 13.7909 1 16C1 18.2091 2.79086 20 5 20C7.20914 20 9 18.2091 9 16C9 15.654 8.95606 15.3182 8.87347 14.998L12.5 15L12.6314 14.9913C12.8481 14.9626 13.0508 14.8634 13.2071 14.7071L16.5592 11.355L17.1169 12.4701C15.8571 13.1436 15 14.4717 15 16C15 18.2091 16.7909 20 19 20C21.2091 20 23 18.2091 23 16C23 13.8306 21.273 12.0646 19.1189 12.0017L15.8944 5.55279L15.8316 5.4446ZM12.084 13H9.914L11.914 11H14.084L12.084 13ZM5 14C6.10457 14 7 14.8954 7 16C7 17.1046 6.10457 18 5 18C3.89543 18 3 17.1046 3 16C3 14.8954 3.89543 14 5 14ZM19 14C20.1046 14 21 14.8954 21 16C21 17.1046 20.1046 18 19 18C17.8954 18 17 17.1046 17 16C17 14.8954 17.8954 14 19 14Z" fill="#1F3B73"/>
</svg>
