<svg width="24" height="24" viewBox="0 0 24 24" fill="none" xmlns="http://www.w3.org/2000/svg">
<path fill-rule="evenodd" clip-rule="evenodd" d="M17 2H7C5.34315 2 4 3.34315 4 5V19C4 20.6569 5.34315 22 7 22H17C18.6569 22 20 20.6569 20 19V5C20 3.34315 18.6569 2 17 2ZM7 4H17C17.5523 4 18 4.44772 18 5V19C18 19.5523 17.5523 20 17 20H7C6.44772 20 6 19.5523 6 19V5C6 4.44772 6.44772 4 7 4ZM16 7C16 6.44772 15.5523 6 15 6H9L8.88338 6.00673C8.38604 6.06449 8 6.48716 8 7C8 7.55228 8.44772 8 9 8H15L15.1166 7.99327C15.614 7.93551 16 7.51284 16 7ZM15 10C15.5523 10 16 10.4477 16 11C16 11.5128 15.614 11.9355 15.1166 11.9933L15 12H9C8.44772 12 8 11.5523 8 11C8 10.4872 8.38604 10.0645 8.88338 10.0067L9 10H15ZM14 15C14 14.4477 13.5523 14 13 14H9L8.88338 14.0067C8.38604 14.0645 8 14.4872 8 15C8 15.5523 8.44772 16 9 16H13L13.1166 15.9933C13.614 15.9355 14 15.5128 14 15Z" fill="#36495A"/>
</svg>
