<svg width="24" height="28" viewBox="0 0 24 28" fill="none" xmlns="http://www.w3.org/2000/svg">
<g filter="url(#filter0_d_12064_181937)">
<path fill-rule="evenodd" clip-rule="evenodd" d="M11 0H13C14.3062 0 15.4175 0.834808 15.8293 2H17C18.5977 2 19.9037 3.24892 19.9949 4.82373L20 5V17C20 18.5977 18.7511 19.9037 17.1763 19.9949L17 20H7C5.40232 20 4.09634 18.7511 4.00509 17.1763L4 17V5C4 3.40232 5.24892 2.09634 6.82373 2.00509L7 2H8.17071C8.58254 0.834808 9.69378 0 11 0ZM17 4H15.8293C15.4175 5.16519 14.3062 6 13 6H11C9.69378 6 8.58254 5.16519 8.17071 4H7C6.48716 4 6.06449 4.38604 6.00673 4.88338L6 5V17C6 17.5128 6.38604 17.9355 6.88338 17.9933L7 18H17C17.5128 18 17.9355 17.614 17.9933 17.1166L18 17V5C18 4.48716 17.614 4.06449 17.1166 4.00673L17 4ZM11 4C10.4477 4 10 3.55228 10 3C10 2.44772 10.4477 2 11 2H13C13.5523 2 14 2.44772 14 3C14 3.55228 13.5523 4 13 4H11ZM15.7071 9.29289C15.3166 8.90237 14.6834 8.90237 14.2929 9.29289L11 12.585L9.70711 11.2929L9.6129 11.2097C9.22061 10.9047 8.65338 10.9324 8.29289 11.2929C7.90237 11.6834 7.90237 12.3166 8.29289 12.7071L10.2929 14.7071L10.3871 14.7903C10.7794 15.0953 11.3466 15.0676 11.7071 14.7071L15.7071 10.7071L15.7903 10.6129C16.0953 10.2206 16.0676 9.65338 15.7071 9.29289Z" fill="#36495A"/>
</g>
<defs>
<filter id="filter0_d_12064_181937" x="0" y="0" width="24" height="28" filterUnits="userSpaceOnUse" color-interpolation-filters="sRGB">
<feFlood flood-opacity="0" result="BackgroundImageFix"/>
<feColorMatrix in="SourceAlpha" type="matrix" values="0 0 0 0 0 0 0 0 0 0 0 0 0 0 0 0 0 0 127 0" result="hardAlpha"/>
<feOffset dy="4"/>
<feGaussianBlur stdDeviation="2"/>
<feComposite in2="hardAlpha" operator="out"/>
<feColorMatrix type="matrix" values="0 0 0 0 0 0 0 0 0 0 0 0 0 0 0 0 0 0 0.25 0"/>
<feBlend mode="normal" in2="BackgroundImageFix" result="effect1_dropShadow_12064_181937"/>
<feBlend mode="normal" in="SourceGraphic" in2="effect1_dropShadow_12064_181937" result="shape"/>
</filter>
</defs>
</svg>
