<svg width="24" height="24" viewBox="0 0 24 24" fill="none" xmlns="http://www.w3.org/2000/svg">
<path fill-rule="evenodd" clip-rule="evenodd" d="M19 4C20.5977 4 21.9037 5.24892 21.9949 6.82373L22 7V17.001C21.9989 18.0717 21.4273 19.0607 20.5 19.596C20.0217 19.8722 19.4101 19.7083 19.134 19.23C18.8776 18.7859 19.0005 18.2268 19.4024 17.9281L19.5 17.864C19.7747 17.7054 19.9558 17.4273 19.9929 17.1175L20 17V7C20 6.48716 19.614 6.06449 19.1166 6.00673L19 6H5C4.49141 6 4.0651 6.38998 4.00679 6.88422L4 7V17C4 17.5128 4.38604 17.9355 4.88338 17.9933L5 18H10C10.5523 18 11 18.4477 11 19C11 19.5128 10.614 19.9355 10.1166 19.9933L10 20H5C3.40232 20 2.09634 18.7511 2.00509 17.1763L2 17V7C2 5.40673 3.25317 4.09665 4.82418 4.00511L5 4H19ZM15 11C12.7909 11 11 12.7909 11 15C11 16.0144 11.3776 16.9407 12 17.6458V22L12.0057 22.1101C12.0849 22.8648 12.9707 23.272 13.6 22.8L15 21.75L16.4 22.8L16.4915 22.8615C17.1428 23.2509 18 22.7866 18 22V17.6458C18.6224 16.9407 19 16.0144 19 15C19 12.7909 17.2091 11 15 11ZM16 18.874C15.6804 18.9562 15.3453 19 15 19C14.6547 19 14.3196 18.9562 14 18.874V20L14.4 19.7C14.72 19.46 15.148 19.436 15.4896 19.628L15.6 19.7L16 20V18.874ZM15 13C16.1046 13 17 13.8954 17 15C17 16.1046 16.1046 17 15 17C13.8954 17 13 16.1046 13 15C13 13.8954 13.8954 13 15 13ZM19 9C19 8.44772 18.5523 8 18 8H6L5.88338 8.00673C5.38604 8.06449 5 8.48716 5 9C5 9.55228 5.44772 10 6 10H18L18.1166 9.99327C18.614 9.93551 19 9.51284 19 9ZM9 11C9.55228 11 10 11.4477 10 12C10 12.5128 9.61396 12.9355 9.11662 12.9933L9 13H6C5.44772 13 5 12.5523 5 12C5 11.4872 5.38604 11.0645 5.88338 11.0067L6 11H9ZM9 15C9 14.4477 8.55228 14 8 14H6L5.88338 14.0067C5.38604 14.0645 5 14.4872 5 15C5 15.5523 5.44772 16 6 16H8L8.11662 15.9933C8.61396 15.9355 9 15.5128 9 15Z" fill="#1F3B73"/>
</svg>
