<svg fill="none" height="25" viewBox="0 0 24 25" width="24" xmlns="http://www.w3.org/2000/svg">
    <path clip-rule="evenodd"
        d="M9 3.49463C9.36801 3.49463 9.70266 3.69628 9.87662 4.01338L9.92848 4.12324L11.9285 9.12324C12.0956 9.54098 11.9621 10.0133 11.6145 10.2836L11.5145 10.3521L9.841 11.3556L9.90374 11.4583C10.7005 12.7235 11.7712 13.7941 13.0363 14.5909L13.138 14.6526L14.1425 12.9801C14.374 12.5943 14.8308 12.4148 15.2563 12.528L15.3714 12.5662L20.3714 14.5662C20.7131 14.7028 20.9489 15.0143 20.9926 15.3734L21 15.4946V19.4946C21 21.1515 19.6569 22.4946 17.9393 22.4928C9.36247 21.9716 2.52306 15.1322 2 6.49463C2 4.89695 3.24892 3.59097 4.82373 3.49972L5 3.49463H9ZM8.323 5.49463H5C4.44772 5.49463 4 5.94234 3.99816 6.43397C4.45806 14.0018 10.4928 20.0366 18 20.4946C18.5128 20.4946 18.9355 20.1086 18.9933 19.6112L19 19.4946V16.1716L15.419 14.7386L14.3575 16.5091C14.1103 16.9211 13.6096 17.0944 13.167 16.9376L13.0577 16.8915C10.6887 15.7232 8.77146 13.8059 7.60314 11.4369C7.39065 11.0061 7.516 10.4913 7.88754 10.204L7.9855 10.1371L9.755 9.07463L8.323 5.49463Z"
        fill="#36495A" fill-rule="evenodd" />
</svg>
