<svg width="18" height="20" viewBox="0 0 18 20" fill="none" xmlns="http://www.w3.org/2000/svg">
<path fill-rule="evenodd" clip-rule="evenodd" d="M3 0H15C16.6569 0 18 1.34315 18 3V17C18 18.6569 16.6569 20 15 20H3C1.34315 20 0 18.6569 0 17V3C0 1.34315 1.34315 0 3 0ZM15 2H3C2.44772 2 2 2.44772 2 3V17C2 17.5523 2.44772 18 3 18H15C15.5523 18 16 17.5523 16 17V3C16 2.44772 15.5523 2 15 2ZM5 11C5.51284 11 5.93551 11.386 5.99327 11.8834L6 12.01C6 12.5623 5.55228 13.01 5 13.01C4.48716 13.01 4.06449 12.624 4.00673 12.1266L4 12C4 11.4477 4.44772 11 5 11ZM9.99327 11.8834C9.93551 11.386 9.51284 11 9 11C8.44771 11 8 11.4477 8 12L8.00673 12.1266C8.06449 12.624 8.48716 13.01 9 13.01C9.55228 13.01 10 12.5623 10 12.01L9.99327 11.8834ZM13 11C13.5128 11 13.9355 11.386 13.9933 11.8834L14 12.01C14 12.5623 13.5523 13.01 13 13.01C12.4872 13.01 12.0645 12.624 12.0067 12.1266L12 12C12 11.4477 12.4477 11 13 11ZM5.99327 14.8834C5.93551 14.386 5.51284 14 5 14C4.44772 14 4 14.4477 4 15L4.00673 15.1266C4.06449 15.624 4.48716 16.01 5 16.01C5.55228 16.01 6 15.5623 6 15.01L5.99327 14.8834ZM9 14C9.51284 14 9.93551 14.386 9.99327 14.8834L10 15.01C10 15.5623 9.55228 16.01 9 16.01C8.48716 16.01 8.06449 15.624 8.00673 15.1266L8 15C8 14.4477 8.44771 14 9 14ZM13.9933 14.8834C13.9355 14.386 13.5128 14 13 14C12.4477 14 12 14.4477 12 15L12.0067 15.1266C12.0645 15.624 12.4872 16.01 13 16.01C13.5523 16.01 14 15.5623 14 15.01L13.9933 14.8834Z" fill="#1F3B73"/>
</svg>
