<svg width="40" height="40" viewBox="0 0 40 40" fill="none" xmlns="http://www.w3.org/2000/svg">
<path d="M34.319 31.8447L29.072 26.5979L33.196 22.4743L36.001 25.2794L34.319 31.8447ZM33.196 17.5257L29.072 13.4021L34.319 8.15538L36.001 14.721L33.196 17.5257ZM25.2796 3.99902L31.8449 5.68081L26.5981 10.9278L22.4744 6.80416L25.2796 3.99902ZM17.526 6.80428L13.4022 10.9278L8.15549 5.68105L14.7208 3.99902L17.526 6.80428ZM5.68081 8.15489L10.928 13.4022L6.8044 17.5257L3.99878 14.7201L5.68081 8.15489ZM6.8044 22.474L10.928 26.5976L5.68081 31.8447L3.99878 25.2795L6.8044 22.474ZM14.7206 36.001L8.15501 34.319L13.4022 29.0719L17.5259 33.1957L14.7206 36.001ZM24.1237 26.5978L20.0001 30.7215L15.8763 26.5978L20.0001 22.474L24.1237 26.5978ZM26.5979 15.8761L30.7216 19.9999L26.5979 24.1236L22.4741 19.9999L26.5979 15.8761ZM17.5259 19.9999L13.4022 24.1236L9.27861 19.9999L13.4022 15.8764L17.5259 19.9999ZM15.8765 13.4022L20.0002 9.27849L24.1237 13.4021L20.0001 17.5257L15.8765 13.4022ZM22.4741 33.1957L26.5979 29.0722L31.8446 34.319L25.2793 36.0007L22.4741 33.1957ZM36.804 36.8039L40 24.3298L35.6702 20.0001L39.9996 15.67L36.8039 3.19575L24.3297 0L20.0002 4.32996L15.6699 0.000120558L3.19575 3.19611L0 15.6702L4.3302 19.9999L0 24.33L3.19575 36.8041L15.6701 40L20.0001 35.6698L24.3298 39.9998L36.804 36.8039Z" fill="#111212"/>
</svg>
