<svg width="23" height="20" viewBox="0 0 23 20" fill="none" xmlns="http://www.w3.org/2000/svg">
<path fill-rule="evenodd" clip-rule="evenodd" d="M8.00129 0L7.88606 0.00647225C7.28277 0.0748224 6.86798 0.673482 7.03977 1.27472L8.67529 7H6.41629L4.7084 5.29289C4.52086 5.10536 4.26651 5 4.00129 5H1.00129L0.886155 5.00637C0.209274 5.08202 -0.20809 5.81731 0.106863 6.44721L1.88229 10L0.106863 13.5528C-0.225588 14.2177 0.257908 15 1.00129 15H4.00129L4.13273 14.9913C4.34944 14.9626 4.55212 14.8634 4.7084 14.7071L6.41529 13H8.67529L7.03977 18.7253C6.85725 19.3641 7.33691 20 8.00129 20H11.0013L11.1197 19.993C11.4319 19.9558 11.7113 19.7731 11.8695 19.4961L15.5813 13H19.0013C20.6581 13 22.0013 11.6569 22.0013 10L21.9962 9.82373C21.905 8.24892 20.599 7 19.0013 7H15.5823L11.8695 0.503861C11.6915 0.192286 11.3601 0 11.0013 0H8.00129ZM9.32629 2H10.4203L14.133 8.49614C14.3111 8.80771 14.6424 9 15.0013 9H19.0013C19.5536 9 20.0013 9.44771 20.0013 10C20.0013 10.5523 19.5536 11 19.0013 11H15.0013L14.8829 11.007C14.5707 11.0442 14.2913 11.2269 14.133 11.5039L10.4193 18H9.32629L10.9628 12.2747C11.1453 11.6359 10.6657 11 10.0013 11H6.00129L5.86985 11.0087C5.65314 11.0374 5.45046 11.1366 5.29418 11.2929L3.58529 13H2.61929L3.89572 10.4472L3.94743 10.3238C4.03361 10.072 4.01637 9.7941 3.89572 9.55279L2.61929 7H3.58629L5.29418 8.70711C5.48172 8.89464 5.73607 9 6.00129 9H10.0013L10.1165 8.99353C10.7198 8.92518 11.1346 8.32652 10.9628 7.72528L9.32629 2Z" fill="#36495A"/>
</svg>
