<svg width="24" height="24" viewBox="0 0 24 24" fill="none" xmlns="http://www.w3.org/2000/svg">
<path fill-rule="evenodd" clip-rule="evenodd" d="M12.9937 3.88338C12.9359 3.38604 12.5133 3 12.0004 3C11.4481 3 11.0004 3.44772 11.0004 4V12L11.0072 12.1166C11.0649 12.614 11.4876 13 12.0004 13C12.5527 13 13.0004 12.5523 13.0004 12V4L12.9937 3.88338ZM17.6456 5.23595C17.2236 4.87964 16.5927 4.93287 16.2364 5.35484C15.8801 5.77681 15.9333 6.40773 16.3553 6.76405C18.5205 8.59234 19.3131 11.5784 18.3398 14.2398C17.3664 16.9013 14.8343 18.6714 12.0004 18.6714C9.16658 18.6714 6.63446 16.9013 5.6611 14.2398C4.68773 11.5784 5.4804 8.59234 7.6456 6.76405C8.06757 6.40773 8.12079 5.77681 7.76448 5.35484C7.40817 4.93287 6.77724 4.87964 6.35527 5.23595C3.54854 7.60596 2.52101 11.4768 3.78278 14.9268C5.04455 18.3768 8.32692 20.6714 12.0004 20.6714C15.6739 20.6714 18.9563 18.3768 20.2181 14.9268C21.4799 11.4768 20.4523 7.60596 17.6456 5.23595Z" fill="black"/>
</svg>
