<svg width="22" height="22" viewBox="0 0 22 22" fill="none" xmlns="http://www.w3.org/2000/svg">
<path fill-rule="evenodd" clip-rule="evenodd" d="M19.2414 9.95752C18.7237 6.23212 15.7769 3.31398 12.0466 2.83265C9.16955 2.46142 6.37532 3.61061 4.584 5.74869L4.58346 4.58369L4.57729 4.47679C4.52434 4.0209 4.13689 3.66703 3.66679 3.66703C3.16053 3.66703 2.75012 4.07743 2.75012 4.58369V8.25036L2.75629 8.35726C2.80924 8.81316 3.19669 9.16703 3.66679 9.16703H7.33346L7.44036 9.16086C7.89625 9.10791 8.25012 8.72046 8.25012 8.25036L8.24396 8.14346C8.191 7.68756 7.80356 7.33369 7.33346 7.33369L5.67434 7.33418C7.04429 5.40641 9.39054 4.33847 11.812 4.65091C14.7224 5.02645 17.0216 7.30325 17.4255 10.2099C17.4952 10.7113 17.9582 11.0613 18.4596 10.9916C18.9611 10.9219 19.3111 10.459 19.2414 9.95752ZM10.1882 17.3498C7.27779 16.9743 4.97866 14.6975 4.57472 11.7908C4.50503 11.2894 4.04204 10.9394 3.5406 11.0091C3.03916 11.0788 2.68915 11.5418 2.75884 12.0432C3.27656 15.7686 6.22334 18.6867 9.95361 19.1681C12.8311 19.5394 15.6257 18.3898 17.417 16.2511L17.4168 17.417L17.4229 17.5239C17.4759 17.9798 17.8633 18.3337 18.3334 18.3337C18.8397 18.3337 19.2501 17.9233 19.2501 17.417V13.7504L19.2439 13.6435C19.191 13.1876 18.8035 12.8337 18.3334 12.8337H14.6668L14.5599 12.8399C14.104 12.8928 13.7501 13.2803 13.7501 13.7504L13.7563 13.8573C13.8092 14.3132 14.1967 14.667 14.6668 14.667L16.3252 14.6675C14.9552 16.5947 12.6093 17.6622 10.1882 17.3498Z" fill="#1F3B73"/>
</svg>
