<svg width="24" height="24" viewBox="0 0 24 24" fill="none" xmlns="http://www.w3.org/2000/svg">
<path fill-rule="evenodd" clip-rule="evenodd" d="M12.5528 2.10589C13.1827 1.79093 13.918 2.2083 13.9936 2.88518L14 3.00031V6.46513L19.5547 10.1683C19.7981 10.3305 19.9565 10.5899 19.9923 10.8762L20 11.0003V20.0003H21C21.5523 20.0003 22 20.448 22 21.0003C22 21.5131 21.614 21.9358 21.1166 21.9936L21 22.0003H19.002L19 22.0003L18.998 22.0003H13H5H3C2.44772 22.0003 2 21.5526 2 21.0003C2 20.4875 2.38604 20.0648 2.88338 20.007L3 20.0003H4V7.00031C4 6.66363 4.16909 6.35263 4.4446 6.1687L4.55279 6.10589L12.5528 2.10589ZM18 20.0003V11.5353L14 8.86878V20.0003H18ZM12 6.98484C11.9999 6.99455 11.9999 7.00425 12 7.01395V20.0003H6V7.61831L12 4.61831V6.98484ZM9 8.00031C9.51284 8.00031 9.93551 8.38635 9.99327 8.88369L10 9.01031C10 9.5626 9.55228 10.0103 9 10.0103C8.48716 10.0103 8.06449 9.62427 8.00673 9.12694L8 9.00031C8 8.44803 8.44772 8.00031 9 8.00031ZM9.99327 11.8837C9.93551 11.3864 9.51284 11.0003 9 11.0003C8.44772 11.0003 8 11.448 8 12.0003L8.00673 12.1269C8.06449 12.6243 8.48716 13.0103 9 13.0103C9.55228 13.0103 10 12.5626 10 12.0103L9.99327 11.8837ZM9 14.0003C9.51284 14.0003 9.93551 14.3864 9.99327 14.8837L10 15.0103C10 15.5626 9.55228 16.0103 9 16.0103C8.48716 16.0103 8.06449 15.6243 8.00673 15.1269L8 15.0003C8 14.448 8.44772 14.0003 9 14.0003ZM9.99327 17.8837C9.93551 17.3864 9.51284 17.0003 9 17.0003C8.44772 17.0003 8 17.448 8 18.0003L8.00673 18.1269C8.06449 18.6243 8.48716 19.0103 9 19.0103C9.55228 19.0103 10 18.5626 10 18.0103L9.99327 17.8837Z" fill="#1F3B73"/>
</svg>
