<svg width="20" height="20" viewBox="0 0 20 20" fill="none" xmlns="http://www.w3.org/2000/svg">
<path fill-rule="evenodd" clip-rule="evenodd" d="M3.00011 7C3.00011 3.13401 6.13412 0 10.0001 0C13.8661 0 17.0001 3.13401 17.0001 7C17.0001 8.06461 16.7624 9.07372 16.3373 9.97715L19.4638 15.3924C19.8441 16.0512 19.3791 16.8604 18.6454 16.8916L18.5334 16.8903L15.6003 16.7006L14.298 19.3356C13.9609 20.0175 13.0296 20.0795 12.5966 19.4863L12.5356 19.3924L10.0001 15.0008L7.46463 19.3924C7.0843 20.0512 6.15092 20.0531 5.75709 19.4333L5.7022 19.3356L4.39994 16.7006L1.46681 16.8903C0.707727 16.9393 0.188412 16.1637 0.485646 15.4922L0.536427 15.3924L3.66294 9.97715C3.23777 9.07372 3.00011 8.06461 3.00011 7ZM4.91425 11.8098L3.20339 14.7731L4.93617 14.6624C5.29427 14.6393 5.6335 14.8097 5.83013 15.102L5.89694 15.2171L6.66699 16.774L8.37765 13.811C7.03072 13.4914 5.83447 12.7825 4.91425 11.8098ZM11.6223 13.8111C12.9692 13.4915 14.1655 12.7827 15.0857 11.81L16.796 14.7736L15.064 14.6624L14.9309 14.6627C14.5794 14.6868 14.2623 14.8955 14.1033 15.2171L13.3324 16.7745L11.6223 13.8111ZM15.0001 7C15.0001 4.23858 12.7615 2 10.0001 2C7.23868 2 5.00011 4.23858 5.00011 7C5.00011 9.76142 7.23868 12 10.0001 12C12.7615 12 15.0001 9.76142 15.0001 7Z" fill="#36495A"/>
</svg>
