<svg width="24" height="25" viewBox="0 0 24 25" fill="none" xmlns="http://www.w3.org/2000/svg">
<path fill-rule="evenodd" clip-rule="evenodd" d="M16.5805 11.1328L12.2904 6.8458C11.8904 6.4461 11.8904 5.81657 12.2894 5.42685C12.6794 5.02715 13.3094 5.02715 13.7094 5.42586L19.7094 11.4214C19.9603 11.6657 20.0498 12.0176 19.9778 12.3413C19.9264 12.58 19.789 12.7877 19.6 12.9301L13.6995 18.8262C13.5095 19.006 13.2495 19.116 12.9895 19.116L12.9995 19.127C12.7295 19.127 12.4695 19.017 12.2895 18.8372C11.8895 18.4475 11.8895 17.8079 12.2795 17.4182L12.2795 17.4082L16.5596 13.1313L5 13.1313C4.44 13.1313 4 12.6816 4 12.132C4 11.5724 4.44 11.1328 5 11.1328L16.5805 11.1328Z" fill="#F25041"/>
</svg>
