<svg width="44" height="44" viewBox="0 0 44 44" fill="none" xmlns="http://www.w3.org/2000/svg">
    <circle cx="22" cy="22" r="22" fill="#1F3B73"/>
    <path fill-rule="evenodd" clip-rule="evenodd" d="M33.1826 21.7534L33.1867 21.757L33.1896 21.7603C33.2197 21.7905 33.2479 21.8225 33.274 21.8562L33.2745 21.8568L33.2752 21.8577C33.2941 21.8822 33.3119 21.9075 33.3285 21.9337M33.1826 21.7534C33.1591 21.7302 33.1344 21.7081 33.1087 21.6873L33.1058 21.6847L33.1029 21.6827C33.0745 21.6599 33.0447 21.6387 33.0139 21.619L33.0139 21.619L33.0139 21.619C32.9696 21.5908 32.923 21.5659 32.8745 21.5447L15.1727 13.2356L15.0206 13.185C14.4135 13.0104 13.8252 13.1631 13.4204 13.5679L13.3169 13.6819C12.9605 14.1149 12.8571 14.7088 13.0551 15.2417L15.4679 22.482L13.0436 29.7564L12.9997 29.8955C12.865 30.4125 13.0184 30.9955 13.4204 31.3975C13.8589 31.836 14.5128 31.9787 15.0942 31.7627L32.8787 23.4188C32.9259 23.3979 32.9712 23.3736 33.0143 23.3461M27.8802 21.4594L15.3189 15.5605L17.2844 21.4594L27.8802 21.4594ZM17.2843 23.5059L27.8761 23.5059L15.3196 29.3998L17.2843 23.5059Z" fill="white"/>
</svg>
