<svg width="148" height="148" viewBox="0 0 148 148" fill="none" xmlns="http://www.w3.org/2000/svg">
<path fill-rule="evenodd" clip-rule="evenodd" d="M129.452 12.3339L129.485 12.332L129.511 12.3337C129.767 12.3341 130.024 12.3504 130.279 12.3827L130.284 12.383L130.29 12.3842C130.475 12.4079 130.659 12.44 130.842 12.4805C131.552 12.6379 132.239 12.9219 132.868 13.3326L132.87 13.3337L132.872 13.3352C133.057 13.4563 133.237 13.5884 133.411 13.7315L133.429 13.7448L133.447 13.7609C133.589 13.8798 133.728 14.0061 133.861 14.1399C133.879 14.1576 133.897 14.1755 133.914 14.1934L133.933 14.2109L133.958 14.2391C134.054 14.339 134.146 14.4413 134.233 14.5458L134.256 14.5719L134.266 14.586C134.898 15.3534 135.316 16.2377 135.521 17.1598C135.57 17.3807 135.608 17.6048 135.632 17.8312L135.634 17.8545C135.655 18.0528 135.666 18.252 135.667 18.4512L135.669 18.4841C135.67 18.943 135.62 19.3968 135.522 19.8377C135.455 20.1388 135.366 20.4358 135.254 20.7261L95.0236 132.069C93.4665 135.467 90.0718 137.646 86.3342 137.646C82.908 137.646 79.77 135.815 78.1411 133.038L77.7352 132.258L57.0672 90.9279L15.9318 70.3564C12.8172 68.9291 10.727 65.9576 10.4003 62.5934L10.3555 61.667C10.3555 58.2169 12.2117 55.059 15.543 53.2163L16.4064 52.7836L127.249 12.7577C127.547 12.6414 127.851 12.5489 128.16 12.4805L128.16 12.4805L128.16 12.4804C128.375 12.4327 128.592 12.3966 128.811 12.3722L128.832 12.3687L128.855 12.3674C129.053 12.3466 129.252 12.3355 129.452 12.3339ZM105.603 33.6769L26.9368 62.0679L60.4503 78.8299L105.603 33.6769ZM69.1708 87.5513L85.9148 121.04L114.307 42.4154L69.1708 87.5513Z" fill="#1F3B73"/>
</svg>
