<svg width="390" height="844" viewBox="0 0 390 844" fill="none" xmlns="http://www.w3.org/2000/svg">
    <g clip-path="url(#clip0_8381_14756)">
        <rect width="390" height="844" fill="#03213D"/>
        <path d="M32.5391 528.578L29.4844 540H28.1484L25.8828 532.312C25.8151 532.094 25.75 531.875 25.6875 531.656C25.6302 531.432 25.5755 531.221 25.5234 531.023C25.4714 530.82 25.4271 530.643 25.3906 530.492C25.3594 530.336 25.3359 530.219 25.3203 530.141C25.3099 530.219 25.2891 530.333 25.2578 530.484C25.2318 530.635 25.1953 530.81 25.1484 531.008C25.1068 531.206 25.0547 531.417 24.9922 531.641C24.9349 531.865 24.8724 532.091 24.8047 532.32L22.6016 540H21.2656L18.2344 528.578H19.6172L21.4531 535.742C21.5156 535.982 21.5729 536.219 21.625 536.453C21.6823 536.682 21.7318 536.906 21.7734 537.125C21.8203 537.344 21.862 537.557 21.8984 537.766C21.9349 537.974 21.9688 538.177 22 538.375C22.026 538.172 22.0599 537.961 22.1016 537.742C22.1432 537.518 22.1875 537.292 22.2344 537.062C22.2865 536.833 22.3411 536.602 22.3984 536.367C22.4609 536.133 22.526 535.898 22.5938 535.664L24.6484 528.578H26.0156L28.1562 535.719C28.2292 535.964 28.2969 536.206 28.3594 536.445C28.4219 536.685 28.4766 536.919 28.5234 537.148C28.5755 537.372 28.6198 537.589 28.6562 537.797C28.6979 538 28.7344 538.193 28.7656 538.375C28.8021 538.12 28.8464 537.852 28.8984 537.57C28.9505 537.289 29.0104 536.995 29.0781 536.688C29.151 536.38 29.2292 536.062 29.3125 535.734L31.1484 528.578H32.5391ZM37.4453 531.281C38.1745 531.281 38.7995 531.443 39.3203 531.766C39.8411 532.089 40.2396 532.542 40.5156 533.125C40.7917 533.703 40.9297 534.38 40.9297 535.156V535.961H35.0156C35.0312 536.966 35.2812 537.732 35.7656 538.258C36.25 538.784 36.9323 539.047 37.8125 539.047C38.3542 539.047 38.8333 538.997 39.25 538.898C39.6667 538.799 40.099 538.654 40.5469 538.461V539.602C40.1146 539.794 39.6849 539.935 39.2578 540.023C38.8359 540.112 38.3359 540.156 37.7578 540.156C36.9349 540.156 36.2161 539.99 35.6016 539.656C34.9922 539.318 34.5182 538.823 34.1797 538.172C33.8411 537.521 33.6719 536.724 33.6719 535.781C33.6719 534.859 33.8255 534.062 34.1328 533.391C34.4453 532.714 34.8828 532.193 35.4453 531.828C36.013 531.464 36.6797 531.281 37.4453 531.281ZM37.4297 532.344C36.737 532.344 36.1849 532.57 35.7734 533.023C35.362 533.477 35.1172 534.109 35.0391 534.922H39.5703C39.5651 534.411 39.4844 533.964 39.3281 533.578C39.1771 533.188 38.9453 532.885 38.6328 532.672C38.3203 532.453 37.9193 532.344 37.4297 532.344ZM44.1562 528.578L44.2734 528.75C44.1797 529.13 44.0599 529.539 43.9141 529.977C43.7682 530.409 43.6094 530.841 43.4375 531.273C43.2656 531.706 43.0938 532.112 42.9219 532.492H41.9688C42.0469 532.195 42.125 531.878 42.2031 531.539C42.2865 531.201 42.3646 530.857 42.4375 530.508C42.5104 530.159 42.5755 529.82 42.6328 529.492C42.6953 529.164 42.7474 528.859 42.7891 528.578H44.1562ZM47.1562 540H45.8516V527.844H47.1562V540ZM51.2031 540H49.8984V527.844H51.2031V540ZM61.9922 531.281C62.1641 531.281 62.3438 531.292 62.5312 531.312C62.7188 531.328 62.8854 531.352 63.0312 531.383L62.8672 532.586C62.7266 532.549 62.5703 532.521 62.3984 532.5C62.2266 532.479 62.0651 532.469 61.9141 532.469C61.5703 532.469 61.2448 532.539 60.9375 532.68C60.6354 532.815 60.3698 533.013 60.1406 533.273C59.9115 533.529 59.7318 533.839 59.6016 534.203C59.4714 534.562 59.4062 534.964 59.4062 535.406V540H58.1016V531.438H59.1797L59.3203 533.016H59.375C59.5521 532.698 59.7656 532.409 60.0156 532.148C60.2656 531.883 60.5547 531.672 60.8828 531.516C61.2161 531.359 61.5859 531.281 61.9922 531.281ZM67.9453 531.281C68.6745 531.281 69.2995 531.443 69.8203 531.766C70.3411 532.089 70.7396 532.542 71.0156 533.125C71.2917 533.703 71.4297 534.38 71.4297 535.156V535.961H65.5156C65.5312 536.966 65.7812 537.732 66.2656 538.258C66.75 538.784 67.4323 539.047 68.3125 539.047C68.8542 539.047 69.3333 538.997 69.75 538.898C70.1667 538.799 70.599 538.654 71.0469 538.461V539.602C70.6146 539.794 70.1849 539.935 69.7578 540.023C69.3359 540.112 68.8359 540.156 68.2578 540.156C67.4349 540.156 66.7161 539.99 66.1016 539.656C65.4922 539.318 65.0182 538.823 64.6797 538.172C64.3411 537.521 64.1719 536.724 64.1719 535.781C64.1719 534.859 64.3255 534.062 64.6328 533.391C64.9453 532.714 65.3828 532.193 65.9453 531.828C66.513 531.464 67.1797 531.281 67.9453 531.281ZM67.9297 532.344C67.237 532.344 66.6849 532.57 66.2734 533.023C65.862 533.477 65.6172 534.109 65.5391 534.922H70.0703C70.0651 534.411 69.9844 533.964 69.8281 533.578C69.6771 533.188 69.4453 532.885 69.1328 532.672C68.8203 532.453 68.4193 532.344 67.9297 532.344ZM79.1719 537.656C79.1719 538.203 79.0339 538.664 78.7578 539.039C78.487 539.409 78.0964 539.688 77.5859 539.875C77.0807 540.062 76.4766 540.156 75.7734 540.156C75.1745 540.156 74.6562 540.109 74.2188 540.016C73.7812 539.922 73.3984 539.789 73.0703 539.617V538.422C73.4193 538.594 73.8359 538.75 74.3203 538.891C74.8047 539.031 75.2995 539.102 75.8047 539.102C76.5443 539.102 77.0807 538.982 77.4141 538.742C77.7474 538.503 77.9141 538.177 77.9141 537.766C77.9141 537.531 77.8464 537.326 77.7109 537.148C77.5807 536.966 77.3594 536.792 77.0469 536.625C76.7344 536.453 76.3021 536.266 75.75 536.062C75.2031 535.854 74.7292 535.648 74.3281 535.445C73.9323 535.237 73.625 534.984 73.4062 534.688C73.1927 534.391 73.0859 534.005 73.0859 533.531C73.0859 532.807 73.3776 532.253 73.9609 531.867C74.5495 531.477 75.3203 531.281 76.2734 531.281C76.7891 531.281 77.2708 531.333 77.7188 531.438C78.1719 531.536 78.5938 531.672 78.9844 531.844L78.5469 532.883C78.1927 532.732 77.8151 532.604 77.4141 532.5C77.013 532.396 76.6042 532.344 76.1875 532.344C75.5885 532.344 75.1276 532.443 74.8047 532.641C74.487 532.839 74.3281 533.109 74.3281 533.453C74.3281 533.719 74.401 533.938 74.5469 534.109C74.6979 534.281 74.9375 534.443 75.2656 534.594C75.5938 534.745 76.026 534.922 76.5625 535.125C77.099 535.323 77.5625 535.529 77.9531 535.742C78.3438 535.951 78.6432 536.206 78.8516 536.508C79.0651 536.805 79.1719 537.188 79.1719 537.656ZM85.2812 531.281C86.349 531.281 87.2005 531.648 87.8359 532.383C88.4714 533.117 88.7891 534.221 88.7891 535.695C88.7891 536.669 88.6432 537.487 88.3516 538.148C88.0599 538.81 87.6484 539.31 87.1172 539.648C86.5911 539.987 85.9688 540.156 85.25 540.156C84.7969 540.156 84.3984 540.096 84.0547 539.977C83.7109 539.857 83.4167 539.695 83.1719 539.492C82.9271 539.289 82.724 539.068 82.5625 538.828H82.4688C82.4844 539.031 82.5026 539.276 82.5234 539.562C82.5495 539.849 82.5625 540.099 82.5625 540.312V543.828H81.2578V531.438H82.3281L82.5 532.703H82.5625C82.7292 532.443 82.9323 532.206 83.1719 531.992C83.4115 531.773 83.7031 531.602 84.0469 531.477C84.3958 531.346 84.8073 531.281 85.2812 531.281ZM85.0547 532.375C84.4609 532.375 83.9818 532.49 83.6172 532.719C83.2578 532.948 82.9948 533.292 82.8281 533.75C82.6615 534.203 82.5729 534.773 82.5625 535.461V535.711C82.5625 536.435 82.6406 537.047 82.7969 537.547C82.9583 538.047 83.2214 538.427 83.5859 538.688C83.9557 538.948 84.4505 539.078 85.0703 539.078C85.6016 539.078 86.0443 538.935 86.3984 538.648C86.7526 538.362 87.0156 537.964 87.1875 537.453C87.3646 536.938 87.4531 536.346 87.4531 535.68C87.4531 534.669 87.2552 533.867 86.8594 533.273C86.4688 532.674 85.8672 532.375 85.0547 532.375ZM98.4375 535.703C98.4375 536.406 98.3464 537.034 98.1641 537.586C97.9818 538.138 97.7188 538.604 97.375 538.984C97.0312 539.365 96.6146 539.656 96.125 539.859C95.6406 540.057 95.0911 540.156 94.4766 540.156C93.9036 540.156 93.3776 540.057 92.8984 539.859C92.4245 539.656 92.013 539.365 91.6641 538.984C91.3203 538.604 91.0521 538.138 90.8594 537.586C90.6719 537.034 90.5781 536.406 90.5781 535.703C90.5781 534.766 90.737 533.969 91.0547 533.312C91.3724 532.651 91.8255 532.148 92.4141 531.805C93.0078 531.456 93.7135 531.281 94.5312 531.281C95.3125 531.281 95.9948 531.456 96.5781 531.805C97.1667 532.154 97.6224 532.659 97.9453 533.32C98.2734 533.977 98.4375 534.771 98.4375 535.703ZM91.9219 535.703C91.9219 536.391 92.013 536.987 92.1953 537.492C92.3776 537.997 92.6589 538.388 93.0391 538.664C93.4193 538.94 93.9089 539.078 94.5078 539.078C95.1016 539.078 95.5885 538.94 95.9688 538.664C96.3542 538.388 96.638 537.997 96.8203 537.492C97.0026 536.987 97.0938 536.391 97.0938 535.703C97.0938 535.021 97.0026 534.432 96.8203 533.938C96.638 533.438 96.3568 533.052 95.9766 532.781C95.5964 532.51 95.1042 532.375 94.5 532.375C93.6094 532.375 92.9557 532.669 92.5391 533.258C92.1276 533.846 91.9219 534.661 91.9219 535.703ZM104.734 531.281C105.75 531.281 106.518 531.531 107.039 532.031C107.56 532.526 107.82 533.323 107.82 534.422V540H106.539V534.508C106.539 533.794 106.375 533.26 106.047 532.906C105.724 532.552 105.227 532.375 104.555 532.375C103.607 532.375 102.94 532.643 102.555 533.18C102.169 533.716 101.977 534.495 101.977 535.516V540H100.68V531.438H101.727L101.922 532.672H101.992C102.174 532.37 102.406 532.117 102.688 531.914C102.969 531.706 103.284 531.549 103.633 531.445C103.982 531.336 104.349 531.281 104.734 531.281ZM113.539 540.156C112.456 540.156 111.596 539.786 110.961 539.047C110.331 538.307 110.016 537.208 110.016 535.75C110.016 534.276 110.339 533.164 110.984 532.414C111.63 531.659 112.49 531.281 113.562 531.281C114.016 531.281 114.411 531.341 114.75 531.461C115.089 531.581 115.38 531.742 115.625 531.945C115.87 532.143 116.076 532.37 116.242 532.625H116.336C116.315 532.464 116.294 532.242 116.273 531.961C116.253 531.68 116.242 531.451 116.242 531.273V527.844H117.539V540H116.492L116.297 538.781H116.242C116.081 539.036 115.875 539.268 115.625 539.477C115.38 539.685 115.086 539.852 114.742 539.977C114.404 540.096 114.003 540.156 113.539 540.156ZM113.742 539.078C114.659 539.078 115.307 538.818 115.688 538.297C116.068 537.776 116.258 537.003 116.258 535.977V535.742C116.258 534.654 116.076 533.818 115.711 533.234C115.352 532.651 114.695 532.359 113.742 532.359C112.945 532.359 112.349 532.667 111.953 533.281C111.557 533.891 111.359 534.724 111.359 535.781C111.359 536.833 111.555 537.646 111.945 538.219C112.341 538.792 112.94 539.078 113.742 539.078ZM127.211 539.094C127.424 539.094 127.643 539.076 127.867 539.039C128.091 539.003 128.273 538.958 128.414 538.906V539.914C128.263 539.982 128.052 540.039 127.781 540.086C127.516 540.133 127.255 540.156 127 540.156C126.547 540.156 126.135 540.078 125.766 539.922C125.396 539.76 125.099 539.49 124.875 539.109C124.656 538.729 124.547 538.203 124.547 537.531V532.453H123.328V531.82L124.555 531.312L125.07 529.453H125.852V531.438H128.359V532.453H125.852V537.492C125.852 538.029 125.974 538.43 126.219 538.695C126.469 538.961 126.799 539.094 127.211 539.094ZM137.531 535.703C137.531 536.406 137.44 537.034 137.258 537.586C137.076 538.138 136.812 538.604 136.469 538.984C136.125 539.365 135.708 539.656 135.219 539.859C134.734 540.057 134.185 540.156 133.57 540.156C132.997 540.156 132.471 540.057 131.992 539.859C131.518 539.656 131.107 539.365 130.758 538.984C130.414 538.604 130.146 538.138 129.953 537.586C129.766 537.034 129.672 536.406 129.672 535.703C129.672 534.766 129.831 533.969 130.148 533.312C130.466 532.651 130.919 532.148 131.508 531.805C132.102 531.456 132.807 531.281 133.625 531.281C134.406 531.281 135.089 531.456 135.672 531.805C136.26 532.154 136.716 532.659 137.039 533.32C137.367 533.977 137.531 534.771 137.531 535.703ZM131.016 535.703C131.016 536.391 131.107 536.987 131.289 537.492C131.471 537.997 131.753 538.388 132.133 538.664C132.513 538.94 133.003 539.078 133.602 539.078C134.195 539.078 134.682 538.94 135.062 538.664C135.448 538.388 135.732 537.997 135.914 537.492C136.096 536.987 136.188 536.391 136.188 535.703C136.188 535.021 136.096 534.432 135.914 533.938C135.732 533.438 135.451 533.052 135.07 532.781C134.69 532.51 134.198 532.375 133.594 532.375C132.703 532.375 132.049 532.669 131.633 533.258C131.221 533.846 131.016 534.661 131.016 535.703ZM142.578 531.438H143.969L145.859 536.406C145.969 536.698 146.07 536.979 146.164 537.25C146.258 537.516 146.341 537.771 146.414 538.016C146.487 538.26 146.544 538.497 146.586 538.727H146.641C146.714 538.466 146.818 538.125 146.953 537.703C147.089 537.276 147.234 536.841 147.391 536.398L149.18 531.438H150.578L146.852 541.258C146.654 541.784 146.422 542.242 146.156 542.633C145.896 543.023 145.578 543.323 145.203 543.531C144.828 543.745 144.375 543.852 143.844 543.852C143.599 543.852 143.383 543.836 143.195 543.805C143.008 543.779 142.846 543.747 142.711 543.711V542.672C142.826 542.698 142.964 542.721 143.125 542.742C143.292 542.763 143.464 542.773 143.641 542.773C143.964 542.773 144.242 542.711 144.477 542.586C144.716 542.466 144.922 542.289 145.094 542.055C145.266 541.82 145.414 541.542 145.539 541.219L146.008 540.016L142.578 531.438ZM159.328 535.703C159.328 536.406 159.237 537.034 159.055 537.586C158.872 538.138 158.609 538.604 158.266 538.984C157.922 539.365 157.505 539.656 157.016 539.859C156.531 540.057 155.982 540.156 155.367 540.156C154.794 540.156 154.268 540.057 153.789 539.859C153.315 539.656 152.904 539.365 152.555 538.984C152.211 538.604 151.943 538.138 151.75 537.586C151.562 537.034 151.469 536.406 151.469 535.703C151.469 534.766 151.628 533.969 151.945 533.312C152.263 532.651 152.716 532.148 153.305 531.805C153.898 531.456 154.604 531.281 155.422 531.281C156.203 531.281 156.885 531.456 157.469 531.805C158.057 532.154 158.513 532.659 158.836 533.32C159.164 533.977 159.328 534.771 159.328 535.703ZM152.812 535.703C152.812 536.391 152.904 536.987 153.086 537.492C153.268 537.997 153.549 538.388 153.93 538.664C154.31 538.94 154.799 539.078 155.398 539.078C155.992 539.078 156.479 538.94 156.859 538.664C157.245 538.388 157.529 537.997 157.711 537.492C157.893 536.987 157.984 536.391 157.984 535.703C157.984 535.021 157.893 534.432 157.711 533.938C157.529 533.438 157.247 533.052 156.867 532.781C156.487 532.51 155.995 532.375 155.391 532.375C154.5 532.375 153.846 532.669 153.43 533.258C153.018 533.846 152.812 534.661 152.812 535.703ZM168.641 531.438V540H167.578L167.391 538.797H167.32C167.143 539.094 166.914 539.344 166.633 539.547C166.352 539.75 166.034 539.901 165.68 540C165.331 540.104 164.958 540.156 164.562 540.156C163.885 540.156 163.318 540.047 162.859 539.828C162.401 539.609 162.055 539.271 161.82 538.812C161.591 538.354 161.477 537.766 161.477 537.047V531.438H162.789V536.953C162.789 537.667 162.951 538.201 163.273 538.555C163.596 538.904 164.089 539.078 164.75 539.078C165.385 539.078 165.891 538.958 166.266 538.719C166.646 538.479 166.919 538.128 167.086 537.664C167.253 537.195 167.336 536.622 167.336 535.945V531.438H168.641ZM175.273 531.281C175.445 531.281 175.625 531.292 175.812 531.312C176 531.328 176.167 531.352 176.312 531.383L176.148 532.586C176.008 532.549 175.852 532.521 175.68 532.5C175.508 532.479 175.346 532.469 175.195 532.469C174.852 532.469 174.526 532.539 174.219 532.68C173.917 532.815 173.651 533.013 173.422 533.273C173.193 533.529 173.013 533.839 172.883 534.203C172.753 534.562 172.688 534.964 172.688 535.406V540H171.383V531.438H172.461L172.602 533.016H172.656C172.833 532.698 173.047 532.409 173.297 532.148C173.547 531.883 173.836 531.672 174.164 531.516C174.497 531.359 174.867 531.281 175.273 531.281ZM185.383 531.281C186.112 531.281 186.737 531.443 187.258 531.766C187.779 532.089 188.177 532.542 188.453 533.125C188.729 533.703 188.867 534.38 188.867 535.156V535.961H182.953C182.969 536.966 183.219 537.732 183.703 538.258C184.188 538.784 184.87 539.047 185.75 539.047C186.292 539.047 186.771 538.997 187.188 538.898C187.604 538.799 188.036 538.654 188.484 538.461V539.602C188.052 539.794 187.622 539.935 187.195 540.023C186.773 540.112 186.273 540.156 185.695 540.156C184.872 540.156 184.154 539.99 183.539 539.656C182.93 539.318 182.456 538.823 182.117 538.172C181.779 537.521 181.609 536.724 181.609 535.781C181.609 534.859 181.763 534.062 182.07 533.391C182.383 532.714 182.82 532.193 183.383 531.828C183.951 531.464 184.617 531.281 185.383 531.281ZM185.367 532.344C184.674 532.344 184.122 532.57 183.711 533.023C183.299 533.477 183.055 534.109 182.977 534.922H187.508C187.503 534.411 187.422 533.964 187.266 533.578C187.115 533.188 186.883 532.885 186.57 532.672C186.258 532.453 185.857 532.344 185.367 532.344ZM200.367 531.281C201.31 531.281 202.021 531.529 202.5 532.023C202.979 532.513 203.219 533.302 203.219 534.391V540H201.938V534.453C201.938 533.76 201.786 533.242 201.484 532.898C201.188 532.549 200.745 532.375 200.156 532.375C199.328 532.375 198.727 532.615 198.352 533.094C197.977 533.573 197.789 534.279 197.789 535.211V540H196.5V534.453C196.5 533.99 196.432 533.604 196.297 533.297C196.167 532.99 195.969 532.76 195.703 532.609C195.443 532.453 195.112 532.375 194.711 532.375C194.143 532.375 193.688 532.492 193.344 532.727C193 532.961 192.75 533.31 192.594 533.773C192.443 534.232 192.367 534.797 192.367 535.469V540H191.07V531.438H192.117L192.312 532.648H192.383C192.555 532.352 192.771 532.102 193.031 531.898C193.292 531.695 193.583 531.542 193.906 531.438C194.229 531.333 194.573 531.281 194.938 531.281C195.589 531.281 196.133 531.404 196.57 531.648C197.013 531.888 197.333 532.255 197.531 532.75H197.602C197.883 532.255 198.268 531.888 198.758 531.648C199.247 531.404 199.784 531.281 200.367 531.281ZM209.086 531.297C210.107 531.297 210.865 531.526 211.359 531.984C211.854 532.443 212.102 533.174 212.102 534.18V540H211.156L210.906 538.734H210.844C210.604 539.047 210.354 539.31 210.094 539.523C209.833 539.732 209.531 539.891 209.188 540C208.849 540.104 208.432 540.156 207.938 540.156C207.417 540.156 206.953 540.065 206.547 539.883C206.146 539.701 205.828 539.424 205.594 539.055C205.365 538.685 205.25 538.216 205.25 537.648C205.25 536.794 205.589 536.138 206.266 535.68C206.943 535.221 207.974 534.971 209.359 534.93L210.836 534.867V534.344C210.836 533.604 210.677 533.086 210.359 532.789C210.042 532.492 209.594 532.344 209.016 532.344C208.568 532.344 208.141 532.409 207.734 532.539C207.328 532.669 206.943 532.823 206.578 533L206.18 532.016C206.565 531.818 207.008 531.648 207.508 531.508C208.008 531.367 208.534 531.297 209.086 531.297ZM210.82 535.781L209.516 535.836C208.448 535.878 207.695 536.052 207.258 536.359C206.82 536.667 206.602 537.102 206.602 537.664C206.602 538.154 206.75 538.516 207.047 538.75C207.344 538.984 207.737 539.102 208.227 539.102C208.987 539.102 209.609 538.891 210.094 538.469C210.578 538.047 210.82 537.414 210.82 536.57V535.781ZM216.07 531.438V540H214.773V531.438H216.07ZM215.438 528.234C215.651 528.234 215.833 528.305 215.984 528.445C216.141 528.581 216.219 528.794 216.219 529.086C216.219 529.372 216.141 529.586 215.984 529.727C215.833 529.867 215.651 529.938 215.438 529.938C215.214 529.938 215.026 529.867 214.875 529.727C214.729 529.586 214.656 529.372 214.656 529.086C214.656 528.794 214.729 528.581 214.875 528.445C215.026 528.305 215.214 528.234 215.438 528.234ZM220.125 540H218.82V527.844H220.125V540ZM234.406 535.703C234.406 536.406 234.315 537.034 234.133 537.586C233.951 538.138 233.688 538.604 233.344 538.984C233 539.365 232.583 539.656 232.094 539.859C231.609 540.057 231.06 540.156 230.445 540.156C229.872 540.156 229.346 540.057 228.867 539.859C228.393 539.656 227.982 539.365 227.633 538.984C227.289 538.604 227.021 538.138 226.828 537.586C226.641 537.034 226.547 536.406 226.547 535.703C226.547 534.766 226.706 533.969 227.023 533.312C227.341 532.651 227.794 532.148 228.383 531.805C228.977 531.456 229.682 531.281 230.5 531.281C231.281 531.281 231.964 531.456 232.547 531.805C233.135 532.154 233.591 532.659 233.914 533.32C234.242 533.977 234.406 534.771 234.406 535.703ZM227.891 535.703C227.891 536.391 227.982 536.987 228.164 537.492C228.346 537.997 228.628 538.388 229.008 538.664C229.388 538.94 229.878 539.078 230.477 539.078C231.07 539.078 231.557 538.94 231.938 538.664C232.323 538.388 232.607 537.997 232.789 537.492C232.971 536.987 233.062 536.391 233.062 535.703C233.062 535.021 232.971 534.432 232.789 533.938C232.607 533.438 232.326 533.052 231.945 532.781C231.565 532.51 231.073 532.375 230.469 532.375C229.578 532.375 228.924 532.669 228.508 533.258C228.096 533.846 227.891 534.661 227.891 535.703ZM240.703 531.281C241.719 531.281 242.487 531.531 243.008 532.031C243.529 532.526 243.789 533.323 243.789 534.422V540H242.508V534.508C242.508 533.794 242.344 533.26 242.016 532.906C241.693 532.552 241.195 532.375 240.523 532.375C239.576 532.375 238.909 532.643 238.523 533.18C238.138 533.716 237.945 534.495 237.945 535.516V540H236.648V531.438H237.695L237.891 532.672H237.961C238.143 532.37 238.375 532.117 238.656 531.914C238.938 531.706 239.253 531.549 239.602 531.445C239.951 531.336 240.318 531.281 240.703 531.281ZM254.43 532.453H252.297V540H251V532.453H249.484V531.828L251 531.398V530.828C251 530.109 251.107 529.526 251.32 529.078C251.534 528.625 251.844 528.292 252.25 528.078C252.656 527.865 253.151 527.758 253.734 527.758C254.062 527.758 254.362 527.786 254.633 527.844C254.909 527.901 255.151 527.966 255.359 528.039L255.023 529.062C254.846 529.005 254.646 528.953 254.422 528.906C254.203 528.854 253.979 528.828 253.75 528.828C253.255 528.828 252.888 528.99 252.648 529.312C252.414 529.63 252.297 530.13 252.297 530.812V531.438H254.43V532.453ZM257.305 531.438V540H256.008V531.438H257.305ZM256.672 528.234C256.885 528.234 257.068 528.305 257.219 528.445C257.375 528.581 257.453 528.794 257.453 529.086C257.453 529.372 257.375 529.586 257.219 529.727C257.068 529.867 256.885 529.938 256.672 529.938C256.448 529.938 256.26 529.867 256.109 529.727C255.964 529.586 255.891 529.372 255.891 529.086C255.891 528.794 255.964 528.581 256.109 528.445C256.26 528.305 256.448 528.234 256.672 528.234ZM261.359 540H260.055V527.844H261.359V540ZM267.398 531.281C268.128 531.281 268.753 531.443 269.273 531.766C269.794 532.089 270.193 532.542 270.469 533.125C270.745 533.703 270.883 534.38 270.883 535.156V535.961H264.969C264.984 536.966 265.234 537.732 265.719 538.258C266.203 538.784 266.885 539.047 267.766 539.047C268.307 539.047 268.786 538.997 269.203 538.898C269.62 538.799 270.052 538.654 270.5 538.461V539.602C270.068 539.794 269.638 539.935 269.211 540.023C268.789 540.112 268.289 540.156 267.711 540.156C266.888 540.156 266.169 539.99 265.555 539.656C264.945 539.318 264.471 538.823 264.133 538.172C263.794 537.521 263.625 536.724 263.625 535.781C263.625 534.859 263.779 534.062 264.086 533.391C264.398 532.714 264.836 532.193 265.398 531.828C265.966 531.464 266.633 531.281 267.398 531.281ZM267.383 532.344C266.69 532.344 266.138 532.57 265.727 533.023C265.315 533.477 265.07 534.109 264.992 534.922H269.523C269.518 534.411 269.438 533.964 269.281 533.578C269.13 533.188 268.898 532.885 268.586 532.672C268.273 532.453 267.872 532.344 267.383 532.344ZM272.891 539.188C272.891 538.823 272.979 538.565 273.156 538.414C273.333 538.258 273.549 538.18 273.805 538.18C274.07 538.18 274.294 538.258 274.477 538.414C274.659 538.565 274.75 538.823 274.75 539.188C274.75 539.547 274.659 539.81 274.477 539.977C274.294 540.138 274.07 540.219 273.805 540.219C273.549 540.219 273.333 540.138 273.156 539.977C272.979 539.81 272.891 539.547 272.891 539.188Z" fill="#F7F7F8"/>
        <path d="M18.772 436.053H26.2192V438.671H24.0396L28.3535 446.043L32.9702 438.671H30.5786V436.053H38.0259V438.671H36.0732L29.625 448.45V456.396H31.9863V459H24.5391V456.396H26.6431V448.374L20.5581 438.671H18.772V436.053ZM39.7969 451.159C39.807 449.918 40.0037 448.788 40.3872 447.769C40.7808 446.749 41.3257 445.876 42.022 445.15C42.7183 444.413 43.5457 443.848 44.5044 443.455C45.4631 443.061 46.5176 442.864 47.668 442.864C48.8285 442.864 49.888 443.061 50.8467 443.455C51.8154 443.848 52.6429 444.408 53.3291 445.135C54.0153 445.851 54.5501 446.719 54.9336 447.738C55.3171 448.757 55.5088 449.888 55.5088 451.129C55.5088 452.35 55.3171 453.475 54.9336 454.504C54.5501 455.524 54.0153 456.402 53.3291 457.138C52.6429 457.875 51.8154 458.45 50.8467 458.864C49.888 459.267 48.8285 459.469 47.668 459.469C46.4873 459.469 45.4176 459.267 44.459 458.864C43.5003 458.46 42.6779 457.895 41.9917 457.168C41.3055 456.432 40.7707 455.554 40.3872 454.535C40.0037 453.515 39.807 452.39 39.7969 451.159ZM42.7788 451.159C42.7788 452.057 42.9049 452.87 43.1572 453.596C43.4196 454.323 43.7728 454.943 44.2168 455.458C44.6709 455.963 45.1906 456.356 45.7759 456.639C46.3713 456.911 47.002 457.047 47.668 457.047C48.3643 457.047 49.0101 456.911 49.6055 456.639C50.2109 456.366 50.7357 455.978 51.1797 455.473C51.6237 454.958 51.9718 454.338 52.2241 453.611C52.4764 452.885 52.6025 452.067 52.6025 451.159C52.6025 450.211 52.4764 449.368 52.2241 448.631C51.9718 447.895 51.6237 447.279 51.1797 446.785C50.7458 446.29 50.2261 445.917 49.6206 445.665C49.0151 445.412 48.3643 445.286 47.668 445.286C47.002 445.286 46.3713 445.412 45.7759 445.665C45.1906 445.917 44.6709 446.29 44.2168 446.785C43.7728 447.279 43.4196 447.895 43.1572 448.631C42.9049 449.368 42.7788 450.211 42.7788 451.159ZM68.0117 443.318H73.0674V456.396H74.8081V459H70.2368V457.547C69.5304 458.092 68.7585 458.516 67.9209 458.818C67.0934 459.121 66.2054 459.272 65.2568 459.272C64.4697 459.272 63.7533 459.161 63.1074 458.939C62.4717 458.707 61.9268 458.354 61.4727 457.88C61.0286 457.396 60.6855 456.785 60.4434 456.048C60.2012 455.312 60.0801 454.434 60.0801 453.415V445.922H57.9609V443.318H63.0166V453.082C63.0166 454.282 63.2941 455.191 63.8491 455.806C64.4041 456.422 65.2013 456.729 66.2407 456.729C66.8563 456.729 67.5021 456.618 68.1782 456.396C68.8644 456.174 69.5103 455.867 70.1157 455.473V445.922H68.0117V443.318ZM90.2778 446.633H87.4019V445.665C87.0688 445.665 86.7257 445.73 86.3726 445.861C86.0295 445.982 85.7065 446.174 85.4038 446.437C85.1011 446.689 84.8337 447.017 84.6016 447.42C84.3796 447.814 84.2181 448.283 84.1172 448.828V456.396H86.7812V459H79.001V456.396H81.1655L81.1807 445.922H79.001V443.318H84.0112V445.483C84.1929 445.16 84.3947 444.862 84.6167 444.59C84.8488 444.307 85.1011 444.065 85.3735 443.863C85.6561 443.651 85.9639 443.49 86.2969 443.379C86.64 443.258 87.0083 443.197 87.4019 443.197C87.9266 443.197 88.4211 443.197 88.8853 443.197C89.3494 443.197 89.8136 443.207 90.2778 443.228V446.633ZM100.313 443.318H105.309V445.15H105.339C105.682 444.857 106.04 444.585 106.414 444.333C106.797 444.07 107.196 443.843 107.609 443.651C108.023 443.46 108.452 443.308 108.896 443.197C109.35 443.086 109.819 443.031 110.304 443.031C111.434 443.031 112.408 443.243 113.225 443.667C114.042 444.08 114.673 444.731 115.117 445.619C115.501 445.276 115.904 444.948 116.328 444.635C116.752 444.312 117.191 444.035 117.645 443.803C118.109 443.571 118.594 443.384 119.098 443.243C119.603 443.101 120.127 443.031 120.672 443.031C121.52 443.031 122.282 443.147 122.958 443.379C123.634 443.611 124.209 443.964 124.684 444.438C125.158 444.913 125.516 445.523 125.758 446.27C126.011 447.007 126.137 447.88 126.137 448.889V456.396H128.316V459H120.99V456.396H123.2V449.237C123.2 448.036 122.897 447.128 122.292 446.512C121.687 445.887 120.814 445.574 119.673 445.574C118.997 445.574 118.306 445.735 117.6 446.058C116.893 446.381 116.288 446.79 115.783 447.284V456.396H117.948V459H110.637V456.396H112.847V449.237C112.847 448.036 112.539 447.128 111.923 446.512C111.318 445.887 110.445 445.574 109.305 445.574C108.649 445.574 107.988 445.73 107.322 446.043C106.656 446.356 106.025 446.744 105.43 447.208V456.396H107.64V459H100.313V456.396H102.493V445.922H100.313V443.318ZM134.008 451.522C134.008 451.966 134.038 452.375 134.099 452.749C134.169 453.112 134.265 453.46 134.386 453.793C134.76 454.802 135.355 455.564 136.172 456.079C137 456.583 137.933 456.835 138.973 456.835C139.79 456.835 140.582 456.724 141.349 456.502C142.126 456.27 142.938 455.912 143.786 455.428L144.921 457.35C143.892 458.056 142.858 458.581 141.818 458.924C140.779 459.267 139.699 459.439 138.579 459.439C137.52 459.439 136.536 459.262 135.627 458.909C134.729 458.556 133.952 458.031 133.296 457.335C132.651 456.639 132.141 455.771 131.768 454.731C131.404 453.692 131.223 452.481 131.223 451.099C131.223 449.979 131.379 448.924 131.692 447.935C132.005 446.936 132.469 446.068 133.084 445.332C133.71 444.585 134.482 443.994 135.4 443.561C136.319 443.127 137.388 442.91 138.609 442.91C139.79 442.91 140.774 443.091 141.561 443.455C142.358 443.808 143.004 444.282 143.499 444.877C144.003 445.463 144.382 446.134 144.634 446.891C144.896 447.647 145.078 448.419 145.179 449.207C145.229 449.59 145.259 449.979 145.27 450.372C145.29 450.766 145.3 451.149 145.3 451.522H134.008ZM138.413 445.271C137.757 445.271 137.181 445.367 136.687 445.559C136.203 445.74 135.789 446.008 135.446 446.361C135.103 446.704 134.825 447.128 134.613 447.632C134.411 448.137 134.26 448.702 134.159 449.328H142.288C142.247 448.742 142.151 448.202 142 447.708C141.859 447.214 141.637 446.785 141.334 446.421C141.031 446.058 140.643 445.776 140.168 445.574C139.694 445.372 139.109 445.271 138.413 445.271ZM158.196 447.526C158.196 447.103 158.095 446.744 157.894 446.452C157.702 446.149 157.45 445.907 157.137 445.725C156.824 445.533 156.476 445.397 156.092 445.316C155.709 445.226 155.335 445.18 154.972 445.18C154.569 445.18 154.195 445.226 153.852 445.316C153.519 445.407 153.231 445.538 152.989 445.71C152.747 445.882 152.555 446.093 152.414 446.346C152.283 446.588 152.217 446.86 152.217 447.163C152.217 447.688 152.374 448.107 152.687 448.419C153.009 448.722 153.544 449.005 154.291 449.267L157.303 450.327C158.595 450.761 159.538 451.351 160.134 452.098C160.729 452.844 161.027 453.737 161.027 454.777C161.027 455.473 160.886 456.114 160.603 456.699C160.331 457.274 159.937 457.769 159.422 458.183C158.918 458.586 158.307 458.899 157.591 459.121C156.874 459.353 156.077 459.469 155.199 459.469C153.978 459.469 152.984 459.272 152.217 458.879C151.45 458.485 150.86 457.966 150.446 457.32H148.872V454.716H152.005C152.005 455.15 152.096 455.524 152.278 455.836C152.47 456.139 152.717 456.386 153.02 456.578C153.332 456.77 153.681 456.911 154.064 457.002C154.458 457.093 154.856 457.138 155.26 457.138C155.653 457.138 156.032 457.093 156.395 457.002C156.758 456.901 157.076 456.76 157.349 456.578C157.631 456.386 157.853 456.159 158.015 455.897C158.176 455.635 158.257 455.337 158.257 455.004C158.257 454.499 158.09 454.07 157.757 453.717C157.434 453.364 156.879 453.046 156.092 452.764L153.095 451.644C151.874 451.21 150.966 450.66 150.371 449.994C149.785 449.318 149.493 448.475 149.493 447.466C149.493 446.8 149.614 446.184 149.856 445.619C150.108 445.054 150.466 444.57 150.931 444.166C151.405 443.752 151.98 443.429 152.656 443.197C153.332 442.965 154.104 442.849 154.972 442.849C156.092 442.849 157.031 443.006 157.788 443.318C158.544 443.631 159.226 444.166 159.831 444.923H161.299V447.526H158.196ZM173.242 447.526C173.242 447.103 173.141 446.744 172.939 446.452C172.748 446.149 172.495 445.907 172.183 445.725C171.87 445.533 171.522 445.397 171.138 445.316C170.755 445.226 170.381 445.18 170.018 445.18C169.614 445.18 169.241 445.226 168.898 445.316C168.565 445.407 168.277 445.538 168.035 445.71C167.793 445.882 167.601 446.093 167.46 446.346C167.329 446.588 167.263 446.86 167.263 447.163C167.263 447.688 167.42 448.107 167.732 448.419C168.055 448.722 168.59 449.005 169.337 449.267L172.349 450.327C173.641 450.761 174.584 451.351 175.18 452.098C175.775 452.844 176.073 453.737 176.073 454.777C176.073 455.473 175.931 456.114 175.649 456.699C175.376 457.274 174.983 457.769 174.468 458.183C173.964 458.586 173.353 458.899 172.637 459.121C171.92 459.353 171.123 459.469 170.245 459.469C169.024 459.469 168.03 459.272 167.263 458.879C166.496 458.485 165.906 457.966 165.492 457.32H163.918V454.716H167.051C167.051 455.15 167.142 455.524 167.324 455.836C167.515 456.139 167.763 456.386 168.065 456.578C168.378 456.77 168.726 456.911 169.11 457.002C169.503 457.093 169.902 457.138 170.306 457.138C170.699 457.138 171.078 457.093 171.441 457.002C171.804 456.901 172.122 456.76 172.395 456.578C172.677 456.386 172.899 456.159 173.061 455.897C173.222 455.635 173.303 455.337 173.303 455.004C173.303 454.499 173.136 454.07 172.803 453.717C172.48 453.364 171.925 453.046 171.138 452.764L168.141 451.644C166.92 451.21 166.012 450.66 165.417 449.994C164.831 449.318 164.539 448.475 164.539 447.466C164.539 446.8 164.66 446.184 164.902 445.619C165.154 445.054 165.512 444.57 165.977 444.166C166.451 443.752 167.026 443.429 167.702 443.197C168.378 442.965 169.15 442.849 170.018 442.849C171.138 442.849 172.077 443.006 172.833 443.318C173.59 443.631 174.271 444.166 174.877 444.923H176.345V447.526H173.242ZM188.455 457.547C187.859 458.102 187.198 458.556 186.472 458.909C185.755 459.262 184.938 459.439 184.02 459.439C183.253 459.439 182.546 459.318 181.9 459.076C181.265 458.833 180.715 458.506 180.25 458.092C179.786 457.668 179.423 457.179 179.161 456.624C178.908 456.069 178.782 455.478 178.782 454.853C178.782 454.187 178.878 453.596 179.07 453.082C179.272 452.567 179.534 452.123 179.857 451.75C180.19 451.366 180.573 451.048 181.007 450.796C181.451 450.534 181.91 450.327 182.385 450.175C182.869 450.014 183.359 449.903 183.853 449.842C184.358 449.772 184.837 449.736 185.291 449.736C186.018 449.736 186.628 449.762 187.123 449.812C187.617 449.852 188.066 449.913 188.47 449.994L188.485 448.707C188.485 448.152 188.404 447.673 188.243 447.269C188.081 446.855 187.854 446.517 187.562 446.255C187.269 445.982 186.916 445.781 186.502 445.649C186.098 445.518 185.644 445.453 185.14 445.453C184.665 445.453 184.211 445.488 183.777 445.559C183.343 445.619 182.935 445.705 182.551 445.816C182.178 445.917 181.83 446.038 181.507 446.179C181.194 446.31 180.927 446.452 180.705 446.603L179.781 444.65C180.155 444.408 180.563 444.186 181.007 443.984C181.451 443.772 181.916 443.596 182.4 443.455C182.894 443.303 183.394 443.187 183.898 443.106C184.413 443.016 184.918 442.97 185.412 442.97C186.32 442.97 187.138 443.081 187.864 443.303C188.591 443.515 189.206 443.848 189.711 444.302C190.215 444.756 190.604 445.337 190.876 446.043C191.149 446.739 191.285 447.577 191.285 448.556L191.27 456.396H193.011V459H188.455V457.547ZM184.64 457.078C185.014 457.078 185.387 457.032 185.76 456.941C186.134 456.851 186.487 456.729 186.82 456.578C187.153 456.417 187.461 456.235 187.743 456.033C188.026 455.821 188.263 455.604 188.455 455.382L188.47 451.84H185.2C184.655 451.84 184.156 451.901 183.702 452.022C183.258 452.143 182.869 452.32 182.536 452.552C182.213 452.784 181.961 453.071 181.779 453.415C181.598 453.758 181.507 454.151 181.507 454.595C181.507 455.009 181.583 455.372 181.734 455.685C181.885 455.988 182.097 456.245 182.37 456.457C182.652 456.659 182.985 456.815 183.369 456.926C183.752 457.027 184.176 457.078 184.64 457.078ZM207.663 457.623C207.148 458.167 206.548 458.591 205.862 458.894C205.186 459.197 204.414 459.348 203.546 459.348C202.486 459.348 201.497 459.167 200.579 458.803C199.671 458.43 198.879 457.89 198.203 457.184C197.537 456.467 197.012 455.594 196.628 454.565C196.255 453.526 196.068 452.34 196.068 451.008C196.068 449.797 196.25 448.697 196.613 447.708C196.977 446.709 197.491 445.861 198.157 445.165C198.823 444.459 199.625 443.914 200.564 443.53C201.502 443.137 202.547 442.94 203.697 442.94C204.484 442.94 205.191 443.031 205.816 443.212C206.452 443.384 207.068 443.687 207.663 444.121V443.318H210.479V458.379C210.479 460.862 209.888 462.739 208.708 464.01C207.537 465.282 205.71 465.917 203.228 465.917C202.683 465.917 202.113 465.877 201.518 465.796C200.922 465.716 200.332 465.584 199.747 465.403C199.171 465.231 198.606 465.009 198.051 464.737C197.506 464.464 197.002 464.131 196.538 463.738L198.051 461.452C198.354 461.715 198.697 461.957 199.081 462.179C199.474 462.401 199.893 462.587 200.337 462.739C200.781 462.9 201.24 463.026 201.714 463.117C202.189 463.208 202.663 463.253 203.137 463.253C203.914 463.253 204.585 463.173 205.15 463.011C205.726 462.85 206.195 462.562 206.558 462.148C206.931 461.745 207.209 461.195 207.391 460.499C207.572 459.802 207.663 458.919 207.663 457.85V457.623ZM203.909 456.896C204.373 456.896 204.797 456.851 205.181 456.76C205.564 456.669 205.912 456.553 206.225 456.412C206.538 456.26 206.81 456.089 207.042 455.897C207.285 455.705 207.492 455.503 207.663 455.292V446.709C207.148 446.255 206.553 445.927 205.877 445.725C205.211 445.523 204.525 445.422 203.818 445.422C203.152 445.422 202.527 445.549 201.941 445.801C201.356 446.043 200.841 446.401 200.397 446.875C199.964 447.35 199.62 447.93 199.368 448.616C199.116 449.302 198.99 450.09 198.99 450.978C198.99 451.946 199.111 452.799 199.353 453.536C199.595 454.272 199.933 454.893 200.367 455.397C200.801 455.892 201.321 456.265 201.926 456.518C202.532 456.77 203.193 456.896 203.909 456.896ZM217.018 451.522C217.018 451.966 217.048 452.375 217.108 452.749C217.179 453.112 217.275 453.46 217.396 453.793C217.769 454.802 218.365 455.564 219.182 456.079C220.01 456.583 220.943 456.835 221.982 456.835C222.8 456.835 223.592 456.724 224.359 456.502C225.136 456.27 225.948 455.912 226.796 455.428L227.931 457.35C226.902 458.056 225.868 458.581 224.828 458.924C223.789 459.267 222.709 459.439 221.589 459.439C220.529 459.439 219.545 459.262 218.637 458.909C217.739 458.556 216.962 458.031 216.306 457.335C215.66 456.639 215.151 455.771 214.777 454.731C214.414 453.692 214.232 452.481 214.232 451.099C214.232 449.979 214.389 448.924 214.702 447.935C215.014 446.936 215.479 446.068 216.094 445.332C216.72 444.585 217.492 443.994 218.41 443.561C219.328 443.127 220.398 442.91 221.619 442.91C222.8 442.91 223.784 443.091 224.571 443.455C225.368 443.808 226.014 444.282 226.508 444.877C227.013 445.463 227.391 446.134 227.644 446.891C227.906 447.647 228.088 448.419 228.188 449.207C228.239 449.59 228.269 449.979 228.279 450.372C228.299 450.766 228.31 451.149 228.31 451.522H217.018ZM221.422 445.271C220.766 445.271 220.191 445.367 219.697 445.559C219.212 445.74 218.799 446.008 218.456 446.361C218.112 446.704 217.835 447.128 217.623 447.632C217.421 448.137 217.27 448.702 217.169 449.328H225.297C225.257 448.742 225.161 448.202 225.01 447.708C224.868 447.214 224.646 446.785 224.344 446.421C224.041 446.058 223.653 445.776 223.178 445.574C222.704 445.372 222.119 445.271 221.422 445.271ZM239.147 435.447H244.112V445.044H244.203C244.486 444.761 244.809 444.499 245.172 444.257C245.545 444.005 245.934 443.788 246.337 443.606C246.741 443.424 247.16 443.283 247.594 443.182C248.028 443.081 248.482 443.031 248.956 443.031C249.794 443.031 250.55 443.147 251.227 443.379C251.903 443.611 252.478 443.964 252.952 444.438C253.426 444.913 253.79 445.523 254.042 446.27C254.304 447.007 254.436 447.88 254.436 448.889V456.396H256.797V459H249.35V456.396H251.499V449.237C251.499 448.036 251.191 447.128 250.576 446.512C249.97 445.887 249.097 445.574 247.957 445.574C247.311 445.574 246.655 445.73 245.989 446.043C245.323 446.346 244.698 446.729 244.112 447.193V456.396H246.383V459H238.936V456.396H241.297V438.051H239.147V435.447ZM268.649 457.547C268.054 458.102 267.393 458.556 266.666 458.909C265.95 459.262 265.132 459.439 264.214 459.439C263.447 459.439 262.741 459.318 262.095 459.076C261.459 458.833 260.909 458.506 260.445 458.092C259.981 457.668 259.617 457.179 259.355 456.624C259.103 456.069 258.977 455.478 258.977 454.853C258.977 454.187 259.072 453.596 259.264 453.082C259.466 452.567 259.728 452.123 260.051 451.75C260.384 451.366 260.768 451.048 261.202 450.796C261.646 450.534 262.105 450.327 262.579 450.175C263.063 450.014 263.553 449.903 264.047 449.842C264.552 449.772 265.031 449.736 265.485 449.736C266.212 449.736 266.822 449.762 267.317 449.812C267.811 449.852 268.26 449.913 268.664 449.994L268.679 448.707C268.679 448.152 268.598 447.673 268.437 447.269C268.276 446.855 268.049 446.517 267.756 446.255C267.463 445.982 267.11 445.781 266.696 445.649C266.293 445.518 265.839 445.453 265.334 445.453C264.86 445.453 264.406 445.488 263.972 445.559C263.538 445.619 263.129 445.705 262.746 445.816C262.372 445.917 262.024 446.038 261.701 446.179C261.388 446.31 261.121 446.452 260.899 446.603L259.976 444.65C260.349 444.408 260.758 444.186 261.202 443.984C261.646 443.772 262.11 443.596 262.594 443.455C263.089 443.303 263.588 443.187 264.093 443.106C264.607 443.016 265.112 442.97 265.606 442.97C266.515 442.97 267.332 443.081 268.059 443.303C268.785 443.515 269.401 443.848 269.905 444.302C270.41 444.756 270.798 445.337 271.071 446.043C271.343 446.739 271.479 447.577 271.479 448.556L271.464 456.396H273.205V459H268.649V457.547ZM264.834 457.078C265.208 457.078 265.581 457.032 265.955 456.941C266.328 456.851 266.681 456.729 267.014 456.578C267.347 456.417 267.655 456.235 267.938 456.033C268.22 455.821 268.457 455.604 268.649 455.382L268.664 451.84H265.395C264.85 451.84 264.35 451.901 263.896 452.022C263.452 452.143 263.063 452.32 262.73 452.552C262.408 452.784 262.155 453.071 261.974 453.415C261.792 453.758 261.701 454.151 261.701 454.595C261.701 455.009 261.777 455.372 261.928 455.685C262.08 455.988 262.292 456.245 262.564 456.457C262.847 456.659 263.18 456.815 263.563 456.926C263.946 457.027 264.37 457.078 264.834 457.078ZM285.436 447.526C285.436 447.103 285.335 446.744 285.133 446.452C284.941 446.149 284.689 445.907 284.376 445.725C284.063 445.533 283.715 445.397 283.332 445.316C282.948 445.226 282.575 445.18 282.211 445.18C281.808 445.18 281.434 445.226 281.091 445.316C280.758 445.407 280.471 445.538 280.229 445.71C279.986 445.882 279.795 446.093 279.653 446.346C279.522 446.588 279.457 446.86 279.457 447.163C279.457 447.688 279.613 448.107 279.926 448.419C280.249 448.722 280.784 449.005 281.53 449.267L284.542 450.327C285.834 450.761 286.778 451.351 287.373 452.098C287.968 452.844 288.266 453.737 288.266 454.777C288.266 455.473 288.125 456.114 287.842 456.699C287.57 457.274 287.176 457.769 286.662 458.183C286.157 458.586 285.547 458.899 284.83 459.121C284.114 459.353 283.316 459.469 282.438 459.469C281.217 459.469 280.223 459.272 279.457 458.879C278.69 458.485 278.099 457.966 277.686 457.32H276.111V454.716H279.245C279.245 455.15 279.335 455.524 279.517 455.836C279.709 456.139 279.956 456.386 280.259 456.578C280.572 456.77 280.92 456.911 281.303 457.002C281.697 457.093 282.095 457.138 282.499 457.138C282.893 457.138 283.271 457.093 283.634 457.002C283.998 456.901 284.315 456.76 284.588 456.578C284.87 456.386 285.092 456.159 285.254 455.897C285.415 455.635 285.496 455.337 285.496 455.004C285.496 454.499 285.33 454.07 284.997 453.717C284.674 453.364 284.119 453.046 283.332 452.764L280.334 451.644C279.113 451.21 278.205 450.66 277.61 449.994C277.025 449.318 276.732 448.475 276.732 447.466C276.732 446.8 276.853 446.184 277.095 445.619C277.347 445.054 277.706 444.57 278.17 444.166C278.644 443.752 279.219 443.429 279.896 443.197C280.572 442.965 281.344 442.849 282.211 442.849C283.332 442.849 284.27 443.006 285.027 443.318C285.784 443.631 286.465 444.166 287.07 444.923H288.539V447.526H285.436ZM297.56 435.447H302.646V444.62C303.312 444.105 304.039 443.697 304.826 443.394C305.613 443.091 306.425 442.94 307.263 442.94C308.292 442.94 309.236 443.132 310.093 443.515C310.951 443.899 311.688 444.438 312.303 445.135C312.929 445.831 313.413 446.669 313.756 447.647C314.099 448.616 314.271 449.691 314.271 450.872C314.271 452.133 314.079 453.278 313.696 454.308C313.312 455.327 312.778 456.205 312.091 456.941C311.415 457.678 310.608 458.248 309.669 458.652C308.731 459.045 307.702 459.242 306.582 459.242C305.805 459.242 305.073 459.131 304.387 458.909C303.711 458.677 303.13 458.379 302.646 458.016V459H299.831V438.051H297.56V435.447ZM306.521 445.422C305.784 445.422 305.078 445.574 304.402 445.876C303.726 446.179 303.14 446.588 302.646 447.103V455.534C302.969 455.867 303.443 456.164 304.069 456.427C304.694 456.679 305.482 456.805 306.43 456.805C307.076 456.805 307.697 456.684 308.292 456.442C308.887 456.2 309.412 455.836 309.866 455.352C310.32 454.858 310.684 454.247 310.956 453.521C311.229 452.794 311.365 451.946 311.365 450.978C311.365 450.09 311.234 449.302 310.971 448.616C310.719 447.93 310.371 447.35 309.927 446.875C309.493 446.401 308.983 446.043 308.398 445.801C307.813 445.549 307.187 445.422 306.521 445.422ZM319.856 451.522C319.856 451.966 319.887 452.375 319.947 452.749C320.018 453.112 320.114 453.46 320.235 453.793C320.608 454.802 321.204 455.564 322.021 456.079C322.848 456.583 323.782 456.835 324.821 456.835C325.639 456.835 326.431 456.724 327.198 456.502C327.975 456.27 328.787 455.912 329.635 455.428L330.77 457.35C329.741 458.056 328.706 458.581 327.667 458.924C326.628 459.267 325.548 459.439 324.428 459.439C323.368 459.439 322.384 459.262 321.476 458.909C320.578 458.556 319.801 458.031 319.145 457.335C318.499 456.639 317.99 455.771 317.616 454.731C317.253 453.692 317.071 452.481 317.071 451.099C317.071 449.979 317.228 448.924 317.541 447.935C317.853 446.936 318.318 446.068 318.933 445.332C319.559 444.585 320.331 443.994 321.249 443.561C322.167 443.127 323.237 442.91 324.458 442.91C325.639 442.91 326.623 443.091 327.41 443.455C328.207 443.808 328.853 444.282 329.347 444.877C329.852 445.463 330.23 446.134 330.482 446.891C330.745 447.647 330.926 448.419 331.027 449.207C331.078 449.59 331.108 449.979 331.118 450.372C331.138 450.766 331.148 451.149 331.148 451.522H319.856ZM324.261 445.271C323.605 445.271 323.03 445.367 322.536 445.559C322.051 445.74 321.638 446.008 321.294 446.361C320.951 446.704 320.674 447.128 320.462 447.632C320.26 448.137 320.109 448.702 320.008 449.328H328.136C328.096 448.742 328 448.202 327.849 447.708C327.707 447.214 327.485 446.785 327.183 446.421C326.88 446.058 326.491 445.776 326.017 445.574C325.543 445.372 324.958 445.271 324.261 445.271ZM337.657 451.522C337.657 451.966 337.688 452.375 337.748 452.749C337.819 453.112 337.915 453.46 338.036 453.793C338.409 454.802 339.004 455.564 339.822 456.079C340.649 456.583 341.583 456.835 342.622 456.835C343.439 456.835 344.232 456.724 344.999 456.502C345.776 456.27 346.588 455.912 347.436 455.428L348.571 457.35C347.542 458.056 346.507 458.581 345.468 458.924C344.428 459.267 343.349 459.439 342.229 459.439C341.169 459.439 340.185 459.262 339.277 458.909C338.379 458.556 337.602 458.031 336.946 457.335C336.3 456.639 335.79 455.771 335.417 454.731C335.054 453.692 334.872 452.481 334.872 451.099C334.872 449.979 335.028 448.924 335.341 447.935C335.654 446.936 336.118 446.068 336.734 445.332C337.36 444.585 338.132 443.994 339.05 443.561C339.968 443.127 341.038 442.91 342.259 442.91C343.439 442.91 344.423 443.091 345.21 443.455C346.008 443.808 346.653 444.282 347.148 444.877C347.653 445.463 348.031 446.134 348.283 446.891C348.546 447.647 348.727 448.419 348.828 449.207C348.879 449.59 348.909 449.979 348.919 450.372C348.939 450.766 348.949 451.149 348.949 451.522H337.657ZM342.062 445.271C341.406 445.271 340.831 445.367 340.336 445.559C339.852 445.74 339.438 446.008 339.095 446.361C338.752 446.704 338.475 447.128 338.263 447.632C338.061 448.137 337.91 448.702 337.809 449.328H345.937C345.897 448.742 345.801 448.202 345.649 447.708C345.508 447.214 345.286 446.785 344.983 446.421C344.681 446.058 344.292 445.776 343.818 445.574C343.344 445.372 342.758 445.271 342.062 445.271ZM363.117 456.396H365.327V449.237C365.327 448.036 365.019 447.128 364.404 446.512C363.798 445.887 362.925 445.574 361.785 445.574C361.129 445.574 360.468 445.73 359.802 446.043C359.136 446.356 358.506 446.744 357.91 447.208V456.396H360.12V459H352.794V456.396H354.974V445.922H352.794V443.318H357.789V445.165H357.819C358.152 444.872 358.506 444.595 358.879 444.333C359.262 444.07 359.661 443.843 360.075 443.651C360.488 443.46 360.917 443.308 361.361 443.197C361.815 443.086 362.29 443.031 362.784 443.031C363.622 443.031 364.379 443.147 365.055 443.379C365.731 443.611 366.306 443.964 366.78 444.438C367.255 444.913 367.618 445.523 367.87 446.27C368.132 447.007 368.264 447.88 368.264 448.889V456.396H370.443V459H363.117V456.396ZM28.5654 495.526C28.5654 495.103 28.4645 494.744 28.2627 494.452C28.071 494.149 27.8187 493.907 27.5059 493.725C27.193 493.533 26.8449 493.397 26.4614 493.316C26.078 493.226 25.7046 493.18 25.3413 493.18C24.9377 493.18 24.5643 493.226 24.2212 493.316C23.8882 493.407 23.6006 493.538 23.3584 493.71C23.1162 493.882 22.9245 494.093 22.7832 494.346C22.652 494.588 22.5864 494.86 22.5864 495.163C22.5864 495.688 22.7428 496.107 23.0557 496.419C23.3786 496.722 23.9134 497.005 24.6602 497.267L27.6724 498.327C28.964 498.761 29.9076 499.351 30.5029 500.098C31.0983 500.844 31.396 501.737 31.396 502.777C31.396 503.473 31.2547 504.114 30.9722 504.699C30.6997 505.274 30.3062 505.769 29.7915 506.183C29.2869 506.586 28.6764 506.899 27.96 507.121C27.2435 507.353 26.4463 507.469 25.5684 507.469C24.3473 507.469 23.3534 507.272 22.5864 506.879C21.8195 506.485 21.2292 505.966 20.8154 505.32H19.2412V502.716H22.3745C22.3745 503.15 22.4653 503.524 22.647 503.836C22.8387 504.139 23.0859 504.386 23.3887 504.578C23.7015 504.77 24.0496 504.911 24.4331 505.002C24.8267 505.093 25.2253 505.138 25.6289 505.138C26.0225 505.138 26.4009 505.093 26.7642 505.002C27.1274 504.901 27.4453 504.76 27.7178 504.578C28.0003 504.386 28.2223 504.159 28.3838 503.897C28.5452 503.635 28.626 503.337 28.626 503.004C28.626 502.499 28.4595 502.07 28.1265 501.717C27.8035 501.364 27.2485 501.046 26.4614 500.764L23.4644 499.644C22.2433 499.21 21.3351 498.66 20.7397 497.994C20.1545 497.318 19.8618 496.475 19.8618 495.466C19.8618 494.8 19.9829 494.184 20.2251 493.619C20.4774 493.054 20.8356 492.57 21.2998 492.166C21.7741 491.752 22.3493 491.429 23.0254 491.197C23.7015 490.965 24.4735 490.849 25.3413 490.849C26.4614 490.849 27.3999 491.006 28.1567 491.318C28.9136 491.631 29.5947 492.166 30.2002 492.923H31.6685V495.526H28.5654ZM37.2236 499.522C37.2236 499.966 37.2539 500.375 37.3145 500.749C37.3851 501.112 37.481 501.46 37.6021 501.793C37.9754 502.802 38.5708 503.564 39.3882 504.079C40.2157 504.583 41.1491 504.835 42.1885 504.835C43.0059 504.835 43.798 504.724 44.5649 504.502C45.342 504.27 46.1543 503.912 47.002 503.428L48.1372 505.35C47.1079 506.056 46.0736 506.581 45.0342 506.924C43.9948 507.267 42.915 507.439 41.7949 507.439C40.7354 507.439 39.7515 507.262 38.8433 506.909C37.9451 506.556 37.1681 506.031 36.5122 505.335C35.8664 504.639 35.3568 503.771 34.9834 502.731C34.6201 501.692 34.4385 500.481 34.4385 499.099C34.4385 497.979 34.5949 496.924 34.9077 495.935C35.2205 494.936 35.6847 494.068 36.3003 493.332C36.9259 492.585 37.6979 491.994 38.6162 491.561C39.5345 491.127 40.6042 490.91 41.8252 490.91C43.0059 490.91 43.9897 491.091 44.7769 491.455C45.5741 491.808 46.2199 492.282 46.7144 492.877C47.2189 493.463 47.5973 494.134 47.8496 494.891C48.112 495.647 48.2936 496.419 48.3945 497.207C48.445 497.59 48.4753 497.979 48.4854 498.372C48.5055 498.766 48.5156 499.149 48.5156 499.522H37.2236ZM41.6284 493.271C40.9725 493.271 40.3973 493.367 39.9028 493.559C39.4185 493.74 39.0047 494.008 38.6616 494.361C38.3185 494.704 38.041 495.128 37.8291 495.632C37.6273 496.137 37.4759 496.702 37.375 497.328H45.5034C45.4631 496.742 45.3672 496.202 45.2158 495.708C45.0745 495.214 44.8525 494.785 44.5498 494.421C44.2471 494.058 43.8586 493.776 43.3843 493.574C42.91 493.372 42.3247 493.271 41.6284 493.271ZM62.6836 504.396H64.8936V497.237C64.8936 496.036 64.5858 495.128 63.9702 494.512C63.3647 493.887 62.4919 493.574 61.3516 493.574C60.6956 493.574 60.0347 493.73 59.3687 494.043C58.7026 494.356 58.0719 494.744 57.4766 495.208V504.396H59.6865V507H52.3604V504.396H54.54V493.922H52.3604V491.318H57.3555V493.165H57.3857C57.7188 492.872 58.0719 492.595 58.4453 492.333C58.8288 492.07 59.2274 491.843 59.6411 491.651C60.0549 491.46 60.4837 491.308 60.9277 491.197C61.3818 491.086 61.8561 491.031 62.3506 491.031C63.1882 491.031 63.945 491.147 64.6211 491.379C65.2972 491.611 65.8724 491.964 66.3467 492.438C66.821 492.913 67.1842 493.523 67.4365 494.27C67.6989 495.007 67.8301 495.88 67.8301 496.889V504.396H70.0098V507H62.6836V504.396ZM77.5781 491.318H81.2563V493.604H77.5479L77.5024 502.656C77.5024 503.271 77.5731 503.771 77.7144 504.154C77.8556 504.538 78.0827 504.805 78.3955 504.957C78.7083 505.098 79.0615 505.168 79.4551 505.168C79.8789 505.168 80.2523 505.133 80.5752 505.062C80.8981 504.982 81.2513 504.851 81.6348 504.669L82.2856 506.561C81.8013 506.813 81.2917 507.01 80.7568 507.151C80.222 507.303 79.5913 507.378 78.8647 507.378C78.1785 507.378 77.5781 507.293 77.0635 507.121C76.5589 506.96 76.13 506.682 75.7769 506.289C75.4338 505.895 75.1764 505.37 75.0049 504.714C74.8333 504.048 74.7476 503.221 74.7476 502.232L74.793 493.604H72.2954V491.318H74.8232V487.564L77.5781 486.263V491.318ZM84.5107 505.168C84.5107 504.906 84.5612 504.659 84.6621 504.427C84.7731 504.185 84.9194 503.978 85.1011 503.806C85.2827 503.625 85.4896 503.483 85.7217 503.382C85.9639 503.271 86.2212 503.216 86.4937 503.216C86.756 503.216 87.0033 503.271 87.2354 503.382C87.4775 503.483 87.6844 503.625 87.856 503.806C88.0376 503.978 88.1789 504.185 88.2798 504.427C88.3908 504.659 88.4463 504.906 88.4463 505.168C88.4463 505.441 88.3908 505.698 88.2798 505.94C88.1789 506.183 88.0376 506.4 87.856 506.591C87.6844 506.773 87.4775 506.914 87.2354 507.015C87.0033 507.126 86.756 507.182 86.4937 507.182C86.2212 507.182 85.9639 507.126 85.7217 507.015C85.4896 506.914 85.2827 506.773 85.1011 506.591C84.9194 506.4 84.7731 506.183 84.6621 505.94C84.5612 505.698 84.5107 505.441 84.5107 505.168Z" fill="white"/>
        <g clip-path="url(#clip1_8381_14756)">
            <path d="M113 -2H277V-2C275.396 -1.36663 274.327 0.165139 274.286 1.88899L274.242 3.74719V3.74719C274.242 17.6939 262.936 29 248.989 29H141.011C127.064 29 115.758 17.6939 115.758 3.74719V3.74719L115.714 1.88899C115.673 0.165139 114.604 -1.36663 113 -2V-2Z" fill="black"/>
            <path opacity="0.35" d="M353.669 17.832H370.335C371.532 17.832 372.502 18.8021 372.502 19.9987V25.9987C372.502 27.1953 371.532 28.1654 370.335 28.1654H353.669C352.472 28.1654 351.502 27.1953 351.502 25.9987V19.9987C351.502 18.8021 352.472 17.832 353.669 17.832Z" stroke="white"/>
            <path opacity="0.4" d="M374.002 20.998V24.998C374.807 24.6593 375.33 23.8712 375.33 22.998C375.33 22.1249 374.807 21.3368 374.002 20.998" fill="white"/>
            <path d="M353.002 20.432C353.002 19.8245 353.494 19.332 354.102 19.332H369.902C370.509 19.332 371.002 19.8245 371.002 20.432V25.5654C371.002 26.1729 370.509 26.6654 369.902 26.6654H354.102C353.494 26.6654 353.002 26.1729 353.002 25.5654V20.432Z" fill="white"/>
            <path fill-rule="evenodd" clip-rule="evenodd" d="M338.332 19.6074C340.548 19.6075 342.679 20.4589 344.285 21.9857C344.406 22.1036 344.599 22.1021 344.718 21.9824L345.874 20.8157C345.935 20.755 345.968 20.6728 345.968 20.5872C345.967 20.5016 345.933 20.4198 345.872 20.3597C341.656 16.3202 335.007 16.3202 330.792 20.3597C330.731 20.4197 330.696 20.5015 330.695 20.5871C330.695 20.6727 330.728 20.755 330.789 20.8157L331.945 21.9824C332.064 22.1023 332.257 22.1038 332.378 21.9857C333.984 20.4588 336.116 19.6074 338.332 19.6074ZM338.332 23.4031C339.549 23.403 340.723 23.8555 341.626 24.6727C341.748 24.7887 341.94 24.7862 342.059 24.6671L343.214 23.5004C343.275 23.4392 343.308 23.3562 343.308 23.2699C343.307 23.1837 343.271 23.1014 343.209 23.0414C340.461 20.485 336.205 20.485 333.457 23.0414C333.395 23.1014 333.359 23.1837 333.359 23.27C333.358 23.3563 333.392 23.4393 333.453 23.5004L334.607 24.6671C334.726 24.7862 334.918 24.7887 335.04 24.6727C335.942 23.8561 337.115 23.4036 338.332 23.4031ZM340.645 25.9569C340.647 26.0434 340.613 26.1268 340.551 26.1874L338.554 28.2031C338.495 28.2623 338.415 28.2957 338.332 28.2957C338.249 28.2957 338.169 28.2623 338.11 28.2031L336.113 26.1874C336.051 26.1268 336.017 26.0433 336.019 25.9568C336.021 25.8703 336.058 25.7884 336.122 25.7304C337.398 24.6515 339.266 24.6515 340.542 25.7304C340.606 25.7884 340.643 25.8704 340.645 25.9569Z" fill="white"/>
            <path fill-rule="evenodd" clip-rule="evenodd" d="M324.668 17.666H323.668C323.116 17.666 322.668 18.1137 322.668 18.666V27.3327C322.668 27.885 323.116 28.3327 323.668 28.3327H324.668C325.22 28.3327 325.668 27.885 325.668 27.3327V18.666C325.668 18.1137 325.22 17.666 324.668 17.666ZM319.001 19.9993H320.001C320.554 19.9993 321.001 20.4471 321.001 20.9993V27.3327C321.001 27.885 320.554 28.3327 320.001 28.3327H319.001C318.449 28.3327 318.001 27.885 318.001 27.3327V20.9993C318.001 20.4471 318.449 19.9993 319.001 19.9993ZM315.335 22.3327H314.335C313.782 22.3327 313.335 22.7804 313.335 23.3327V27.3327C313.335 27.885 313.782 28.3327 314.335 28.3327H315.335C315.887 28.3327 316.335 27.885 316.335 27.3327V23.3327C316.335 22.7804 315.887 22.3327 315.335 22.3327ZM310.668 24.3327H309.668C309.116 24.3327 308.668 24.7804 308.668 25.3327V27.3327C308.668 27.885 309.116 28.3327 309.668 28.3327H310.668C311.22 28.3327 311.668 27.885 311.668 27.3327V25.3327C311.668 24.7804 311.22 24.3327 310.668 24.3327Z" fill="white"/>
            <path d="M40.5146 17.1675C38.2222 17.1675 36.5889 18.7349 36.5889 20.8809V20.8955C36.5889 22.9023 38.0098 24.3818 40.0386 24.3818C41.4888 24.3818 42.4116 23.6421 42.7998 22.8071H42.9463C42.9463 22.8877 42.939 22.9683 42.939 23.0488C42.8584 25.0703 42.1479 26.7109 40.4707 26.7109C39.5405 26.7109 38.8887 26.2275 38.6104 25.4878L38.5884 25.4146H36.728L36.7427 25.4951C37.0796 27.1138 38.5298 28.2637 40.4707 28.2637C43.1294 28.2637 44.7334 26.1543 44.7334 22.5947V22.5801C44.7334 18.7715 42.7705 17.1675 40.5146 17.1675ZM40.5073 22.9316C39.3062 22.9316 38.4346 22.0527 38.4346 20.8296V20.8149C38.4346 19.6357 39.3647 18.7056 40.5293 18.7056C41.7012 18.7056 42.6167 19.6504 42.6167 20.8589V20.8735C42.6167 22.0674 41.7012 22.9316 40.5073 22.9316ZM47.5586 21.1519C48.2324 21.1519 48.7231 20.6392 48.7231 19.9946C48.7231 19.3428 48.2324 18.8374 47.5586 18.8374C46.8921 18.8374 46.394 19.3428 46.394 19.9946C46.394 20.6392 46.8921 21.1519 47.5586 21.1519ZM47.5586 26.5864C48.2324 26.5864 48.7231 26.0811 48.7231 25.4292C48.7231 24.7773 48.2324 24.272 47.5586 24.272C46.8921 24.272 46.394 24.7773 46.394 25.4292C46.394 26.0811 46.8921 26.5864 47.5586 26.5864ZM55.5107 28H57.3198V25.9712H58.7407V24.4111H57.3198V17.4312H54.6465C53.2109 19.6138 51.7095 22.0454 50.3398 24.4258V25.9712H55.5107V28ZM52.0977 24.4551V24.3452C53.123 22.5508 54.3462 20.5952 55.4302 18.9399H55.54V24.4551H52.0977ZM62.6206 28H64.5103V17.4312H62.6279L59.8667 19.3721V21.1519L62.4961 19.2915H62.6206V28Z" fill="white"/>
        </g>
        <rect x="128" y="831" width="134" height="5" rx="2.5" fill="black"/>
        <path d="M16 624C16 619.582 19.5817 616 24 616H366C370.418 616 374 619.582 374 624V672C374 676.418 370.418 680 366 680H24C19.5817 680 16 676.418 16 672V624Z" fill="white"/>
        <path d="M160.575 644.233C159.55 644.233 158.756 644.62 158.193 645.394C157.631 646.161 157.35 647.233 157.35 648.61C157.35 651.476 158.425 652.908 160.575 652.908C161.478 652.908 162.57 652.683 163.854 652.231V654.517C162.799 654.956 161.621 655.176 160.32 655.176C158.451 655.176 157.021 654.61 156.031 653.479C155.041 652.343 154.546 650.714 154.546 648.593C154.546 647.257 154.789 646.088 155.275 645.086C155.762 644.078 156.459 643.308 157.367 642.774C158.281 642.235 159.351 641.966 160.575 641.966C161.823 641.966 163.077 642.268 164.337 642.871L163.458 645.086C162.978 644.857 162.494 644.658 162.008 644.488C161.521 644.318 161.044 644.233 160.575 644.233ZM168.521 650.069C168.521 651.042 168.679 651.777 168.995 652.275C169.317 652.773 169.839 653.022 170.56 653.022C171.274 653.022 171.787 652.776 172.098 652.284C172.414 651.786 172.572 651.048 172.572 650.069C172.572 649.097 172.414 648.367 172.098 647.881C171.781 647.395 171.263 647.151 170.542 647.151C169.827 647.151 169.312 647.395 168.995 647.881C168.679 648.361 168.521 649.091 168.521 650.069ZM175.314 650.069C175.314 651.669 174.893 652.92 174.049 653.822C173.205 654.725 172.03 655.176 170.524 655.176C169.581 655.176 168.749 654.971 168.028 654.561C167.308 654.145 166.754 653.55 166.367 652.776C165.98 652.003 165.787 651.101 165.787 650.069C165.787 648.464 166.206 647.216 167.044 646.325C167.882 645.435 169.06 644.989 170.577 644.989C171.521 644.989 172.353 645.194 173.073 645.604C173.794 646.015 174.348 646.604 174.734 647.371C175.121 648.139 175.314 649.038 175.314 650.069ZM186.6 655H183.919V649.261C183.919 648.552 183.793 648.021 183.541 647.67C183.289 647.312 182.888 647.134 182.337 647.134C181.587 647.134 181.045 647.386 180.711 647.89C180.377 648.388 180.21 649.217 180.21 650.377V655H177.529V645.174H179.577L179.938 646.431H180.087C180.386 645.956 180.796 645.599 181.317 645.358C181.845 645.112 182.442 644.989 183.11 644.989C184.253 644.989 185.12 645.3 185.712 645.921C186.304 646.536 186.6 647.427 186.6 648.593V655ZM193.499 653.04C193.968 653.04 194.53 652.938 195.187 652.732V654.728C194.519 655.026 193.698 655.176 192.726 655.176C191.653 655.176 190.871 654.906 190.379 654.367C189.893 653.822 189.649 653.008 189.649 651.924V647.187H188.366V646.053L189.843 645.156L190.616 643.082H192.33V645.174H195.081V647.187H192.33V651.924C192.33 652.305 192.436 652.586 192.646 652.768C192.863 652.949 193.147 653.04 193.499 653.04ZM197.067 642.634C197.067 641.761 197.554 641.324 198.526 641.324C199.499 641.324 199.985 641.761 199.985 642.634C199.985 643.05 199.862 643.375 199.616 643.609C199.376 643.838 199.013 643.952 198.526 643.952C197.554 643.952 197.067 643.513 197.067 642.634ZM199.862 655H197.182V645.174H199.862V655ZM211.754 655H209.073V649.261C209.073 648.552 208.947 648.021 208.695 647.67C208.443 647.312 208.042 647.134 207.491 647.134C206.741 647.134 206.199 647.386 205.865 647.89C205.531 648.388 205.364 649.217 205.364 650.377V655H202.684V645.174H204.731L205.092 646.431H205.241C205.54 645.956 205.95 645.599 206.472 645.358C206.999 645.112 207.597 644.989 208.265 644.989C209.407 644.989 210.274 645.3 210.866 645.921C211.458 646.536 211.754 647.427 211.754 648.593V655ZM221.475 655L221.114 653.743H220.974C220.687 654.2 220.279 654.555 219.752 654.807C219.225 655.053 218.624 655.176 217.95 655.176C216.796 655.176 215.926 654.868 215.34 654.253C214.754 653.632 214.461 652.741 214.461 651.581V645.174H217.142V650.913C217.142 651.622 217.268 652.155 217.52 652.513C217.771 652.864 218.173 653.04 218.724 653.04C219.474 653.04 220.016 652.791 220.35 652.293C220.684 651.789 220.851 650.957 220.851 649.797V645.174H223.531V655H221.475ZM230.413 646.896C229.845 646.896 229.399 647.078 229.077 647.441C228.755 647.799 228.57 648.309 228.523 648.971H232.285C232.273 648.309 232.101 647.799 231.767 647.441C231.433 647.078 230.981 646.896 230.413 646.896ZM230.791 655.176C229.209 655.176 227.973 654.739 227.082 653.866C226.191 652.993 225.746 651.757 225.746 650.157C225.746 648.511 226.156 647.239 226.977 646.343C227.803 645.44 228.942 644.989 230.396 644.989C231.784 644.989 232.865 645.385 233.639 646.176C234.412 646.967 234.799 648.06 234.799 649.454V650.755H228.462C228.491 651.517 228.717 652.111 229.139 652.539C229.561 652.967 230.152 653.181 230.914 653.181C231.506 653.181 232.065 653.119 232.593 652.996C233.12 652.873 233.671 652.677 234.245 652.407V654.481C233.776 654.716 233.275 654.889 232.742 655C232.209 655.117 231.559 655.176 230.791 655.176Z" fill="#212C37"/>
        <path fill-rule="evenodd" clip-rule="evenodd" d="M245.452 216.334L245.485 216.332L245.511 216.334C245.767 216.334 246.024 216.35 246.279 216.383L246.284 216.383L246.29 216.384C246.475 216.408 246.659 216.44 246.842 216.48C247.552 216.638 248.239 216.922 248.868 217.333L248.87 217.334L248.872 217.335C249.057 217.456 249.237 217.588 249.411 217.731L249.429 217.745L249.447 217.761C249.589 217.88 249.728 218.006 249.861 218.14C249.879 218.158 249.897 218.175 249.914 218.193L249.933 218.211L249.958 218.239C250.054 218.339 250.146 218.441 250.233 218.546L250.256 218.572L250.266 218.586C250.898 219.353 251.316 220.238 251.521 221.16C251.57 221.381 251.608 221.605 251.632 221.831L251.634 221.854C251.655 222.053 251.666 222.252 251.667 222.451L251.669 222.484C251.67 222.943 251.62 223.397 251.522 223.838C251.455 224.139 251.366 224.436 251.254 224.726L211.024 336.069C209.466 339.467 206.072 341.646 202.334 341.646C198.908 341.646 195.77 339.815 194.141 337.038L193.735 336.258L173.067 294.928L131.932 274.356C128.817 272.929 126.727 269.958 126.4 266.593L126.355 265.667C126.355 262.217 128.212 259.059 131.543 257.216L132.406 256.784L243.249 216.758C243.547 216.641 243.851 216.549 244.16 216.48L244.16 216.48L244.16 216.48C244.375 216.433 244.592 216.397 244.811 216.372L244.832 216.369L244.855 216.367C245.053 216.347 245.252 216.335 245.452 216.334ZM221.603 237.677L142.937 266.068L176.45 282.83L221.603 237.677ZM185.171 291.551L201.915 325.04L230.307 246.415L185.171 291.551Z" fill="#1F3B73"/>
    </g>
    <defs>
        <clipPath id="clip0_8381_14756">
            <rect width="390" height="844" fill="white"/>
        </clipPath>
        <clipPath id="clip1_8381_14756">
            <rect width="390" height="47" fill="white"/>
        </clipPath>
    </defs>
</svg>
