<svg width="24" height="24" viewBox="0 0 24 24" fill="none" xmlns="http://www.w3.org/2000/svg">
<path fill-rule="evenodd" clip-rule="evenodd" d="M11.8829 2.00667L11.9969 2L12.1149 2.00667L12.1736 2.01524L12.2351 2.02821L12.3462 2.06198C12.4214 2.08979 12.494 2.12702 12.5624 2.17377L12.6669 2.25601L12.9215 2.47401C14.9387 4.14968 17.4888 5.04971 20.1108 5.01139L20.4532 5.00105C20.9133 4.98 21.3284 5.27602 21.4583 5.71798C22.4511 9.0953 22.0318 12.7309 20.2963 15.7936C18.5608 18.8562 15.6574 21.0841 12.25 21.968C12.0853 22.0107 11.9125 22.0107 11.7478 21.968C8.34035 21.0841 5.43698 18.8562 3.70146 15.7936C1.96594 12.7309 1.54667 9.0953 2.53948 5.71798C2.6694 5.27602 3.08442 4.98 3.5446 5.00105C6.28626 5.12651 8.97142 4.22253 11.0762 2.47401L11.3389 2.2486L11.4354 2.17377C11.5037 2.12702 11.5764 2.08979 11.6516 2.06198L11.7639 2.02801C11.8046 2.01809 11.8437 2.01122 11.8829 2.00667ZM11.9989 4.29501L11.8224 4.43131C9.71046 6.00745 7.16809 6.90476 4.53469 7.00345L4.27089 7.00901L4.20734 7.31905C3.74158 9.75509 4.11203 12.2858 5.27063 14.4943L5.4415 14.8075C6.85563 17.303 9.18609 19.1436 11.9314 19.9443L11.9989 19.963L12.0664 19.9443C14.7061 19.1744 16.9623 17.4431 18.3891 15.0925L18.5563 14.8075C19.8486 12.527 20.2784 9.8711 19.7904 7.31905L19.7259 7.00901L19.4631 7.00345C16.8297 6.90476 14.2873 6.00745 12.1754 4.43131L11.9989 4.29501ZM15.706 9.2929C15.3155 8.90238 14.6823 8.90238 14.2918 9.2929L10.9989 12.585L9.70599 11.2929L9.61179 11.2097C9.21949 10.9047 8.65226 10.9324 8.29178 11.2929C7.90126 11.6834 7.90126 12.3166 8.29178 12.7071L10.2918 14.7071L10.386 14.7903C10.7783 15.0953 11.3455 15.0676 11.706 14.7071L15.706 10.7071L15.7892 10.6129C16.0942 10.2206 16.0665 9.65339 15.706 9.2929Z" fill="black"/>
</svg>
