<svg width="17" height="21" viewBox="0 0 17 21" fill="none" xmlns="http://www.w3.org/2000/svg">
<path fill-rule="evenodd" clip-rule="evenodd" d="M11 17.0002H7C5.34 17.0002 4 15.6502 4 14.0002V7H3C2.44 7 2 7.44 2 8V18C2 18.55 2.44 19 3 19H10C10.55 19 11 18.55 11 18V17.0002ZM11.9813 15.0002H7C6.44 15.0002 6 14.5502 6 14.0002V6V4.00016C6 3.44016 6.44 3.00016 7 3.00016H10V6C10 7.1 10.89 8 12 8H15V14.0002C15 14.5502 14.55 15.0002 14 15.0002H12.0183C12.0122 15.0001 12.0061 15 12 15C11.9938 15 11.9875 15.0001 11.9813 15.0002ZM13 17.0002H14V16.9992C15.65 16.9992 17 15.6492 17 13.9992V7V6.99916C17 6.98158 16.9995 6.96404 16.9986 6.94656C16.993 6.84036 16.9706 6.73643 16.9338 6.63913C16.8838 6.50653 16.8071 6.38622 16.71 6.28916L11.71 1.28916C11.52 1.09916 11.26 0.989163 11 0.999163V1L10.9813 1.00016H7C5.34 1.00016 4 2.34016 4 4.00016V5H3C1.34 5 0 6.34 0 8V18C0 19.65 1.34 21 3 21H10C11.65 21 13 19.65 13 18V17.0002ZM12 4.41016L13.5898 6H12V4.41016Z" fill="#1F3B73"/>
</svg>
