<svg width="16" height="21" viewBox="0 0 16 21" fill="none" xmlns="http://www.w3.org/2000/svg">
<path fill-rule="evenodd" clip-rule="evenodd" d="M13 0C14.5977 0 15.9037 1.24892 15.9949 2.82373L16 3V19C16 19.7607 15.1926 20.229 14.5417 19.8892L14.4453 19.8321L12.127 18.287L10.7071 19.7071C10.3466 20.0676 9.77939 20.0953 9.3871 19.7903L9.29289 19.7071L8 18.415L6.70711 19.7071C6.34662 20.0676 5.77939 20.0953 5.3871 19.7903L5.29289 19.7071L3.872 18.287L1.53609 19.8443L1.43977 19.8984L1.33726 19.9417L1.22929 19.9736L1.11662 19.9933L1 20L0.883379 19.9933L0.770709 19.9736L0.662741 19.9417L0.594858 19.9144L0.496463 19.8642L0.463912 19.8443L0.374551 19.7803L0.292893 19.7071L0.219689 19.6254L0.155688 19.5361L0.101641 19.4398L0.0627371 19.3493L0.0444759 19.2958L0.0264107 19.2293L0.00672773 19.1166L0.000121709 19.0223L0 3C0 1.40232 1.24892 0.0963391 2.82373 0.00509269L3 0H13ZM13 2H3C2.48716 2 2.06449 2.38604 2.00673 2.88338L2 3V17.13L3.4453 16.1679C3.80587 15.9276 4.27511 15.9489 4.61069 16.208L4.70711 16.2929L6 17.585L7.29289 16.2929C7.65338 15.9324 8.22061 15.9047 8.6129 16.2097L8.70711 16.2929L10 17.585L11.2929 16.2929C11.5993 15.9865 12.0636 15.9154 12.4435 16.1037L12.5547 16.1679L14 17.131V3C14 2.48716 13.614 2.06449 13.1166 2.00673L13 2ZM11 12C11.5523 12 12 12.4477 12 13C12 13.5128 11.614 13.9355 11.1166 13.9933L11 14H9C8.44771 14 8 13.5523 8 13C8 12.4872 8.38604 12.0645 8.88338 12.0067L9 12H11ZM11 8C11.5523 8 12 8.44771 12 9C12 9.51284 11.614 9.93551 11.1166 9.99327L11 10H5C4.44772 10 4 9.55229 4 9C4 8.48716 4.38604 8.06449 4.88338 8.00673L5 8H11ZM11 4C11.5523 4 12 4.44772 12 5C12 5.51284 11.614 5.93551 11.1166 5.99327L11 6H5C4.44772 6 4 5.55228 4 5C4 4.48716 4.38604 4.06449 4.88338 4.00673L5 4H11Z" fill="#36495A"/>
</svg>
