<svg width="20" height="12" viewBox="0 0 20 12" fill="none" xmlns="http://www.w3.org/2000/svg">
<path fill-rule="evenodd" clip-rule="evenodd" d="M0.301085 11.7107C0.48098 11.8903 0.740828 12 1.01067 12L0.980687 11.9691C1.24054 11.9691 1.50038 11.8594 1.69027 11.6798L6.97717 6.39308L10.2652 9.68481L10.2752 9.69479C10.665 10.0838 11.3046 10.0838 11.6944 9.69479L18.0012 3.40013V8.01024C18.0012 8.55886 18.4409 9.00774 19.0006 9.00774C19.5503 9.00774 20 8.55886 20 8.01024V1.02777C20 0.783946 19.9143 0.562929 19.772 0.391263C19.7469 0.359049 19.7194 0.328018 19.6897 0.298376C19.4264 0.0361699 19.0632 -0.0532927 18.7346 0.0302734H12.0047C11.445 0.0302734 11.0053 0.469172 11.0053 1.02777C11.0053 1.57639 11.445 2.02527 12.0047 2.02527H16.5437L10.9848 7.58109L7.69675 4.28936C7.30698 3.90033 6.66736 3.90033 6.28758 4.29933L0.291091 10.2843V10.2943C-0.0986803 10.6833 -0.0986803 11.3217 0.301085 11.7107Z" fill="#36495A"/>
</svg>
