<svg width="24" height="24" viewBox="0 0 24 24" fill="none" xmlns="http://www.w3.org/2000/svg">
<path fill-rule="evenodd" clip-rule="evenodd" d="M15.2932 11.7203C15.4731 11.9001 15.7329 12.01 16.0027 12.01L15.9828 11.98C16.2426 11.98 16.5024 11.8701 16.6923 11.6903L20.5109 7.87303C20.8032 7.6982 21 7.37846 21 7.015C21 6.90689 20.9832 6.80326 20.9521 6.70641C20.9068 6.551 20.8226 6.40544 20.6997 6.28571V6.2957L16.7023 2.2997C16.3026 1.9001 15.673 1.9001 15.2832 2.2997C14.8835 2.68931 14.8835 3.31868 15.2832 3.71828L17.5887 6.016H10.0072C9.44753 6.016 9.00781 6.45556 9.00781 7.015C9.00781 7.56446 9.44753 8.01401 10.0072 8.01401H17.5686L15.2832 10.2917V10.3017C14.8935 10.6913 14.8935 11.3307 15.2932 11.7203ZM8.008 22C7.73818 22 7.47835 21.8901 7.29846 21.7103L3.30107 17.7143C2.90133 17.3247 2.90133 16.6853 3.29107 16.2957V16.2857L7.28847 12.2897C7.67822 11.8901 8.30781 11.8901 8.70755 12.2897C9.09729 12.6793 9.09729 13.3087 8.70755 13.7083L6.40204 16.006H13.0052C13.5549 16.006 14.0046 16.4456 14.0046 17.005C14.0046 17.5545 13.5549 18.004 13.0052 18.004H6.42212L8.70755 20.2817C9.09729 20.6613 9.09729 21.3007 8.70755 21.6903H8.69755C8.50768 21.8701 8.24785 21.98 7.98801 21.98L8.008 22Z" fill="#1F3B73"/>
</svg>
