<svg width="20" height="20" viewBox="0 0 20 20" fill="none" xmlns="http://www.w3.org/2000/svg">
<path fill-rule="evenodd" clip-rule="evenodd" d="M5 0L9.05903 0.0017331L9.11662 0.00672773L9.17643 0.0155979L9.22929 0.0264107L9.33726 0.0582986L9.40394 0.0849217L9.53609 0.155688L9.62545 0.219689L9.70711 0.292893L18.7454 9.33333C19.5537 10.2371 19.5922 11.5821 18.8278 12.5628L18.7071 12.7071L12.6667 18.7454C11.7629 19.5537 10.4179 19.5922 9.43717 18.8278L9.29289 18.7071L0.292893 9.70711C0.136613 9.55083 0.0374017 9.34815 0.00867243 9.13144L0 9V5C0 2.23858 2.23858 0 5 0ZM8.585 2H5C3.40232 2 2.09634 3.24892 2.00509 4.82373L2 5V8.585L10.6667 17.2546C10.8327 17.4032 11.0733 17.4218 11.2309 17.336L11.2929 17.2929L17.2546 11.3333C17.4032 11.1673 17.4218 10.9267 17.336 10.7691L17.2929 10.7071L8.585 2ZM7 4C5.34315 4 4 5.34315 4 7C4 8.65685 5.34315 10 7 10C8.65685 10 10 8.65685 10 7C10 5.34315 8.65685 4 7 4ZM7 6C7.55228 6 8 6.44772 8 7C8 7.55228 7.55228 8 7 8C6.44772 8 6 7.55228 6 7C6 6.44772 6.44772 6 7 6Z" fill="#36495A"/>
</svg>
