<svg width="20" height="16" viewBox="0 0 20 16" fill="none" xmlns="http://www.w3.org/2000/svg">
<path fill-rule="evenodd" clip-rule="evenodd" d="M15.9949 2.82373C15.9037 1.24892 14.5977 0 13 0H3L2.82373 0.00509269C1.24892 0.0963391 0 1.40232 0 3V9L0.00509269 9.17627C0.0963391 10.7511 1.40232 12 3 12H4V13C4 14.6569 5.34315 16 7 16H17C18.6569 16 20 14.6569 20 13V7C20 5.34315 18.6569 4 17 4H16V3L15.9949 2.82373ZM14 4V3C14 2.48716 13.614 2.06449 13.1166 2.00673L13 2H3C2.48716 2 2.06449 2.38604 2.00673 2.88338L2 3V9C2 9.51284 2.38604 9.93551 2.88338 9.99327L3 10H4V7C4 5.34315 5.34315 4 7 4H14ZM6 11V7C6 6.44772 6.44772 6 7 6H15H17C17.5523 6 18 6.44772 18 7V13C18 13.5523 17.5523 14 17 14H7C6.44772 14 6 13.5523 6 13V11ZM9 10C9 8.34315 10.3431 7 12 7C13.6569 7 15 8.34315 15 10C15 11.6569 13.6569 13 12 13C10.3431 13 9 11.6569 9 10ZM13 10C13 9.44772 12.5523 9 12 9C11.4477 9 11 9.44772 11 10C11 10.5523 11.4477 11 12 11C12.5523 11 13 10.5523 13 10Z" fill="#36495A"/>
</svg>
