<svg width="24" height="24" viewBox="0 0 24 24" fill="none" xmlns="http://www.w3.org/2000/svg">
<path d="M4.06189 11C4.55399 7.05369 7.92038 4 12 4C16.0796 4 19.446 7.05369 19.9381 11H19.9331H19.8794H19.826H19.7729H19.7199H19.6672H19.6148H19.5626H19.5106H19.4589H19.4074H19.3561H19.3051H19.2543H19.2037H19.1534H19.1033H19.0534H19.0037H18.9543H18.9051H18.8561H18.8073H18.7588H18.7105H18.6624H18.6145H18.5669H18.5194H18.4722H18.4252H18.3784H18.3318H18.2854H18.2393H18.1933H18.1476H18.102H18.0567H18.0116H17.9667H17.922H17.8774H17.8331H17.789H17.7451H17.7014H17.6579H17.6146H17.5715H17.5285H17.4858H17.4433H17.4009H17.3588H17.3168H17.275H17.2334H17.192H17.1508H17.1098H17.069H17.0283H16.9878H16.9475H16.9074H16.8674H16.8277H16.7881H16.7487H16.7094H16.6704H16.6315H16.5928H16.5542H16.5158H16.4776H16.4396H16.4017H16.364H16.3264H16.2891H16.2518H16.2148H16.1779H16.1411H16.1046H16.0681H16.0319H15.9958H15.9598H15.924H15.8884H15.8529H15.8175H15.7823H15.7473H15.7124H15.6776H15.643H15.6085H15.5742H15.54H15.506H15.4721H15.4383H15.4047H15.3712H15.3379H15.3047H15.2716H15.2387H15.2059H15.1732H15.1406H15.1082H15.0759H15.0438H15.0117H14.9798H14.948H14.9164H14.8848H14.8534H14.8221H14.7909H14.7599H14.7289H14.6981H14.6674H14.6368H14.6063H14.5759H14.5457H14.5155H14.4855H14.4556H14.4257H14.396H14.3664H14.3369H14.3075H14.2782H14.249H14.2199H14.1909H14.162H14.1332H14.1045H14.0758H14.0473H14.0189H13.9906H13.9623H13.9342H13.9061H13.8781H13.8502H13.8224H13.7947H13.7671H13.7395H13.7121H13.6847H13.6574H13.6301H13.603H13.5759H13.5489H13.522H13.4951H13.4684H13.4417H13.415H13.3885H13.362H13.3356H13.3092H13.2829H13.2567H13.2305H13.2044H13.1784H13.1524H13.1265H13.1006H13.0748H13.0491H13.0234H12.9978H12.9722H12.9467H12.9212H12.8958H12.8704H12.8451H12.8198H12.7946H12.7694H12.7443H12.7192H12.6941H12.6691H12.6442H12.6192H12.5944H12.5695H12.5447H12.5199H12.4952H12.4705H12.4458H12.4212H12.3965H12.372H12.3474H12.3229H12.2984H12.2739H12.2495H12.225H12.2006H12.1763H12.1519H12.1276H12.1032H12.0789H12.0547H12.0304H12.0061H11.9819H11.9577H11.9334H11.9092H11.885H11.8609H11.8367H11.8125H11.7883H11.7642H11.74H11.7159H11.6917H11.6675H11.6434H11.6192H11.5951H11.5709H11.5468H11.5226H11.4984H11.4742H11.45H11.4258H11.4016H11.3774H11.3532H11.3289H11.3046H11.2804H11.2561H11.2318H11.2074H11.1831H11.1587H11.1343H11.1099H11.0855H11.061H11.0365H11.012H10.9874H10.9629H10.9383H10.9136H10.889H10.8643H10.8396H10.8148H10.79H10.7652H10.7403H10.7154H10.6904H10.6654H10.6404H10.6153H10.5902H10.565H10.5398H10.5146H10.4893H10.4639H10.4385H10.4131H10.3876H10.362H10.3364H10.3107H10.285H10.2592H10.2334H10.2075H10.1816H10.1555H10.1295H10.1033H10.0771H10.0509H10.0245H9.99813H9.97166H9.94513H9.91852H9.89185H9.8651H9.83828H9.81139H9.78442H9.75737H9.73025H9.70305H9.67578H9.64842H9.62098H9.59346H9.56586H9.53817H9.5104H9.48254H9.4546H9.42657H9.39845H9.37024H9.34194H9.31355H9.28506H9.25648H9.22781H9.19904H9.17017H9.1412H9.11214H9.08297H9.05371H9.02434H8.99487H8.9653H8.93562H8.90584H8.87595H8.84595H8.81584H8.78562H8.75529H8.72485H8.6943H8.66363H8.63285H8.60195H8.57093H8.5398H8.50854H8.47717H8.44568H8.41406H8.38232H8.35046H8.31847H8.28636H8.25412H8.22175H8.18925H8.15662H8.12386H8.09097H8.05795H8.02479H7.99149H7.95806H7.9245H7.89079H7.85695H7.82296H7.78884H7.75457H7.72016H7.68561H7.65091H7.61606H7.58107H7.54593H7.51063H7.47519H7.4396H7.40386H7.36796H7.33191H7.2957H7.25934H7.22282H7.18614H7.1493H7.11231H7.07515H7.03782H7.00034H6.96269H6.92488H6.8869H6.84875H6.81043H6.77195H6.73329H6.69446H6.65547H6.61629H6.57695H6.53742H6.49773H6.45785H6.4178H6.37756H6.33715H6.29655H6.25577H6.21481H6.17367H6.13234H6.09082H6.04912H6.00722H5.96514H5.92287H5.8804H5.83775H5.7949H5.75185H5.70861H5.66518H5.62154H5.57771H5.53368H5.48945H5.44501H5.40038H5.35554H5.31049H5.26524H5.21979H5.17412H5.12825H5.08217H5.03588H4.98937H4.94266H4.89573H4.84858H4.80122H4.75364H4.70585H4.65784H4.6096H4.56115H4.51248H4.46358H4.41446H4.36511H4.31554H4.26575H4.21572H4.16547H4.11498H4.06427H4.06189Z" stroke="#1F3B73" stroke-width="2"/>
<path d="M12 19C12 20.1046 11.1046 21 10 21C8.89543 21 8 20.1046 8 19" stroke="#1F3B73" stroke-width="2"/>
<line x1="12.001" y1="12" x2="12.001" y2="19" stroke="#1F3B73" stroke-width="2"/>
</svg>
