<svg width="25" height="25" viewBox="0 0 25 25" fill="none" xmlns="http://www.w3.org/2000/svg">
<path fill-rule="evenodd" clip-rule="evenodd" d="M9.5089 3.38338C9.45113 2.88604 9.02846 2.5 8.51562 2.5C7.96334 2.5 7.51562 2.94772 7.51562 3.5V5.5L7.52235 5.61662C7.58012 6.11396 8.00279 6.5 8.51562 6.5C9.06791 6.5 9.51562 6.05228 9.51562 5.5V3.5L9.5089 3.38338ZM20.2227 4.79289C18.4515 3.02166 15.5798 3.02166 13.8085 4.79289L13.3085 5.29289L13.2253 5.3871C12.9203 5.77939 12.948 6.34662 13.3085 6.70711C13.699 7.09763 14.3322 7.09763 14.7227 6.70711L15.2227 6.20711L15.3553 6.08357C16.3514 5.21879 17.8614 5.25997 18.8085 6.20711C19.7987 7.19729 19.7987 8.80271 18.8085 9.79289L14.8085 13.7929L14.6604 13.9325C14.2021 14.3314 13.6203 14.5505 13.0156 14.5505C12.3437 14.5505 11.7001 14.2801 11.2299 13.8001C10.8434 13.4057 10.2103 13.3992 9.81577 13.7857C9.42128 14.1722 9.41482 14.8054 9.80134 15.1999C10.6477 16.0637 11.8062 16.5505 13.0156 16.5505C14.225 16.5505 15.3835 16.0637 16.2299 15.1999L20.2227 11.2071L20.3836 11.0379C21.9922 9.25746 21.9386 6.50878 20.2227 4.79289ZM15.2299 9.80015C14.3835 8.93629 13.225 8.44949 12.0156 8.44949C10.8062 8.44949 9.64774 8.93629 8.80134 9.80015L4.80852 13.7929L4.64765 13.9621C3.03901 15.7425 3.09263 18.4912 4.80852 20.2071C6.57975 21.9783 9.4515 21.9783 11.2227 20.2071L11.7227 19.7071L11.8059 19.6129C12.1109 19.2206 12.0832 18.6534 11.7227 18.2929C11.3322 17.9024 10.699 17.9024 10.3085 18.2929L9.80852 18.7929L9.67598 18.9164C8.67989 19.7812 7.16987 19.74 6.22273 18.7929C5.23254 17.8027 5.23254 16.1973 6.22273 15.2071L10.2227 11.2071L10.3708 11.0675C10.8291 10.6686 11.4109 10.4495 12.0156 10.4495C12.6875 10.4495 13.3311 10.7199 13.8013 11.1999C14.1879 11.5943 14.821 11.6008 15.2155 11.2143C15.61 10.8278 15.6164 10.1946 15.2299 9.80015ZM16.5156 18.5C17.0285 18.5 17.4511 18.886 17.5089 19.3834L17.5156 19.5V21.5C17.5156 22.0523 17.0679 22.5 16.5156 22.5C16.0028 22.5 15.5801 22.114 15.5224 21.6166L15.5156 21.5V19.5C15.5156 18.9477 15.9633 18.5 16.5156 18.5ZM22.5156 16.5C22.5156 15.9477 22.0679 15.5 21.5156 15.5H19.5156L19.399 15.5067C18.9017 15.5645 18.5156 15.9872 18.5156 16.5C18.5156 17.0523 18.9633 17.5 19.5156 17.5H21.5156L21.6322 17.4933C22.1296 17.4355 22.5156 17.0128 22.5156 16.5ZM5.51562 7.5C6.06791 7.5 6.51562 7.94772 6.51562 8.5C6.51562 9.01284 6.12958 9.43551 5.63225 9.49327L5.51562 9.5H3.51562C2.96334 9.5 2.51562 9.05228 2.51562 8.5C2.51562 7.98716 2.90167 7.56449 3.399 7.50673L3.51562 7.5H5.51562Z" fill="black"/>
</svg>
