<svg width="48" height="48" viewBox="0 0 48 48" fill="none" xmlns="http://www.w3.org/2000/svg">
<circle cx="24" cy="24" r="24" fill="#117ACA"/>
<path d="M19.4467 8C18.8225 8 18.317 8.50578 18.317 9.12939V17.0505H39.2347L29.7088 8.00076L19.4467 8ZM40 19.4468C40.0004 19.2983 39.9714 19.1513 39.9147 19.0141C39.858 18.8769 39.7748 18.7523 39.6698 18.6474C39.5648 18.5425 39.4401 18.4594 39.3029 18.4029C39.1657 18.3464 39.0186 18.3176 38.8702 18.3181H30.9535V39.2424L39.9963 29.7095L40 19.4468ZM28.555 40C29.1777 40 29.6833 39.4935 29.6833 38.8685V30.9503H8.76487L18.2922 39.9985L28.555 39.9997V40ZM8.00029 28.5547C8.00029 29.1791 8.50587 29.6878 9.13152 29.6878H17.0467V8.76193L8.00175 18.2919L8 28.5547" fill="white"/>
</svg>
