<svg width="16" height="21" viewBox="0 0 16 21" fill="none" xmlns="http://www.w3.org/2000/svg">
<path fill-rule="evenodd" clip-rule="evenodd" d="M15 21H14C13.4477 21 13 20.5523 13 20V17C13 16.4477 13.4477 16 14 16V15H10C9.44771 15 9 14.5523 9 14C9 9.99999 9.36 5.99999 14.31 1.26999C14.5979 0.993892 15.0223 0.915292 15.39 1.06999C15.7629 1.2279 16.0037 1.59508 16 1.99999V20C16 20.5523 15.5523 21 15 21ZM11 13H14V4.51999C11.9652 6.86651 10.8935 9.89594 11 13ZM4 21C3.44772 21 3 20.5523 3 20V9.86999C1.235 9.41427 0.0013597 7.82287 0 5.99999V2.99999C0 2.44771 0.447715 1.99999 1 1.99999C1.55228 1.99999 2 2.44771 2 2.99999V5.99999C2.00073 6.71379 2.38183 7.37309 3 7.72999V2.99999C3 2.44771 3.44772 1.99999 4 1.99999C4.55228 1.99999 5 2.44771 5 2.99999V7.72999C5.61817 7.37309 5.99927 6.71379 6 5.99999V2.99999C6 2.44771 6.44772 1.99999 7 1.99999C7.55228 1.99999 8 2.44771 8 2.99999V5.99999C7.99864 7.82287 6.765 9.41427 5 9.86999V20C5 20.5523 4.55228 21 4 21Z" fill="#36495A"/>
</svg>
