<svg width="24" height="24" viewBox="0 0 24 24" fill="none" xmlns="http://www.w3.org/2000/svg">
<path fill-rule="evenodd" clip-rule="evenodd" d="M7.47669 7.00026H5.99993L5.88331 7.00699C5.38597 7.06476 4.99993 7.48743 4.99993 8.00026L5.00666 8.11688C5.06442 8.61422 5.48709 9.00026 5.99993 9.00026H6.1559L5.2559 12.0003H4.49993C4.08308 12.0003 3.70996 12.2588 3.5636 12.6491L2.0636 16.6491C1.81844 17.3029 2.30172 18.0003 2.99993 18.0003H16.3999C17.7398 18.0008 18.9913 17.33 19.7329 16.2136L22.8325 11.5541C23.2747 10.8895 22.7982 10.0003 21.9999 10.0003H16.5351L14.832 7.44556L14.7567 7.34656C14.5681 7.1282 14.2925 7.00026 13.9999 7.00026H7.52239C7.50712 6.99991 7.49188 6.99991 7.47669 7.00026ZM15.9862 12.0003C15.996 12.0004 16.0057 12.0004 16.0155 12.0003L20.1329 12.0003L18.0673 15.1064L17.9694 15.2414C17.5916 15.7187 17.0146 16.0005 16.4003 16.0003H4.44293L5.19293 14.0003H5.97746C5.99274 14.0006 6.00798 14.0006 6.02317 14.0003H9.22993C9.86953 13.9994 10.5017 13.8764 11.0938 13.6378L14.6504 12.2191C15.009 12.0746 15.3883 12.0008 15.7713 12.0003H15.9862ZM14.2829 10.2282C14.1558 10.2679 14.03 10.3128 13.9061 10.3628L10.3494 11.7814C9.9909 11.9259 9.61157 11.9998 9.2286 12.0003L7.34396 12.0003L8.24396 9.00026H13.4639L14.2829 10.2282Z" fill="#1F3B73"/>
</svg>
