<svg width="24" height="24" viewBox="0 0 24 24" fill="none" xmlns="http://www.w3.org/2000/svg">
<path fill-rule="evenodd" clip-rule="evenodd" d="M5.07026 8.00013C6.06706 6.27696 7.68814 4.9601 9.62424 4.3588C9.07272 5.53447 8.65523 6.75562 8.37178 8.00013H5.07026ZM4.25203 10.0001H8.0335C7.88511 11.3292 7.88511 12.6711 8.0335 14.0001H4.25203C4.08751 13.3609 4 12.6907 4 12.0001C4 11.3095 4.08751 10.6394 4.25203 10.0001ZM15.6282 8.00013C15.3448 6.75562 14.9273 5.53448 14.3758 4.35881C16.3119 4.9601 17.9329 6.27696 18.9297 8.00013H15.6282ZM15.9665 10.0001C16.1149 11.3292 16.1149 12.6711 15.9665 14.0001H19.748C19.9125 13.3609 20 12.6907 20 12.0001C20 11.3095 19.9125 10.6394 19.748 10.0001H15.9665ZM13.9525 14.0001H10.0475C9.88043 12.6722 9.88043 11.328 10.0475 10.0001H13.9525C14.1196 11.328 14.1196 12.6722 13.9525 14.0001ZM13.5702 16.0001C13.224 17.3418 12.7006 18.6487 12 19.8852C11.2994 18.6487 10.776 17.3418 10.4298 16.0001H13.5702ZM14.3758 19.6415C14.9273 18.4658 15.3448 17.2446 15.6282 16.0001H18.9297C17.9329 17.7233 16.3119 19.0402 14.3758 19.6415ZM12.7265 21.9741C17.9102 21.602 22 17.2787 22 12.0001C22 6.72159 17.9102 2.39828 12.7265 2.02612C12.6135 1.99984 12.4959 1.99311 12.3794 2.0072C12.2535 2.0025 12.127 2.00013 12 2.00013C11.873 2.00013 11.7465 2.0025 11.6206 2.0072C11.5041 1.99311 11.3865 1.99984 11.2735 2.02612C6.08981 2.39828 2 6.72159 2 12.0001C2 17.2787 6.08981 21.602 11.2735 21.9741C11.3865 22.0004 11.5041 22.0072 11.6206 21.9931C11.7465 21.9978 11.873 22.0001 12 22.0001C12.127 22.0001 12.2535 21.9978 12.3794 21.9931C12.4959 22.0072 12.6135 22.0004 12.7265 21.9741ZM12 4.11507C11.2994 5.35153 10.776 6.65842 10.4298 8.00013H13.5702C13.224 6.65842 12.7006 5.35153 12 4.11507ZM5.07026 16.0001H8.37178C8.65523 17.2446 9.07272 18.4658 9.62424 19.6415C7.68814 19.0402 6.06706 17.7233 5.07026 16.0001Z" fill="#36495A"/>
</svg>
