<?xml version="1.0" encoding="UTF-8"?>
<svg width="320px" height="120px" viewBox="0 0 320 120" version="1.1" xmlns="http://www.w3.org/2000/svg" xmlns:xlink="http://www.w3.org/1999/xlink">
    <title>Image-default</title>
    <g id="Image-default" stroke="none" stroke-width="1" fill="none" fill-rule="evenodd">
        <rect id="Rectangle" fill="#FFFFFF" fill-rule="nonzero" x="0" y="0" width="320" height="120"></rect>
        <polygon id="Rectangle" fill="#ECECEC" points="125.31948 3.85281374 215.852814 94.3861471 194.386147 115.852814 103.852814 25.3194804"></polygon>
        <polygon id="Rectangle" fill="#ECECEC" points="194.386147 3.85281374 103.852814 94.3861471 125.31948 115.852814 215.852814 25.3194804"></polygon>
        <path d="M160,45 C168.284091,45 175,51.7159091 175,60 C175,68.284091 168.284091,75 160,75 C151.715909,75 145,68.284091 145,60 C145,51.7159091 151.715909,45 160,45 Z M160,47.7272727 C153.215909,47.7272727 147.727273,53.2159091 147.727273,60 C147.727273,66.784091 153.215909,72.2727273 160,72.2727273 C166.784091,72.2727273 172.272727,66.784091 172.272727,60 C172.272727,53.2159091 166.784091,47.7272727 160,47.7272727 Z M160,64.534091 C160.941394,64.534091 161.704545,65.2972419 161.704545,66.2386364 C161.704545,67.1800308 160.941394,67.9431818 160,67.9431818 C159.058606,67.9431818 158.295455,67.1800308 158.295455,66.2386364 C158.295455,65.2972419 159.058606,64.534091 160,64.534091 Z M160,52.5 C160.75,52.5 161.363636,53.1136364 161.363636,53.8636364 L161.363636,53.8636364 L161.363636,61.7045454 C161.363636,62.4545454 160.75,63.0681818 160,63.0681818 C159.25,63.0681818 158.636364,62.4545454 158.636364,61.7045454 L158.636364,61.7045454 L158.636364,53.8636364 C158.636364,53.1136364 159.25,52.5 160,52.5 Z" id="Combined-Shape-Copy-2" fill="#FFFFFF" fill-rule="nonzero"></path>
    </g>
</svg>