<?xml version="1.0" encoding="UTF-8"?>
<svg width="30px" height="30px" viewBox="0 0 30 30" version="1.1" xmlns="http://www.w3.org/2000/svg" xmlns:xlink="http://www.w3.org/1999/xlink">
    <title>smiley</title>
    <g id="Rating" stroke="none" stroke-width="1" fill="none" fill-rule="evenodd">
        <g id="RTG-2-6" transform="translate(-145.000000, -58.000000)" fill="#616266">
            <g id="Shape" transform="translate(145.000000, 58.000000)">
                <path d="M15,0 C6.71572875,0 0,6.71572875 0,15 C0,23.2842712 6.71572875,30 15,30 C23.2842712,30 30,23.2842712 30,15 C30,11.0217527 28.4196474,7.20644396 25.6066017,4.39339828 C22.793556,1.58035261 18.9782473,0 15,0 Z M15,28.75 C7.40608469,28.75 1.25,22.5939153 1.25,15 C1.25,7.40608469 7.40608469,1.25 15,1.25 C22.5939153,1.25 28.75,7.40608469 28.75,15 C28.75,22.5939153 22.5939153,28.75 15,28.75 Z M21.73125,20.2 C21.8375368,20.3275516 21.8887038,20.4921523 21.8734606,20.6574822 C21.8582174,20.822812 21.777817,20.9752824 21.65,21.08125 C19.20625,23.125 16.9125,23.8125 14.9375,23.8125 C12.4543377,23.7427976 10.0860108,22.7513532 8.29375,21.03125 C8.05557721,20.780996 8.06537098,20.3850478 8.31562501,20.146875 C8.56587903,19.9087022 8.9618272,19.918496 9.2,20.16875 C9.4125,20.3875 14.41875,25.49375 20.84375,20.11875 C20.9716476,20.0104913 21.1376596,19.9581234 21.3045259,19.9733999 C21.4713922,19.9886764 21.6251358,20.0703177 21.73125,20.2 Z M8.75,11.25 C8.75,10.2144661 9.58946609,9.375 10.625,9.375 C11.6605339,9.375 12.5,10.2144661 12.5,11.25 C12.5,12.2855339 11.6605339,13.125 10.625,13.125 C9.58946609,13.125 8.75,12.2855339 8.75,11.25 Z M17.5,11.25 C17.5,10.2144661 18.3394661,9.375 19.375,9.375 C20.4105339,9.375 21.25,10.2144661 21.25,11.25 C21.25,12.2855339 20.4105339,13.125 19.375,13.125 C18.3394661,13.125 17.5,12.2855339 17.5,11.25 Z"></path>
            </g>
        </g>
    </g>
</svg>