<?xml version="1.0" encoding="UTF-8"?>
<svg width="16px" height="16px" viewBox="0 0 16 16" version="1.1" xmlns="http://www.w3.org/2000/svg" xmlns:xlink="http://www.w3.org/1999/xlink">
    <title>Components/Disclaimer</title>
    <g id="Page-1" stroke="none" stroke-width="1" fill="none" fill-rule="evenodd">
        <g id="Active-budget-Edit-amount" transform="translate(-309.000000, -96.000000)" fill="#2C375F">
            <g id="Disclaimer" transform="translate(194.000000, 96.000000)">
                <g id="Combined-Shape" transform="translate(115.000000, 0.000000)">
                    <path d="M8,0 C12.418278,0 16,3.581722 16,8 C16,12.418278 12.418278,16 8,16 C3.581722,16 0,12.418278 0,8 C0,3.581722 3.581722,0 8,0 Z M8,1 C4.13400675,1 1,4.13400675 1,8 C1,11.8659932 4.13400675,15 8,15 C11.8659932,15 15,11.8659932 15,8 C15,4.13400675 11.8659932,1 8,1 Z M7.70981641,10.0771484 C8.24692578,10.0771484 8.24692578,10.0771484 8.5342793,10.3483887 C8.82163281,10.6196289 8.82163281,10.6196289 8.82163281,11.1083984 C8.82163281,11.597168 8.82163281,11.597168 8.52353711,11.8657227 C8.22544141,12.1342773 8.22544141,12.1342773 7.70981641,12.1342773 C7.17807812,12.1342773 7.17807812,12.1342773 6.87729687,11.8684082 C6.57651562,11.6025391 6.57651562,11.6025391 6.57651562,11.1083984 C6.57651562,10.6142578 6.57651562,10.6142578 6.86386914,10.3457031 C7.15122266,10.0771484 7.15122266,10.0771484 7.70981641,10.0771484 Z M8.01596875,4.03466797 C9.21372266,4.03466797 9.21372266,4.03466797 9.89585156,4.56103516 C10.5779805,5.08740234 10.5779805,5.08740234 10.5779805,5.99511719 C10.5779805,6.64501953 10.5779805,6.64501953 10.2745137,7.12036133 C9.97104687,7.59570312 9.97104687,7.59570312 9.30503125,8.02001953 C8.74106641,8.38525391 8.74106641,8.38525391 8.59873242,8.55444336 C8.45639844,8.72363281 8.45639844,8.72363281 8.45639844,8.95458984 L8.45639844,8.95458984 L8.45639844,9.22851562 L6.80747266,9.22851562 L6.80747266,8.76660156 L6.81344054,8.59569634 C6.84327995,8.17980957 6.84327995,8.17980957 7.02231641,7.87768555 C7.23716016,7.51513672 7.23716016,7.51513672 7.78501172,7.17138672 C8.22007031,6.89746094 8.22007031,6.89746094 8.41074414,6.67724609 C8.60141797,6.45703125 8.60141797,6.45703125 8.60141797,6.17236328 C8.60141797,5.94677734 8.60141797,5.94677734 8.39731641,5.81518555 C8.19321484,5.68359375 8.19321484,5.68359375 7.86557812,5.68359375 C7.05454297,5.68359375 7.05454297,5.68359375 5.96958203,6.25830078 L5.96958203,6.25830078 L5.223,4.79736328 L5.49166211,4.65245117 C6.70595898,4.03466797 6.70595898,4.03466797 8.01596875,4.03466797 Z"></path>
                </g>
            </g>
        </g>
    </g>
</svg>