<?xml version="1.0" encoding="UTF-8"?>
<svg width="15px" height="15px" viewBox="0 0 15 15" version="1.1" xmlns="http://www.w3.org/2000/svg" xmlns:xlink="http://www.w3.org/1999/xlink">
    <title>Components/Info</title>
    <g id="Page-1" stroke="none" stroke-width="1" fill="none" fill-rule="evenodd" opacity="0.8">
        <g id="Budgets---all-types-order-of-appearance" transform="translate(-56.000000, -251.000000)" fill="#2C375F">
            <g id="Components/Info" transform="translate(56.808000, 251.808000)">
                <path d="M7,0.9 C10.368937,0.9 13.1,3.63106303 13.1,7 C13.1,10.368937 10.368937,13.1 7,13.1 C3.63106303,13.1 0.9,10.368937 0.9,7 C0.9,3.63106303 3.63106303,0.9 7,0.9 M7,0 C3.13400675,0 5.32907052e-15,3.13400675 5.32907052e-15,7 C5.32907052e-15,10.8659932 3.13400675,14 7,14 C10.8659932,14 14,10.8659932 14,7 C14,5.14348457 13.2625021,3.36300718 11.9497475,2.05025253 C10.6369928,0.737497883 8.85651543,0 7,0 Z M5.984,9.71 L6.323,9.71 L6.323,6.323 L5.984,6.323 C5.79677547,6.323 5.645,6.17122453 5.645,5.984 L5.645,5.758 C5.645,5.66809161 5.68071597,5.58186563 5.7442908,5.5182908 C5.80786563,5.45471597 5.89409161,5.419 5.984,5.419 L7.339,5.419 C7.52622453,5.419 7.678,5.57077547 7.678,5.758 L7.678,9.71 L8.017,9.71 C8.20422453,9.71 8.356,9.86177547 8.356,10.049 L8.356,10.275 C8.356,10.4622245 8.20422453,10.614 8.017,10.614 L5.984,10.614 C5.79677547,10.614 5.645,10.4622245 5.645,10.275 L5.645,10.049 C5.645,9.86177547 5.79677547,9.71 5.984,9.71 L5.984,9.71 Z M7,2.935 C6.50294373,2.935 6.1,3.33794373 6.1,3.835 C6.1,4.33205627 6.50294373,4.735 7,4.735 C7.49705627,4.735 7.9,4.33205627 7.9,3.835 C7.9,3.59630516 7.80517884,3.36738664 7.6363961,3.1986039 C7.46761336,3.02982116 7.23869484,2.935 7,2.935 L7,2.935 Z" id="info-circle"></path>
            </g>
        </g>
    </g>
</svg>