<?xml version="1.0" encoding="UTF-8"?>
<svg width="14px" height="14px" viewBox="0 0 14 14" version="1.1" xmlns="http://www.w3.org/2000/svg" xmlns:xlink="http://www.w3.org/1999/xlink">
    <title>Components/pen</title>
    <g id="Symbols" stroke="none" stroke-width="1" fill="none" fill-rule="evenodd">
        <g id="Recommended-budget-placeholder-text" transform="translate(-243.000000, -100.000000)" fill="#000000">
            <g id="Components/pen" transform="translate(243.000924, 99.999362)">
                <path d="M7.8330687,3.1059329 L10.8967256,6.1684329 L4.24421343,12.8184329 L1.51230677,13.1185579 C1.33890103,13.1377178 1.16618592,13.0770333 1.04290795,12.9536317 C0.919629971,12.83023 0.85916095,12.6574965 0.878567449,12.4841829 L1.18230715,9.7515579 L7.83481936,3.1015579 L7.8330687,3.1059329 Z M12.788315,2.6500579 L11.3536482,1.2115579 C11.138106,0.996065214 10.845749,0.875 10.5409038,0.875 C10.2360585,0.875 9.94370149,0.996065214 9.72815934,1.2115579 L8.37489831,2.5643079 L11.4385552,5.6268079 L12.788315,4.2740579 C13.0038891,4.05859715 13.125,3.76635049 13.125,3.4616204 C13.125,3.1568903 13.0038891,2.86464365 12.788315,2.6491829 L12.788315,2.6500579 Z" id="pen"></path>
            </g>
        </g>
    </g>
</svg>