<?xml version="1.0" encoding="UTF-8"?>
<svg width="20px" height="20px" viewBox="0 0 20 20" version="1.1" xmlns="http://www.w3.org/2000/svg" xmlns:xlink="http://www.w3.org/1999/xlink">
    <title>Components/stop</title>
    <g id="Symbols" stroke="none" stroke-width="1" fill="none" fill-rule="evenodd">
        <g id="Your-budgets-active-2" transform="translate(-243.000000, -55.000000)" fill="#000000">
            <g id="Combined-Shape" transform="translate(243.000924, 54.999362)">
                <path d="M10,0 C15.5228475,0 20,4.4771525 20,10 C20,15.5228475 15.5228475,20 10,20 C4.4771525,20 0,15.5228475 0,10 C0,4.4771525 4.4771525,0 10,0 Z M10,1 C5.02943725,1 1,5.02943725 1,10 C1,14.9705627 5.02943725,19 10,19 C14.9705627,19 19,14.9705627 19,10 C19,5.02943725 14.9705627,1 10,1 Z M13.546,5.455 C14.0982847,5.455 14.546,5.90271525 14.546,6.455 L14.546,13.546 C14.546,14.0982847 14.0982847,14.546 13.546,14.546 L6.455,14.546 C5.90271525,14.546 5.455,14.0982847 5.455,13.546 L5.455,6.455 C5.455,5.90271525 5.90271525,5.455 6.455,5.455 L13.546,5.455 Z"></path>
            </g>
        </g>
    </g>
</svg>